<?xml version="1.0" encoding="UTF-8"?>
<svg xmlns="http://www.w3.org/2000/svg" fill="none" height="26" viewBox="0 0 87 26" width="87"><link xmlns="" type="text/css" rel="stylesheet" id="dark-mode-custom-link"/><link xmlns="" type="text/css" rel="stylesheet" id="dark-mode-general-link"/><style xmlns="" lang="en" type="text/css" id="dark-mode-custom-style"/><style xmlns="" lang="en" type="text/css" id="dark-mode-native-style"/><style xmlns="" lang="en" type="text/css" id="dark-mode-native-sheet"/>
<path d="M15.8164 13.7816C16.1011 13.8773 16.4324 14.0196 16.8103 14.2086C17.4729 14.589 18.0398 15.1092 18.5158 15.7718C19.0852 16.719 19.3674 17.8552 19.3674 19.1804C19.3674 23.7276 16.6189 26 11.1269 26H0.474113C0.18945 26 0.0471191 25.8577 0.0471191 25.573V3.69325C0.0471191 3.40859 0.18945 3.26626 0.474113 3.26626H11.6987C13.6888 3.26626 15.2962 3.8135 16.5281 4.90061C17.7575 5.99018 18.376 7.43558 18.376 9.23435C18.376 10.2773 18.1379 11.2 17.6667 12.0049C17.1907 12.8123 16.5747 13.4037 15.8164 13.7816ZM10.987 22.7313C12.5968 22.7313 13.7796 22.4712 14.5379 21.9509C15.2937 21.4307 15.6741 20.5301 15.6741 19.2515C15.6741 17.973 15.2937 17.0748 14.5379 16.5521C13.7796 16.0319 12.5944 15.7718 10.987 15.7718H4.3097C3.92933 15.7718 3.74037 15.9141 3.74037 16.1988V22.3092C3.74037 22.5939 3.92933 22.7362 4.3097 22.7362H10.987V22.7313ZM4.3097 6.53497C4.02503 6.53497 3.8827 6.6773 3.8827 6.96196V12.0761C3.8827 12.3607 4.02503 12.5031 4.3097 12.5031H10.8447C13.306 12.5031 14.5379 11.5092 14.5379 9.51902C14.5379 7.52883 13.306 6.53497 10.8447 6.53497H4.3097ZM38.8348 13.7816C39.1195 13.8773 39.4042 14.0196 39.6864 14.2086C40.4422 14.589 41.0115 15.1092 41.3919 15.7718C42.0545 16.719 42.3858 17.8552 42.3858 19.1804C42.3858 23.7276 39.6373 26 34.1453 26H23.4901C23.2054 26 23.0631 25.8577 23.0631 25.573V3.69325C23.0631 3.40859 23.2054 3.26626 23.4901 3.26626H34.7146C36.6091 3.26626 38.1944 3.8135 39.4753 4.90061C40.7539 5.99018 41.3944 7.43558 41.3944 9.23435C41.3944 10.2773 41.1563 11.2 40.6852 12.0049C40.2066 12.8123 39.5907 13.4037 38.8348 13.7816ZM27.1833 6.53497C26.8987 6.53497 26.7563 6.6773 26.7563 6.96196V12.0761C26.7563 12.3607 26.8987 12.5031 27.1833 12.5031H33.8606C36.322 12.5031 37.5539 11.5092 37.5539 9.51902C37.5539 7.52883 36.322 6.53497 33.8606 6.53497H27.1833ZM34.0029 22.7313C35.6128 22.7313 36.7956 22.4712 37.5539 21.9509C38.3097 21.4307 38.6901 20.5301 38.6901 19.2515C38.6901 17.973 38.3097 17.0748 37.5539 16.5521C36.7956 16.0319 35.6103 15.7718 34.0029 15.7718H27.1833C26.8987 15.7718 26.7563 15.9141 26.7563 16.1988V22.3092C26.7563 22.5939 26.8987 22.7362 27.1833 22.7362H34.0029V22.7313ZM62.7023 3.55092C62.7956 3.36196 62.8913 3.26626 62.987 3.26626H66.6802C66.7735 3.26626 66.8692 3.31534 66.9649 3.40859C67.0582 3.50429 67.0582 3.6 66.9649 3.69325L55.1735 25.8577C55.0778 25.9534 54.96 26 54.8177 26C54.6753 26 54.5551 25.9534 54.4618 25.8577L42.6704 3.69325C42.5747 3.6 42.5502 3.50429 42.5993 3.40859C42.6459 3.31534 42.7637 3.26626 42.9551 3.26626H46.506C46.695 3.26626 46.8373 3.36196 46.933 3.55092L54.4618 17.7595C54.4618 17.8552 54.5551 17.9018 54.7465 17.9018C54.9355 17.9018 55.0778 17.8552 55.1735 17.7595L62.7023 3.55092ZM66.9649 22.4491C66.8692 22.6405 66.7269 22.7337 66.5379 22.7337H62.8447C62.749 22.7337 62.6778 22.6871 62.6312 22.5914C62.5821 22.4982 62.56 22.4025 62.56 22.3067L74.3539 0.142331C74.4471 0.0490798 74.5894 0 74.7809 0C74.9698 0 75.1122 0.0490798 75.2079 0.142331L86.9968 22.3067C86.9968 22.4025 86.9723 22.4982 86.9256 22.5914C86.8766 22.6871 86.8054 22.7337 86.7122 22.7337H83.0189C82.8275 22.7337 82.6852 22.6405 82.5919 22.4491L75.2029 8.24049C75.1072 8.05153 74.9649 7.95583 74.7759 7.95583C74.5845 7.95583 74.4422 8.05153 74.349 8.24049L66.9649 22.4491Z" fill="#A4ABB6"/>
</svg>