<?xml version="1.0" encoding="UTF-8"?>
<svg xmlns="http://www.w3.org/2000/svg" fill="none" height="26" viewBox="0 0 134 26" width="134"><link xmlns="" type="text/css" rel="stylesheet" id="dark-mode-custom-link"/><link xmlns="" type="text/css" rel="stylesheet" id="dark-mode-general-link"/><style xmlns="" lang="en" type="text/css" id="dark-mode-custom-style"/><style xmlns="" lang="en" type="text/css" id="dark-mode-native-style"/><style xmlns="" lang="en" type="text/css" id="dark-mode-native-sheet"/>
<path d="M34.2135 0.000335323C34.2135 6.04136 34.2146 12.0813 34.2135 18.1223H37.5724C37.5618 12.0825 37.5618 6.04136 37.5724 0.000335323C36.4527 -0.000826306 35.3332 0.00149705 34.2135 0.000335323ZM55.1682 0.000335323C55.1819 3.98896 55.169 7.97756 55.1732 11.9674C55.1732 13.0232 55.151 14.1037 55.4612 15.1247C55.6505 15.817 55.9921 16.4777 56.5137 16.9783C57.5776 18.1049 59.2248 18.3905 60.7104 18.3684C61.6814 18.3498 62.8242 18.073 63.3074 17.138C63.3784 16.4225 63.3118 15.6956 63.3363 14.9755C62.5047 15.3019 61.6005 15.3929 60.7131 15.3603C60.0324 15.3278 59.306 15.0404 58.9354 14.4388C58.5742 13.8847 58.4992 13.2008 58.527 12.5538C58.5305 10.5421 58.5273 8.53243 58.5296 6.52185C59.5262 6.52185 60.5243 6.52099 61.5221 6.52447C62.1028 6.53724 62.7095 6.30927 63.0824 5.85164C63.5981 5.2128 63.3202 4.35076 63.3887 3.60275C61.7672 3.60391 60.1459 3.60275 58.5244 3.60275C58.53 2.40175 58.5263 1.20134 58.5295 0.000337361C57.4086 0.00266072 56.2879 -0.000826306 55.1682 0.000335323ZM4.23963 0.139091C2.32931 0.135363 0.791687 1.67672 0.791687 3.58704V26H23.2308C25.1412 26 26.6788 24.4624 26.6788 22.5521V0.139091H4.23963ZM93.4647 3.40639C91.5431 3.2659 89.5069 3.7859 88.069 5.11597C86.5997 6.44706 85.8644 8.42919 85.7599 10.3782C85.7508 11.2238 85.7138 12.0837 85.9484 12.9072C86.3863 14.7691 87.7005 16.3658 89.3754 17.2636C90.0479 17.6434 90.7961 17.851 91.5431 18.0333C93.405 18.2889 95.4505 18.0656 96.986 16.8971C96.983 16.1177 96.981 15.3412 96.9886 14.5618C95.8562 15.0938 94.5947 15.305 93.3496 15.2608C92.0312 15.2713 90.8194 14.4543 90.1503 13.3497C89.6253 12.4971 89.4783 11.476 89.4566 10.4934C89.4971 9.27033 89.9711 8.0313 90.9096 7.21825C91.7784 6.43655 93.0046 6.11313 94.1533 6.26528C95.1278 6.32336 96.096 6.54179 96.9834 6.95644C96.9748 6.17358 97.0072 5.38861 96.9677 4.60807C95.9908 3.79966 94.6994 3.51208 93.4647 3.40639ZM127.601 3.41948C127.248 3.40809 126.895 3.42626 126.546 3.47446C125.133 3.59526 123.695 4.11773 122.703 5.16309C121.591 6.22355 121.051 7.73808 120.805 9.22366C120.569 10.5292 120.694 11.8612 120.663 13.1795C120.661 15.2714 120.665 17.3619 120.658 19.4549C120.605 20.3783 121.198 21.2885 122.046 21.6462C122.695 21.9424 123.423 21.7979 124.112 21.8373C124.12 20.0207 124.119 18.2047 124.109 16.3892C124.384 16.7063 124.609 17.075 124.96 17.3212C125.951 18.1447 127.338 18.3134 128.573 18.0962C129.797 17.9452 130.959 17.3487 131.795 16.4416C133.299 14.7818 133.738 12.435 133.701 10.263C133.643 7.96903 132.538 5.64226 130.594 4.36459C129.717 3.76003 128.662 3.45368 127.601 3.41948ZM104.659 3.44828C104.239 3.44644 103.817 3.48332 103.405 3.55824C101.718 3.79402 100.151 4.7904 99.2453 6.23648C98.0664 8.01592 97.7886 10.2359 97.9965 12.3208C98.2323 14.07 99.0545 15.8163 100.499 16.8814C101.627 17.7711 103.09 18.1065 104.502 18.1171C105.672 18.0521 106.868 17.8278 107.887 17.2191C109.303 16.4096 110.267 14.962 110.704 13.4125C111.104 12.0187 111.163 10.5319 110.94 9.10323C110.643 7.31566 109.714 5.59639 108.223 4.53476C107.185 3.80811 105.922 3.4538 104.659 3.44828ZM83.134 3.59751C81.9945 3.65326 80.8082 3.92434 79.9138 4.67352C78.6605 5.66313 78.1396 7.30214 78.0838 8.84928C78.0524 11.9366 78.1005 15.0246 78.0605 18.1119C79.1999 18.1377 80.339 18.1144 81.4796 18.1224C81.4634 15.2186 81.4781 12.3148 81.4715 9.41217C81.4877 8.53407 81.7379 7.55794 82.4847 7.01667C83.206 6.49399 84.151 6.50086 84.9954 6.63444C84.9968 5.73775 84.9946 4.8424 84.998 3.94572C84.4161 3.68322 83.7693 3.57891 83.134 3.59751ZM46.6701 3.60798C46.2344 3.599 45.7958 3.62993 45.3689 3.69961C44.3442 3.82647 43.336 4.17157 42.4969 4.78086C41.1077 5.74027 40.3016 7.39077 40.1564 9.04825C40.085 9.97862 40.1236 10.9102 40.1145 11.8417C40.1133 13.9347 40.118 16.0281 40.1145 18.1223H43.4656C43.4586 15.4091 43.4627 12.6962 43.4604 9.98289C43.501 9.23023 43.5862 8.44728 43.9997 7.79683C44.5131 6.86995 45.641 6.40025 46.6701 6.55588C47.3763 6.643 48.1145 6.91238 48.5629 7.49314C49.1588 8.26903 49.3106 9.27538 49.3247 10.229C49.3236 12.8598 49.3221 15.4904 49.3221 18.1223H52.6941C52.6708 15.876 52.6903 13.6287 52.6835 11.3835C52.6802 9.9328 52.7248 8.42305 52.1313 7.0664C51.7689 6.15578 51.1182 5.39008 50.3562 4.7861C49.29 4.02211 47.9795 3.63499 46.6701 3.60798ZM70.8554 3.60798C69.9639 3.5783 69.0667 3.75418 68.2164 4.01639C66.3429 4.6471 64.8628 6.21768 64.2344 8.07958C63.6049 9.93451 63.4723 12.0169 64.1402 13.8811C64.8545 15.8313 66.5168 17.3863 68.4914 18.0124C69.9107 18.5049 71.4421 18.4062 72.908 18.2192C73.6084 18.081 74.3314 17.8917 74.8924 17.4259C74.8859 16.6048 74.8869 15.7836 74.8924 14.9624C74.1351 15.3468 73.2966 15.5304 72.4603 15.6326C71.2279 15.7487 69.9073 15.689 68.8317 15.0095C67.942 14.4729 67.2509 13.5215 67.2033 12.4622C68.6343 12.4668 70.0656 12.4789 71.4942 12.415C72.7127 12.2896 73.9949 12.2062 75.0809 11.5825C75.7697 11.2283 76.2212 10.5046 76.3245 9.74727C76.479 8.65545 76.2632 7.5263 75.78 6.54018C74.9936 5.01512 73.4271 3.96678 71.743 3.71009C71.4488 3.65027 71.1526 3.61787 70.8554 3.60798ZM117.532 3.62107C116.314 3.70519 115.111 4.13053 114.247 5.01386C113.247 6.06387 112.808 7.54628 112.815 8.97494C112.817 12.0158 112.817 15.0579 112.812 18.0988C113.928 18.0954 115.047 18.0931 116.163 18.0988C116.16 15.2496 116.162 12.4016 116.16 9.55353C116.208 8.66613 116.373 7.65879 117.119 7.07687C117.85 6.51238 118.862 6.44689 119.737 6.6606C119.732 5.76275 119.73 4.86712 119.739 3.96927C119.427 3.80782 119.081 3.73319 118.744 3.64725C118.346 3.60398 117.938 3.59303 117.532 3.62107ZM20.6049 4.68399L20.5919 18.5884L6.86028 21.2457V7.23919L20.6049 4.68399ZM70.1224 6.38833C70.3974 6.38149 70.6753 6.40019 70.9471 6.39618C71.8414 6.45194 72.7985 6.949 73.1017 7.83872C73.2619 8.33004 73.3492 8.94314 73.01 9.38336C72.6465 9.83752 72.0366 9.95367 71.4942 10.0431C70.0504 10.237 68.5935 10.1498 67.1404 10.1661C67.2194 9.53545 67.1901 8.87239 67.486 8.29164C67.8263 7.48903 68.4913 6.82997 69.316 6.53494C69.5739 6.42692 69.8474 6.39518 70.1224 6.38833ZM104.167 6.514C105.166 6.44779 106.212 6.8535 106.793 7.69211C107.504 8.72934 107.641 10.0339 107.636 11.2605C107.617 12.3082 107.418 13.4416 106.681 14.2372C105.958 15.0084 104.79 15.1897 103.795 14.9493C102.739 14.7774 101.926 13.8846 101.646 12.881C101.325 11.7393 101.268 10.523 101.468 9.35456C101.65 8.43697 102.034 7.46865 102.856 6.94597C103.234 6.66605 103.708 6.56745 104.167 6.514ZM126.9 6.61348C127.694 6.57746 128.517 6.82045 129.075 7.39366C129.776 8.13122 130.008 9.17013 130.12 10.1504C130.228 11.3236 130.247 12.579 129.693 13.6534C129.414 14.2341 128.947 14.7252 128.363 15.0017C127.166 15.486 125.674 15.0204 124.941 13.9623C124.311 13.1051 124.106 12.0196 124.062 10.9777C124.042 9.86733 124.193 8.69315 124.829 7.75233C125.125 7.27726 125.601 6.92614 126.125 6.73915C126.373 6.66713 126.635 6.6255 126.9 6.61348Z" fill="#A4ABB6"/>
</svg>