<svg id="Capa_1" data-name="Capa 1" xmlns="http://www.w3.org/2000/svg" viewBox="0 0 127.88 27.65"><defs><style>.cls-1,.cls-2{fill:#a4abb6;}.cls-1{stroke:#a4abb6;stroke-miterlimit:10;}</style></defs><rect class="cls-1" x="0.5" y="0.63" width="0.65" height="25.56"/><path class="cls-1" d="M2.63.63V6.21H9.34s3.11,2.26-.56,4.63c0,.11-5.59,0-5.59,0l.06,4.74s3.1-.68,3.89,1.58c.06.17,4.57,9,4.57,9l10.1-.28L14.25,15.07a1.72,1.72,0,0,1-.06-1.16c.35-.93,1.63-1,2.66-1.5,1.87-1,3-3.75,2.62-6.12a6.76,6.76,0,0,0-2.79-4.37C16.73,1.87,15.83,0,2.63.63Z"/><path class="cls-2" d="M33.35,26.1V23.44a6.74,6.74,0,0,1-2.55,2.24,7.07,7.07,0,0,1-3.33.82,6.51,6.51,0,0,1-3.2-.78,4.69,4.69,0,0,1-2.06-2.21,9.86,9.86,0,0,1-.63-3.92V8.37h4.69v8.15a22.73,22.73,0,0,0,.26,4.58,2.48,2.48,0,0,0,.94,1.33,2.91,2.91,0,0,0,1.74.5,3.67,3.67,0,0,0,2.15-.66,3.39,3.39,0,0,0,1.31-1.64A19.14,19.14,0,0,0,33,15.85V8.37h4.69V26.1Z"/><path class="cls-2" d="M38,21l4.71-.72A3.39,3.39,0,0,0,44,22.4a4.13,4.13,0,0,0,2.57.71,4.64,4.64,0,0,0,2.74-.67,1.49,1.49,0,0,0,.61-1.25,1.23,1.23,0,0,0-.33-.88A3.64,3.64,0,0,0,48,19.69q-5.67-1.26-7.2-2.29a4.58,4.58,0,0,1-2.1-4,4.94,4.94,0,0,1,1.82-3.87Q42.33,8,46.15,8a9.84,9.84,0,0,1,5.41,1.19A6.06,6.06,0,0,1,54,12.66l-4.42.82a2.76,2.76,0,0,0-1.08-1.59,4,4,0,0,0-2.26-.55,5.07,5.07,0,0,0-2.66.52,1.11,1.11,0,0,0-.53,1,1,1,0,0,0,.47.85A17.66,17.66,0,0,0,47.9,15a13,13,0,0,1,5.23,2.09,4.33,4.33,0,0,1,1.47,3.49,5.36,5.36,0,0,1-2,4.19q-2,1.76-6,1.75A9.9,9.9,0,0,1,40.8,25,6.78,6.78,0,0,1,38,21Z"/><path class="cls-2" d="M60.51,1.63v9a7,7,0,0,1,8.35-2,4.77,4.77,0,0,1,2,1.54,5.49,5.49,0,0,1,.9,2.07A18.59,18.59,0,0,1,72,15.7V26.1H67.27V16.73A13.68,13.68,0,0,0,67,13.2a2.28,2.28,0,0,0-.94-1.2,3.08,3.08,0,0,0-1.69-.44,3.88,3.88,0,0,0-2.09.57,3.34,3.34,0,0,0-1.35,1.71,10.34,10.34,0,0,0-.42,3.38V26.1H55.82V1.63Z"/><path class="cls-2" d="M77.17,25.06V16.83H73.81v-1.1h8.07v1.1H78.51v8.23Z"/><path class="cls-2" d="M81.83,25.06V18.3H83v1a2.89,2.89,0,0,1,.79-.95,1.44,1.44,0,0,1,.81-.23,2.56,2.56,0,0,1,1.28.37l-.43,1.06a1.88,1.88,0,0,0-.92-.25,1.24,1.24,0,0,0-.73.23,1.2,1.2,0,0,0-.47.63,4,4,0,0,0-.21,1.33v3.54Z"/><path class="cls-2" d="M90.67,24.23a4.86,4.86,0,0,1-1.34.76,4.16,4.16,0,0,1-1.38.22,2.83,2.83,0,0,1-1.86-.54,1.72,1.72,0,0,1-.66-1.39,1.78,1.78,0,0,1,.25-.91,2,2,0,0,1,.65-.66,3.09,3.09,0,0,1,.89-.37,8.88,8.88,0,0,1,1.11-.17,12.35,12.35,0,0,0,2.23-.4c0-.16,0-.26,0-.3a1.25,1.25,0,0,0-.35-1,2.3,2.3,0,0,0-1.43-.38,2.37,2.37,0,0,0-1.3.28,1.68,1.68,0,0,0-.62,1l-1.22-.15a2.56,2.56,0,0,1,.55-1.16,2.36,2.36,0,0,1,1.1-.68A5.3,5.3,0,0,1,89,18.15a5,5,0,0,1,1.54.2,2.22,2.22,0,0,1,.87.51,1.78,1.78,0,0,1,.38.78,5.11,5.11,0,0,1,.07,1.06v1.53a13.77,13.77,0,0,0,.08,2,2.3,2.3,0,0,0,.31.81h-1.3A2.18,2.18,0,0,1,90.67,24.23Zm-.11-2.56a9.85,9.85,0,0,1-2,.43,5.74,5.74,0,0,0-1.09.23,1.16,1.16,0,0,0-.49.37A1,1,0,0,0,87.15,24a1.74,1.74,0,0,0,1.1.31A2.85,2.85,0,0,0,89.54,24a1.87,1.87,0,0,0,.82-.8,2.45,2.45,0,0,0,.2-1.14Z"/><path class="cls-2" d="M93,25.06V18.3h1.12v1a2.74,2.74,0,0,1,2.35-1.11,3.23,3.23,0,0,1,1.22.22,1.92,1.92,0,0,1,.84.57,2.29,2.29,0,0,1,.39.85A6.56,6.56,0,0,1,99,20.9v4.16H97.78V21a2.78,2.78,0,0,0-.15-1.05,1.13,1.13,0,0,0-.51-.55,1.76,1.76,0,0,0-.88-.21,2.11,2.11,0,0,0-1.37.47,2.15,2.15,0,0,0-.58,1.76v3.69Z"/><path class="cls-2" d="M99.72,23l1.23-.18a1.57,1.57,0,0,0,.58,1.05,2.17,2.17,0,0,0,1.33.36,2.11,2.11,0,0,0,1.28-.32.93.93,0,0,0,.42-.75.71.71,0,0,0-.37-.62,5.65,5.65,0,0,0-1.28-.38,13.65,13.65,0,0,1-1.9-.55,1.78,1.78,0,0,1-.81-.65,1.59,1.59,0,0,1-.27-.9,1.65,1.65,0,0,1,.22-.84,1.9,1.9,0,0,1,.62-.64,2.57,2.57,0,0,1,.79-.33,3.81,3.81,0,0,1,1.08-.14,4.38,4.38,0,0,1,1.52.23,2.07,2.07,0,0,1,1,.62,2.3,2.3,0,0,1,.43,1.05l-1.22.15a1.26,1.26,0,0,0-.48-.82,1.92,1.92,0,0,0-1.13-.29,2.25,2.25,0,0,0-1.23.26.77.77,0,0,0-.37.61.55.55,0,0,0,.16.4,1,1,0,0,0,.48.31c.12,0,.49.14,1.1.29.88.22,1.5.4,1.85.53a1.89,1.89,0,0,1,.82.6,1.59,1.59,0,0,1,.3,1,1.8,1.8,0,0,1-.36,1.08,2.41,2.41,0,0,1-1.06.79,4.16,4.16,0,0,1-1.55.27,3.73,3.73,0,0,1-2.19-.54A2.53,2.53,0,0,1,99.72,23Z"/><path class="cls-2" d="M106.6,27.65V18.3h1.14v.88a2.74,2.74,0,0,1,.91-.77,2.6,2.6,0,0,1,1.23-.26,3.14,3.14,0,0,1,1.66.44,2.8,2.8,0,0,1,1.09,1.26,4.47,4.47,0,0,1,0,3.65,2.85,2.85,0,0,1-1.18,1.27,3.16,3.16,0,0,1-1.62.44,2.52,2.52,0,0,1-1.12-.24,2.35,2.35,0,0,1-.82-.61v3.29Zm1.13-5.93a2.75,2.75,0,0,0,.58,1.93,1.84,1.84,0,0,0,1.39.62,1.87,1.87,0,0,0,1.43-.64,2.94,2.94,0,0,0,.59-2,2.78,2.78,0,0,0-.58-1.93,1.79,1.79,0,0,0-1.38-.64,1.82,1.82,0,0,0-1.41.68A2.89,2.89,0,0,0,107.73,21.72Z"/><path class="cls-2" d="M113.32,21.68a3.35,3.35,0,0,1,1.13-2.78,3.65,3.65,0,0,1,2.32-.75,3.47,3.47,0,0,1,2.49.91,3.32,3.32,0,0,1,1,2.53,4.09,4.09,0,0,1-.43,2.05,2.85,2.85,0,0,1-1.24,1.16,3.92,3.92,0,0,1-1.78.41,3.47,3.47,0,0,1-2.5-.91A3.42,3.42,0,0,1,113.32,21.68Zm1.28,0a2.75,2.75,0,0,0,.62,1.95,2.18,2.18,0,0,0,3.1,0,2.78,2.78,0,0,0,.62-2,2.67,2.67,0,0,0-.62-1.9,2.2,2.2,0,0,0-3.1,0A2.72,2.72,0,0,0,114.6,21.68Z"/><path class="cls-2" d="M121,25.06V18.3h1.12v1a2.78,2.78,0,0,1,.8-.95,1.41,1.41,0,0,1,.8-.23,2.53,2.53,0,0,1,1.28.37l-.43,1.06a1.84,1.84,0,0,0-.91-.25,1.27,1.27,0,0,0-.74.23,1.19,1.19,0,0,0-.46.63,4,4,0,0,0-.21,1.33v3.54Z"/><path class="cls-2" d="M127.7,24l.18,1a4.88,4.88,0,0,1-.95.1,2.3,2.3,0,0,1-1.05-.2,1.12,1.12,0,0,1-.53-.52,3.8,3.8,0,0,1-.15-1.35V19.19h-.92V18.3h.92V16.63l1.24-.69V18.3h1.26v.89h-1.26v3.95a1.64,1.64,0,0,0,.07.63.47.47,0,0,0,.21.23,1,1,0,0,0,.43.08A4.27,4.27,0,0,0,127.7,24Z"/></svg>