<svg id="Capa_1" data-name="Capa 1" xmlns="http://www.w3.org/2000/svg" viewBox="0 0 134.85 36"><defs><style>.cls-1{fill:#a4abb6;}</style></defs><path class="cls-1" d="M15.72,16.32c0,3.09-2.11,6.52-7.78,6.52-3.37,0-6.87-1.51-7.94-5l3.12-1c.31,1.45,2,3,4.88,3,2.4,0,4.51-1,4.51-3.31,0-3-2.68-3.12-6.18-4C1.89,11.53.88,9.2.88,6.33.88,2.61,4.06,0,8.16,0a6.63,6.63,0,0,1,6.68,4.76l-3.09.75A3.76,3.76,0,0,0,7.84,2.93C5.73,2.93,4,4.22,4,6.33c0,2.81,2.68,3.25,5.48,3.88C13.8,11.22,15.72,12.76,15.72,16.32Z"/><path class="cls-1" d="M134.85,11.4c0,6.24-4,11-11.49,11h-6.24V.38h6.24C130.82.38,134.85,5.2,134.85,11.4Zm-3.18,0c0-4.94-3.08-8.15-8.31-8.15h-3.09V19.56h3.09C128.59,19.56,131.67,16.35,131.67,11.4Z"/><rect class="cls-1" x="20.48" y="0.38" width="13.11" height="3.03"/><rect class="cls-1" x="20.48" y="10.11" width="10.08" height="2.51"/><rect class="cls-1" x="20.48" y="19.72" width="13.11" height="3.03"/><polygon class="cls-1" points="106.26 0.38 106.25 0.38 104.5 3.77 104.51 3.9 108.15 14.24 101.44 14.24 99.79 17.14 109.19 17.14 111.05 22.43 114.45 22.43 106.26 0.38"/><polygon class="cls-1" points="44.13 0.38 44.13 0.38 42.38 3.77 42.39 3.9 46.02 14.24 39.31 14.24 37.66 17.14 47.06 17.14 48.92 22.43 52.33 22.43 44.13 0.38"/><path class="cls-1" d="M70.47,13.17a6.33,6.33,0,0,0,4-6c0-3.81-2.89-6.77-7.93-6.77H62.9V3.25h3.6c3,0,4.69,1.54,4.69,3.9s-1.64,3.91-4.69,3.91H62.9v2.87h3.6a5.7,5.7,0,0,0,.85,0l4.56,8.54h3.78Z"/><rect class="cls-1" x="55.48" y="0.38" width="3.15" height="2.88"/><rect class="cls-1" x="55.48" y="5.55" width="3.15" height="16.88"/><path class="cls-1" d="M94.07,12.94c-.52,3.7-2.88,6.94-6.75,6.94s-6.23-3.24-6.74-6.94H77.8c.58,5.7,4.37,9.9,9.52,9.9s8.92-4.2,9.5-9.9Z"/><path class="cls-1" d="M80.6,9.76c.54-3.65,2.9-6.83,6.72-6.83s6.18,3.18,6.73,6.83h2.76C96.19,4.12,92.42,0,87.32,0s-8.89,4.12-9.51,9.76Z"/><path class="cls-1" d="M7.08,33h-.8V34.5H5.41V33H2.49v-.79L5,27.61H6.28v4.47h.8Zm-1.67-.87v-3.5l-2,3.5Z"/><path class="cls-1" d="M7.87,28.48v1c0,.31,0,.52.31.52h.15v.35l-.19,0c-.43,0-.62-.26-.62-.75V28.48h-.3V28.1h.3v-.46h.35v.46h.46v.38Z"/><path class="cls-1" d="M11.16,28.93v1.39H10.8V29c0-.31-.11-.62-.48-.62A.57.57,0,0,0,9.8,29v1.28H9.44V27.25H9.8v1.16a.67.67,0,0,1,.6-.36A.82.82,0,0,1,11.16,28.93Z"/><path class="cls-1" d="M24.55,29.72a2,2,0,0,1-2.09,2.13h-1v2.27h-.82V27.59h1.84A2,2,0,0,1,24.55,29.72Zm-.85,0a1.18,1.18,0,0,0-1.24-1.28h-1V31h1A1.18,1.18,0,0,0,23.7,29.72Z"/><path class="cls-1" d="M32.76,31.26v2.86H32v-.66a1.58,1.58,0,0,1-1.37.78,1.41,1.41,0,0,1-1.49-1.39c0-1.49,1.6-1.52,2.18-1.52H32c0-.72-.13-1.28-1-1.28a1.8,1.8,0,0,0-1.08.42L29.4,30a2.47,2.47,0,0,1,1.76-.73C32.36,29.28,32.76,30.13,32.76,31.26ZM32,32h-.29c-.78,0-1.79,0-1.79.82,0,.36.21.74.87.74A1.31,1.31,0,0,0,32,32.76Z"/><path class="cls-1" d="M40.21,29.28v1c-1.23-.17-1.39.89-1.39,1.76v2.12h-.75V29.39h.75v.82A1.51,1.51,0,0,1,40.21,29.28Z"/><path class="cls-1" d="M46.31,30.2v2.07c0,.67,0,1.12.66,1.12l.3,0v.75a2.15,2.15,0,0,1-.4,0c-.91,0-1.32-.55-1.32-1.58V30.2H44.9v-.81h.65v-1h.76v1h1v.81Z"/><path class="cls-1" d="M56.1,29.39l-2.28,6.53H53l.74-2.05L52,29.39h.83l1.29,3.41,1.15-3.41Z"/><path class="cls-1" d="M70.75,33.27v.85H67.54V27.59h.83v5.68Z"/><path class="cls-1" d="M80,31.76a2.21,2.21,0,1,1-4.39,0,2.21,2.21,0,1,1,4.39,0Zm-.77,0a1.44,1.44,0,1,0-2.85,0,1.44,1.44,0,1,0,2.85,0Z"/><path class="cls-1" d="M89.07,29.39v4.23c0,1.34-.64,2.38-2.15,2.38a2.18,2.18,0,0,1-1.9-1l.65-.43a1.42,1.42,0,0,0,1.25.58c1,0,1.39-.72,1.39-1.66v-.37a1.59,1.59,0,0,1-1.42.82,2.37,2.37,0,0,1,0-4.71,1.6,1.6,0,0,1,1.42.8v-.69Zm-.76,2.24A1.4,1.4,0,0,0,87,30.08a1.56,1.56,0,0,0,0,3.1A1.4,1.4,0,0,0,88.31,31.63Z"/><path class="cls-1" d="M94.33,28.06a.43.43,0,1,1,.43.49A.46.46,0,0,1,94.33,28.06Zm0,1.33h.76v4.73h-.76Z"/><path class="cls-1" d="M103.48,32.7a1.48,1.48,0,0,1-1.64,1.54,1.59,1.59,0,0,1-1.69-1.08l.74-.28c.06.24.29.57,1,.57s.85-.25.85-.67-.7-.55-1.27-.7a1.25,1.25,0,0,1-1.13-1.32,1.45,1.45,0,0,1,1.55-1.48,1.38,1.38,0,0,1,1.42,1.09l-.7.21a.76.76,0,0,0-.79-.54.66.66,0,0,0-.72.65c0,.53.58.57,1.06.68C103.14,31.62,103.48,32,103.48,32.7Z"/><path class="cls-1" d="M109.45,30.2v2.07c0,.67,0,1.12.66,1.12l.3,0v.75a2.06,2.06,0,0,1-.4,0c-.91,0-1.31-.55-1.31-1.58V30.2h-.65v-.81h.65v-1h.75v1h1v.81Z"/><path class="cls-1" d="M115.55,28.06a.43.43,0,1,1,.43.49A.46.46,0,0,1,115.55,28.06Zm0,1.33h.76v4.73h-.76Z"/><path class="cls-1" d="M124.83,32.67l.64.39a2.11,2.11,0,0,1-1.86,1.18,2.32,2.32,0,0,1-2.19-2.48,2.32,2.32,0,0,1,2.19-2.48,2.11,2.11,0,0,1,1.86,1.16l-.64.4a1.38,1.38,0,0,0-1.22-.76,1.7,1.7,0,0,0,0,3.35A1.36,1.36,0,0,0,124.83,32.67Z"/><path class="cls-1" d="M133.44,32.7a1.48,1.48,0,0,1-1.64,1.54,1.57,1.57,0,0,1-1.68-1.08l.73-.28c.07.24.29.57,1,.57s.85-.25.85-.67-.7-.55-1.28-.7a1.25,1.25,0,0,1-1.13-1.32,1.45,1.45,0,0,1,1.55-1.48,1.39,1.39,0,0,1,1.43,1.09l-.71.21a.76.76,0,0,0-.79-.54.66.66,0,0,0-.72.65c0,.53.58.57,1.06.68C133.1,31.62,133.44,32,133.44,32.7Z"/></svg>