<svg id="Capa_1" data-name="Capa 1" xmlns="http://www.w3.org/2000/svg" viewBox="0 0 81.17 36"><defs><style>.cls-1,.cls-2{fill:#a3abb6;}.cls-1{stroke:#a3abb6;stroke-miterlimit:10;}</style></defs><path class="cls-1" d="M28.23,9c-3.41-.42-8.8,7-8.8,7L.35,34.26l7-5.44S20.77,17,20.71,17C29.88,11.17,28.28,9,28.23,9Zm-9,8.31a22.52,22.52,0,0,1,8.86-8A23.3,23.3,0,0,1,19.23,17.29Z"/><path class="cls-1" d="M23.48,5.17s-3.41-3,.22-3.76c0,0,5.21-.88,4.8,4.27a1.83,1.83,0,0,1-2.56,1.54c0,.07-3-1.26-4.39-.63,0,0-3.28.92-1,4.23,0,0,3.12,5.72,7,6.19,0,.06-.45-2.57,1.34-1.44,0,0,.25,0,.3,1.14,0,0,1.2-.63,1.62-.3,0,0,1.2.66-1.05,1.88a7.05,7.05,0,0,1-1.58.77,2.31,2.31,0,0,1-.54-1.51,8,8,0,0,1-4.15-2.2s-3.92-3.69-4.22-6.3c0,0-.44-4.57,6.1-2.57,0,0,3.69,1.78,2.3-3.08,0,0-.69-1.81-4.35-1.47,0,0-1.79.62.55,2.78C23.85,4.71,24,5.27,23.48,5.17Z"/><path class="cls-2" d="M49.73,8.55a.28.28,0,0,1,.14.1.19.19,0,0,1,.05.16.31.31,0,0,1-.1.15c-1.22.87-2.32,1.69-3.32,2.46a2.09,2.09,0,0,1,0,1.06,6.28,6.28,0,0,1-.68,1.85,8.31,8.31,0,0,1-1.14,1.58,10.1,10.1,0,0,1-1.35,1.21,7.08,7.08,0,0,1-1.35.81,3.65,3.65,0,0,1-1.12.32h-.13a.67.67,0,0,1-.71-.42c-.18-.5.23-1.3,1.25-2.43a38.18,38.18,0,0,1,4.64-4.13,3.15,3.15,0,0,0-1.38-1.19c-.69-.36-1.77-.85-3.26-1.45l-.94-.38a2.3,2.3,0,0,1-1.17-1,1.65,1.65,0,0,1-.08-1.37,5.47,5.47,0,0,1,1.47-2.14,15.14,15.14,0,0,1,2.57-2A14.53,14.53,0,0,1,46,.39,4.19,4.19,0,0,1,48.14,0a1.52,1.52,0,0,1,.32.12,1,1,0,0,1,.3.23A1,1,0,0,1,49,.8a1.64,1.64,0,0,1,0,.63.18.18,0,0,1,0,.1.17.17,0,0,1-.1.07.22.22,0,0,1-.11,0,.24.24,0,0,1-.16-.09.21.21,0,0,1,0-.17.82.82,0,0,0-.08-.62A.69.69,0,0,0,48,.49a2.56,2.56,0,0,0-1.17.07,10.12,10.12,0,0,0-1.65.59,14.3,14.3,0,0,0-1.84,1,14.29,14.29,0,0,0-2.55,2,5,5,0,0,0-1.29,1.89c-.26.81.08,1.4,1,1.78l.94.38,1.15.47,1,.43a7.74,7.74,0,0,1,.94.45c.22.12.46.27.71.43a4.62,4.62,0,0,1,.64.49,2.78,2.78,0,0,1,.41.51c1-.77,2.07-1.57,3.25-2.4A.22.22,0,0,1,49.73,8.55ZM46.1,12.38a1.78,1.78,0,0,0,0-.65,40.39,40.39,0,0,0-4,3.45,11.26,11.26,0,0,0-1.31,1.56c-.3.46-.43.77-.36,1s.16.13.38.11a3.08,3.08,0,0,0,1-.29,6.35,6.35,0,0,0,1.25-.75,10.11,10.11,0,0,0,1.26-1.12,7.07,7.07,0,0,0,1.09-1.49A6.37,6.37,0,0,0,46.1,12.38Z"/><path class="cls-2" d="M52.55,8.63a.2.2,0,0,1,.17,0,.2.2,0,0,1,.1.14.19.19,0,0,1,0,.18A9.41,9.41,0,0,1,52,10a6.21,6.21,0,0,1-1,1,1.78,1.78,0,0,1-1,.44.66.66,0,0,1-.25,0c-.52-.23-.58-1.15-.16-2.76a.21.21,0,0,1,.1-.14.27.27,0,0,1,.17,0,.26.26,0,0,1,.14.11.19.19,0,0,1,0,.16c-.09.38-.16.71-.2,1a2.91,2.91,0,0,0-.06.65,1.27,1.27,0,0,0,0,.37.4.4,0,0,0,.07.17s0,0,0,0c.2.09.57-.11,1.11-.61a7.88,7.88,0,0,0,1.39-1.69A.42.42,0,0,1,52.55,8.63ZM50,7.72c-.23,0-.3-.11-.22-.29a.6.6,0,0,1,.31-.28c.2-.06.31,0,.35.15a.3.3,0,0,1-.17.36A.6.6,0,0,1,50,7.72Z"/><path class="cls-2" d="M56.05,8.67a.23.23,0,0,1,.18,0,.16.16,0,0,1,.08.14.24.24,0,0,1,0,.17,11.3,11.3,0,0,1-2.42,2.62A1.44,1.44,0,0,1,53,12a.92.92,0,0,1-.83-.46A1.77,1.77,0,0,1,52,11a2.45,2.45,0,0,1,0-.83A5.52,5.52,0,0,1,52.22,9h0A5.43,5.43,0,0,1,53,7.29q.46-.62.84-.63a.31.31,0,0,1,.35.23c.09.23,0,.55-.3,1a7.39,7.39,0,0,1-1.28,1.33,6.82,6.82,0,0,0-.2.85,2.87,2.87,0,0,0,0,.61,1.41,1.41,0,0,0,.08.4.65.65,0,0,0,.12.24.43.43,0,0,0,.11.12c.24.17.54.13.9-.14a10.54,10.54,0,0,0,2.3-2.51A.24.24,0,0,1,56.05,8.67ZM53.78,7.15A2.68,2.68,0,0,0,53,8.27,3.24,3.24,0,0,0,53.78,7.15Z"/><path class="cls-2" d="M62.12,8.65a.18.18,0,0,1,.16,0,.19.19,0,0,1,.08.15.25.25,0,0,1,0,.17c-1,1.16-1.78,1.64-2.36,1.42-.42-.16-.64-.66-.67-1.49-.11.2-.28.54-.52,1a5.59,5.59,0,0,1-.27.55c-.2.39-.42.55-.65.49s-.48-.53-.47-1.35c0-.15,0-.34,0-.55a24.09,24.09,0,0,0-1.58,2.65c-.1.18-.2.27-.31.27a.23.23,0,0,1-.11,0L55.3,12a.31.31,0,0,1-.06-.13.77.77,0,0,1,0-.27c0-.11,0-.27.07-.48s.1-.47.18-.76a16.61,16.61,0,0,1,.9-2.69.27.27,0,0,1,.13-.13.2.2,0,0,1,.17,0,.22.22,0,0,1,.12.13.2.2,0,0,1,0,.17,16.35,16.35,0,0,0-1,2.94,25.83,25.83,0,0,1,1.46-2.29c.11-.15.23-.21.36-.16a.22.22,0,0,1,.16.19,4.06,4.06,0,0,1,0,.58c0,.25,0,.45,0,.6a2.21,2.21,0,0,0,.13.88,1,1,0,0,0,.17-.23c0-.08.12-.26.26-.53a13,13,0,0,1,.69-1.32c.14-.21.28-.29.43-.26s.25.21.25.51c0,.77.12,1.2.37,1.3s.4,0,.72-.21A5.4,5.4,0,0,0,62,8.72.21.21,0,0,1,62.12,8.65Z"/><path class="cls-2" d="M64.29,7a.71.71,0,0,1,.47.55,2.11,2.11,0,0,1,0,1,3.82,3.82,0,0,1-1.38,1.92,5.81,5.81,0,0,1-1,.65c-.28,1.15-.6,2.58-.94,4.29s-.61,3.06-.77,4a.21.21,0,0,1-.23.19h0a.27.27,0,0,1-.11-.05.22.22,0,0,1-.07-.09.25.25,0,0,1,0-.12c.21-1.37.65-4,1.35-7.93l-.28.08a.19.19,0,0,1-.18,0,.21.21,0,0,1-.1-.14.2.2,0,0,1,0-.17.22.22,0,0,1,.14-.11A3,3,0,0,0,61.6,11c.06-.28.13-.68.23-1.22.4-2.29.61-3.48.62-3.58A.23.23,0,0,1,62.51,6,.2.2,0,0,1,62.66,6a.18.18,0,0,1,.16,0,.19.19,0,0,1,.08.16c0,.06-.18,1.12-.55,3.19.12-.33.24-.63.36-.89a6.5,6.5,0,0,1,.34-.66,2.67,2.67,0,0,1,.32-.43,1.73,1.73,0,0,1,.3-.27A1,1,0,0,1,63.92,7a.56.56,0,0,1,.21,0A.41.41,0,0,1,64.29,7Zm0,1.49a1.8,1.8,0,0,0,0-.74c0-.19-.09-.3-.18-.32h0a.33.33,0,0,0-.15,0,1.19,1.19,0,0,0-.23.2,2.09,2.09,0,0,0-.29.38,4.78,4.78,0,0,0-.33.62c-.12.27-.24.57-.36.92s-.17.56-.28,1a5.17,5.17,0,0,0,1.16-1A2.91,2.91,0,0,0,64.29,8.47Z"/><path class="cls-2" d="M70.3,8.66a.2.2,0,0,1,.17,0,.3.3,0,0,1,.12.13.2.2,0,0,1,0,.17c-.22.45-.45.92-.72,1.4s-.56,1-.87,1.44A7.5,7.5,0,0,1,68,13a1.27,1.27,0,0,1-.8.46.4.4,0,0,1-.15,0c-.32-.13-.42-.61-.3-1.46a22.57,22.57,0,0,1,.86-3.35h0a4.48,4.48,0,0,1-.43.27,4.37,4.37,0,0,1-.46.21,1.22,1.22,0,0,1-.54.11.87.87,0,0,1-.48-.17,1,1,0,0,1-.46-.88A2.21,2.21,0,0,1,65.67,7a3.52,3.52,0,0,1,.65-.74c.26-.21.47-.25.65-.14a.42.42,0,0,1,.2.31,2,2,0,0,1-.21.81,12.41,12.41,0,0,1-.78,1.58,2.22,2.22,0,0,0,1.19-.5l.23-.15L67.78,8A.27.27,0,0,1,68,8a.24.24,0,0,1,.14.06c.12.09.14.25.06.49Q67,12.18,67.22,13l0,.07c.06,0,.15,0,.28-.15a4.4,4.4,0,0,0,.48-.52c.2-.23.4-.52.63-.84s.46-.74.73-1.21.53-1,.78-1.53A.27.27,0,0,1,70.3,8.66Zm-4.56-.79a.82.82,0,0,0,.05.65,6.63,6.63,0,0,0,.91-2,1.38,1.38,0,0,0-.32.27,3,3,0,0,0-.37.48A1.93,1.93,0,0,0,65.74,7.87Z"/><path class="cls-2" d="M73.8,8.67a.21.21,0,0,1,.17,0,.19.19,0,0,1,.09.14A.24.24,0,0,1,74,9a11.29,11.29,0,0,1-2.41,2.62,1.47,1.47,0,0,1-.86.31.92.92,0,0,1-.57-.18,1,1,0,0,1-.26-.28,2.18,2.18,0,0,1-.19-.49,2.7,2.7,0,0,1,0-.83A6.2,6.2,0,0,1,70,9h0a5.67,5.67,0,0,1,.8-1.69c.32-.41.6-.62.85-.63a.32.32,0,0,1,.35.23c.08.23,0,.55-.31,1a7.29,7.29,0,0,1-1.27,1.33,4.48,4.48,0,0,0-.2.85,2.33,2.33,0,0,0,0,.61,1.13,1.13,0,0,0,.08.4.92.92,0,0,0,.11.24.68.68,0,0,0,.12.12c.23.17.53.13.9-.14a10.75,10.75,0,0,0,2.3-2.51A.24.24,0,0,1,73.8,8.67ZM71.52,7.15a2.59,2.59,0,0,0-.8,1.12A3,3,0,0,0,71.52,7.15Z"/><path class="cls-2" d="M47.77,25.92a.2.2,0,0,1,.17,0,.22.22,0,0,1,.12.13.25.25,0,0,1,0,.17,34,34,0,0,1-2.34,4.27,12.47,12.47,0,0,1-2.23,2.66,3.22,3.22,0,0,1-2,.9A1.59,1.59,0,0,1,41,34a2.32,2.32,0,0,1-1.34-1.3A7.19,7.19,0,0,1,39,30a17.67,17.67,0,0,1,.23-3.64A23.63,23.63,0,0,1,40.41,22a13.49,13.49,0,0,1,2.09-4c.61-.73,1.13-1,1.57-.77a1.34,1.34,0,0,1,.61,1.06,7.79,7.79,0,0,1,.06,2.1c-.07.85-.18,1.69-.32,2.54s-.32,1.77-.54,2.75a.28.28,0,0,1-.1.14.29.29,0,0,1-.18,0,.33.33,0,0,1-.14-.1.25.25,0,0,1,0-.17q.36-1.58.57-2.88c.14-.88.23-1.6.27-2.19a9.87,9.87,0,0,0,0-1.51,3.85,3.85,0,0,0-.14-1,.65.65,0,0,0-.29-.4c-.11-.06-.26,0-.44.09a2.87,2.87,0,0,0-.58.55,12.62,12.62,0,0,0-1.93,3.65,26.05,26.05,0,0,0-1.23,4.57,13.37,13.37,0,0,0,0,4.89,4.38,4.38,0,0,0,.57,1.49,1.65,1.65,0,0,0,.88.72c.75.23,1.64-.2,2.69-1.29A23.72,23.72,0,0,0,47.65,26,.23.23,0,0,1,47.77,25.92Z"/><path class="cls-2" d="M53.25,26a.25.25,0,0,1,.17,0,.24.24,0,0,1,.11.13.17.17,0,0,1,0,.17c-.21.46-.45.92-.71,1.4s-.56,1-.88,1.45A7.26,7.26,0,0,1,51,30.35a1.29,1.29,0,0,1-.8.47.42.42,0,0,1-.15,0c-.32-.12-.42-.61-.31-1.45A21.43,21.43,0,0,1,50.6,26h0l-.43.27a2.91,2.91,0,0,1-.46.21,1.22,1.22,0,0,1-.54.11,1,1,0,0,1-.49-.16,1.06,1.06,0,0,1-.45-.88,2.21,2.21,0,0,1,.42-1.24,3.24,3.24,0,0,1,.65-.73c.25-.22.47-.26.65-.15a.41.41,0,0,1,.19.31,2,2,0,0,1-.2.82,13.45,13.45,0,0,1-.79,1.57,2.16,2.16,0,0,0,1.2-.5l.23-.15.17-.09a.29.29,0,0,1,.17,0l.15.06c.11.09.13.26.05.49-.78,2.42-1.09,3.89-.92,4.41l0,.07c.06,0,.16,0,.29-.15A3.72,3.72,0,0,0,51,29.7a10.26,10.26,0,0,0,.62-.84c.23-.33.47-.73.74-1.21s.53-1,.78-1.53A.24.24,0,0,1,53.25,26Zm-4.56-.79a.81.81,0,0,0,.05.66,7,7,0,0,0,.91-2,1.38,1.38,0,0,0-.32.27,3.1,3.1,0,0,0-.38.49A1.86,1.86,0,0,0,48.69,25.21Z"/><path class="cls-2" d="M57.66,26a.21.21,0,0,1,.17,0,.19.19,0,0,1,.09.14.2.2,0,0,1,0,.17A11.37,11.37,0,0,1,55.47,29a1.52,1.52,0,0,1-.86.3,1,1,0,0,1-.57-.17,1,1,0,0,1-.25-.29,1.64,1.64,0,0,1-.2-.49,2.7,2.7,0,0,1,0-.83,6,6,0,0,1,.27-1.17v0a5.67,5.67,0,0,1,.79-1.69c.32-.41.6-.62.85-.63a.31.31,0,0,1,.35.24c.09.22,0,.54-.3,1a7.39,7.39,0,0,1-1.28,1.33,5.41,5.41,0,0,0-.2.85A2.33,2.33,0,0,0,54,28a1.41,1.41,0,0,0,.08.4.65.65,0,0,0,.12.24.43.43,0,0,0,.11.12c.23.17.53.13.9-.14a10.54,10.54,0,0,0,2.3-2.51A.24.24,0,0,1,57.66,26Zm-2.27-1.52a2.58,2.58,0,0,0-.81,1.12A3.24,3.24,0,0,0,55.39,24.49Z"/><path class="cls-2" d="M63,26.05a.2.2,0,0,1,.17,0,.22.22,0,0,1,.12.13.25.25,0,0,1,0,.17C62.44,28.09,61.7,29,61,29h-.13c-.52-.1-.85-.81-1-2.11-.39.51-.73.94-1,1.26s-.5.38-.68.3-.28-.28-.27-.61a3.54,3.54,0,0,1,.18-1,4.63,4.63,0,0,1,.56-1.14,1.56,1.56,0,0,1,.78-.69,1,1,0,0,1,1.15.41.19.19,0,0,1,0,.16.22.22,0,0,1-.07.16.25.25,0,0,1-.17,0,.19.19,0,0,1-.15-.08c-.27-.32-.55-.39-.83-.18a2.5,2.5,0,0,0-.81,1.22,3,3,0,0,0-.25,1.26l.17-.15c.31-.34.69-.82,1.15-1.44l.21-.3a.21.21,0,0,1,.24-.07.2.2,0,0,1,.17.2,7.16,7.16,0,0,0,.09,1c.05.3.1.53.14.68a1.49,1.49,0,0,0,.17.38.75.75,0,0,0,.14.19.19.19,0,0,0,.11,0,.55.55,0,0,0,.42-.15,3.73,3.73,0,0,0,.65-.76,9.68,9.68,0,0,0,.8-1.41A.25.25,0,0,1,63,26.05Z"/><path class="cls-2" d="M73.44,21.75a.19.19,0,0,1,0,.16.2.2,0,0,1-.09.16.21.21,0,0,1-.27,0,66.15,66.15,0,0,0-7.9,0c-.51,2.13-1,4.45-1.55,6.94q-.95,4.51-1.14,6.21h0a.15.15,0,0,1,.12.11.17.17,0,0,1,0,.17,2.35,2.35,0,0,1-.09.28.86.86,0,0,1-.13.17.22.22,0,0,1-.17.09h-.09a.28.28,0,0,1-.18-.25,1.77,1.77,0,0,1,0-.54c0-.33.1-.8.21-1.42.2-1.17.49-2.69.88-4.57.53-2.53,1-4.93,1.59-7.18-.54,0-1.2,0-2,0l-2.2,0a.21.21,0,0,1-.22-.22.43.43,0,0,1,0-.11.24.24,0,0,1,.09-.08.2.2,0,0,1,.11,0l2.19-.06,2.11-.05c.25-1,.48-1.9.67-2.62a.2.2,0,0,1,.11-.14.2.2,0,0,1,.3.08.25.25,0,0,1,0,.17c-.19.7-.41,1.53-.65,2.5,2.35-.06,4.12-.08,5.31-.07s2,0,2.26.08S73.38,21.66,73.44,21.75Z"/><path class="cls-2" d="M69.28,26a.21.21,0,0,1,.17,0,.19.19,0,0,1,.1.14.25.25,0,0,1,0,.17,10.86,10.86,0,0,1-.79,1.08,6.64,6.64,0,0,1-1,1,1.69,1.69,0,0,1-1,.44.61.61,0,0,1-.24,0c-.53-.23-.58-1.15-.17-2.76a.22.22,0,0,1,.11-.14.2.2,0,0,1,.17,0,.19.19,0,0,1,.13.1.21.21,0,0,1,0,.17c-.1.37-.16.7-.21,1a5,5,0,0,0-.06.65,1.74,1.74,0,0,0,.05.37.48.48,0,0,0,.07.17l0,0c.21.09.58-.11,1.11-.61a7.78,7.78,0,0,0,1.39-1.68A.31.31,0,0,1,69.28,26Zm-2.6-.91c-.23,0-.3-.11-.21-.28a.6.6,0,0,1,.3-.29c.2-.06.32,0,.36.16A.28.28,0,0,1,67,25,.6.6,0,0,1,66.68,25.06Z"/><path class="cls-2" d="M75.48,26.06a.26.26,0,0,1,.17.05.19.19,0,0,1,.08.16.24.24,0,0,1,0,.16,2.67,2.67,0,0,1-1,.74,1.61,1.61,0,0,1-1.09.09,1.45,1.45,0,0,1-.93-.74,8.47,8.47,0,0,1-.89,2,7.61,7.61,0,0,1-.81,1.11,2,2,0,0,1-.74.54.6.6,0,0,1-.22,0,.52.52,0,0,1-.36-.14q-.68-.69.69-4.76a.18.18,0,0,1,.11-.13.2.2,0,0,1,.17,0,.24.24,0,0,1,.13.11.23.23,0,0,1,0,.18c-.23.69-.41,1.3-.55,1.84s-.24,1-.28,1.25a3.9,3.9,0,0,0-.05.72c0,.19,0,.32,0,.37a.29.29,0,0,0,.06.1s.06,0,.12,0a2.12,2.12,0,0,0,.82-.74,7.84,7.84,0,0,0,.93-1.57,6.33,6.33,0,0,0,.55-1.76.23.23,0,0,1,.07-.14.47.47,0,0,1,.15-.06.2.2,0,0,1,.22.19c.13.65.42,1,.88,1.16a1.31,1.31,0,0,0,.84-.08,2.23,2.23,0,0,0,.81-.61A.19.19,0,0,1,75.48,26.06Z"/><path class="cls-2" d="M80.88,26.05a.2.2,0,0,1,.17,0,.24.24,0,0,1,.11.13.2.2,0,0,1,0,.17C80.32,28.09,79.57,29,78.91,29h-.12c-.53-.1-.85-.81-1-2.11a15.15,15.15,0,0,1-1,1.26c-.26.29-.49.38-.68.3s-.28-.28-.27-.61a3.27,3.27,0,0,1,.19-1,4.59,4.59,0,0,1,.55-1.14,1.53,1.53,0,0,1,.79-.69,1,1,0,0,1,1.15.41.3.3,0,0,1,0,.16.23.23,0,0,1-.08.16.22.22,0,0,1-.16,0,.16.16,0,0,1-.15-.08c-.28-.32-.56-.39-.84-.18a2.42,2.42,0,0,0-.8,1.22,2.67,2.67,0,0,0-.25,1.26l.16-.15a17.07,17.07,0,0,0,1.15-1.44l.21-.3a.23.23,0,0,1,.25-.07.2.2,0,0,1,.16.2,8.8,8.8,0,0,0,.1,1,3.92,3.92,0,0,0,.14.68,1.5,1.5,0,0,0,.16.38.55.55,0,0,0,.15.19.15.15,0,0,0,.11,0,.55.55,0,0,0,.42-.15,3.76,3.76,0,0,0,.64-.76,9.68,9.68,0,0,0,.8-1.41A.24.24,0,0,1,80.88,26.05Z"/></svg>