<svg id="Capa_1" data-name="Capa 1" xmlns="http://www.w3.org/2000/svg" viewBox="0 0 81.57 26"><defs><style>.cls-1,.cls-2{fill:#a4abb6;}.cls-2{font-size:12.44px;font-family:Arial-BoldMT, Arial;font-weight:700;letter-spacing:0.11em;}</style></defs><path class="cls-1" d="M1.11,10.85H5.42A3.9,3.9,0,0,1,8.16,6.64a15.58,15.58,0,0,1,6.64,0,4,4,0,0,1,2.41,1.93s1.35,2.47-2.68,3c0,0-8.66,1.34-11.15,2.62,0,0-3.23,1.05-3.38,5.41A5.68,5.68,0,0,0,3.38,25c0,.06,2,1.84,9,.48a12.53,12.53,0,0,0,5.26-3s-.15,3.19,3.69,3.17c0,.06,3.17-.1,3.17-.1v-3H22.6s-.91,0-.91-1.27c0,0,0-6.49,0-6.49L17.19,16l0,2s-.77,3-5.73,4.42c0,0-4.85,1.58-6.83-1.9,0,0-1.42-3.57,5.16-4.59,0,0,10.91-1.5,12.62-2.61,0,0,8.63-2.25,7.76-12.31a11.66,11.66,0,0,1-8.46,9s.07-4.12-2.8-5.63c0,0-2.95-2.15-9.08-1.62C9.77,2.85,1.26,3.19,1.11,10.85Z"/><text class="cls-2" transform="translate(34.41 10.67)">pharm</text><path class="cls-1" d="M37.71,20a7.78,7.78,0,0,0,1-.25v.33a3.33,3.33,0,0,1-.06.78,1,1,0,0,1-.39.54,1.38,1.38,0,0,1-.83.28.89.89,0,0,1-.64-.24.8.8,0,0,1-.26-.59.68.68,0,0,1,.32-.57A3.19,3.19,0,0,1,37.71,20Z"/><path class="cls-1" d="M55.88,18.14a1.27,1.27,0,0,0-2,0,2.19,2.19,0,0,0-.37,1.38,2.28,2.28,0,0,0,.37,1.42,1.19,1.19,0,0,0,.93.45,1.3,1.3,0,0,0,1-.46,2,2,0,0,0,.41-1.37A2.16,2.16,0,0,0,55.88,18.14Zm10.32.1a1.37,1.37,0,0,0-1.06-.48,1.36,1.36,0,0,0-1.06.48,2,2,0,0,0-.43,1.39A2,2,0,0,0,64.08,21a1.36,1.36,0,0,0,1.06.48A1.37,1.37,0,0,0,66.2,21a2.07,2.07,0,0,0,.43-1.4A2,2,0,0,0,66.2,18.24Zm0,0a1.37,1.37,0,0,0-1.06-.48,1.36,1.36,0,0,0-1.06.48,2,2,0,0,0-.43,1.39A2,2,0,0,0,64.08,21a1.36,1.36,0,0,0,1.06.48A1.37,1.37,0,0,0,66.2,21a2.07,2.07,0,0,0,.43-1.4A2,2,0,0,0,66.2,18.24Zm-10.32-.1a1.27,1.27,0,0,0-2,0,2.19,2.19,0,0,0-.37,1.38,2.28,2.28,0,0,0,.37,1.42,1.19,1.19,0,0,0,.93.45,1.3,1.3,0,0,0,1-.46,2,2,0,0,0,.41-1.37A2.16,2.16,0,0,0,55.88,18.14ZM76.2,14.37H35.94a5.39,5.39,0,0,0-5.37,5.37v.88A5.38,5.38,0,0,0,35.94,26H76.2a5.38,5.38,0,0,0,5.37-5.36v-.88A5.38,5.38,0,0,0,76.2,14.37ZM39,22.68c0-.11-.09-.26-.15-.47L38.82,22a3.17,3.17,0,0,1-.89.6,2.59,2.59,0,0,1-1,.2,2.09,2.09,0,0,1-1.49-.51A1.7,1.7,0,0,1,34.9,21a1.65,1.65,0,0,1,.25-.92,1.49,1.49,0,0,1,.69-.62,5.22,5.22,0,0,1,1.28-.38,8.66,8.66,0,0,0,1.57-.4v-.16a.84.84,0,0,0-.23-.66,1.38,1.38,0,0,0-.87-.2,1.18,1.18,0,0,0-.67.17,1.17,1.17,0,0,0-.39.59l-1.46-.26a2.21,2.21,0,0,1,.85-1.31,3.13,3.13,0,0,1,1.79-.42,3.88,3.88,0,0,1,1.61.25,1.6,1.6,0,0,1,.74.65,3.21,3.21,0,0,1,.22,1.45l0,1.88a6.58,6.58,0,0,0,.08,1.18,3.37,3.37,0,0,0,.29.82Zm9.13-4.52a1.38,1.38,0,0,0-.76-.27.93.93,0,0,0-.57.19,1.28,1.28,0,0,0-.37.67,9.55,9.55,0,0,0-.14,2.05v1.88H44.71v-6.1h1.5v.87a2.72,2.72,0,0,1,.69-.81,1.29,1.29,0,0,1,.7-.19,2.05,2.05,0,0,1,1.06.3Zm9.7,3.9a5.38,5.38,0,0,1-.18,1.61,2.09,2.09,0,0,1-.5.84,2.28,2.28,0,0,1-.86.48,4.7,4.7,0,0,1-1.36.17,3.55,3.55,0,0,1-2.2-.53,1.69,1.69,0,0,1-.65-1.35,1.56,1.56,0,0,1,0-.2l1.84.23a.63.63,0,0,0,.21.44,1.21,1.21,0,0,0,.73.17,1.85,1.85,0,0,0,1-.19.77.77,0,0,0,.32-.4,2.58,2.58,0,0,0,.07-.75v-.89a2.18,2.18,0,0,1-1.83,1,2.26,2.26,0,0,1-1.94-1,3.48,3.48,0,0,1-.57-2,3.37,3.37,0,0,1,.74-2.34,2.37,2.37,0,0,1,1.84-.81,2.25,2.25,0,0,1,1.87,1v-.86h1.51Zm9.54-.15a3,3,0,0,1-2.26.91,3.62,3.62,0,0,1-1.6-.38,2.57,2.57,0,0,1-1.15-1.11,3.63,3.63,0,0,1-.4-1.78,3.23,3.23,0,0,1,.4-1.56,2.76,2.76,0,0,1,1.12-1.15,3.37,3.37,0,0,1,1.62-.39,3,3,0,0,1,2.27.9,3.08,3.08,0,0,1,.89,2.27A3.16,3.16,0,0,1,67.4,21.91ZM78,22.68H76.4V19.57a4.71,4.71,0,0,0-.11-1.28.88.88,0,0,0-.89-.61,1.36,1.36,0,0,0-.76.23,1.15,1.15,0,0,0-.45.61,5.39,5.39,0,0,0-.12,1.4v2.76H72.45v-6.1H74v.9a2.52,2.52,0,0,1,3-.84,1.67,1.67,0,0,1,.67.49,1.76,1.76,0,0,1,.31.68A4.92,4.92,0,0,1,78,18.89ZM65.14,17.76a1.36,1.36,0,0,0-1.06.48,2,2,0,0,0-.43,1.39A2,2,0,0,0,64.08,21a1.36,1.36,0,0,0,1.06.48A1.37,1.37,0,0,0,66.2,21a2.07,2.07,0,0,0,.43-1.4,2,2,0,0,0-.43-1.38A1.37,1.37,0,0,0,65.14,17.76Zm-10.25-.08a1.22,1.22,0,0,0-1,.45,2.19,2.19,0,0,0-.37,1.38,2.28,2.28,0,0,0,.37,1.42,1.19,1.19,0,0,0,.93.45,1.3,1.3,0,0,0,1-.46,2,2,0,0,0,.41-1.37,2.16,2.16,0,0,0-.39-1.41A1.23,1.23,0,0,0,54.89,17.68Zm1,.46a1.27,1.27,0,0,0-2,0,2.19,2.19,0,0,0-.37,1.38,2.28,2.28,0,0,0,.37,1.42,1.19,1.19,0,0,0,.93.45,1.3,1.3,0,0,0,1-.46,2,2,0,0,0,.41-1.37A2.16,2.16,0,0,0,55.88,18.14Zm0,0a1.27,1.27,0,0,0-2,0,2.19,2.19,0,0,0-.37,1.38,2.28,2.28,0,0,0,.37,1.42,1.19,1.19,0,0,0,.93.45,1.3,1.3,0,0,0,1-.46,2,2,0,0,0,.41-1.37A2.16,2.16,0,0,0,55.88,18.14Z"/></svg>