<?xml version="1.0" encoding="UTF-8"?>
<svg xmlns="http://www.w3.org/2000/svg" fill="none" height="26" viewBox="0 0 130 26" width="130"><link xmlns="" type="text/css" rel="stylesheet" id="dark-mode-custom-link"/><link xmlns="" type="text/css" rel="stylesheet" id="dark-mode-general-link"/><style xmlns="" lang="en" type="text/css" id="dark-mode-custom-style"/><style xmlns="" lang="en" type="text/css" id="dark-mode-native-style"/><style xmlns="" lang="en" type="text/css" id="dark-mode-native-sheet"/>
<path d="M47.3636 0.822266H52.2547L60.5713 15.8664L68.8878 0.822266H73.6731V25.5427H69.6825V6.59635L62.39 19.7158H58.6466L51.3541 6.59635V25.5427H47.3636V0.822266Z" fill="#A4ABB6"/>
<path d="M86.5449 25.9842C84.6967 25.9842 83.0722 25.5752 81.6715 24.757C80.2706 23.9389 79.1788 22.8059 78.3961 21.358C77.6131 19.91 77.2217 18.2502 77.2219 16.3786C77.2219 14.4835 77.6044 12.806 78.3696 11.3462C79.1347 9.88674 80.1971 8.74486 81.5568 7.92056C82.9164 7.09679 84.4791 6.68479 86.2448 6.68457C87.9987 6.68457 89.5084 7.0995 90.774 7.92935C92.0392 8.75944 93.0132 9.92192 93.6962 11.4168C94.3788 12.9119 94.7202 14.6659 94.7203 16.6787V17.7733H81.1771C81.4244 19.2804 82.0336 20.4664 83.0047 21.3314C83.9759 22.1966 85.203 22.6292 86.6862 22.6291C87.8751 22.6291 88.8992 22.4526 89.7586 22.0994C90.6178 21.7463 91.4242 21.2107 92.1777 20.4927L94.2966 23.0883C92.1892 25.0191 89.6053 25.9844 86.5449 25.9842ZM89.4585 11.3196C88.6225 10.4663 87.5278 10.0396 86.1742 10.0394C84.8557 10.0394 83.7521 10.475 82.8634 11.3462C81.9745 12.2173 81.4124 13.3886 81.1771 14.86H90.8887C90.7709 13.3532 90.2942 12.1731 89.4585 11.3196Z" fill="#A4ABB6"/>
<path d="M99.5589 10.3924H95.886V7.12575H99.5589V1.72266H103.408V7.12575H108.988V10.3924H103.408V18.6737C103.408 20.0509 103.644 21.0337 104.114 21.6224C104.585 22.2112 105.391 22.5055 106.534 22.5052C107.039 22.5052 107.469 22.4846 107.823 22.4435C108.176 22.4024 108.564 22.3465 108.988 22.2757V25.5069C108.504 25.6468 108.012 25.7531 107.513 25.8249C106.943 25.9088 106.368 25.9501 105.792 25.9485C101.636 25.9485 99.5587 23.6766 99.5589 19.1328V10.3924Z" fill="#A4ABB6"/>
<path d="M129.047 25.5427H125.268V22.9647C124.597 23.9301 123.744 24.6746 122.708 25.1983C121.672 25.7219 120.495 25.9839 119.177 25.9842C117.552 25.9842 116.113 25.5692 114.859 24.7392C113.606 23.9093 112.62 22.7676 111.902 21.3138C111.184 19.86 110.825 18.1972 110.825 16.3256C110.825 14.4422 111.19 12.7764 111.919 11.3284C112.649 9.88064 113.659 8.74471 114.948 7.92056C116.237 7.09679 117.717 6.68479 119.388 6.68457C120.648 6.68457 121.778 6.92886 122.779 7.41745C123.766 7.89494 124.621 8.6073 125.268 9.49209V7.1261H129.047V25.5427ZM125.198 13.571C124.786 12.5233 124.135 11.6963 123.247 11.09C122.358 10.4839 121.331 10.1808 120.165 10.1808C118.517 10.1808 117.205 10.734 116.228 11.8405C115.251 12.9471 114.762 14.4421 114.762 16.3256C114.762 18.221 115.233 19.7219 116.175 20.8283C117.116 21.9348 118.394 22.4881 120.007 22.488C121.195 22.488 122.255 22.1819 123.185 21.5697C124.115 20.9579 124.786 20.1339 125.198 19.0977L125.198 13.571Z" fill="#A4ABB6"/>
<path d="M4.22806 17.1464C4.22806 18.6411 4.55613 19.7886 4.98492 20.4828C5.54712 21.3922 6.38565 21.7774 7.24052 21.7774C8.34313 21.7774 9.35183 21.5038 11.2957 18.8153C12.853 16.6604 14.6879 13.6357 15.9226 11.7395L18.0135 8.52692C19.466 6.29582 21.1471 3.8156 23.0747 2.13445C24.6483 0.762309 26.3458 0 28.0541 0C30.9223 0 33.6543 1.66209 35.7452 4.77937C38.0335 8.1934 39.1443 12.4936 39.1443 16.9313C39.1443 19.5694 38.6243 21.5078 37.7395 23.0393C36.8846 24.5203 35.2184 26 32.4156 26V21.7774C34.8155 21.7774 35.4144 19.5721 35.4144 17.0484C35.4144 13.4519 34.5759 9.46073 32.7287 6.60889C31.4178 4.58607 29.7189 3.35004 27.8499 3.35004C25.8285 3.35004 24.2018 4.87465 22.3736 7.59308C21.4017 9.03738 20.4039 10.7975 19.2836 12.7836L18.0503 14.9684C15.5728 19.3612 14.9452 20.3617 13.7065 22.0129C11.5353 24.9042 9.68125 26 7.24052 26C4.34512 26 2.51423 24.7463 1.38031 22.8569C0.454655 21.3173 0 19.2972 0 16.9953L4.22806 17.1464Z" fill="#A4ABB6"/>
<path d="M3.33374 5.07747C5.27217 2.08952 8.06955 0 11.278 0C13.1361 0 14.9834 0.549952 16.9123 2.12493C19.0222 3.84692 21.271 6.68242 24.0766 11.3556L25.0825 13.0327C27.511 17.0783 28.8927 19.1597 29.7013 20.1411C30.7413 21.4017 31.4695 21.7774 32.4156 21.7774C34.8155 21.7774 35.4145 19.5721 35.4145 17.0484L39.1443 16.9313C39.1443 19.5694 38.6243 21.5078 37.7395 23.0393C36.8846 24.5203 35.2184 26 32.4156 26C30.6732 26 29.1295 25.6216 27.4225 24.0112C26.1103 22.7752 24.5761 20.5795 23.3959 18.6056L19.8853 12.7414C18.1238 9.79832 16.508 7.60397 15.5728 6.61025C14.5668 5.54167 13.2736 4.2512 11.21 4.2512C9.53971 4.2512 8.12128 5.42325 6.93426 7.21602L3.33374 5.07747Z" fill="#A4ABB6"/>
<path d="M11.2099 4.2512C9.53968 4.2512 8.12125 5.42325 6.93424 7.21602C5.2558 9.74932 4.22806 13.5227 4.22806 17.1464C4.22806 18.641 4.55613 19.7886 4.98492 20.4828L1.38031 22.8569C0.454655 21.3173 0 19.2972 0 16.9953C0 12.8094 1.1489 8.44658 3.33372 5.07747C5.27214 2.08952 8.06953 0 11.278 0L11.2099 4.2512Z" fill="#A4ABB6"/>
</svg>