<svg id="Capa_1" data-name="Capa 1" xmlns="http://www.w3.org/2000/svg" viewBox="0 0 55.85 26"><defs><style>.cls-1{fill:#a4abb6;}</style></defs><path class="cls-1" d="M0,4.16,4,16.88a3.15,3.15,0,0,1-1,3.71,2.93,2.93,0,0,1-2.23.28q0,.3,0,.63c0,.22,0,.42,0,.61,0,0,5.45,1.68,4.75-5.56,0,0-3.58-12.39-3.58-12.39Z"/><polygon class="cls-1" points="8 4.5 9.71 4.5 6.64 16.24 5.47 13.97 8 4.5"/><path class="cls-1" d="M14.18,5.85V4.5s-3.11-.84-4.1,1.94c0,0-3,10.13-3,10.13l1.31,1.28,1.14-5.2s.4-1.46.84,0c0,0,1.9,7,1.9,7h1.87L11,9.73S10.52,5,14.18,5.85Z"/><polygon class="cls-1" points="6.5 18.65 5.47 22.62 7.12 22.62 7.85 20.37 6.5 18.65"/><rect class="cls-1" x="17.36" y="0.44" width="0.66" height="25.56"/><polygon class="cls-1" points="13.24 22 13.74 22.84 15.18 22.84 14.72 22 13.24 22"/><path class="cls-1" d="M33.28,9.51c-1.66,0-2,.67-2,1.3A1.16,1.16,0,0,0,32.57,12c1.35,0,1.8-.91,1.8-2.38V9.51Zm0,0c-1.66,0-2,.67-2,1.3A1.16,1.16,0,0,0,32.57,12c1.35,0,1.8-.91,1.8-2.38V9.51Zm0,0c-1.66,0-2,.67-2,1.3A1.16,1.16,0,0,0,32.57,12c1.35,0,1.8-.91,1.8-2.38V9.51Zm8.82-2.7c-1.14,0-1.82,1-1.82,2.55S41,11.87,42,11.87c1.31,0,1.78-.81,1.78-2.54S43.43,6.81,42.1,6.81Zm6.16,0c-1.22,0-1.85,1.05-1.85,2.54S47.05,12,48.3,12s1.84-1.1,1.84-2.73S49.52,6.77,48.26,6.77Zm0,0c-1.22,0-1.85,1.05-1.85,2.54S47.05,12,48.3,12s1.84-1.1,1.84-2.73S49.52,6.77,48.26,6.77Zm-6.16,0c-1.14,0-1.82,1-1.82,2.55S41,11.87,42,11.87c1.31,0,1.78-.81,1.78-2.54S43.43,6.81,42.1,6.81Zm-8.82,2.7c-1.66,0-2,.67-2,1.3A1.16,1.16,0,0,0,32.57,12c1.35,0,1.8-.91,1.8-2.38V9.51Zm0,0c-1.66,0-2,.67-2,1.3A1.16,1.16,0,0,0,32.57,12c1.35,0,1.8-.91,1.8-2.38V9.51Zm8.82-2.7c-1.14,0-1.82,1-1.82,2.55S41,11.87,42,11.87c1.31,0,1.78-.81,1.78-2.54S43.43,6.81,42.1,6.81Zm6.16,0c-1.22,0-1.85,1.05-1.85,2.54S47.05,12,48.3,12s1.84-1.1,1.84-2.73S49.52,6.77,48.26,6.77Zm0,0c-1.22,0-1.85,1.05-1.85,2.54S47.05,12,48.3,12s1.84-1.1,1.84-2.73S49.52,6.77,48.26,6.77Zm-6.16,0c-1.14,0-1.82,1-1.82,2.55S41,11.87,42,11.87c1.31,0,1.78-.81,1.78-2.54S43.43,6.81,42.1,6.81Zm-8.82,2.7c-1.66,0-2,.67-2,1.3A1.16,1.16,0,0,0,32.57,12c1.35,0,1.8-.91,1.8-2.38V9.51ZM30,17.32c-.23,0-.34.16-.34.51v.35h.66v-.36C30.36,17.5,30.29,17.32,30,17.32Zm3.24-7.81c-1.66,0-2,.67-2,1.3A1.16,1.16,0,0,0,32.57,12c1.35,0,1.8-.91,1.8-2.38V9.51Zm8.82-2.7c-1.14,0-1.82,1-1.82,2.55S41,11.87,42,11.87c1.31,0,1.78-.81,1.78-2.54S43.43,6.81,42.1,6.81Zm6.16,0c-1.22,0-1.85,1.05-1.85,2.54S47.05,12,48.3,12s1.84-1.1,1.84-2.73S49.52,6.77,48.26,6.77Zm0,0c-1.22,0-1.85,1.05-1.85,2.54S47.05,12,48.3,12s1.84-1.1,1.84-2.73S49.52,6.77,48.26,6.77Zm-6.16,0c-1.14,0-1.82,1-1.82,2.55S41,11.87,42,11.87c1.31,0,1.78-.81,1.78-2.54S43.43,6.81,42.1,6.81Zm-8.82,2.7c-1.66,0-2,.67-2,1.3A1.16,1.16,0,0,0,32.57,12c1.35,0,1.8-.91,1.8-2.38V9.51ZM30,17.32c-.23,0-.34.16-.34.51v.35h.66v-.36C30.36,17.5,30.29,17.32,30,17.32Zm0,0c-.23,0-.34.16-.34.51v.35h.66v-.36C30.36,17.5,30.29,17.32,30,17.32Zm3.24-7.81c-1.66,0-2,.67-2,1.3A1.16,1.16,0,0,0,32.57,12c1.35,0,1.8-.91,1.8-2.38V9.51Zm8.82-2.7c-1.14,0-1.82,1-1.82,2.55S41,11.87,42,11.87c1.31,0,1.78-.81,1.78-2.54S43.43,6.81,42.1,6.81Zm6.16,0c-1.22,0-1.85,1.05-1.85,2.54S47.05,12,48.3,12s1.84-1.1,1.84-2.73S49.52,6.77,48.26,6.77Zm0,0c-1.22,0-1.85,1.05-1.85,2.54S47.05,12,48.3,12s1.84-1.1,1.84-2.73S49.52,6.77,48.26,6.77Zm-6.16,0c-1.14,0-1.82,1-1.82,2.55S41,11.87,42,11.87c1.31,0,1.78-.81,1.78-2.54S43.43,6.81,42.1,6.81Zm-8.82,2.7c-1.66,0-2,.67-2,1.3A1.16,1.16,0,0,0,32.57,12c1.35,0,1.8-.91,1.8-2.38V9.51ZM30,17.32c-.23,0-.34.16-.34.51v.35h.66v-.36C30.36,17.5,30.29,17.32,30,17.32Zm0,0c-.23,0-.34.16-.34.51v.35h.66v-.36C30.36,17.5,30.29,17.32,30,17.32Zm3.24-7.81c-1.66,0-2,.67-2,1.3A1.16,1.16,0,0,0,32.57,12c1.35,0,1.8-.91,1.8-2.38V9.51Zm3.77,9.2c-.32,0-.53.12-.53.55v.06c0,.25.09.42.31.42s.33-.16.33-.63v-.4ZM42.1,6.81c-1.14,0-1.82,1-1.82,2.55S41,11.87,42,11.87c1.31,0,1.78-.81,1.78-2.54S43.43,6.81,42.1,6.81Zm6.16,0c-1.22,0-1.85,1.05-1.85,2.54S47.05,12,48.3,12s1.84-1.1,1.84-2.73S49.52,6.77,48.26,6.77Zm0,0c-1.22,0-1.85,1.05-1.85,2.54S47.05,12,48.3,12s1.84-1.1,1.84-2.73S49.52,6.77,48.26,6.77Zm-6.16,0c-1.14,0-1.82,1-1.82,2.55S41,11.87,42,11.87c1.31,0,1.78-.81,1.78-2.54S43.43,6.81,42.1,6.81Zm-5.05,11.9c-.32,0-.53.12-.53.55v.06c0,.25.09.42.31.42s.33-.16.33-.63v-.4Zm-3.77-9.2c-1.66,0-2,.67-2,1.3A1.16,1.16,0,0,0,32.57,12c1.35,0,1.8-.91,1.8-2.38V9.51ZM30,17.32c-.23,0-.34.16-.34.51v.35h.66v-.36C30.36,17.5,30.29,17.32,30,17.32Zm0,0c-.23,0-.34.16-.34.51v.35h.66v-.36C30.36,17.5,30.29,17.32,30,17.32Zm3.24-7.81c-1.66,0-2,.67-2,1.3A1.16,1.16,0,0,0,32.57,12c1.35,0,1.8-.91,1.8-2.38V9.51Zm3.77,9.2c-.32,0-.53.12-.53.55v.06c0,.25.09.42.31.42s.33-.16.33-.63v-.4Zm6-1.35c-.23,0-.33.16-.33.47v1.41c0,.28.09.49.33.49s.33-.17.33-.5V17.82C43.39,17.55,43.32,17.36,43.06,17.36Zm-1-10.55c-1.14,0-1.82,1-1.82,2.55S41,11.87,42,11.87c1.31,0,1.78-.81,1.78-2.54S43.43,6.81,42.1,6.81Zm6.16,0c-1.22,0-1.85,1.05-1.85,2.54S47.05,12,48.3,12s1.84-1.1,1.84-2.73S49.52,6.77,48.26,6.77Zm0,0c-1.22,0-1.85,1.05-1.85,2.54S47.05,12,48.3,12s1.84-1.1,1.84-2.73S49.52,6.77,48.26,6.77Zm-5.2,10.59c-.23,0-.33.16-.33.47v1.41c0,.28.09.49.33.49s.33-.17.33-.5V17.82C43.39,17.55,43.32,17.36,43.06,17.36Zm-1-10.55c-1.14,0-1.82,1-1.82,2.55S41,11.87,42,11.87c1.31,0,1.78-.81,1.78-2.54S43.43,6.81,42.1,6.81Zm-5.05,11.9c-.32,0-.53.12-.53.55v.06c0,.25.09.42.31.42s.33-.16.33-.63v-.4Zm-3.77-9.2c-1.66,0-2,.67-2,1.3A1.16,1.16,0,0,0,32.57,12c1.35,0,1.8-.91,1.8-2.38V9.51ZM30,17.32c-.23,0-.34.16-.34.51v.35h.66v-.36C30.36,17.5,30.29,17.32,30,17.32Zm0,0c-.23,0-.34.16-.34.51v.35h.66v-.36C30.36,17.5,30.29,17.32,30,17.32Zm3.24-7.81c-1.66,0-2,.67-2,1.3A1.16,1.16,0,0,0,32.57,12c1.35,0,1.8-.91,1.8-2.38V9.51Zm3.77,9.2c-.32,0-.53.12-.53.55v.06c0,.25.09.42.31.42s.33-.16.33-.63v-.4Zm6-1.35c-.23,0-.33.16-.33.47v1.41c0,.28.09.49.33.49s.33-.17.33-.5V17.82C43.39,17.55,43.32,17.36,43.06,17.36Zm-1-10.55c-1.14,0-1.82,1-1.82,2.55S41,11.87,42,11.87c1.31,0,1.78-.81,1.78-2.54S43.43,6.81,42.1,6.81Zm6.21,11.9c-.32,0-.53.12-.53.55v.06c0,.25.09.42.31.42s.34-.16.34-.63v-.4ZM48.26,6.77c-1.22,0-1.85,1.05-1.85,2.54S47.05,12,48.3,12s1.84-1.1,1.84-2.73S49.52,6.77,48.26,6.77Zm0,0c-1.22,0-1.85,1.05-1.85,2.54S47.05,12,48.3,12s1.84-1.1,1.84-2.73S49.52,6.77,48.26,6.77Zm.05,11.94c-.32,0-.53.12-.53.55v.06c0,.25.09.42.31.42s.34-.16.34-.63v-.4Zm-5.25-1.35c-.23,0-.33.16-.33.47v1.41c0,.28.09.49.33.49s.33-.17.33-.5V17.82C43.39,17.55,43.32,17.36,43.06,17.36Zm-1-10.55c-1.14,0-1.82,1-1.82,2.55S41,11.87,42,11.87c1.31,0,1.78-.81,1.78-2.54S43.43,6.81,42.1,6.81Zm-5.05,11.9c-.32,0-.53.12-.53.55v.06c0,.25.09.42.31.42s.33-.16.33-.63v-.4Zm-3.77-9.2c-1.66,0-2,.67-2,1.3A1.16,1.16,0,0,0,32.57,12c1.35,0,1.8-.91,1.8-2.38V9.51ZM30,17.32c-.23,0-.34.16-.34.51v.35h.66v-.36C30.36,17.5,30.29,17.32,30,17.32ZM36.78,0C26.24,0,17.71,5.67,17.71,12.65S26.24,25.3,36.78,25.3s19.07-5.66,19.07-12.65S47.31,0,36.78,0ZM24.25,20.3h-.7V15.77h.7Zm2.66,0h-.7V17.79c0-.32-.11-.43-.3-.43s-.35.13-.35.61V20.3h-.7V17.87c0-.71,0-.92,0-1.08h.67a3,3,0,0,1,0,.32.66.66,0,0,1,.65-.37c.42,0,.72.25.72.92Zm1.82-2.9h-.44v2.08c0,.16,0,.29.24.29a.55.55,0,0,0,.19,0v.53a1.25,1.25,0,0,1-.43.07c-.44,0-.69-.14-.69-.75V17.4h-.38v-.61h.38V16h.69v.84h.44Zm.07-8.25v3.69H27.64V9.15a.44.44,0,0,0-.07-.25L24.52,3.48h1.32C26.62,5,27.89,7.24,28.27,8,29,6.63,30,4.9,30.71,3.48h1.23L28.85,8.92A.39.39,0,0,0,28.8,9.15ZM31,18.73H29.7v.51c0,.28.06.52.33.52s.31-.25.31-.5v0H31v0c0,.37-.08,1.09-1,1.09s-1-.55-1-1.26V17.94c0-.48.15-1.2,1-1.2s1,.5,1,1.19ZM33,17.6c-.4,0-.74.1-.74.82V20.3h-.7V18c0-.58,0-.83,0-1.19h.66c0,.07,0,.38,0,.57a.75.75,0,0,1,.77-.62Zm2.42,2.7h-.69V17.79c0-.32-.11-.43-.3-.43s-.36.13-.36.61V20.3h-.7V16.79H34a1.58,1.58,0,0,1,0,.32.66.66,0,0,1,.64-.37c.43,0,.72.25.72.92Zm-.88-7.46a7.63,7.63,0,0,1-.1-1.06A2,2,0,0,1,32.34,13a2,2,0,0,1-2.19-2.09c0-1,.67-2.18,3.13-2.18h1V8c0-.65-.18-1.33-1.35-1.33a1.26,1.26,0,0,0-1.46,1.22h-1.1c.11-1.15.77-2.09,2.6-2.09,1.43,0,2.42.58,2.42,2.14v3.34a11.67,11.67,0,0,0,.1,1.53Zm2.7,7.46c0-.07,0-.21,0-.26a.61.61,0,0,1-.58.31c-.53,0-.74-.49-.74-1v-.06c0-.86.58-1.09,1.21-1.09h.08v-.45c0-.27,0-.43-.24-.43s-.26.16-.26.38v.06H36v0a.84.84,0,0,1,1-1c.68,0,.91.37.91.94v1.9c0,.22,0,.58,0,.72Zm.2-10.84v3.38H36.3V8.3c0-1.1,0-2,0-2.33h1.1c0,.32,0,.76,0,1.39a2.31,2.31,0,0,1,2.22-1.52V7C38.08,7.07,37.42,8,37.42,9.46Zm2.9,8.46h-.69v-.15c0-.26-.05-.45-.27-.45s-.28.16-.28.46V19.3c0,.24.05.46.28.46s.27-.18.27-.46v-.17h.69v.05c0,.63-.16,1.17-1,1.17s-1-.54-1-1.27v-1.2c0-.57.19-1.14,1-1.14s1,.62,1,1.05ZM41.5,20.3h-.7V16.79h.7Zm0-4.65v-.07H41a2.11,2.11,0,0,1-1.8-2h1.11A1.48,1.48,0,0,0,42,14.75c1.47,0,1.81-1,1.81-2.46v-.57a1.94,1.94,0,0,1-2,1.13c-1.61,0-2.66-1.35-2.66-3.48s1.24-3.54,2.82-3.54c1.08,0,1.65.45,1.82,1A7.79,7.79,0,0,1,43.81,6H44.9c0,.32,0,1,0,2v4.35c0,2.15-.86,3.36-3,3.36Zm2.59,3.56c0,.75-.38,1.14-1,1.14s-1-.39-1-1.13V17.84a1,1,0,0,1,1-1.1c.64,0,1,.39,1,1.13Zm2.58,1.09H46V17.79c0-.32-.11-.43-.3-.43s-.36.13-.36.61V20.3h-.7V16.79h.66a1.58,1.58,0,0,1,0,.32.66.66,0,0,1,.65-.37c.42,0,.72.25.72.92Zm1.81,0c0-.07,0-.21,0-.26a.61.61,0,0,1-.58.31c-.53,0-.74-.49-.74-1v-.06c0-.86.58-1.09,1.21-1.09h.08v-.45c0-.27,0-.43-.24-.43s-.26.16-.26.38v.06h-.68v0a.84.84,0,0,1,1-1c.68,0,.92.37.92.94v1.9c0,.22,0,.58,0,.72Zm2,0h-.7V15.58h.7ZM48.23,13c-2.13,0-3-1.74-3-3.63s1-3.49,3.07-3.49,3,1.48,3,3.46S50.43,13,48.23,13Zm0-6.18c-1.22,0-1.85,1.05-1.85,2.54S47.05,12,48.3,12s1.84-1.1,1.84-2.73S49.52,6.77,48.26,6.77Zm-.48,12.49v.06c0,.25.09.42.31.42s.34-.16.34-.63v-.4h-.12C48,18.71,47.78,18.83,47.78,19.26ZM42.1,6.81c-1.14,0-1.82,1-1.82,2.55S41,11.87,42,11.87c1.31,0,1.78-.81,1.78-2.54S43.43,6.81,42.1,6.81Zm1,10.55c-.23,0-.33.16-.33.47v1.41c0,.28.09.49.33.49s.33-.17.33-.5V17.82C43.39,17.55,43.32,17.36,43.06,17.36Zm-6.54,1.9v.06c0,.25.09.42.31.42s.33-.16.33-.63v-.4h-.11C36.73,18.71,36.52,18.83,36.52,19.26ZM31.3,10.81A1.16,1.16,0,0,0,32.57,12c1.35,0,1.8-.91,1.8-2.38V9.51H33.28C31.62,9.51,31.3,10.18,31.3,10.81ZM30,17.32c-.23,0-.34.16-.34.51v.35h.66v-.36C30.36,17.5,30.29,17.32,30,17.32Zm0,0c-.23,0-.34.16-.34.51v.35h.66v-.36C30.36,17.5,30.29,17.32,30,17.32Zm3.24-7.81c-1.66,0-2,.67-2,1.3A1.16,1.16,0,0,0,32.57,12c1.35,0,1.8-.91,1.8-2.38V9.51Zm3.77,9.2c-.32,0-.53.12-.53.55v.06c0,.25.09.42.31.42s.33-.16.33-.63v-.4ZM42.1,6.81c-1.14,0-1.82,1-1.82,2.55S41,11.87,42,11.87c1.31,0,1.78-.81,1.78-2.54S43.43,6.81,42.1,6.81Zm1,10.55c-.23,0-.33.16-.33.47v1.41c0,.28.09.49.33.49s.33-.17.33-.5V17.82C43.39,17.55,43.32,17.36,43.06,17.36Zm5.2-10.59c-1.22,0-1.85,1.05-1.85,2.54S47.05,12,48.3,12s1.84-1.1,1.84-2.73S49.52,6.77,48.26,6.77Zm0,0c-1.22,0-1.85,1.05-1.85,2.54S47.05,12,48.3,12s1.84-1.1,1.84-2.73S49.52,6.77,48.26,6.77Zm-6.16,0c-1.14,0-1.82,1-1.82,2.55S41,11.87,42,11.87c1.31,0,1.78-.81,1.78-2.54S43.43,6.81,42.1,6.81Zm1,10.55c-.23,0-.33.16-.33.47v1.41c0,.28.09.49.33.49s.33-.17.33-.5V17.82C43.39,17.55,43.32,17.36,43.06,17.36Zm-6,1.35c-.32,0-.53.12-.53.55v.06c0,.25.09.42.31.42s.33-.16.33-.63v-.4Zm-3.77-9.2c-1.66,0-2,.67-2,1.3A1.16,1.16,0,0,0,32.57,12c1.35,0,1.8-.91,1.8-2.38V9.51ZM30,17.32c-.23,0-.34.16-.34.51v.35h.66v-.36C30.36,17.5,30.29,17.32,30,17.32Zm0,0c-.23,0-.34.16-.34.51v.35h.66v-.36C30.36,17.5,30.29,17.32,30,17.32Zm3.24-7.81c-1.66,0-2,.67-2,1.3A1.16,1.16,0,0,0,32.57,12c1.35,0,1.8-.91,1.8-2.38V9.51Zm3.77,9.2c-.32,0-.53.12-.53.55v.06c0,.25.09.42.31.42s.33-.16.33-.63v-.4ZM42.1,6.81c-1.14,0-1.82,1-1.82,2.55S41,11.87,42,11.87c1.31,0,1.78-.81,1.78-2.54S43.43,6.81,42.1,6.81Zm6.16,0c-1.22,0-1.85,1.05-1.85,2.54S47.05,12,48.3,12s1.84-1.1,1.84-2.73S49.52,6.77,48.26,6.77Zm0,0c-1.22,0-1.85,1.05-1.85,2.54S47.05,12,48.3,12s1.84-1.1,1.84-2.73S49.52,6.77,48.26,6.77Zm-6.16,0c-1.14,0-1.82,1-1.82,2.55S41,11.87,42,11.87c1.31,0,1.78-.81,1.78-2.54S43.43,6.81,42.1,6.81Zm-5.05,11.9c-.32,0-.53.12-.53.55v.06c0,.25.09.42.31.42s.33-.16.33-.63v-.4Zm-3.77-9.2c-1.66,0-2,.67-2,1.3A1.16,1.16,0,0,0,32.57,12c1.35,0,1.8-.91,1.8-2.38V9.51ZM30,17.32c-.23,0-.34.16-.34.51v.35h.66v-.36C30.36,17.5,30.29,17.32,30,17.32Zm0,0c-.23,0-.34.16-.34.51v.35h.66v-.36C30.36,17.5,30.29,17.32,30,17.32Zm3.24-7.81c-1.66,0-2,.67-2,1.3A1.16,1.16,0,0,0,32.57,12c1.35,0,1.8-.91,1.8-2.38V9.51Zm3.77,9.2c-.32,0-.53.12-.53.55v.06c0,.25.09.42.31.42s.33-.16.33-.63v-.4ZM42.1,6.81c-1.14,0-1.82,1-1.82,2.55S41,11.87,42,11.87c1.31,0,1.78-.81,1.78-2.54S43.43,6.81,42.1,6.81Zm6.16,0c-1.22,0-1.85,1.05-1.85,2.54S47.05,12,48.3,12s1.84-1.1,1.84-2.73S49.52,6.77,48.26,6.77Zm0,0c-1.22,0-1.85,1.05-1.85,2.54S47.05,12,48.3,12s1.84-1.1,1.84-2.73S49.52,6.77,48.26,6.77Zm-6.16,0c-1.14,0-1.82,1-1.82,2.55S41,11.87,42,11.87c1.31,0,1.78-.81,1.78-2.54S43.43,6.81,42.1,6.81Zm-5.05,11.9c-.32,0-.53.12-.53.55v.06c0,.25.09.42.31.42s.33-.16.33-.63v-.4Zm-3.77-9.2c-1.66,0-2,.67-2,1.3A1.16,1.16,0,0,0,32.57,12c1.35,0,1.8-.91,1.8-2.38V9.51ZM30,17.32c-.23,0-.34.16-.34.51v.35h.66v-.36C30.36,17.5,30.29,17.32,30,17.32Zm0,0c-.23,0-.34.16-.34.51v.35h.66v-.36C30.36,17.5,30.29,17.32,30,17.32Zm3.24-7.81c-1.66,0-2,.67-2,1.3A1.16,1.16,0,0,0,32.57,12c1.35,0,1.8-.91,1.8-2.38V9.51Zm8.82-2.7c-1.14,0-1.82,1-1.82,2.55S41,11.87,42,11.87c1.31,0,1.78-.81,1.78-2.54S43.43,6.81,42.1,6.81Zm6.16,0c-1.22,0-1.85,1.05-1.85,2.54S47.05,12,48.3,12s1.84-1.1,1.84-2.73S49.52,6.77,48.26,6.77Zm0,0c-1.22,0-1.85,1.05-1.85,2.54S47.05,12,48.3,12s1.84-1.1,1.84-2.73S49.52,6.77,48.26,6.77Zm-6.16,0c-1.14,0-1.82,1-1.82,2.55S41,11.87,42,11.87c1.31,0,1.78-.81,1.78-2.54S43.43,6.81,42.1,6.81Zm-8.82,2.7c-1.66,0-2,.67-2,1.3A1.16,1.16,0,0,0,32.57,12c1.35,0,1.8-.91,1.8-2.38V9.51ZM30,17.32c-.23,0-.34.16-.34.51v.35h.66v-.36C30.36,17.5,30.29,17.32,30,17.32Zm3.24-7.81c-1.66,0-2,.67-2,1.3A1.16,1.16,0,0,0,32.57,12c1.35,0,1.8-.91,1.8-2.38V9.51Zm8.82-2.7c-1.14,0-1.82,1-1.82,2.55S41,11.87,42,11.87c1.31,0,1.78-.81,1.78-2.54S43.43,6.81,42.1,6.81Zm6.16,0c-1.22,0-1.85,1.05-1.85,2.54S47.05,12,48.3,12s1.84-1.1,1.84-2.73S49.52,6.77,48.26,6.77Zm0,0c-1.22,0-1.85,1.05-1.85,2.54S47.05,12,48.3,12s1.84-1.1,1.84-2.73S49.52,6.77,48.26,6.77Zm-6.16,0c-1.14,0-1.82,1-1.82,2.55S41,11.87,42,11.87c1.31,0,1.78-.81,1.78-2.54S43.43,6.81,42.1,6.81Zm-8.82,2.7c-1.66,0-2,.67-2,1.3A1.16,1.16,0,0,0,32.57,12c1.35,0,1.8-.91,1.8-2.38V9.51Zm0,0c-1.66,0-2,.67-2,1.3A1.16,1.16,0,0,0,32.57,12c1.35,0,1.8-.91,1.8-2.38V9.51Zm8.82-2.7c-1.14,0-1.82,1-1.82,2.55S41,11.87,42,11.87c1.31,0,1.78-.81,1.78-2.54S43.43,6.81,42.1,6.81Zm6.16,0c-1.22,0-1.85,1.05-1.85,2.54S47.05,12,48.3,12s1.84-1.1,1.84-2.73S49.52,6.77,48.26,6.77Zm0,0c-1.22,0-1.85,1.05-1.85,2.54S47.05,12,48.3,12s1.84-1.1,1.84-2.73S49.52,6.77,48.26,6.77Zm-6.16,0c-1.14,0-1.82,1-1.82,2.55S41,11.87,42,11.87c1.31,0,1.78-.81,1.78-2.54S43.43,6.81,42.1,6.81Zm-8.82,2.7c-1.66,0-2,.67-2,1.3A1.16,1.16,0,0,0,32.57,12c1.35,0,1.8-.91,1.8-2.38V9.51Zm0,0c-1.66,0-2,.67-2,1.3A1.16,1.16,0,0,0,32.57,12c1.35,0,1.8-.91,1.8-2.38V9.51Zm8.82-2.7c-1.14,0-1.82,1-1.82,2.55S41,11.87,42,11.87c1.31,0,1.78-.81,1.78-2.54S43.43,6.81,42.1,6.81Zm0,0c-1.14,0-1.82,1-1.82,2.55S41,11.87,42,11.87c1.31,0,1.78-.81,1.78-2.54S43.43,6.81,42.1,6.81Zm-8.82,2.7c-1.66,0-2,.67-2,1.3A1.16,1.16,0,0,0,32.57,12c1.35,0,1.8-.91,1.8-2.38V9.51Zm0,0c-1.66,0-2,.67-2,1.3A1.16,1.16,0,0,0,32.57,12c1.35,0,1.8-.91,1.8-2.38V9.51Zm0,0c-1.66,0-2,.67-2,1.3A1.16,1.16,0,0,0,32.57,12c1.35,0,1.8-.91,1.8-2.38V9.51Z"/></svg>