<?xml version="1.0" encoding="UTF-8"?>
<svg xmlns="http://www.w3.org/2000/svg" fill="none" height="26" viewBox="0 0 104 26" width="104"><link xmlns="" type="text/css" rel="stylesheet" id="dark-mode-custom-link"/><link xmlns="" type="text/css" rel="stylesheet" id="dark-mode-general-link"/><style xmlns="" lang="en" type="text/css" id="dark-mode-custom-style"/><style xmlns="" lang="en" type="text/css" id="dark-mode-native-style"/><style xmlns="" lang="en" type="text/css" id="dark-mode-native-sheet"/>
<path d="M36.0064 12.2401C38.5361 13.0834 39.9718 14.5419 40.1541 17.0716C40.3592 19.8747 39.1514 21.9713 36.8952 23.521C35.5962 24.4326 34.1149 24.9796 32.5652 25.253C29.6253 25.8 26.6626 25.8228 23.7228 25.3442C20.7601 24.8656 19.4611 23.0652 20.0992 20.1026C21.421 13.9949 22.834 7.8873 24.2241 1.80245C24.3381 1.32387 24.4748 0.959236 25.0902 0.913657C28.4174 0.617391 31.722 0.116018 35.072 0.68576C36.3027 0.890867 37.4877 1.18713 38.5816 1.73409C42.3647 3.60284 42.7522 8.1152 39.4021 10.6449C38.4449 11.3513 37.3738 11.8071 36.0064 12.2401ZM27.3008 14.5647C26.8677 16.5474 26.4575 18.3706 26.0473 20.1709C25.8878 20.8546 25.9789 21.4016 26.7994 21.4472C28.7137 21.5383 30.628 21.4472 32.3373 20.4444C33.6363 19.6924 34.1832 18.5073 34.0009 17.0032C33.8186 15.5674 32.7931 14.9977 31.5396 14.6103C30.1495 14.2 28.8049 14.8837 27.3008 14.5647ZM31.5168 4.60559C30.9243 4.99301 29.8076 4.05863 29.443 5.28928C29.0556 6.65666 28.7821 8.06962 28.463 9.48258C28.3491 9.96116 28.5086 10.3942 29.0328 10.417C31.0838 10.5309 33.1349 10.5537 34.7986 9.09516C36.4166 7.6822 35.9153 5.49439 33.8642 4.83348C33.1349 4.62838 32.3829 4.62838 31.5168 4.60559Z" fill="#A4ABB6"/>
<path d="M85.4828 4.94704C84.3206 1.75648 81.3807 1.00442 78.3724 0.708154C75.5921 0.434677 72.789 0.571415 70.0086 0.890471C69.0515 1.00442 68.5729 1.36905 68.345 2.3718C66.7041 9.84682 64.9949 17.3218 63.3313 24.7969C63.2629 25.0703 63.1261 25.3666 63.4908 25.7084C64.1517 25.7084 64.9265 25.7084 65.6786 25.7084C68.4589 25.7084 69.2794 25.0475 69.8947 22.3584C70.2593 20.7631 70.624 19.145 70.9658 17.5953C71.5355 17.3902 71.9913 17.5497 72.4471 17.5725C76.4581 17.7093 80.264 17.0484 83.2039 14.0401C85.7107 11.4877 86.7591 8.38828 85.4828 4.94704ZM80.4691 8.93523C79.9221 11.5333 77.6888 13.1513 74.6122 13.1741C72.6067 13.1741 72.4243 12.9462 72.8573 10.9179C73.222 9.25429 73.6094 7.61343 73.9057 5.94978C74.0424 5.12935 74.4526 4.8103 75.2503 4.8103C76.0935 4.78751 76.9367 4.74193 77.7799 4.90146C79.9677 5.31167 80.9249 6.74742 80.4691 8.93523Z" fill="#A4ABB6"/>
<path d="M62.9894 1.14147C57.725 -0.772865 52.6657 -0.43102 48.3129 3.32928C44.1423 6.93005 42.8205 11.7159 43.3447 17.0943C43.641 20.1709 44.94 22.7461 47.6975 24.3186C51.2071 26.3241 54.9674 26.3924 58.7505 25.2758C59.5937 25.0251 60.2319 24.4325 60.4598 23.5437C60.8016 22.1991 61.0979 20.8546 61.4397 19.3276C60.2547 19.9658 59.2975 20.5583 58.2036 20.9001C54.7623 21.9712 51.3211 20.6494 50.1132 17.7779C48.4496 13.8125 50.8197 7.56816 54.7623 5.74499C57.9985 4.26366 61.1207 4.92456 64.2428 6.65657C64.4252 5.97288 64.6075 5.35756 64.767 4.74224C65.2228 2.8507 64.8354 1.82516 62.9894 1.14147Z" fill="#A4ABB6"/>
<path d="M10.1173 3.01074C13.2167 4.58323 15.7008 6.83941 17.524 9.75649C18.6407 11.5569 18.5039 13.5396 17.2505 15.2716C14.6753 18.8724 11.2568 21.516 7.2914 23.3391C4.62501 24.5698 1.68514 23.134 0.545654 20.2397C2.14093 19.3965 3.73621 18.5305 5.19475 17.4594C7.38256 15.8641 9.27411 14.0182 10.2085 11.3973C11.4847 8.59422 11.5987 5.79108 10.1173 3.01074Z" fill="#DDE0E5"/>
<path d="M95.5787 3.01074C98.6781 4.56044 101.162 6.8622 103.008 9.75649C104.125 11.5113 104.034 13.4484 102.826 15.1576C100.228 18.8496 96.7409 21.5388 92.6844 23.3847C90.0408 24.5698 87.1693 23.1113 86.0526 20.2853C87.5567 19.4649 89.0836 18.6445 90.4738 17.6189C92.73 15.9781 94.7355 14.1093 95.6926 11.3974C96.9916 8.57143 97.0828 5.7683 95.5787 3.01074Z" fill="#DDE0E5"/>
<path d="M10.1173 3.01077C11.5986 5.79111 11.4619 8.57145 10.1857 11.3746C8.24856 9.27793 5.83286 7.84218 3.28041 6.7027C4.625 3.07913 7.67882 1.48386 10.1173 3.01077Z" fill="#A4ABB6"/>
<path d="M95.5787 3.0094C97.0828 5.78975 96.9916 8.57009 95.6698 11.396C93.7555 9.29936 91.3626 7.8864 88.6734 6.67854C89.5622 4.67305 90.8384 3.21451 92.8439 2.46245C93.8694 2.05224 94.7582 2.3485 95.5787 3.0094Z" fill="#A4ABB6"/>
</svg>