<svg id="Capa_1" data-name="Capa 1" xmlns="http://www.w3.org/2000/svg" xmlns:xlink="http://www.w3.org/1999/xlink" viewBox="0 0 298.26 60"><defs><style>.cls-1,.cls-4{fill:#a3abb6;}.cls-2{fill:none;stroke:#c6c5c5;}.cls-2,.cls-3,.cls-4,.cls-5,.cls-6,.cls-7,.cls-8{stroke-miterlimit:10;}.cls-3,.cls-4,.cls-5,.cls-6,.cls-7,.cls-8{stroke:#fff;}.cls-3{fill:url(#radial-gradient);}.cls-5{fill:url(#radial-gradient-2);}.cls-6{fill:url(#radial-gradient-3);}.cls-7{fill:url(#radial-gradient-4);}.cls-8{fill:url(#radial-gradient-5);}</style><radialGradient id="radial-gradient" cx="7.78" cy="92.4" r="0" gradientTransform="translate(56.43 51.23) rotate(132.64) scale(1 0.27)" gradientUnits="userSpaceOnUse"><stop offset="0" stop-color="#fff"/><stop offset="1" stop-color="#fff" stop-opacity="0"/></radialGradient><radialGradient id="radial-gradient-2" cx="-15.85" cy="86.33" r="11.19" gradientTransform="translate(-5.23 -21.93) rotate(-46.65) scale(1 0.54)" xlink:href="#radial-gradient"/><radialGradient id="radial-gradient-3" cx="-13.72" cy="105.64" r="9.83" gradientTransform="matrix(0.65, 0.76, -0.19, 0.17, 37.2, 31.24)" xlink:href="#radial-gradient"/><radialGradient id="radial-gradient-4" cx="10.49" cy="98.81" r="10.5" gradientTransform="translate(57.93 57.15) rotate(132.64) scale(1 0.27)" xlink:href="#radial-gradient"/><radialGradient id="radial-gradient-5" cx="3.87" cy="79.59" r="11.6" gradientTransform="translate(49.89 10.03) rotate(45.43) scale(1 0.27)" xlink:href="#radial-gradient"/></defs><path class="cls-1" d="M66.38,7.6a5.29,5.29,0,0,1-1.67,4.1,5.7,5.7,0,0,1-3.95,1.52,5.79,5.79,0,0,1-4-1.52,5.29,5.29,0,0,1-1.67-4.1,5.37,5.37,0,0,1,1.67-4.18,5.79,5.79,0,0,1,4-1.52,5.7,5.7,0,0,1,3.95,1.52A5.37,5.37,0,0,1,66.38,7.6Zm-1,51.34H56.2V19.22h9.19Z"/><path class="cls-1" d="M110.66,39a25.65,25.65,0,0,1-1.37,8.58,19,19,0,0,1-3.87,6.61,17.54,17.54,0,0,1-6,4.25A19.4,19.4,0,0,1,91.59,60a19.06,19.06,0,0,1-7.74-1.52,17.62,17.62,0,0,1-6-4.25,19.54,19.54,0,0,1-3.91-6.61A25.15,25.15,0,0,1,72.53,39a24.89,24.89,0,0,1,1.4-8.55,19.5,19.5,0,0,1,3.95-6.57,17.55,17.55,0,0,1,6-4.21,19.42,19.42,0,0,1,7.67-1.48,19.66,19.66,0,0,1,7.71,1.48,17,17,0,0,1,6,4.21,19.75,19.75,0,0,1,3.91,6.57A24.65,24.65,0,0,1,110.66,39Zm-9.42,0q0-5.92-2.55-9.38a9,9,0,0,0-14.2,0C82.79,32,82,35.09,82,39s.84,7.16,2.54,9.49a9,9,0,0,0,14.2,0Q101.24,45,101.24,39Z"/><path class="cls-1" d="M131.62,59.7a25.19,25.19,0,0,1-6.8-.91,10.43,10.43,0,0,1-4.29-2.4,8.42,8.42,0,0,1-2.24-3.87,19.66,19.66,0,0,1-.65-5.28V1.52L126.83,0V45.49a12.31,12.31,0,0,0,.27,2.81,4.47,4.47,0,0,0,1,1.94,4.23,4.23,0,0,0,1.86,1.22,14.23,14.23,0,0,0,3,.64Z"/><path class="cls-1" d="M151.21,18.23a22.43,22.43,0,0,1,7.67,1.14,12.21,12.21,0,0,1,5,3.19,11.87,11.87,0,0,1,2.66,5,24.44,24.44,0,0,1,.79,6.42V58q-2.12.45-6.41,1.1a65.69,65.69,0,0,1-9.69.65,28.76,28.76,0,0,1-6.53-.69,13.69,13.69,0,0,1-5.05-2.2,10.46,10.46,0,0,1-3.27-4,13.77,13.77,0,0,1-1.17-6,11.6,11.6,0,0,1,1.33-5.78,10.91,10.91,0,0,1,3.6-3.83,15.58,15.58,0,0,1,5.28-2.13,29.76,29.76,0,0,1,6.27-.64,27.63,27.63,0,0,1,3.19.19,29.42,29.42,0,0,1,3.57.64V33.87a12,12,0,0,0-.38-3,6.5,6.5,0,0,0-1.33-2.55,6.36,6.36,0,0,0-2.51-1.71,11,11,0,0,0-3.91-.6,35.12,35.12,0,0,0-5.85.45,26.09,26.09,0,0,0-4.33,1.06L139,20.05a36.45,36.45,0,0,1,5.09-1.21A39.49,39.49,0,0,1,151.21,18.23ZM152,52.48a34.65,34.65,0,0,0,6.46-.45V41.85a20,20,0,0,0-2.2-.46,20.88,20.88,0,0,0-3.19-.23,21.5,21.5,0,0,0-3.08.23,9.61,9.61,0,0,0-2.81.84,4.93,4.93,0,0,0-2,1.71,4.74,4.74,0,0,0-.76,2.77c0,2.18.68,3.68,2.05,4.52A10.5,10.5,0,0,0,152,52.48Z"/><path class="cls-1" d="M175.74,8.74l9.2-1.52v12h14.12v7.67H184.94V43.06c0,3.2.5,5.47,1.51,6.84S189.19,52,191.62,52a17,17,0,0,0,4.44-.53c1.29-.36,2.32-.69,3.08-1l1.52,7.29a34,34,0,0,1-4.18,1.41,22.78,22.78,0,0,1-6.08.72,19.24,19.24,0,0,1-7.1-1.14,10.53,10.53,0,0,1-4.52-3.3,13.11,13.11,0,0,1-2.35-5.24,32.32,32.32,0,0,1-.69-7Z"/><path class="cls-1" d="M218.81,18.23a22.47,22.47,0,0,1,7.67,1.14,12.24,12.24,0,0,1,5,3.19,11.87,11.87,0,0,1,2.66,5,24.43,24.43,0,0,1,.8,6.42V58q-2.13.45-6.42,1.1a65.54,65.54,0,0,1-9.68.65,28.91,28.91,0,0,1-6.54-.69,13.64,13.64,0,0,1-5-2.2,10.28,10.28,0,0,1-3.27-4,13.77,13.77,0,0,1-1.18-6,11.71,11.71,0,0,1,1.33-5.78,11,11,0,0,1,3.61-3.83A15.58,15.58,0,0,1,213,35.2a29.73,29.73,0,0,1,6.26-.64,27.66,27.66,0,0,1,3.2.19,29.42,29.42,0,0,1,3.57.64V33.87a11.54,11.54,0,0,0-.39-3,6,6,0,0,0-3.83-4.26,11,11,0,0,0-3.91-.6,35.12,35.12,0,0,0-5.85.45,25.84,25.84,0,0,0-4.33,1.06l-1.14-7.44a36.45,36.45,0,0,1,5.09-1.21A39.41,39.41,0,0,1,218.81,18.23Zm.76,34.25A34.72,34.72,0,0,0,226,52V41.85a20.3,20.3,0,0,0-2.21-.46,20.69,20.69,0,0,0-3.19-.23,21.61,21.61,0,0,0-3.08.23,9.64,9.64,0,0,0-2.8.84,5,5,0,0,0-2,1.71,4.81,4.81,0,0,0-.76,2.77c0,2.18.69,3.68,2.05,4.52A10.56,10.56,0,0,0,219.57,52.48Z"/><path class="cls-1" d="M266.43,38.05q0-6.22-1.56-9t-5.81-2.77a27.59,27.59,0,0,0-3.34.23c-1.21.15-2.12.28-2.73.38V58.94H243.8V20.51a60.68,60.68,0,0,1,6.95-1.45,58.3,58.3,0,0,1,9.07-.68,18.09,18.09,0,0,1,6.73,1.06,13.07,13.07,0,0,1,4.36,2.81A19.73,19.73,0,0,1,273,21a22.38,22.38,0,0,1,2.89-1.25,25.94,25.94,0,0,1,3.37-.95,17.57,17.57,0,0,1,3.61-.38,18.9,18.9,0,0,1,7.64,1.33,11.35,11.35,0,0,1,4.71,3.72,14.63,14.63,0,0,1,2.35,5.77,39.69,39.69,0,0,1,.65,7.41V58.94h-9.2V38.05q0-6.22-1.51-9t-5.85-2.77a12.12,12.12,0,0,0-4.18.72,13.06,13.06,0,0,0-3,1.41,20.31,20.31,0,0,1,.83,4,43.45,43.45,0,0,1,.23,4.56V58.94h-9.19Z"/><circle class="cls-2" cx="23.94" cy="33.88" r="23.44" transform="translate(-16.73 42.07) rotate(-66.15)"/><path class="cls-2" d="M32.39,33.88a8.46,8.46,0,1,1-8.45-8.45A8.45,8.45,0,0,1,32.39,33.88Z"/><path class="cls-3" d="M33.09,40.3"/><path class="cls-4" d="M19.38,42.93a15.24,15.24,0,0,1-2.24.16A14,14,0,0,1,4.65,23a22.24,22.24,0,0,1,1.44-2.23,20.76,20.76,0,0,1,1.56-1.9,22.12,22.12,0,0,1,28.8-3.27A14,14,0,0,0,14.68,27.18a15,15,0,0,0,.16,2.23,10.17,10.17,0,0,0,1.77,11.48A10,10,0,0,0,18,42.05,9.65,9.65,0,0,0,19.38,42.93Z"/><path class="cls-5" d="M18,42.05a10,10,0,0,1-1.34-1.16,10.17,10.17,0,0,1-1.77-11.48,15,15,0,0,1-.16-2.23A14,14,0,0,1,36.45,15.64a22.12,22.12,0,0,0-28.8,3.27,20.76,20.76,0,0,0-1.56,1.9A22.24,22.24,0,0,0,4.65,23,14,14,0,0,0,17.14,43.09a15.24,15.24,0,0,0,2.24-.16A9.65,9.65,0,0,1,18,42.05Zm-.8.8A13.8,13.8,0,0,1,5.73,36.58a13.85,13.85,0,0,1-.87-13.44,22,22,0,0,1,1.41-2.2,23.08,23.08,0,0,1,1.55-1.88,21.88,21.88,0,0,1,23.74-5.7,14.24,14.24,0,0,0-10.64,2,14,14,0,0,0-3.71,3.52,14.14,14.14,0,0,0-2.76,8.28,16.15,16.15,0,0,0,.15,2.2A10.37,10.37,0,0,0,16.45,41a9.73,9.73,0,0,0,1.36,1.2c.27.2.55.38.83.55A12.46,12.46,0,0,1,17.15,42.85Z"/><path class="cls-4" d="M30.34,48.79a13.84,13.84,0,0,1-3.62,3.43,14,14,0,0,1-13.36,1.1,20.21,20.21,0,0,1-2.5-1.59,21.31,21.31,0,0,1-2.44-2.07h0A22.13,22.13,0,0,1,4.65,23,14,14,0,0,0,17.14,43.09a15.24,15.24,0,0,0,2.24-.16A10.12,10.12,0,0,0,31,41.13a9.82,9.82,0,0,0,1.9-2.55,14.17,14.17,0,0,1,.14,2.06A14,14,0,0,1,30.34,48.79Z"/><path class="cls-6" d="M33.05,40.64a14.17,14.17,0,0,0-.14-2.06A9.82,9.82,0,0,1,31,41.13a10.12,10.12,0,0,1-11.63,1.8,15.24,15.24,0,0,1-2.24.16A14,14,0,0,1,4.65,23,22.13,22.13,0,0,0,8.41,49.65h0a21.31,21.31,0,0,0,2.44,2.07,20.21,20.21,0,0,0,2.5,1.59,14,14,0,0,0,13.36-1.1,13.84,13.84,0,0,0,3.62-3.43A14,14,0,0,0,33.05,40.64ZM26.6,52a13.71,13.71,0,0,1-13.14,1.08A20.74,20.74,0,0,1,11,51.55a21.71,21.71,0,0,1-2.41-2h0a21.92,21.92,0,0,1-5.3-22.85A14.21,14.21,0,0,0,8.88,40.56a14.15,14.15,0,0,0,8.26,2.76,16.26,16.26,0,0,0,2.2-.15A10.33,10.33,0,0,0,31.17,41.3,9.87,9.87,0,0,0,32.29,40a7.78,7.78,0,0,0,.47-.7q.06.66.06,1.32a13.73,13.73,0,0,1-2.67,8A13.58,13.58,0,0,1,26.6,52Z"/><path class="cls-4" d="M42,46.7a14,14,0,0,0-11.36-22,13.52,13.52,0,0,0-2.11.14,10.14,10.14,0,0,0-11.68,1.83,9.77,9.77,0,0,0-1.06,1.23,10.69,10.69,0,0,0-.92,1.51,15,15,0,0,1-.16-2.23A14,14,0,0,1,36.45,15.64l.23.15L37,16l.29.22A22.12,22.12,0,0,1,42,46.7Z"/><path class="cls-4" d="M41.76,47l-.22.3-.17.21a22.13,22.13,0,0,1-28,5.82,14,14,0,0,0,13.36-1.1,13.84,13.84,0,0,0,3.62-3.43,14,14,0,0,0,2.71-8.15,14.17,14.17,0,0,0-.14-2.06,10.12,10.12,0,0,0-1.8-11.85,10.8,10.8,0,0,0-1.19-1,11,11,0,0,0-1.42-.87,13.52,13.52,0,0,1,2.11-.14A14,14,0,0,1,42,46.7Z"/><path class="cls-7" d="M42,46.7a14,14,0,0,0-11.36-22,13.52,13.52,0,0,0-2.11.14,11,11,0,0,1,1.42.87,10.8,10.8,0,0,1,1.19,1,10.12,10.12,0,0,1,1.8,11.85,14.17,14.17,0,0,1,.14,2.06,14,14,0,0,1-2.71,8.15,13.84,13.84,0,0,1-3.62,3.43,14,14,0,0,1-13.36,1.1,22.13,22.13,0,0,0,28-5.82l.17-.21.22-.3Zm-.61.45-.17.21a21.89,21.89,0,0,1-24.42,7.22A14.27,14.27,0,0,0,33.28,40.64a15.22,15.22,0,0,0-.13-2,10.42,10.42,0,0,0-1.87-12,10,10,0,0,0-1.22-1c-.27-.2-.54-.38-.82-.55.45,0,.91-.05,1.37-.05a13.7,13.7,0,0,1,8,2.66A13.89,13.89,0,0,1,42,31.19a13.73,13.73,0,0,1-.23,15.38c-.07.09-.13.19-.2.29Z"/><path class="cls-8" d="M37.27,16.23,37,16l-.3-.22-.23-.15A14,14,0,0,0,14.68,27.18a15,15,0,0,0,.16,2.23,10.69,10.69,0,0,1,.92-1.51,9.77,9.77,0,0,1,1.06-1.23A10.14,10.14,0,0,1,28.5,24.84a13.52,13.52,0,0,1,2.11-.14A14,14,0,0,1,42,46.7,22.12,22.12,0,0,0,37.27,16.23Zm5.12,14.71A14.23,14.23,0,0,0,28.54,24.6a10.34,10.34,0,0,0-11.88,1.9,10.87,10.87,0,0,0-1.08,1.26,8.93,8.93,0,0,0-.6.91,14.66,14.66,0,0,1-.07-1.48A13.78,13.78,0,0,1,36.32,15.83l.23.15.29.21.29.22a21.9,21.9,0,0,1,7.26,25.31A14.18,14.18,0,0,0,42.39,30.94Z"/></svg>