<?xml version="1.0" encoding="UTF-8"?>
<svg xmlns="http://www.w3.org/2000/svg" fill="none" height="26" viewBox="0 0 108 26" width="108"><link xmlns="" type="text/css" rel="stylesheet" id="dark-mode-custom-link"/><link xmlns="" type="text/css" rel="stylesheet" id="dark-mode-general-link"/><style xmlns="" lang="en" type="text/css" id="dark-mode-custom-style"/><style xmlns="" lang="en" type="text/css" id="dark-mode-native-style"/><style xmlns="" lang="en" type="text/css" id="dark-mode-native-sheet"/>
<g clip-path="url(#clip0_1414_35396)">
<path d="M44.7196 6.71875C42.7956 6.71875 40.6068 7.61102 39.2687 9.39685L39.27 9.39366L39.2687 9.39494L39.27 6.99891H34.6794V23.7155H39.2687V14.2043C39.2687 12.492 40.596 10.6723 43.0534 10.6723C44.9531 10.6723 46.918 11.9931 46.918 14.2043V23.7155H51.5086V13.3529C51.5086 9.50879 48.7582 6.71875 44.7196 6.71875Z" fill="#A4ABB6"/>
<path d="M84.1332 6.99902L79.9833 18.3862L75.8334 6.99902H70.5905L77.4683 23.7092H82.4977L89.3762 6.99902H84.1332Z" fill="#A4ABB6"/>
<path d="M20.9758 12.0356C21.7574 10.986 23.0027 10.37 24.5065 10.37C26.1612 10.37 27.4161 11.3147 28.0641 12.7085L20.0451 16.0358C19.8257 14.3287 20.2626 12.9931 20.9758 12.0356ZM29.7949 18.5758C27.8626 20.0053 26.7586 20.3469 24.9971 20.3469C23.4115 20.3469 22.1706 19.855 21.2949 18.9915L33.0301 14.1227C32.7743 12.3087 32.086 10.6886 31.0262 9.456C29.484 7.66506 27.2019 6.71777 24.424 6.71777C19.3761 6.71777 15.5703 10.4417 15.5703 15.3591C15.5703 20.4044 19.385 23.9998 24.9293 23.9998C28.0353 23.9998 31.2117 22.5274 32.6969 20.8074L29.7949 18.5758Z" fill="#A4ABB6"/>
<path d="M15.1326 19.5007H4.69974V2H0.0471191V23.7152H15.1326V19.5007Z" fill="#A4ABB6"/>
<path d="M97.6184 10.6515C95.0548 10.6515 93.1941 12.594 93.1941 15.3578C93.1941 17.9963 95.1654 20.0642 97.6804 20.0642C100.244 20.0642 102.105 18.0679 102.105 15.3578C102.105 12.7187 100.134 10.6515 97.6184 10.6515ZM97.6184 23.9972C92.598 23.9972 88.6649 20.2573 88.6649 15.3578C88.6649 10.5133 92.6255 6.71777 97.6804 6.71777C102.7 6.71777 106.633 10.4577 106.633 15.3578C106.633 20.2017 102.673 23.9972 97.6184 23.9972Z" fill="#A4ABB6"/>
<path d="M62.2774 10.6515C59.7138 10.6515 57.8531 12.594 57.8531 15.3578C57.8531 17.9963 59.8244 20.0642 62.3394 20.0642C64.9031 20.0642 66.7644 18.0679 66.7644 15.3578C66.7644 12.7187 64.793 10.6515 62.2774 10.6515ZM62.2774 23.9972C57.257 23.9972 53.3246 20.2573 53.3246 15.3578C53.3246 10.5133 57.2845 6.71777 62.3394 6.71777C67.3592 6.71777 71.2923 10.4577 71.2923 15.3578C71.2923 20.2017 67.3323 23.9972 62.2774 23.9972Z" fill="#A4ABB6"/>
</g>
<defs>
<clipPath id="clip0_1414_35396">
<rect fill="white" height="26" transform="translate(0.0471191)" width="107"/>
</clipPath>
</defs>
</svg>