<svg id="Capa_1" data-name="Capa 1" xmlns="http://www.w3.org/2000/svg" viewBox="0 0 97.4 26"><defs><style>.cls-1{fill:#a4abb6;}</style></defs><path class="cls-1" d="M11.35,11.79c0,2.23-1.52,4.71-5.62,4.71-2.43,0-5-1.1-5.73-3.6l2.25-.7c.23,1,1.41,2.16,3.53,2.16C7.51,14.36,9,13.61,9,12,9,9.81,7.1,9.72,4.57,9.1,1.37,8.33.64,6.64.64,4.57.64,1.89,2.94,0,5.89,0a4.79,4.79,0,0,1,4.83,3.44L8.49,4A2.72,2.72,0,0,0,5.67,2.12,2.51,2.51,0,0,0,2.91,4.57c0,2,1.94,2.35,4,2.8C10,8.1,11.35,9.22,11.35,11.79Z"/><path class="cls-1" d="M97.4,8.24c0,4.5-2.92,8-8.31,8H84.58V.27h4.51C94.48.27,97.4,3.75,97.4,8.24Zm-2.3,0c0-3.58-2.23-5.9-6-5.9H86.86V14.13h2.23C92.87,14.13,95.1,11.81,95.1,8.24Z"/><rect class="cls-1" x="14.79" y="0.27" width="9.47" height="2.19"/><rect class="cls-1" x="14.79" y="7.3" width="7.28" height="1.81"/><rect class="cls-1" x="14.79" y="14.24" width="9.47" height="2.19"/><polygon class="cls-1" points="76.74 0.27 76.74 0.27 75.47 2.72 75.48 2.82 78.11 10.29 73.26 10.29 72.07 12.38 78.86 12.38 80.2 16.2 82.66 16.2 76.74 0.27"/><polygon class="cls-1" points="31.87 0.27 31.87 0.27 30.6 2.72 30.62 2.82 33.24 10.29 28.39 10.29 27.2 12.38 33.99 12.38 35.33 16.2 37.79 16.2 31.87 0.27"/><path class="cls-1" d="M50.89,9.51a4.59,4.59,0,0,0,2.87-4.34c0-2.76-2.09-4.9-5.74-4.9h-2.6V2.34H48c2.21,0,3.39,1.12,3.39,2.83S50.23,8,48,8h-2.6v2.07H48a4,4,0,0,0,.62,0l3.3,6.17h2.73Z"/><rect class="cls-1" x="40.07" y="0.27" width="2.28" height="2.08"/><rect class="cls-1" x="40.07" y="4.01" width="2.28" height="12.19"/><path class="cls-1" d="M67.94,9.35c-.37,2.67-2.08,5-4.87,5s-4.5-2.34-4.87-5h-2c.42,4.11,3.15,7.15,6.88,7.15s6.44-3,6.85-7.15Z"/><path class="cls-1" d="M58.21,7.05c.39-2.64,2.09-4.93,4.86-4.93s4.46,2.29,4.85,4.93h2C69.47,3,66.75,0,63.07,0S56.65,3,56.2,7.05Z"/><path class="cls-1" d="M5.11,23.8H4.54v1.12H3.91V23.8H1.8v-.57l1.84-3.29h.9v3.23h.57Zm-1.2-.63V20.64L2.49,23.17Z"/><path class="cls-1" d="M5.69,20.57v.7c0,.23,0,.38.22.38H6v.25l-.13,0c-.31,0-.45-.19-.45-.54v-.8H5.21v-.28h.22V20h.26v.33H6v.28Z"/><path class="cls-1" d="M8.06,20.89v1H7.8V21c0-.23-.08-.45-.35-.45a.41.41,0,0,0-.38.45v.91H6.82V19.68h.25v.84a.51.51,0,0,1,.44-.26A.59.59,0,0,1,8.06,20.89Z"/><path class="cls-1" d="M17.73,21.47A1.45,1.45,0,0,1,16.22,23h-.73v1.64h-.6V19.92h1.33A1.46,1.46,0,0,1,17.73,21.47Zm-.62,0a.85.85,0,0,0-.89-.93h-.73v1.85h.73A.84.84,0,0,0,17.11,21.47Z"/><path class="cls-1" d="M23.66,22.58v2.06h-.54v-.47a1.17,1.17,0,0,1-1,.56,1,1,0,0,1-1.07-1c0-1.07,1.15-1.09,1.57-1.09h.49c0-.52-.1-.93-.72-.93a1.25,1.25,0,0,0-.78.31l-.39-.33a1.77,1.77,0,0,1,1.27-.54C23.37,21.14,23.66,21.76,23.66,22.58Zm-.54.52h-.21c-.56,0-1.29,0-1.29.6,0,.26.14.53.63.53a.94.94,0,0,0,.87-.57Z"/><path class="cls-1" d="M29,21.14v.7c-.89-.12-1,.64-1,1.27v1.53h-.55V21.22H28v.6A1.1,1.1,0,0,1,29,21.14Z"/><path class="cls-1" d="M33.44,21.81v1.5c0,.48,0,.8.48.8h.22v.54a1.17,1.17,0,0,1-.29,0c-.66,0-1-.39-1-1.14V21.81h-.47v-.59h.47v-.71h.54v.71h.7v.59Z"/><path class="cls-1" d="M40.52,21.22l-1.65,4.72h-.59l.54-1.48-1.26-3.24h.6l.93,2.47.83-2.47Z"/><path class="cls-1" d="M51.09,24v.61H48.78V19.92h.6V24Z"/><path class="cls-1" d="M57.77,22.94a1.6,1.6,0,1,1-3.17,0,1.6,1.6,0,1,1,3.17,0Zm-.55,0a1,1,0,1,0-2.06,0,1,1,0,1,0,2.06,0Z"/><path class="cls-1" d="M64.33,21.22v3.06c0,1-.46,1.72-1.55,1.72a1.56,1.56,0,0,1-1.37-.69l.46-.31a1,1,0,0,0,.91.42c.72,0,1-.52,1-1.2V24a1.16,1.16,0,0,1-1,.59,1.72,1.72,0,0,1,0-3.41,1.17,1.17,0,0,1,1,.58v-.5Zm-.55,1.62a1,1,0,0,0-1-1.12,1.13,1.13,0,0,0,0,2.25A1,1,0,0,0,63.78,22.84Z"/><path class="cls-1" d="M68.13,20.27a.33.33,0,0,1,.31-.35.35.35,0,0,1,0,.7A.33.33,0,0,1,68.13,20.27Zm0,.95h.55v3.42h-.55Z"/><path class="cls-1" d="M74.74,23.62a1.08,1.08,0,0,1-1.19,1.11A1.14,1.14,0,0,1,72.33,24l.53-.21c0,.18.21.42.7.42s.62-.18.62-.48-.51-.4-.93-.51a.91.91,0,0,1-.81-1,1.05,1.05,0,0,1,1.12-1.07,1,1,0,0,1,1,.79l-.51.16a.55.55,0,0,0-.57-.39.47.47,0,0,0-.52.47c0,.38.42.41.76.49C74.49,22.83,74.74,23.1,74.74,23.62Z"/><path class="cls-1" d="M79.05,21.81v1.5c0,.48,0,.8.47.8h.22v.54a1.12,1.12,0,0,1-.29,0c-.65,0-1-.39-1-1.14V21.81H78v-.59h.47v-.71h.55v.71h.69v.59Z"/><path class="cls-1" d="M83.45,20.27a.31.31,0,1,1,.31.35A.33.33,0,0,1,83.45,20.27Zm0,.95H84v3.42h-.55Z"/><path class="cls-1" d="M90.15,23.6l.47.28a1.54,1.54,0,0,1-1.34.85,1.68,1.68,0,0,1-1.59-1.79,1.68,1.68,0,0,1,1.59-1.8,1.54,1.54,0,0,1,1.34.85l-.47.29a1,1,0,0,0-.87-.56,1.22,1.22,0,0,0,0,2.42A1,1,0,0,0,90.15,23.6Z"/><path class="cls-1" d="M96.38,23.62a1.08,1.08,0,0,1-1.19,1.11A1.14,1.14,0,0,1,94,24l.53-.21c0,.18.21.42.7.42s.61-.18.61-.48-.5-.4-.92-.51a.9.9,0,0,1-.81-1,1.05,1.05,0,0,1,1.11-1.07,1,1,0,0,1,1,.79l-.51.16a.55.55,0,0,0-.57-.39.47.47,0,0,0-.52.47c0,.38.42.41.76.49C96.13,22.83,96.38,23.1,96.38,23.62Z"/></svg>