<svg id="Capa_1" data-name="Capa 1" xmlns="http://www.w3.org/2000/svg" viewBox="0 0 84.45 36"><defs><style>.cls-1{fill:#a4abb6;}</style></defs><path class="cls-1" d="M0,1.65,6.9,23.88a5.49,5.49,0,0,1-1.8,6.47,5,5,0,0,1-3.89.49q0,.54,0,1.11c0,.37,0,.72-.06,1.06,0,0,9.52,2.94,8.3-9.71,0,.07-6.26-21.65-6.26-21.65Z"/><polygon class="cls-1" points="13.97 2.25 16.97 2.25 11.6 22.75 9.56 18.79 13.97 2.25"/><path class="cls-1" d="M24.76,4.61V2.25S19.33.78,17.61,5.63c.06-.06-5.18,17.69-5.18,17.69l2.3,2.24,2-9.07s.71-2.55,1.47.06c.07,0,3.32,12.14,3.32,12.14h3.26L19.14,11.38S18.37,3.08,24.76,4.61Z"/><polygon class="cls-1" points="11.35 26.96 9.56 33.9 12.43 33.9 13.71 29.97 11.35 26.96"/><rect class="cls-1" x="29.31" width="1.84" height="36"/><polygon class="cls-1" points="23.13 32.81 23.99 34.28 26.52 34.28 25.72 32.81 23.13 32.81"/><path class="cls-1" d="M51.35,13a11.56,11.56,0,0,0,1.26-.32v.41a4,4,0,0,1-.08,1,1.31,1.31,0,0,1-.5.68,1.78,1.78,0,0,1-1.06.36,1.16,1.16,0,0,1-.83-.31,1,1,0,0,1-.32-.75.85.85,0,0,1,.4-.73A3.88,3.88,0,0,1,51.35,13Z"/><path class="cls-1" d="M67.18,10.65a1.59,1.59,0,0,0-1.27-.59,1.54,1.54,0,0,0-1.22.58,2.73,2.73,0,0,0-.48,1.77,2.85,2.85,0,0,0,.48,1.82,1.49,1.49,0,0,0,1.18.58,1.67,1.67,0,0,0,1.29-.59,2.68,2.68,0,0,0,.52-1.76A2.77,2.77,0,0,0,67.18,10.65Zm0,0a1.59,1.59,0,0,0-1.27-.59,1.54,1.54,0,0,0-1.22.58,2.73,2.73,0,0,0-.48,1.77,2.85,2.85,0,0,0,.48,1.82,1.49,1.49,0,0,0,1.18.58,1.67,1.67,0,0,0,1.29-.59,2.68,2.68,0,0,0,.52-1.76A2.77,2.77,0,0,0,67.18,10.65Zm0,0a1.59,1.59,0,0,0-1.27-.59,1.54,1.54,0,0,0-1.22.58,2.73,2.73,0,0,0-.48,1.77,2.85,2.85,0,0,0,.48,1.82,1.49,1.49,0,0,0,1.18.58,1.67,1.67,0,0,0,1.29-.59,2.68,2.68,0,0,0,.52-1.76A2.77,2.77,0,0,0,67.18,10.65Zm9.49.14a1.79,1.79,0,0,0-2.71,0,2.52,2.52,0,0,0-.56,1.78A2.55,2.55,0,0,0,74,14.35a1.79,1.79,0,0,0,2.71,0,2.62,2.62,0,0,0,.55-1.8A2.53,2.53,0,0,0,76.67,10.79Zm0,0a1.79,1.79,0,0,0-2.71,0,2.52,2.52,0,0,0-.56,1.78A2.55,2.55,0,0,0,74,14.35a1.79,1.79,0,0,0,2.71,0,2.62,2.62,0,0,0,.55-1.8A2.53,2.53,0,0,0,76.67,10.79Zm-9.49-.14a1.59,1.59,0,0,0-1.27-.59,1.54,1.54,0,0,0-1.22.58,2.73,2.73,0,0,0-.48,1.77,2.85,2.85,0,0,0,.48,1.82,1.49,1.49,0,0,0,1.18.58,1.67,1.67,0,0,0,1.29-.59,2.68,2.68,0,0,0,.52-1.76A2.77,2.77,0,0,0,67.18,10.65Zm0,0a1.59,1.59,0,0,0-1.27-.59,1.54,1.54,0,0,0-1.22.58,2.73,2.73,0,0,0-.48,1.77,2.85,2.85,0,0,0,.48,1.82,1.49,1.49,0,0,0,1.18.58,1.67,1.67,0,0,0,1.29-.59,2.68,2.68,0,0,0,.52-1.76A2.77,2.77,0,0,0,67.18,10.65Zm9.49.14a1.79,1.79,0,0,0-2.71,0,2.52,2.52,0,0,0-.56,1.78A2.55,2.55,0,0,0,74,14.35a1.79,1.79,0,0,0,2.71,0,2.62,2.62,0,0,0,.55-1.8A2.53,2.53,0,0,0,76.67,10.79Zm0,0a1.79,1.79,0,0,0-2.71,0,2.52,2.52,0,0,0-.56,1.78A2.55,2.55,0,0,0,74,14.35a1.79,1.79,0,0,0,2.71,0,2.62,2.62,0,0,0,.55-1.8A2.53,2.53,0,0,0,76.67,10.79Zm-9.49-.14a1.59,1.59,0,0,0-1.27-.59,1.54,1.54,0,0,0-1.22.58,2.73,2.73,0,0,0-.48,1.77,2.85,2.85,0,0,0,.48,1.82,1.49,1.49,0,0,0,1.18.58,1.67,1.67,0,0,0,1.29-.59,2.68,2.68,0,0,0,.52-1.76A2.77,2.77,0,0,0,67.18,10.65ZM46.88,23.33a.25.25,0,0,0-.24-.14.31.31,0,0,0-.27.13.86.86,0,0,0-.09.46v.8H47v-.8A1,1,0,0,0,46.88,23.33Zm20.3-12.68a1.59,1.59,0,0,0-1.27-.59,1.54,1.54,0,0,0-1.22.58,2.73,2.73,0,0,0-.48,1.77,2.85,2.85,0,0,0,.48,1.82,1.49,1.49,0,0,0,1.18.58,1.67,1.67,0,0,0,1.29-.59,2.68,2.68,0,0,0,.52-1.76A2.77,2.77,0,0,0,67.18,10.65Zm9.49.14a1.79,1.79,0,0,0-2.71,0,2.52,2.52,0,0,0-.56,1.78A2.55,2.55,0,0,0,74,14.35a1.79,1.79,0,0,0,2.71,0,2.62,2.62,0,0,0,.55-1.8A2.53,2.53,0,0,0,76.67,10.79Zm0,0a1.79,1.79,0,0,0-2.71,0,2.52,2.52,0,0,0-.56,1.78A2.55,2.55,0,0,0,74,14.35a1.79,1.79,0,0,0,2.71,0,2.62,2.62,0,0,0,.55-1.8A2.53,2.53,0,0,0,76.67,10.79Zm-9.49-.14a1.59,1.59,0,0,0-1.27-.59,1.54,1.54,0,0,0-1.22.58,2.73,2.73,0,0,0-.48,1.77,2.85,2.85,0,0,0,.48,1.82,1.49,1.49,0,0,0,1.18.58,1.67,1.67,0,0,0,1.29-.59,2.68,2.68,0,0,0,.52-1.76A2.77,2.77,0,0,0,67.18,10.65ZM46.88,23.33a.25.25,0,0,0-.24-.14.31.31,0,0,0-.27.13.86.86,0,0,0-.09.46v.8H47v-.8A1,1,0,0,0,46.88,23.33Zm0,0a.25.25,0,0,0-.24-.14.31.31,0,0,0-.27.13.86.86,0,0,0-.09.46v.8H47v-.8A1,1,0,0,0,46.88,23.33Zm10.59,1.93a.75.75,0,0,0-.16.53v.75c0,.35.1.52.31.52a.23.23,0,0,0,.23-.14.81.81,0,0,0,.06-.31V25A1.14,1.14,0,0,0,57.47,25.26Zm9.71-14.61a1.59,1.59,0,0,0-1.27-.59,1.54,1.54,0,0,0-1.22.58,2.73,2.73,0,0,0-.48,1.77,2.85,2.85,0,0,0,.48,1.82,1.49,1.49,0,0,0,1.18.58,1.67,1.67,0,0,0,1.29-.59,2.68,2.68,0,0,0,.52-1.76A2.77,2.77,0,0,0,67.18,10.65Zm9.49.14a1.79,1.79,0,0,0-2.71,0,2.52,2.52,0,0,0-.56,1.78A2.55,2.55,0,0,0,74,14.35a1.79,1.79,0,0,0,2.71,0,2.62,2.62,0,0,0,.55-1.8A2.53,2.53,0,0,0,76.67,10.79Zm0,0a1.79,1.79,0,0,0-2.71,0,2.52,2.52,0,0,0-.56,1.78A2.55,2.55,0,0,0,74,14.35a1.79,1.79,0,0,0,2.71,0,2.62,2.62,0,0,0,.55-1.8A2.53,2.53,0,0,0,76.67,10.79Zm-9.49-.14a1.59,1.59,0,0,0-1.27-.59,1.54,1.54,0,0,0-1.22.58,2.73,2.73,0,0,0-.48,1.77,2.85,2.85,0,0,0,.48,1.82,1.49,1.49,0,0,0,1.18.58,1.67,1.67,0,0,0,1.29-.59,2.68,2.68,0,0,0,.52-1.76A2.77,2.77,0,0,0,67.18,10.65ZM57.47,25.26a.75.75,0,0,0-.16.53v.75c0,.35.1.52.31.52a.23.23,0,0,0,.23-.14.81.81,0,0,0,.06-.31V25A1.14,1.14,0,0,0,57.47,25.26ZM46.88,23.33a.25.25,0,0,0-.24-.14.31.31,0,0,0-.27.13.86.86,0,0,0-.09.46v.8H47v-.8A1,1,0,0,0,46.88,23.33Zm0,0a.25.25,0,0,0-.24-.14.31.31,0,0,0-.27.13.86.86,0,0,0-.09.46v.8H47v-.8A1,1,0,0,0,46.88,23.33Zm10.59,1.93a.75.75,0,0,0-.16.53v.75c0,.35.1.52.31.52a.23.23,0,0,0,.23-.14.81.81,0,0,0,.06-.31V25A1.14,1.14,0,0,0,57.47,25.26Zm9.71-14.61a1.59,1.59,0,0,0-1.27-.59,1.54,1.54,0,0,0-1.22.58,2.73,2.73,0,0,0-.48,1.77,2.85,2.85,0,0,0,.48,1.82,1.49,1.49,0,0,0,1.18.58,1.67,1.67,0,0,0,1.29-.59,2.68,2.68,0,0,0,.52-1.76A2.77,2.77,0,0,0,67.18,10.65Zm9.49.14a1.79,1.79,0,0,0-2.71,0,2.52,2.52,0,0,0-.56,1.78A2.55,2.55,0,0,0,74,14.35a1.79,1.79,0,0,0,2.71,0,2.62,2.62,0,0,0,.55-1.8A2.53,2.53,0,0,0,76.67,10.79Zm0,0a1.79,1.79,0,0,0-2.71,0,2.52,2.52,0,0,0-.56,1.78A2.55,2.55,0,0,0,74,14.35a1.79,1.79,0,0,0,2.71,0,2.62,2.62,0,0,0,.55-1.8A2.53,2.53,0,0,0,76.67,10.79Zm-9.49-.14a1.59,1.59,0,0,0-1.27-.59,1.54,1.54,0,0,0-1.22.58,2.73,2.73,0,0,0-.48,1.77,2.85,2.85,0,0,0,.48,1.82,1.49,1.49,0,0,0,1.18.58,1.67,1.67,0,0,0,1.29-.59,2.68,2.68,0,0,0,.52-1.76A2.77,2.77,0,0,0,67.18,10.65ZM57.47,25.26a.75.75,0,0,0-.16.53v.75c0,.35.1.52.31.52a.23.23,0,0,0,.23-.14.81.81,0,0,0,.06-.31V25A1.14,1.14,0,0,0,57.47,25.26ZM46.88,23.33a.25.25,0,0,0-.24-.14.31.31,0,0,0-.27.13.86.86,0,0,0-.09.46v.8H47v-.8A1,1,0,0,0,46.88,23.33Zm0,0a.25.25,0,0,0-.24-.14.31.31,0,0,0-.27.13.86.86,0,0,0-.09.46v.8H47v-.8A1,1,0,0,0,46.88,23.33Zm10.59,1.93a.75.75,0,0,0-.16.53v.75c0,.35.1.52.31.52a.23.23,0,0,0,.23-.14.81.81,0,0,0,.06-.31V25A1.14,1.14,0,0,0,57.47,25.26Zm9.71-14.61a1.59,1.59,0,0,0-1.27-.59,1.54,1.54,0,0,0-1.22.58,2.73,2.73,0,0,0-.48,1.77,2.85,2.85,0,0,0,.48,1.82,1.49,1.49,0,0,0,1.18.58,1.67,1.67,0,0,0,1.29-.59,2.68,2.68,0,0,0,.52-1.76A2.77,2.77,0,0,0,67.18,10.65Zm.65,12.58q-.33,0-.33.51v2.88a.61.61,0,0,0,.08.32.26.26,0,0,0,.25.13.27.27,0,0,0,.26-.13.61.61,0,0,0,.08-.32V23.74C68.17,23.4,68.06,23.23,67.83,23.23Zm8.84-12.44a1.79,1.79,0,0,0-2.71,0,2.52,2.52,0,0,0-.56,1.78A2.55,2.55,0,0,0,74,14.35a1.79,1.79,0,0,0,2.71,0,2.62,2.62,0,0,0,.55-1.8A2.53,2.53,0,0,0,76.67,10.79Zm0,0a1.79,1.79,0,0,0-2.71,0,2.52,2.52,0,0,0-.56,1.78A2.55,2.55,0,0,0,74,14.35a1.79,1.79,0,0,0,2.71,0,2.62,2.62,0,0,0,.55-1.8A2.53,2.53,0,0,0,76.67,10.79Zm-9.49-.14a1.59,1.59,0,0,0-1.27-.59,1.54,1.54,0,0,0-1.22.58,2.73,2.73,0,0,0-.48,1.77,2.85,2.85,0,0,0,.48,1.82,1.49,1.49,0,0,0,1.18.58,1.67,1.67,0,0,0,1.29-.59,2.68,2.68,0,0,0,.52-1.76A2.77,2.77,0,0,0,67.18,10.65Zm.65,12.58q-.33,0-.33.51v2.88a.61.61,0,0,0,.08.32.26.26,0,0,0,.25.13.27.27,0,0,0,.26-.13.61.61,0,0,0,.08-.32V23.74C68.17,23.4,68.06,23.23,67.83,23.23Zm-10.36,2a.75.75,0,0,0-.16.53v.75c0,.35.1.52.31.52a.23.23,0,0,0,.23-.14.81.81,0,0,0,.06-.31V25A1.14,1.14,0,0,0,57.47,25.26ZM46.88,23.33a.25.25,0,0,0-.24-.14.31.31,0,0,0-.27.13.86.86,0,0,0-.09.46v.8H47v-.8A1,1,0,0,0,46.88,23.33Zm0,0a.25.25,0,0,0-.24-.14.31.31,0,0,0-.27.13.86.86,0,0,0-.09.46v.8H47v-.8A1,1,0,0,0,46.88,23.33Zm10.59,1.93a.75.75,0,0,0-.16.53v.75c0,.35.1.52.31.52a.23.23,0,0,0,.23-.14.81.81,0,0,0,.06-.31V25A1.14,1.14,0,0,0,57.47,25.26Zm9.71-14.61a1.59,1.59,0,0,0-1.27-.59,1.54,1.54,0,0,0-1.22.58,2.73,2.73,0,0,0-.48,1.77,2.85,2.85,0,0,0,.48,1.82,1.49,1.49,0,0,0,1.18.58,1.67,1.67,0,0,0,1.29-.59,2.68,2.68,0,0,0,.52-1.76A2.77,2.77,0,0,0,67.18,10.65Zm.65,12.58q-.33,0-.33.51v2.88a.61.61,0,0,0,.08.32.26.26,0,0,0,.25.13.27.27,0,0,0,.26-.13.61.61,0,0,0,.08-.32V23.74C68.17,23.4,68.06,23.23,67.83,23.23Zm8,2a.75.75,0,0,0-.16.53v.75c0,.35.1.52.32.52a.23.23,0,0,0,.23-.14.67.67,0,0,0,.07-.31V25A1.23,1.23,0,0,0,75.82,25.26Zm.85-14.47a1.79,1.79,0,0,0-2.71,0,2.52,2.52,0,0,0-.56,1.78A2.55,2.55,0,0,0,74,14.35a1.79,1.79,0,0,0,2.71,0,2.62,2.62,0,0,0,.55-1.8A2.53,2.53,0,0,0,76.67,10.79Zm0,0a1.79,1.79,0,0,0-2.71,0,2.52,2.52,0,0,0-.56,1.78A2.55,2.55,0,0,0,74,14.35a1.79,1.79,0,0,0,2.71,0,2.62,2.62,0,0,0,.55-1.8A2.53,2.53,0,0,0,76.67,10.79Zm-.85,14.47a.75.75,0,0,0-.16.53v.75c0,.35.1.52.32.52a.23.23,0,0,0,.23-.14.67.67,0,0,0,.07-.31V25A1.23,1.23,0,0,0,75.82,25.26ZM67.18,10.65a1.59,1.59,0,0,0-1.27-.59,1.54,1.54,0,0,0-1.22.58,2.73,2.73,0,0,0-.48,1.77,2.85,2.85,0,0,0,.48,1.82,1.49,1.49,0,0,0,1.18.58,1.67,1.67,0,0,0,1.29-.59,2.68,2.68,0,0,0,.52-1.76A2.77,2.77,0,0,0,67.18,10.65Zm.65,12.58q-.33,0-.33.51v2.88a.61.61,0,0,0,.08.32.26.26,0,0,0,.25.13.27.27,0,0,0,.26-.13.61.61,0,0,0,.08-.32V23.74C68.17,23.4,68.06,23.23,67.83,23.23Zm-10.36,2a.75.75,0,0,0-.16.53v.75c0,.35.1.52.31.52a.23.23,0,0,0,.23-.14.81.81,0,0,0,.06-.31V25A1.14,1.14,0,0,0,57.47,25.26ZM46.88,23.33a.25.25,0,0,0-.24-.14.31.31,0,0,0-.27.13.86.86,0,0,0-.09.46v.8H47v-.8A1,1,0,0,0,46.88,23.33ZM84.45,17.9c0-9.84-12-17.82-26.86-17.82C49.88.08,42.94,2.23,38,5.68h2.48L43.06,10l2.49-4.27h2.51l-4,6.26v4.54H41.92V11.93L38,5.72c-4.51,3.18-7.27,7.47-7.27,12.18,0,9.85,12,17.83,26.87,17.83,9.12,0,17.18-3,22-7.63H78.35V21.18h1.42V28A14.07,14.07,0,0,0,84.45,17.9ZM37.61,28.1H36.27V21.18h1.34Zm4.09,0H40.31V23.69a.71.71,0,0,0-.07-.32.24.24,0,0,0-.24-.14.25.25,0,0,0-.23.11.55.55,0,0,0-.1.28c0,.11,0,.23,0,.34V28.1H38.24V22.21h1.41V23a1.29,1.29,0,0,1,.29-.57.75.75,0,0,1,.59-.24,1,1,0,0,1,.9.38,1.73,1.73,0,0,1,.27,1ZM56.6,8.66h1.92V9.77a3.25,3.25,0,0,1,.88-1,1.69,1.69,0,0,1,.9-.25,2.63,2.63,0,0,1,1.36.39L61,10.68a1.78,1.78,0,0,0-1-.34,1.13,1.13,0,0,0-.73.24,1.58,1.58,0,0,0-.47.86,11.82,11.82,0,0,0-.18,2.63v2.41H56.6ZM44.37,23.5H44v3.34a.36.36,0,0,0,.05.21.22.22,0,0,0,.18.06l.17,0v1l-.29.06a2.83,2.83,0,0,1-.5.05,1,1,0,0,1-.77-.24,1.2,1.2,0,0,1-.19-.75V23.5h-.41V22.43h.41V21.18H44v1.25h.4Zm4,.74c0,.51,0,.86,0,1h-2v1.14a1.51,1.51,0,0,0,0,.3.47.47,0,0,0,.09.25.24.24,0,0,0,.23.1.25.25,0,0,0,.27-.19,1.72,1.72,0,0,0,.05-.49v-.57h1.4v.34a3.22,3.22,0,0,1-.17,1.1,1.29,1.29,0,0,1-.54.67,2.1,2.1,0,0,1-1,.23,1.84,1.84,0,0,1-1-.24,1.3,1.3,0,0,1-.53-.68,3.07,3.07,0,0,1-.16-1.06V23.8a1.6,1.6,0,0,1,.47-1.24,1.86,1.86,0,0,1,1.3-.42,1.49,1.49,0,0,1,1.69,1.66Zm3.06-.94a3.73,3.73,0,0,0-.41,0,3.52,3.52,0,0,0-.41.1c-.12,0-.18.09-.18.15V28.1H49V22.21h1.43v.65a.88.88,0,0,1,.36-.53,1,1,0,0,1,.64-.19Zm-1.06-6.65a2.63,2.63,0,0,1-1.9-.65,2.35,2.35,0,0,1-.39-2.84,2,2,0,0,1,.9-.79,6.22,6.22,0,0,1,1.64-.49,10.93,10.93,0,0,0,2-.51v-.2a1,1,0,0,0-.3-.85,1.71,1.71,0,0,0-1.1-.26,1.47,1.47,0,0,0-.87.23,1.45,1.45,0,0,0-.5.75L48,10.71A2.86,2.86,0,0,1,49.06,9a3.89,3.89,0,0,1,2.29-.55,4.91,4.91,0,0,1,2.06.33,2.1,2.1,0,0,1,1,.83,4.35,4.35,0,0,1,.27,1.85l0,2.41a8.83,8.83,0,0,0,.1,1.52,4.64,4.64,0,0,0,.37,1.06h-2a5.76,5.76,0,0,1-.2-.62c0-.12-.06-.2-.08-.24a3.76,3.76,0,0,1-1.13.78A3.26,3.26,0,0,1,50.35,16.65Zm5,11.45H53.94V23.69a.71.71,0,0,0-.07-.32.24.24,0,0,0-.24-.14.26.26,0,0,0-.24.11.55.55,0,0,0-.09.28c0,.11,0,.23,0,.34V28.1H51.87V22.21h1.41V23a1.29,1.29,0,0,1,.29-.57.75.75,0,0,1,.59-.24,1,1,0,0,1,.9.38,1.73,1.73,0,0,1,.27,1Zm4,0h-1.4v-.71a1.08,1.08,0,0,1-.34.57.79.79,0,0,1-.53.2,1.1,1.1,0,0,1-.75-.23A1.2,1.2,0,0,1,56,27.3a4,4,0,0,1-.09-.89,3.16,3.16,0,0,1,.1-.89,1.17,1.17,0,0,1,.38-.56,2,2,0,0,1,.7-.37l.87-.3v-.61c0-.32-.1-.47-.31-.47s-.28.12-.28.38V24H56v-.2a1.54,1.54,0,0,1,.42-1.24,1.94,1.94,0,0,1,1.3-.37,2,2,0,0,1,.85.17,1.29,1.29,0,0,1,.59.49,1.37,1.37,0,0,1,.22.8Zm4.11-3.56H62v-.83a.83.83,0,0,0-.06-.34.25.25,0,0,0-.26-.14c-.23,0-.34.16-.34.48v2.86a.62.62,0,0,0,.08.33.27.27,0,0,0,.26.15.25.25,0,0,0,.25-.14.74.74,0,0,0,.07-.34v-1h1.43v1a1.49,1.49,0,0,1-.22.83,1.47,1.47,0,0,1-.59.54,2,2,0,0,1-.88.18,1.66,1.66,0,0,1-1.39-.52,2.2,2.2,0,0,1-.43-1.48V24.35a3.91,3.91,0,0,1,.16-1.23,1.31,1.31,0,0,1,.56-.73,2,2,0,0,1,1.08-.25,2.1,2.1,0,0,1,.88.18,1.37,1.37,0,0,1,.61.5,1.4,1.4,0,0,1,.22.81Zm2,3.56H64V22.21h1.41Zm0-6.26H64V20.67h1.41Zm4.15,4.49a1.6,1.6,0,0,1-1.77,1.83c-1.17,0-1.75-.62-1.75-1.83V24a1.86,1.86,0,0,1,.47-1.33,1.91,1.91,0,0,1,2.58,0A1.86,1.86,0,0,1,69.6,24Zm.11-10.66a7,7,0,0,1-.23,2.07,2.49,2.49,0,0,1-.64,1.08,2.75,2.75,0,0,1-1.1.61,6.08,6.08,0,0,1-1.74.21A4.54,4.54,0,0,1,63.18,19a2.16,2.16,0,0,1-.83-1.73c0-.07,0-.15,0-.25l2.36.29a.8.8,0,0,0,.27.56,1.48,1.48,0,0,0,.93.23,2.28,2.28,0,0,0,1.21-.25,1,1,0,0,0,.41-.52,2.91,2.91,0,0,0,.1-.95V15.21a2.78,2.78,0,0,1-2.34,1.27,2.86,2.86,0,0,1-2.49-1.34,4.51,4.51,0,0,1-.73-2.61,4.33,4.33,0,0,1,1-3,3.07,3.07,0,0,1,2.35-1,2.86,2.86,0,0,1,2.39,1.27V8.66h1.94Zm4,12.43H72.31V23.69a.88.88,0,0,0-.07-.32.26.26,0,0,0-.25-.14.26.26,0,0,0-.24.11.55.55,0,0,0-.1.28c0,.11,0,.23,0,.34V28.1h-1.4V22.21h1.4V23a1.29,1.29,0,0,1,.29-.57.78.78,0,0,1,.6-.24,1,1,0,0,1,.89.38,1.73,1.73,0,0,1,.28,1Zm4,0H76.3v-.71A1.08,1.08,0,0,1,76,28a.84.84,0,0,1-.54.2,1.07,1.07,0,0,1-.74-.23,1.18,1.18,0,0,1-.35-.63,3.46,3.46,0,0,1-.1-.89,3.12,3.12,0,0,1,.11-.89A1.14,1.14,0,0,1,74.7,25a2,2,0,0,1,.7-.37l.88-.3v-.61c0-.32-.1-.47-.31-.47s-.29.12-.29.38V24H74.32v-.2a1.61,1.61,0,0,1,.41-1.24,2,2,0,0,1,1.32-.37,2.07,2.07,0,0,1,.84.17,1.32,1.32,0,0,1,.58.49,1.37,1.37,0,0,1,.22.8Zm.52-12.62a3.85,3.85,0,0,1-2.89,1.17,4.64,4.64,0,0,1-2-.48,3.43,3.43,0,0,1-1.49-1.43,4.83,4.83,0,0,1-.5-2.28,4.33,4.33,0,0,1,.5-2A3.54,3.54,0,0,1,73.23,9a4.21,4.21,0,0,1,2.07-.51,4,4,0,0,1,2.92,1.15,4,4,0,0,1,1.13,2.92A4,4,0,0,1,78.21,15.48Zm-2.9-5.31a1.74,1.74,0,0,0-1.35.62,2.52,2.52,0,0,0-.56,1.78A2.55,2.55,0,0,0,74,14.35a1.79,1.79,0,0,0,2.71,0,2.62,2.62,0,0,0,.55-1.8,2.53,2.53,0,0,0-.55-1.76A1.75,1.75,0,0,0,75.31,10.17Zm.35,15.62v.75c0,.35.1.52.32.52a.23.23,0,0,0,.23-.14.67.67,0,0,0,.07-.31V25a1.23,1.23,0,0,0-.46.3A.75.75,0,0,0,75.66,25.79Zm-7.83-2.56q-.33,0-.33.51v2.88a.61.61,0,0,0,.08.32.26.26,0,0,0,.25.13.27.27,0,0,0,.26-.13.61.61,0,0,0,.08-.32V23.74C68.17,23.4,68.06,23.23,67.83,23.23ZM65.91,10.06a1.54,1.54,0,0,0-1.22.58,2.73,2.73,0,0,0-.48,1.77,2.85,2.85,0,0,0,.48,1.82,1.49,1.49,0,0,0,1.18.58,1.67,1.67,0,0,0,1.29-.59,2.68,2.68,0,0,0,.52-1.76,2.77,2.77,0,0,0-.5-1.81A1.59,1.59,0,0,0,65.91,10.06Zm-8.6,15.73v.75c0,.35.1.52.31.52a.23.23,0,0,0,.23-.14.81.81,0,0,0,.06-.31V25a1.14,1.14,0,0,0-.44.3A.75.75,0,0,0,57.31,25.79Zm-10.67-2.6a.31.31,0,0,0-.27.13.86.86,0,0,0-.09.46v.8H47v-.8a1,1,0,0,0-.07-.45A.25.25,0,0,0,46.64,23.19Zm.24.14a.25.25,0,0,0-.24-.14.31.31,0,0,0-.27.13.86.86,0,0,0-.09.46v.8H47v-.8A1,1,0,0,0,46.88,23.33Zm10.59,1.93a.75.75,0,0,0-.16.53v.75c0,.35.1.52.31.52a.23.23,0,0,0,.23-.14.81.81,0,0,0,.06-.31V25A1.14,1.14,0,0,0,57.47,25.26Zm10.36-2q-.33,0-.33.51v2.88a.61.61,0,0,0,.08.32.26.26,0,0,0,.25.13.27.27,0,0,0,.26-.13.61.61,0,0,0,.08-.32V23.74C68.17,23.4,68.06,23.23,67.83,23.23Zm-.65-12.58a1.59,1.59,0,0,0-1.27-.59,1.54,1.54,0,0,0-1.22.58,2.73,2.73,0,0,0-.48,1.77,2.85,2.85,0,0,0,.48,1.82,1.49,1.49,0,0,0,1.18.58,1.67,1.67,0,0,0,1.29-.59,2.68,2.68,0,0,0,.52-1.76A2.77,2.77,0,0,0,67.18,10.65Zm9.49.14a1.79,1.79,0,0,0-2.71,0,2.52,2.52,0,0,0-.56,1.78A2.55,2.55,0,0,0,74,14.35a1.79,1.79,0,0,0,2.71,0,2.62,2.62,0,0,0,.55-1.8A2.53,2.53,0,0,0,76.67,10.79Zm0,0a1.79,1.79,0,0,0-2.71,0,2.52,2.52,0,0,0-.56,1.78A2.55,2.55,0,0,0,74,14.35a1.79,1.79,0,0,0,2.71,0,2.62,2.62,0,0,0,.55-1.8A2.53,2.53,0,0,0,76.67,10.79ZM67.83,23.23q-.33,0-.33.51v2.88a.61.61,0,0,0,.08.32.26.26,0,0,0,.25.13.27.27,0,0,0,.26-.13.61.61,0,0,0,.08-.32V23.74C68.17,23.4,68.06,23.23,67.83,23.23Zm-.65-12.58a1.59,1.59,0,0,0-1.27-.59,1.54,1.54,0,0,0-1.22.58,2.73,2.73,0,0,0-.48,1.77,2.85,2.85,0,0,0,.48,1.82,1.49,1.49,0,0,0,1.18.58,1.67,1.67,0,0,0,1.29-.59,2.68,2.68,0,0,0,.52-1.76A2.77,2.77,0,0,0,67.18,10.65ZM57.47,25.26a.75.75,0,0,0-.16.53v.75c0,.35.1.52.31.52a.23.23,0,0,0,.23-.14.81.81,0,0,0,.06-.31V25A1.14,1.14,0,0,0,57.47,25.26ZM46.88,23.33a.25.25,0,0,0-.24-.14.31.31,0,0,0-.27.13.86.86,0,0,0-.09.46v.8H47v-.8A1,1,0,0,0,46.88,23.33Zm0,0a.25.25,0,0,0-.24-.14.31.31,0,0,0-.27.13.86.86,0,0,0-.09.46v.8H47v-.8A1,1,0,0,0,46.88,23.33Zm10.59,1.93a.75.75,0,0,0-.16.53v.75c0,.35.1.52.31.52a.23.23,0,0,0,.23-.14.81.81,0,0,0,.06-.31V25A1.14,1.14,0,0,0,57.47,25.26Zm9.71-14.61a1.59,1.59,0,0,0-1.27-.59,1.54,1.54,0,0,0-1.22.58,2.73,2.73,0,0,0-.48,1.77,2.85,2.85,0,0,0,.48,1.82,1.49,1.49,0,0,0,1.18.58,1.67,1.67,0,0,0,1.29-.59,2.68,2.68,0,0,0,.52-1.76A2.77,2.77,0,0,0,67.18,10.65Zm9.49.14a1.79,1.79,0,0,0-2.71,0,2.52,2.52,0,0,0-.56,1.78A2.55,2.55,0,0,0,74,14.35a1.79,1.79,0,0,0,2.71,0,2.62,2.62,0,0,0,.55-1.8A2.53,2.53,0,0,0,76.67,10.79Zm0,0a1.79,1.79,0,0,0-2.71,0,2.52,2.52,0,0,0-.56,1.78A2.55,2.55,0,0,0,74,14.35a1.79,1.79,0,0,0,2.71,0,2.62,2.62,0,0,0,.55-1.8A2.53,2.53,0,0,0,76.67,10.79Zm-9.49-.14a1.59,1.59,0,0,0-1.27-.59,1.54,1.54,0,0,0-1.22.58,2.73,2.73,0,0,0-.48,1.77,2.85,2.85,0,0,0,.48,1.82,1.49,1.49,0,0,0,1.18.58,1.67,1.67,0,0,0,1.29-.59,2.68,2.68,0,0,0,.52-1.76A2.77,2.77,0,0,0,67.18,10.65ZM57.47,25.26a.75.75,0,0,0-.16.53v.75c0,.35.1.52.31.52a.23.23,0,0,0,.23-.14.81.81,0,0,0,.06-.31V25A1.14,1.14,0,0,0,57.47,25.26ZM46.88,23.33a.25.25,0,0,0-.24-.14.31.31,0,0,0-.27.13.86.86,0,0,0-.09.46v.8H47v-.8A1,1,0,0,0,46.88,23.33Zm0,0a.25.25,0,0,0-.24-.14.31.31,0,0,0-.27.13.86.86,0,0,0-.09.46v.8H47v-.8A1,1,0,0,0,46.88,23.33Zm10.59,1.93a.75.75,0,0,0-.16.53v.75c0,.35.1.52.31.52a.23.23,0,0,0,.23-.14.81.81,0,0,0,.06-.31V25A1.14,1.14,0,0,0,57.47,25.26Zm9.71-14.61a1.59,1.59,0,0,0-1.27-.59,1.54,1.54,0,0,0-1.22.58,2.73,2.73,0,0,0-.48,1.77,2.85,2.85,0,0,0,.48,1.82,1.49,1.49,0,0,0,1.18.58,1.67,1.67,0,0,0,1.29-.59,2.68,2.68,0,0,0,.52-1.76A2.77,2.77,0,0,0,67.18,10.65Zm9.49.14a1.79,1.79,0,0,0-2.71,0,2.52,2.52,0,0,0-.56,1.78A2.55,2.55,0,0,0,74,14.35a1.79,1.79,0,0,0,2.71,0,2.62,2.62,0,0,0,.55-1.8A2.53,2.53,0,0,0,76.67,10.79Zm0,0a1.79,1.79,0,0,0-2.71,0,2.52,2.52,0,0,0-.56,1.78A2.55,2.55,0,0,0,74,14.35a1.79,1.79,0,0,0,2.71,0,2.62,2.62,0,0,0,.55-1.8A2.53,2.53,0,0,0,76.67,10.79Zm-9.49-.14a1.59,1.59,0,0,0-1.27-.59,1.54,1.54,0,0,0-1.22.58,2.73,2.73,0,0,0-.48,1.77,2.85,2.85,0,0,0,.48,1.82,1.49,1.49,0,0,0,1.18.58,1.67,1.67,0,0,0,1.29-.59,2.68,2.68,0,0,0,.52-1.76A2.77,2.77,0,0,0,67.18,10.65ZM57.47,25.26a.75.75,0,0,0-.16.53v.75c0,.35.1.52.31.52a.23.23,0,0,0,.23-.14.81.81,0,0,0,.06-.31V25A1.14,1.14,0,0,0,57.47,25.26ZM46.88,23.33a.25.25,0,0,0-.24-.14.31.31,0,0,0-.27.13.86.86,0,0,0-.09.46v.8H47v-.8A1,1,0,0,0,46.88,23.33Zm0,0a.25.25,0,0,0-.24-.14.31.31,0,0,0-.27.13.86.86,0,0,0-.09.46v.8H47v-.8A1,1,0,0,0,46.88,23.33Zm20.3-12.68a1.59,1.59,0,0,0-1.27-.59,1.54,1.54,0,0,0-1.22.58,2.73,2.73,0,0,0-.48,1.77,2.85,2.85,0,0,0,.48,1.82,1.49,1.49,0,0,0,1.18.58,1.67,1.67,0,0,0,1.29-.59,2.68,2.68,0,0,0,.52-1.76A2.77,2.77,0,0,0,67.18,10.65Zm9.49.14a1.79,1.79,0,0,0-2.71,0,2.52,2.52,0,0,0-.56,1.78A2.55,2.55,0,0,0,74,14.35a1.79,1.79,0,0,0,2.71,0,2.62,2.62,0,0,0,.55-1.8A2.53,2.53,0,0,0,76.67,10.79Zm0,0a1.79,1.79,0,0,0-2.71,0,2.52,2.52,0,0,0-.56,1.78A2.55,2.55,0,0,0,74,14.35a1.79,1.79,0,0,0,2.71,0,2.62,2.62,0,0,0,.55-1.8A2.53,2.53,0,0,0,76.67,10.79Zm-9.49-.14a1.59,1.59,0,0,0-1.27-.59,1.54,1.54,0,0,0-1.22.58,2.73,2.73,0,0,0-.48,1.77,2.85,2.85,0,0,0,.48,1.82,1.49,1.49,0,0,0,1.18.58,1.67,1.67,0,0,0,1.29-.59,2.68,2.68,0,0,0,.52-1.76A2.77,2.77,0,0,0,67.18,10.65ZM46.88,23.33a.25.25,0,0,0-.24-.14.31.31,0,0,0-.27.13.86.86,0,0,0-.09.46v.8H47v-.8A1,1,0,0,0,46.88,23.33Zm0,0a.25.25,0,0,0-.24-.14.31.31,0,0,0-.27.13.86.86,0,0,0-.09.46v.8H47v-.8A1,1,0,0,0,46.88,23.33Zm20.3-12.68a1.59,1.59,0,0,0-1.27-.59,1.54,1.54,0,0,0-1.22.58,2.73,2.73,0,0,0-.48,1.77,2.85,2.85,0,0,0,.48,1.82,1.49,1.49,0,0,0,1.18.58,1.67,1.67,0,0,0,1.29-.59,2.68,2.68,0,0,0,.52-1.76A2.77,2.77,0,0,0,67.18,10.65Zm9.49.14a1.79,1.79,0,0,0-2.71,0,2.52,2.52,0,0,0-.56,1.78A2.55,2.55,0,0,0,74,14.35a1.79,1.79,0,0,0,2.71,0,2.62,2.62,0,0,0,.55-1.8A2.53,2.53,0,0,0,76.67,10.79Zm0,0a1.79,1.79,0,0,0-2.71,0,2.52,2.52,0,0,0-.56,1.78A2.55,2.55,0,0,0,74,14.35a1.79,1.79,0,0,0,2.71,0,2.62,2.62,0,0,0,.55-1.8A2.53,2.53,0,0,0,76.67,10.79Zm-9.49-.14a1.59,1.59,0,0,0-1.27-.59,1.54,1.54,0,0,0-1.22.58,2.73,2.73,0,0,0-.48,1.77,2.85,2.85,0,0,0,.48,1.82,1.49,1.49,0,0,0,1.18.58,1.67,1.67,0,0,0,1.29-.59,2.68,2.68,0,0,0,.52-1.76A2.77,2.77,0,0,0,67.18,10.65ZM46.88,23.33a.25.25,0,0,0-.24-.14.31.31,0,0,0-.27.13.86.86,0,0,0-.09.46v.8H47v-.8A1,1,0,0,0,46.88,23.33Zm20.3-12.68a1.59,1.59,0,0,0-1.27-.59,1.54,1.54,0,0,0-1.22.58,2.73,2.73,0,0,0-.48,1.77,2.85,2.85,0,0,0,.48,1.82,1.49,1.49,0,0,0,1.18.58,1.67,1.67,0,0,0,1.29-.59,2.68,2.68,0,0,0,.52-1.76A2.77,2.77,0,0,0,67.18,10.65Zm9.49.14a1.79,1.79,0,0,0-2.71,0,2.52,2.52,0,0,0-.56,1.78A2.55,2.55,0,0,0,74,14.35a1.79,1.79,0,0,0,2.71,0,2.62,2.62,0,0,0,.55-1.8A2.53,2.53,0,0,0,76.67,10.79Zm0,0a1.79,1.79,0,0,0-2.71,0,2.52,2.52,0,0,0-.56,1.78A2.55,2.55,0,0,0,74,14.35a1.79,1.79,0,0,0,2.71,0,2.62,2.62,0,0,0,.55-1.8A2.53,2.53,0,0,0,76.67,10.79Zm-9.49-.14a1.59,1.59,0,0,0-1.27-.59,1.54,1.54,0,0,0-1.22.58,2.73,2.73,0,0,0-.48,1.77,2.85,2.85,0,0,0,.48,1.82,1.49,1.49,0,0,0,1.18.58,1.67,1.67,0,0,0,1.29-.59,2.68,2.68,0,0,0,.52-1.76A2.77,2.77,0,0,0,67.18,10.65Zm0,0a1.59,1.59,0,0,0-1.27-.59,1.54,1.54,0,0,0-1.22.58,2.73,2.73,0,0,0-.48,1.77,2.85,2.85,0,0,0,.48,1.82,1.49,1.49,0,0,0,1.18.58,1.67,1.67,0,0,0,1.29-.59,2.68,2.68,0,0,0,.52-1.76A2.77,2.77,0,0,0,67.18,10.65Zm9.49.14a1.79,1.79,0,0,0-2.71,0,2.52,2.52,0,0,0-.56,1.78A2.55,2.55,0,0,0,74,14.35a1.79,1.79,0,0,0,2.71,0,2.62,2.62,0,0,0,.55-1.8A2.53,2.53,0,0,0,76.67,10.79Zm0,0a1.79,1.79,0,0,0-2.71,0,2.52,2.52,0,0,0-.56,1.78A2.55,2.55,0,0,0,74,14.35a1.79,1.79,0,0,0,2.71,0,2.62,2.62,0,0,0,.55-1.8A2.53,2.53,0,0,0,76.67,10.79Zm-9.49-.14a1.59,1.59,0,0,0-1.27-.59,1.54,1.54,0,0,0-1.22.58,2.73,2.73,0,0,0-.48,1.77,2.85,2.85,0,0,0,.48,1.82,1.49,1.49,0,0,0,1.18.58,1.67,1.67,0,0,0,1.29-.59,2.68,2.68,0,0,0,.52-1.76A2.77,2.77,0,0,0,67.18,10.65Z"/></svg>