<svg id="Capa_1" data-name="Capa 1" xmlns="http://www.w3.org/2000/svg" xmlns:xlink="http://www.w3.org/1999/xlink" viewBox="0 0 133.65 26"><defs><style>.cls-1,.cls-4{fill:#a3abb6;}.cls-2{fill:none;stroke:#c6c5c5;}.cls-2,.cls-3,.cls-4,.cls-5,.cls-6,.cls-7,.cls-8{stroke-miterlimit:10;}.cls-3,.cls-4,.cls-5,.cls-6,.cls-7,.cls-8{stroke:#fff;}.cls-3{fill:url(#radial-gradient);}.cls-5{fill:url(#radial-gradient-2);}.cls-6{fill:url(#radial-gradient-3);}.cls-7{fill:url(#radial-gradient-4);}.cls-8{fill:url(#radial-gradient-5);}</style><radialGradient id="radial-gradient" cx="-6.63" cy="80.83" r="0" gradientTransform="translate(28.22 36.01) rotate(132.64) scale(1 0.27)" gradientUnits="userSpaceOnUse"><stop offset="0" stop-color="#fff"/><stop offset="1" stop-color="#fff" stop-opacity="0"/></radialGradient><radialGradient id="radial-gradient-2" cx="-18.52" cy="77.77" r="5.63" gradientTransform="translate(-8.55 -35.08) rotate(-46.65) scale(1 0.54)" xlink:href="#radial-gradient"/><radialGradient id="radial-gradient-3" cx="-17.45" cy="87.49" r="4.95" gradientTransform="matrix(0.65, 0.76, -0.19, 0.17, 32.44, 14.34)" xlink:href="#radial-gradient"/><radialGradient id="radial-gradient-4" cx="-5.27" cy="84.06" r="5.28" gradientTransform="translate(28.97 38.99) rotate(132.64) scale(1 0.27)" xlink:href="#radial-gradient"/><radialGradient id="radial-gradient-5" cx="-8.6" cy="74.38" r="5.84" gradientTransform="translate(39.27 2.44) rotate(45.43) scale(1 0.27)" xlink:href="#radial-gradient"/></defs><path class="cls-1" d="M33.17,3.29a2.3,2.3,0,0,1-.73,1.78,2.45,2.45,0,0,1-1.71.66A2.48,2.48,0,0,1,29,5.07a2.26,2.26,0,0,1-.73-1.78A2.3,2.3,0,0,1,29,1.48,2.48,2.48,0,0,1,30.73.82a2.45,2.45,0,0,1,1.71.66A2.33,2.33,0,0,1,33.17,3.29Zm-.43,22.25h-4V8.33h4Z"/><path class="cls-1" d="M52.35,16.92a11,11,0,0,1-.59,3.72,8.14,8.14,0,0,1-1.68,2.86,7.49,7.49,0,0,1-2.61,1.84,8.46,8.46,0,0,1-3.38.66,8.24,8.24,0,0,1-3.35-.66,7.55,7.55,0,0,1-2.6-1.84,8.49,8.49,0,0,1-1.7-2.86,10.75,10.75,0,0,1-.61-3.72,10.66,10.66,0,0,1,.61-3.71,8.52,8.52,0,0,1,1.71-2.84,7.65,7.65,0,0,1,2.62-1.83,8.4,8.4,0,0,1,3.32-.64,8.5,8.5,0,0,1,3.34.64,7.38,7.38,0,0,1,2.62,1.83,8.66,8.66,0,0,1,1.7,2.84A10.9,10.9,0,0,1,52.35,16.92Zm-4.08,0a6.78,6.78,0,0,0-1.1-4.07,3.92,3.92,0,0,0-6.15,0,6.71,6.71,0,0,0-1.11,4.07A6.82,6.82,0,0,0,41,21a3.89,3.89,0,0,0,6.15,0A6.89,6.89,0,0,0,48.27,16.92Z"/><path class="cls-1" d="M61.44,25.87a10.4,10.4,0,0,1-2.95-.4,4.49,4.49,0,0,1-1.86-1,3.71,3.71,0,0,1-1-1.68,8.4,8.4,0,0,1-.28-2.29V.66l4-.66V19.71a5.23,5.23,0,0,0,.12,1.22,2,2,0,0,0,.41.84,1.88,1.88,0,0,0,.81.53,6.58,6.58,0,0,0,1.3.28Z"/><path class="cls-1" d="M69.93,7.9a9.73,9.73,0,0,1,3.32.49,5.28,5.28,0,0,1,2.16,1.39,5.14,5.14,0,0,1,1.15,2.15,10.58,10.58,0,0,1,.35,2.78V25.14q-.93.21-2.79.48a27.83,27.83,0,0,1-4.19.28,13,13,0,0,1-2.83-.29,5.93,5.93,0,0,1-2.19-1,4.57,4.57,0,0,1-1.42-1.71,5.94,5.94,0,0,1-.51-2.6,5.05,5.05,0,0,1,.58-2.5,4.6,4.6,0,0,1,1.56-1.66,6.81,6.81,0,0,1,2.29-.93A13.35,13.35,0,0,1,70.13,15a11.29,11.29,0,0,1,1.38.08,12,12,0,0,1,1.54.28v-.66a5.19,5.19,0,0,0-.16-1.32,2.72,2.72,0,0,0-.58-1.1,2.57,2.57,0,0,0-1.08-.74,4.64,4.64,0,0,0-1.7-.26,15.23,15.23,0,0,0-2.53.19,12.61,12.61,0,0,0-1.88.46l-.49-3.22a15.52,15.52,0,0,1,2.2-.53A17.91,17.91,0,0,1,69.93,7.9Zm.33,14.84a14,14,0,0,0,2.79-.2V18.13a7.8,7.8,0,0,0-1-.19,9.23,9.23,0,0,0-2.71,0,3.86,3.86,0,0,0-1.22.36,2.27,2.27,0,0,0-.88.74,2.14,2.14,0,0,0-.32,1.2,2.1,2.1,0,0,0,.88,2A4.65,4.65,0,0,0,70.26,22.74Z"/><path class="cls-1" d="M80.56,3.79l4-.66v5.2h6.12v3.32H84.54v7a5.07,5.07,0,0,0,.66,3,2.58,2.58,0,0,0,2.24.89,7,7,0,0,0,1.92-.23,12.71,12.71,0,0,0,1.34-.43L91.35,25a14.47,14.47,0,0,1-1.81.61,9.71,9.71,0,0,1-2.63.32,8.34,8.34,0,0,1-3.08-.5,4.48,4.48,0,0,1-2-1.43,5.49,5.49,0,0,1-1-2.27,14,14,0,0,1-.3-3Z"/><path class="cls-1" d="M99.22,7.9a9.69,9.69,0,0,1,3.32.49,5.28,5.28,0,0,1,2.16,1.39,5.14,5.14,0,0,1,1.15,2.15,10.58,10.58,0,0,1,.35,2.78V25.14c-.62.14-1.54.3-2.78.48a28,28,0,0,1-4.2.28,13.09,13.09,0,0,1-2.83-.29,5.93,5.93,0,0,1-2.19-1,4.54,4.54,0,0,1-1.41-1.71,5.94,5.94,0,0,1-.51-2.6,5.05,5.05,0,0,1,.57-2.5,4.78,4.78,0,0,1,1.56-1.66,6.81,6.81,0,0,1,2.29-.93A13.35,13.35,0,0,1,99.42,15a11.07,11.07,0,0,1,1.38.08,12.47,12.47,0,0,1,1.55.28v-.66a5.19,5.19,0,0,0-.17-1.32,2.82,2.82,0,0,0-.57-1.1,2.67,2.67,0,0,0-1.09-.74,4.64,4.64,0,0,0-1.7-.26,15.23,15.23,0,0,0-2.53.19,12.93,12.93,0,0,0-1.88.46l-.49-3.22a15.72,15.72,0,0,1,2.21-.53A17.71,17.71,0,0,1,99.22,7.9Zm.33,14.84a14.15,14.15,0,0,0,2.8-.2V18.13a8,8,0,0,0-1-.19,8.44,8.44,0,0,0-1.38-.1,8.6,8.6,0,0,0-1.33.1,3.86,3.86,0,0,0-1.22.36,2.24,2.24,0,0,0-.87.74,2.07,2.07,0,0,0-.33,1.2,2.09,2.09,0,0,0,.89,2A4.59,4.59,0,0,0,99.55,22.74Z"/><path class="cls-1" d="M119.86,16.49a8.36,8.36,0,0,0-.68-3.9,2.63,2.63,0,0,0-2.52-1.2,10.79,10.79,0,0,0-1.44.1c-.53.06-.93.12-1.19.16V25.54h-4V8.89a26.89,26.89,0,0,1,3-.63A24.68,24.68,0,0,1,117,8a7.79,7.79,0,0,1,2.92.47,5.69,5.69,0,0,1,1.89,1.21,9.15,9.15,0,0,1,.92-.56A11.42,11.42,0,0,1,124,8.54a12.44,12.44,0,0,1,1.46-.41A7.55,7.55,0,0,1,127,8a8.29,8.29,0,0,1,3.31.58,4.91,4.91,0,0,1,2,1.61,6.4,6.4,0,0,1,1,2.5,17.76,17.76,0,0,1,.28,3.21v9.68h-4v-9a8.7,8.7,0,0,0-.65-3.9,2.64,2.64,0,0,0-2.54-1.2,5.18,5.18,0,0,0-1.81.31,5.7,5.7,0,0,0-1.28.61,9.58,9.58,0,0,1,.36,1.74,17.72,17.72,0,0,1,.1,2v9.51h-4Z"/><circle class="cls-2" cx="12.29" cy="13.34" r="11.79" transform="translate(-4.88 19.19) rotate(-66.15)"/><path class="cls-2" d="M16.55,13.34a4.26,4.26,0,1,1-4.26-4.25A4.26,4.26,0,0,1,16.55,13.34Z"/><path class="cls-3" d="M16.9,16.57"/><path class="cls-4" d="M10,17.89A6,6,0,0,1,8.88,18,7.05,7.05,0,0,1,2.59,7.88a10.58,10.58,0,0,1,.72-1.12,12.21,12.21,0,0,1,.79-1A11.13,11.13,0,0,1,18.59,4.16a7.08,7.08,0,0,0-7.75,0A7.26,7.26,0,0,0,9,5.87a7,7,0,0,0-1.28,5.22,5.1,5.1,0,0,0,.89,5.78,5.37,5.37,0,0,0,.67.58A4.48,4.48,0,0,0,10,17.89Z"/><path class="cls-5" d="M9.28,17.45a5.37,5.37,0,0,1-.67-.58,5.1,5.1,0,0,1-.89-5.78A7,7,0,0,1,9,5.87a7.26,7.26,0,0,1,1.84-1.75,7.08,7.08,0,0,1,7.75,0A11.13,11.13,0,0,0,4.1,5.8a12.21,12.21,0,0,0-.79,1,10.58,10.58,0,0,0-.72,1.12A7.06,7.06,0,0,0,3,14.76,7.05,7.05,0,0,0,8.88,18,6,6,0,0,0,10,17.89,4.48,4.48,0,0,1,9.28,17.45Zm-.4.41a7,7,0,0,1-4-1.34A7.09,7.09,0,0,1,3.13,14.7a7,7,0,0,1-.44-6.77,12.05,12.05,0,0,1,.71-1.1c.25-.33.51-.65.78-1A11,11,0,0,1,16.13,3a7.17,7.17,0,0,0-5.35,1A7.18,7.18,0,0,0,7.52,10a8,8,0,0,0,.08,1.1A5.21,5.21,0,0,0,8.53,17a6.48,6.48,0,0,0,.68.6l.42.27A6.28,6.28,0,0,1,8.88,17.86Z"/><path class="cls-4" d="M15.52,20.84a7.26,7.26,0,0,1-1.82,1.73A7.06,7.06,0,0,1,7,23.12a10.65,10.65,0,0,1-1.26-.8,11.26,11.26,0,0,1-1.23-1h0A11.15,11.15,0,0,1,2.59,7.88,7.06,7.06,0,0,0,3,14.76,7.05,7.05,0,0,0,8.88,18,6,6,0,0,0,10,17.89a5.09,5.09,0,0,0,5.86-.9,4.78,4.78,0,0,0,.55-.63,6.31,6.31,0,0,0,.4-.65,7,7,0,0,1-1.29,5.13Z"/><path class="cls-6" d="M16.88,16.74a7,7,0,0,0-.07-1,6.31,6.31,0,0,1-.4.65,4.78,4.78,0,0,1-.55.63,5.09,5.09,0,0,1-5.86.9A6,6,0,0,1,8.88,18,7.05,7.05,0,0,1,2.59,7.88a11.15,11.15,0,0,0,1.89,13.4h0a11.26,11.26,0,0,0,1.23,1,10.65,10.65,0,0,0,1.26.8,7.06,7.06,0,0,0,6.73-.55,7.26,7.26,0,0,0,1.82-1.73A7,7,0,0,0,16.88,16.74Zm-3.25,5.73A6.87,6.87,0,0,1,7,23a11.76,11.76,0,0,1-1.24-.79,10,10,0,0,1-1.21-1h0A11,11,0,0,1,1.89,9.7a7.2,7.2,0,0,0,1.05,5.12A6.92,6.92,0,0,0,4.72,16.7a7.13,7.13,0,0,0,4.15,1.39A6.91,6.91,0,0,0,10,18a5.2,5.2,0,0,0,6-.94,4.44,4.44,0,0,0,.56-.65l.24-.35a5,5,0,0,1,0,.67,6.82,6.82,0,0,1-1.34,4A6.58,6.58,0,0,1,13.63,22.47Z"/><path class="cls-4" d="M21.37,19.79a7.06,7.06,0,0,0,.12-7.87,7.26,7.26,0,0,0-1.75-1.84,7,7,0,0,0-4.09-1.36,7.55,7.55,0,0,0-1.06.07,5.11,5.11,0,0,0-5.88.92,4.55,4.55,0,0,0-.53.62,5,5,0,0,0-.46.76A7,7,0,0,1,9,5.87a7.26,7.26,0,0,1,1.84-1.75,7.08,7.08,0,0,1,7.75,0l.12.08.15.11.14.11A11.12,11.12,0,0,1,21.37,19.79Z"/><path class="cls-4" d="M21.26,19.94l-.11.15-.08.11A11.14,11.14,0,0,1,7,23.12a7.06,7.06,0,0,0,6.73-.55,7.26,7.26,0,0,0,1.82-1.73,7,7,0,0,0,1.29-5.13,5.1,5.1,0,0,0-.9-6,7.34,7.34,0,0,0-.6-.51,4.48,4.48,0,0,0-.72-.44,7.55,7.55,0,0,1,1.06-.07,7,7,0,0,1,4.09,1.36,7.26,7.26,0,0,1,1.75,1.84,7.06,7.06,0,0,1-.12,7.87Z"/><path class="cls-7" d="M21.37,19.79a7.06,7.06,0,0,0,.12-7.87,7.26,7.26,0,0,0-1.75-1.84,7,7,0,0,0-4.09-1.36,7.55,7.55,0,0,0-1.06.07,4.48,4.48,0,0,1,.72.44,7.34,7.34,0,0,1,.6.51,5.1,5.1,0,0,1,.9,6,7,7,0,0,1-1.29,5.13,7.26,7.26,0,0,1-1.82,1.73A7.06,7.06,0,0,1,7,23.12a11.14,11.14,0,0,0,14.1-2.92l.08-.11.11-.15Zm-.31.23-.08.1A11,11,0,0,1,8.69,23.76a7.15,7.15,0,0,0,5.07-1.09,7,7,0,0,0,1.85-1.76A7.19,7.19,0,0,0,17,16.74a6.77,6.77,0,0,0-.07-1A5.26,5.26,0,0,0,16,9.66a4.94,4.94,0,0,0-.61-.52L15,8.86a5.3,5.3,0,0,1,.69,0A6.92,6.92,0,0,1,21.39,12a6.91,6.91,0,0,1-.11,7.74,1.71,1.71,0,0,0-.11.14Z"/><path class="cls-8" d="M19,4.46l-.14-.11-.15-.11-.12-.08a7.08,7.08,0,0,0-7.75,0A7.26,7.26,0,0,0,9,5.87a7,7,0,0,0-1.28,5.22,5,5,0,0,1,.46-.76,4.55,4.55,0,0,1,.53-.62,5.11,5.11,0,0,1,5.88-.92,7.55,7.55,0,0,1,1.06-.07,7,7,0,0,1,4.09,1.36,7.26,7.26,0,0,1,1.75,1.84,7.06,7.06,0,0,1-.12,7.87A11.12,11.12,0,0,0,19,4.46Zm2.58,7.4A7,7,0,0,0,19.81,10,7.13,7.13,0,0,0,15.66,8.6a7.22,7.22,0,0,0-1.05.07,5.2,5.2,0,0,0-6,1,4.71,4.71,0,0,0-.54.63,4.53,4.53,0,0,0-.3.46,6.28,6.28,0,0,1,0-.75,7,7,0,0,1,1.34-4,6.92,6.92,0,0,1,9.44-1.68l.11.07.15.11.14.11a10.91,10.91,0,0,1,4.26,7.11,11,11,0,0,1-.6,5.62A7.12,7.12,0,0,0,21.58,11.86Z"/></svg>