<svg id="Capa_1" data-name="Capa 1" xmlns="http://www.w3.org/2000/svg" viewBox="0 0 236.53 36"><defs><style>.cls-1{fill:#a3abb6;}</style></defs><path class="cls-1" d="M7.27,31.91a6.78,6.78,0,0,1-5.4-2.13A9.07,9.07,0,0,1,0,23.61v-14A8.07,8.07,0,0,1,1.85,3.87a7.08,7.08,0,0,1,5.42-2,7.08,7.08,0,0,1,5.41,2,8,8,0,0,1,1.85,5.74v14a9.12,9.12,0,0,1-1.86,6.17A6.81,6.81,0,0,1,7.27,31.91Zm.05-5.42c.89,0,1.34-.87,1.34-2.6V9.51c0-1.45-.44-2.18-1.31-2.18s-1.47.75-1.47,2.23V23.93a4.26,4.26,0,0,0,.33,2A1.17,1.17,0,0,0,7.32,26.49Z"/><path class="cls-1" d="M16.91,31.65V2.18h5.9V26.62h6.06v5Z"/><path class="cls-1" d="M30.54,31.65V2.18H36.4V12.71h2.78V2.18H45V31.65H39.18V18.28H36.4V31.65Z"/><path class="cls-1" d="M58.22,31.65V7.84h-3.5V2.18H67.61V7.84h-3.5V31.65Z"/><path class="cls-1" d="M76.19,31.91a7.91,7.91,0,0,1-4.27-1A5.58,5.58,0,0,1,69.64,28,13.32,13.32,0,0,1,69,23.46V13.36a6.75,6.75,0,0,1,2-5.3,8,8,0,0,1,5.53-1.8q7.23,0,7.23,7.1v1.83c0,2.21,0,3.69-.07,4.45H75V24.5A9.5,9.5,0,0,0,75,25.81a2.3,2.3,0,0,0,.38,1.06,1.06,1.06,0,0,0,.94.42,1.09,1.09,0,0,0,1.18-.81,8.14,8.14,0,0,0,.23-2.12V22h6v1.42A14,14,0,0,1,83,28.09,5.32,5.32,0,0,1,80.68,31,8.94,8.94,0,0,1,76.19,31.91ZM74.91,16.66h2.85V13.28a4.21,4.21,0,0,0-.33-1.95,1.09,1.09,0,0,0-1-.6,1.27,1.27,0,0,0-1.11.57,3.57,3.57,0,0,0-.4,2Z"/><path class="cls-1" d="M93.45,31.91q-4.22,0-6-2.16T85.7,23.41V15.67a17.34,17.34,0,0,1,.67-5.24A5.46,5.46,0,0,1,88.71,7.3a8.87,8.87,0,0,1,4.66-1A9,9,0,0,1,97.09,7a5.94,5.94,0,0,1,2.6,2.16,6.08,6.08,0,0,1,1,3.48v3.84H94.54V13a4,4,0,0,0-.25-1.47,1.06,1.06,0,0,0-1.09-.59c-1,0-1.48.7-1.48,2.09V25.17a3.06,3.06,0,0,0,.34,1.41,1.15,1.15,0,0,0,1.1.65,1.12,1.12,0,0,0,1.1-.63,3.25,3.25,0,0,0,.31-1.47V20.91h6.08V25.3a6.58,6.58,0,0,1-.93,3.56,6.1,6.1,0,0,1-2.55,2.27A8.54,8.54,0,0,1,93.45,31.91Z"/><path class="cls-1" d="M102.74,31.65V2.18h6.16V9a4,4,0,0,1,1.49-2.09,4.13,4.13,0,0,1,2.35-.68,4.38,4.38,0,0,1,3.8,1.64,7.41,7.41,0,0,1,1.19,4.41V31.65h-6.06v-19a2.4,2.4,0,0,0-.35-1.34,1.22,1.22,0,0,0-1.08-.52,1.12,1.12,0,0,0-1,.54,2.23,2.23,0,0,0-.36,1.27v19Z"/><path class="cls-1" d="M120.07,31.65V6.53h6v3.2a5.43,5.43,0,0,1,1.24-2.45,3.24,3.24,0,0,1,2.54-1,4.38,4.38,0,0,1,3.79,1.61,7.27,7.27,0,0,1,1.18,4.4V31.65h-5.91V12.89a3.11,3.11,0,0,0-.3-1.36,1.05,1.05,0,0,0-1-.63,1.15,1.15,0,0,0-1,.48,2.63,2.63,0,0,0-.41,1.19,11.11,11.11,0,0,0-.08,1.41V31.65Z"/><path class="cls-1" d="M144.47,31.91q-7.5,0-7.5-7.78V14.05a7.92,7.92,0,0,1,2-5.67,8.23,8.23,0,0,1,11,0,7.93,7.93,0,0,1,2,5.67V24.13Q152,31.92,144.47,31.91Zm0-4.62a1.17,1.17,0,0,0,1.08-.54,2.61,2.61,0,0,0,.33-1.38V13.09q0-2.19-1.41-2.19t-1.41,2.19V25.37a2.61,2.61,0,0,0,.33,1.38A1.17,1.17,0,0,0,144.47,27.29Z"/><path class="cls-1" d="M154.2,31.65V2.18h6.09V31.65Z"/><path class="cls-1" d="M170,31.91q-7.5,0-7.5-7.78V14.05a8,8,0,0,1,2-5.67,8.25,8.25,0,0,1,11,0,7.92,7.92,0,0,1,2,5.67V24.13Q177.52,31.92,170,31.91Zm0-4.62a1.15,1.15,0,0,0,1.08-.54,2.61,2.61,0,0,0,.33-1.38V13.09q0-2.19-1.41-2.19c-.93,0-1.4.73-1.4,2.19V25.37a2.71,2.71,0,0,0,.32,1.38A1.17,1.17,0,0,0,170,27.29Z"/><path class="cls-1" d="M186.5,36a21.31,21.31,0,0,1-3-.18,7.91,7.91,0,0,1-2.24-.62,9.16,9.16,0,0,1-2-1.28l2-3.46a8.55,8.55,0,0,0,4.39,1.3,2.5,2.5,0,0,0,2.14-.92,3.82,3.82,0,0,0,.71-2.39V26q-.72,2.58-3.84,2.58a4.58,4.58,0,0,1-2.89-.86,4.78,4.78,0,0,1-1.61-2.31,9.77,9.77,0,0,1-.5-3.25v-9a13.36,13.36,0,0,1,.43-3.58,4.62,4.62,0,0,1,1.52-2.42,4.79,4.79,0,0,1,3.05-.87,3.72,3.72,0,0,1,2.59.84,4.22,4.22,0,0,1,1.25,2.26V6.53h6.11V28.06c0,2.85-.66,4.88-2,6.11S189.32,36,186.5,36Zm.65-12c.94,0,1.41-.84,1.41-2.54V13a2.86,2.86,0,0,0-.4-1.41,1.19,1.19,0,0,0-1.08-.72,1,1,0,0,0-1.09.65,4.76,4.76,0,0,0-.21,1.48V21.5a6.44,6.44,0,0,0,.22,1.72A1.06,1.06,0,0,0,187.15,24Z"/><path class="cls-1" d="M197,5V0h6V5Zm0,26.66V6.53h6V31.65Z"/><path class="cls-1" d="M212.38,31.91a7.94,7.94,0,0,1-4.27-1,5.51,5.51,0,0,1-2.27-2.9,13.32,13.32,0,0,1-.69-4.55V13.36a6.75,6.75,0,0,1,2-5.3,8,8,0,0,1,5.52-1.8q7.24,0,7.24,7.1v1.83c0,2.21,0,3.69-.07,4.45h-8.71V24.5a9.5,9.5,0,0,0,.09,1.31,2.3,2.3,0,0,0,.37,1.06,1.09,1.09,0,0,0,1,.42,1.07,1.07,0,0,0,1.17-.81,7.68,7.68,0,0,0,.24-2.12V22h6v1.42a13.7,13.7,0,0,1-.7,4.72A5.26,5.26,0,0,1,216.88,31,9,9,0,0,1,212.38,31.91Zm-1.27-15.25H214V13.28a4.06,4.06,0,0,0-.34-1.95,1.08,1.08,0,0,0-1-.6,1.29,1.29,0,0,0-1.12.57,3.68,3.68,0,0,0-.39,2Z"/><path class="cls-1" d="M229,31.91q-7.44,0-7.44-7.53v-2h6v2.94a2.27,2.27,0,0,0,.34,1.34,1.19,1.19,0,0,0,1.07.49c.87,0,1.3-.65,1.3-2a3.77,3.77,0,0,0-.68-2.45,10.65,10.65,0,0,0-1.68-1.57l-3.2-2.46a9.23,9.23,0,0,1-2.29-2.48,7.09,7.09,0,0,1-.79-3.63,5.94,5.94,0,0,1,1-3.57A6.2,6.2,0,0,1,225.4,7a9.68,9.68,0,0,1,3.68-.69q7.29,0,7.3,7.29V14h-6.2v-.95a4.05,4.05,0,0,0-.26-1.46,1,1,0,0,0-1-.7c-.85,0-1.27.45-1.27,1.34a2.48,2.48,0,0,0,1.07,2.13l3.72,2.71a12.15,12.15,0,0,1,2.92,3,8,8,0,0,1,1.18,4.59,7,7,0,0,1-2,5.41A7.88,7.88,0,0,1,229,31.91Z"/></svg>