<svg id="Capa_1" data-name="Capa 1" xmlns="http://www.w3.org/2000/svg" viewBox="0 0 112.94 36"><defs><style>.cls-1,.cls-2{fill:#a4abb6;}.cls-2{font-size:17.22px;font-family:Arial-BoldMT, Arial;font-weight:700;letter-spacing:0.11em;}</style></defs><path class="cls-1" d="M1.54,15h6A5.4,5.4,0,0,1,11.3,9.2a21.39,21.39,0,0,1,9.19,0,5.54,5.54,0,0,1,3.35,2.66s1.85,3.43-3.72,4.16c0,0-12,1.86-15.44,3.62,0,0-4.48,1.46-4.67,7.5a7.84,7.84,0,0,0,4.67,7.49c0,.08,2.82,2.55,12.44.66a17.31,17.31,0,0,0,7.29-4.13s-.21,4.42,5.1,4.4c0,.07,4.4-.13,4.4-.13V31.32H31.29S30,31.32,30,29.57c.05,0,0-9,0-9L23.8,22.21l0,2.81s-1.06,4.2-7.93,6.12c0,0-6.72,2.19-9.46-2.63,0,0-2-4.94,7.14-6.35,0,0,15.12-2.08,17.47-3.61,0,0,12-3.12,10.76-17A16.18,16.18,0,0,1,30,13.93c0,.05.11-5.7-3.87-7.79.05,0-4.08-3-12.56-2.25C13.52,3.94,1.75,4.41,1.54,15Z"/><text class="cls-2" transform="translate(47.65 14.78)">pharm</text><path class="cls-1" d="M52.21,27.69a11.89,11.89,0,0,0,1.36-.34v.45a5.06,5.06,0,0,1-.08,1.09,1.39,1.39,0,0,1-.54.74A1.94,1.94,0,0,1,51.8,30a1.21,1.21,0,0,1-.89-.34,1.08,1.08,0,0,1-.35-.81.92.92,0,0,1,.44-.79A4.51,4.51,0,0,1,52.21,27.69Z"/><path class="cls-1" d="M77.37,25.12A1.7,1.7,0,0,0,76,24.48a1.67,1.67,0,0,0-1.32.62A2.94,2.94,0,0,0,74.16,27a3,3,0,0,0,.52,2A1.63,1.63,0,0,0,76,29.6,1.78,1.78,0,0,0,77.35,29a2.77,2.77,0,0,0,.57-1.9A2.94,2.94,0,0,0,77.37,25.12Zm14.29.14a1.89,1.89,0,0,0-1.47-.67,1.92,1.92,0,0,0-1.47.67,2.8,2.8,0,0,0-.6,1.92,2.81,2.81,0,0,0,.6,1.93,1.92,1.92,0,0,0,1.47.67,1.89,1.89,0,0,0,1.47-.67,2.87,2.87,0,0,0,.6-1.94A2.82,2.82,0,0,0,91.66,25.26Zm0,0a1.89,1.89,0,0,0-1.47-.67,1.92,1.92,0,0,0-1.47.67,2.8,2.8,0,0,0-.6,1.92,2.81,2.81,0,0,0,.6,1.93,1.92,1.92,0,0,0,1.47.67,1.89,1.89,0,0,0,1.47-.67,2.87,2.87,0,0,0,.6-1.94A2.82,2.82,0,0,0,91.66,25.26Zm-14.29-.14A1.7,1.7,0,0,0,76,24.48a1.67,1.67,0,0,0-1.32.62A2.94,2.94,0,0,0,74.16,27a3,3,0,0,0,.52,2A1.63,1.63,0,0,0,76,29.6,1.78,1.78,0,0,0,77.35,29a2.77,2.77,0,0,0,.57-1.9A2.94,2.94,0,0,0,77.37,25.12Zm28.14-5.22H49.77a7.46,7.46,0,0,0-7.44,7.43v1.22A7.46,7.46,0,0,0,49.77,36h55.74a7.45,7.45,0,0,0,7.43-7.43V27.33A7.45,7.45,0,0,0,105.51,19.9ZM54,31.41a6.68,6.68,0,0,1-.21-.66c0-.13-.07-.22-.08-.27a3.91,3.91,0,0,1-1.23.84,3.59,3.59,0,0,1-1.39.28,2.9,2.9,0,0,1-2.06-.71,2.36,2.36,0,0,1-.75-1.79,2.43,2.43,0,0,1,.34-1.27,2.17,2.17,0,0,1,1-.86,7.52,7.52,0,0,1,1.78-.53,11.6,11.6,0,0,0,2.17-.54v-.23a1.15,1.15,0,0,0-.31-.91,1.9,1.9,0,0,0-1.21-.28,1.56,1.56,0,0,0-.93.24,1.63,1.63,0,0,0-.54.82l-2-.37a3.16,3.16,0,0,1,1.18-1.81,4.34,4.34,0,0,1,2.48-.59,5.28,5.28,0,0,1,2.23.36,2.19,2.19,0,0,1,1,.89,4.6,4.6,0,0,1,.3,2l0,2.61a9.34,9.34,0,0,0,.1,1.64,5.28,5.28,0,0,0,.41,1.14Zm12.65-6.27a2,2,0,0,0-1-.36,1.2,1.2,0,0,0-.8.26,1.7,1.7,0,0,0-.51.93,12.81,12.81,0,0,0-.19,2.83v2.61H61.9V23H64v1.2a3.68,3.68,0,0,1,1-1.12,1.79,1.79,0,0,1,1-.27,2.83,2.83,0,0,1,1.47.42Zm13.42,5.4a7.68,7.68,0,0,1-.24,2.23,2.75,2.75,0,0,1-.7,1.16A2.9,2.9,0,0,1,78,34.6a6.55,6.55,0,0,1-1.88.23,4.89,4.89,0,0,1-3-.73,2.31,2.31,0,0,1-.9-1.87c0-.07,0-.16,0-.27l2.56.31a.91.91,0,0,0,.29.62,1.68,1.68,0,0,0,1,.23,2.56,2.56,0,0,0,1.32-.26,1.1,1.1,0,0,0,.44-.56,3.34,3.34,0,0,0,.11-1V30a3,3,0,0,1-2.54,1.37A3.11,3.11,0,0,1,72.65,30a4.89,4.89,0,0,1-.78-2.83,4.67,4.67,0,0,1,1-3.25,3.29,3.29,0,0,1,2.54-1.12A3.09,3.09,0,0,1,78,24.15V23h2.09Zm13.21-.2A4.21,4.21,0,0,1,90.2,31.6,5,5,0,0,1,88,31.07a3.64,3.64,0,0,1-1.6-1.53,5.22,5.22,0,0,1-.55-2.48,4.64,4.64,0,0,1,.55-2.15,3.8,3.8,0,0,1,1.56-1.59,4.67,4.67,0,0,1,2.24-.55,4.23,4.23,0,0,1,4.37,4.39A4.37,4.37,0,0,1,93.32,30.34ZM108,31.41h-2.24V27.1a6.94,6.94,0,0,0-.14-1.77,1.26,1.26,0,0,0-.47-.63,1.37,1.37,0,0,0-.77-.22,1.83,1.83,0,0,0-1.05.32,1.65,1.65,0,0,0-.63.84,7.49,7.49,0,0,0-.17,1.94v3.83h-2.24V23h2.08V24.2a3.41,3.41,0,0,1,2.79-1.43,3.32,3.32,0,0,1,1.35.27,2.25,2.25,0,0,1,.93.68,2.54,2.54,0,0,1,.44.94,7.15,7.15,0,0,1,.12,1.5ZM90.19,24.59a1.92,1.92,0,0,0-1.47.67,2.8,2.8,0,0,0-.6,1.92,2.81,2.81,0,0,0,.6,1.93,1.92,1.92,0,0,0,1.47.67,1.89,1.89,0,0,0,1.47-.67,2.87,2.87,0,0,0,.6-1.94,2.82,2.82,0,0,0-.6-1.91A1.89,1.89,0,0,0,90.19,24.59ZM76,24.48a1.67,1.67,0,0,0-1.32.62A2.94,2.94,0,0,0,74.16,27a3,3,0,0,0,.52,2A1.63,1.63,0,0,0,76,29.6,1.78,1.78,0,0,0,77.35,29a2.77,2.77,0,0,0,.57-1.9,2.94,2.94,0,0,0-.55-1.94A1.7,1.7,0,0,0,76,24.48Zm1.37.64A1.7,1.7,0,0,0,76,24.48a1.67,1.67,0,0,0-1.32.62A2.94,2.94,0,0,0,74.16,27a3,3,0,0,0,.52,2A1.63,1.63,0,0,0,76,29.6,1.78,1.78,0,0,0,77.35,29a2.77,2.77,0,0,0,.57-1.9A2.94,2.94,0,0,0,77.37,25.12Zm0,0A1.7,1.7,0,0,0,76,24.48a1.67,1.67,0,0,0-1.32.62A2.94,2.94,0,0,0,74.16,27a3,3,0,0,0,.52,2A1.63,1.63,0,0,0,76,29.6,1.78,1.78,0,0,0,77.35,29a2.77,2.77,0,0,0,.57-1.9A2.94,2.94,0,0,0,77.37,25.12Z"/></svg>