<svg id="Capa_1" data-name="Capa 1" xmlns="http://www.w3.org/2000/svg" viewBox="0 0 539.54 121"><defs><style>.cls-1,.cls-3{fill:#fff;}.cls-2{fill:none;}.cls-2,.cls-3{stroke:#fff;stroke-miterlimit:10;}</style></defs><path class="cls-1" d="M152.44,100.93,118.35,19.5h18.42l28,67.2h1.38l28.05-67.2h18.42l-34.09,81.43Z" transform="translate(0 0)"/><path class="cls-1" d="M239,101.5q-14.18,0-22.12-7.57T209,71.66q0-14.8,7.94-22.38T239,41.71h26.47q9.31,0,14.23,4.72t4.93,13.5q0,17.88-19.16,17.88h-40Q227.71,88.4,239,88.4H281.9v13.1Zm0-46.69q-10.9,0-13.44,9.9h39.17a4.23,4.23,0,0,0,3.33-1.36,5.47,5.47,0,0,0,1.22-3.76q0-4.79-4.55-4.78Z" transform="translate(0 0)"/><path class="cls-1" d="M294.17,100.93V42.28h41.71q9.21,0,13.55,4.95t4.34,13V72.46H338.21V62.32q0-6.82-6.36-6.83H309.73v45.44Z" transform="translate(0 0)"/><path class="cls-1" d="M360.43,101.5V88.4H412.3q4.45,0,4.45-5.35t-4.45-5.24H378.75q-9.44,0-14.29-4.61t-4.87-13.27q0-8.76,4.92-13.5t14.24-4.72H427v13.1H379.49c-3,0-4.55,1.59-4.55,4.78a5.3,5.3,0,0,0,1.27,3.76,4.26,4.26,0,0,0,3.28,1.36h35.56q8.26,0,12.65,4.62t4.4,13.38q0,8.88-4.45,13.84t-12.6,5Z" transform="translate(0 0)"/><path class="cls-1" d="M469,101.5q-14.19,0-22.12-7.57T439,71.66q0-14.8,7.94-22.38T469,41.71h26.47q9.3,0,14.23,4.72t4.92,13.5q0,17.88-19.15,17.88h-40Q457.73,88.4,469,88.4h42.87v13.1Zm0-46.69q-10.91,0-13.44,9.9h39.16a4.23,4.23,0,0,0,3.34-1.36,5.47,5.47,0,0,0,1.22-3.76q0-4.79-4.56-4.78Z" transform="translate(0 0)"/><path class="cls-1" d="M524.19,100.93V19.5h15.35v81.43Z" transform="translate(0 0)"/><path class="cls-1" d="M49.6,26.71a4.35,4.35,0,0,1-2.39,4L16.12,45.49,7.53,49.56l-.66.33A10.81,10.81,0,0,0,1.5,59.41a11.25,11.25,0,0,0,1.2,5.11A18.07,18.07,0,0,1,.52,56V52.9l0-7.41,0-7.42V35A17,17,0,0,1,9,20L43.67,1c2.65-1.45,5.79.62,5.81,3.84Z" transform="translate(0 0)"/><path class="cls-2" d="M49.6,26.71a4.35,4.35,0,0,1-2.39,4L16.12,45.49,7.53,49.56l-.66.33A10.81,10.81,0,0,0,1.5,59.41a11.25,11.25,0,0,0,1.2,5.11A18.07,18.07,0,0,1,.52,56V52.9l0-7.41,0-7.42V35A17,17,0,0,1,9,20L43.67,1c2.65-1.45,5.79.62,5.81,3.84Z" transform="translate(0 0)"/><path class="cls-3" d="M49.6,64.25l-.12,21.9c0,3.22-3.16,5.29-5.81,3.84L9,70.93a15.76,15.76,0,0,1-5.15-4.59,5.91,5.91,0,0,1-.48-.67A6.48,6.48,0,0,1,3,65c-.1-.15-.18-.3-.26-.45a11.25,11.25,0,0,1-1.2-5.11,10.81,10.81,0,0,1,5.37-9.52l.66-.33,7-3.31a3.74,3.74,0,0,1,3.2,0l29.49,14A4.35,4.35,0,0,1,49.6,64.25Z" transform="translate(0 0)"/><path class="cls-3" d="M57.31,56.75a4.35,4.35,0,0,0,2.39,4L90.79,75.53l8.59,4.07.66.32a10.82,10.82,0,0,1,5.38,9.53,11.25,11.25,0,0,1-1.2,5.11A18.21,18.21,0,0,0,106.39,86v-3.1l0-7.4,0-7.43V65a17,17,0,0,0-8.48-14.94L63.24,31c-2.65-1.45-5.78.62-5.8,3.84Z" transform="translate(0 0)"/><path class="cls-3" d="M57.31,94.29l.13,21.9c0,3.22,3.15,5.29,5.8,3.84L97.91,101a15.73,15.73,0,0,0,5.15-4.59,4.54,4.54,0,0,0,.48-.67A5.53,5.53,0,0,0,104,95c.1-.15.18-.3.26-.45a11.25,11.25,0,0,0,1.2-5.11A10.82,10.82,0,0,0,100,79.92l-.66-.32-7-3.31a3.72,3.72,0,0,0-3.21,0l-29.48,14A4.34,4.34,0,0,0,57.31,94.29Z" transform="translate(0 0)"/></svg>