<svg id="Capa_1" data-name="Capa 1" xmlns="http://www.w3.org/2000/svg" viewBox="0 0 176.72 36.5"><defs><style>.cls-1,.cls-2{fill:#a4abb6;}.cls-1{stroke:#a4abb6;stroke-miterlimit:10;}</style></defs><rect class="cls-1" x="0.5" y="0.67" width="0.9" height="35.32"/><path class="cls-1" d="M3.44.67V8.39h9.28s4.29,3.12-.78,6.4c0,.15-7.72,0-7.72,0l.08,6.54s4.29-.93,5.38,2.19C9.76,23.75,16,36,16,36l14-.39-10.45-15a2.31,2.31,0,0,1-.08-1.6c.47-1.29,2.24-1.32,3.67-2.08,2.59-1.37,4.1-5.18,3.63-8.45a9.29,9.29,0,0,0-3.86-6C22.93,2.39,21.69-.18,3.44.67Z"/><path class="cls-2" d="M45.89,35.87V32.21a9.5,9.5,0,0,1-3.52,3.09,9.87,9.87,0,0,1-4.6,1.13,9,9,0,0,1-4.43-1.09,6.41,6.41,0,0,1-2.83-3,13.51,13.51,0,0,1-.88-5.42V11.38h6.48V22.63A30.9,30.9,0,0,0,36.47,29a3.44,3.44,0,0,0,1.3,1.85,4,4,0,0,0,2.4.68,5.1,5.1,0,0,0,3-.91A4.72,4.72,0,0,0,45,28.32q.48-1.35.48-6.61V11.38h6.48V35.87Z"/><path class="cls-2" d="M52.37,28.88l6.51-1a4.79,4.79,0,0,0,1.68,2.87,5.66,5.66,0,0,0,3.55,1,6.4,6.4,0,0,0,3.79-.92,2.06,2.06,0,0,0,.85-1.73,1.68,1.68,0,0,0-.46-1.22A5.13,5.13,0,0,0,66.12,27q-7.85-1.74-9.94-3.17a6.3,6.3,0,0,1-2.91-5.51A6.79,6.79,0,0,1,55.79,13q2.51-2.18,7.79-2.17,5,0,7.48,1.64a8.4,8.4,0,0,1,3.37,4.84l-6.12,1.13a3.78,3.78,0,0,0-1.48-2.19,5.54,5.54,0,0,0-3.13-.76A7,7,0,0,0,60,16.2a1.53,1.53,0,0,0-.74,1.31,1.44,1.44,0,0,0,.65,1.18q.87.64,6,1.82c3.46.78,5.87,1.75,7.24,2.88a6,6,0,0,1,2,4.82A7.38,7.38,0,0,1,72.44,34q-2.81,2.43-8.33,2.43a13.7,13.7,0,0,1-7.92-2A9.39,9.39,0,0,1,52.37,28.88Z"/><path class="cls-2" d="M83.42,2.06V14.49A9.71,9.71,0,0,1,95,11.65a6.7,6.7,0,0,1,2.72,2.12,7.83,7.83,0,0,1,1.24,2.87,25.58,25.58,0,0,1,.34,4.86V35.87H92.76V22.93A18.93,18.93,0,0,0,92.39,18a3.21,3.21,0,0,0-1.3-1.65,4.24,4.24,0,0,0-2.34-.61,5.28,5.28,0,0,0-2.88.79A4.49,4.49,0,0,0,84,18.93a14.15,14.15,0,0,0-.59,4.67V35.87H76.94V2.06Z"/><path class="cls-2" d="M106.64,32.92V21.55H102V20h11.14v1.52H108.5V32.92Z"/><path class="cls-2" d="M113.09,32.92V23.58h1.56V25a3.84,3.84,0,0,1,1.09-1.31,2,2,0,0,1,1.11-.32,3.64,3.64,0,0,1,1.78.51l-.6,1.47a2.6,2.6,0,0,0-1.26-.34,1.73,1.73,0,0,0-1,.31,1.64,1.64,0,0,0-.64.86,5.52,5.52,0,0,0-.29,1.85v4.89Z"/><path class="cls-2" d="M125.3,31.77a6.4,6.4,0,0,1-1.85,1.05,5.61,5.61,0,0,1-1.9.31,3.93,3.93,0,0,1-2.58-.75,2.39,2.39,0,0,1-.9-1.92,2.32,2.32,0,0,1,.34-1.25,2.61,2.61,0,0,1,.89-.92,4.43,4.43,0,0,1,1.24-.51,10.76,10.76,0,0,1,1.53-.24,16.78,16.78,0,0,0,3.08-.55c0-.21,0-.35,0-.41a1.63,1.63,0,0,0-.49-1.36,3,3,0,0,0-2-.54,3.27,3.27,0,0,0-1.8.39,2.35,2.35,0,0,0-.86,1.39l-1.69-.21a3.77,3.77,0,0,1,.76-1.61,3.31,3.31,0,0,1,1.53-.94,7.31,7.31,0,0,1,2.31-.33,6.59,6.59,0,0,1,2.12.28,2.85,2.85,0,0,1,1.2.71,2.38,2.38,0,0,1,.53,1.08,7.81,7.81,0,0,1,.09,1.46V29A21.19,21.19,0,0,0,127,31.8a3.23,3.23,0,0,0,.44,1.12h-1.81A3.1,3.1,0,0,1,125.3,31.77Zm-.15-3.54a12.82,12.82,0,0,1-2.82.6,7,7,0,0,0-1.5.32,1.5,1.5,0,0,0-.68.51,1.32,1.32,0,0,0,.28,1.81,2.4,2.4,0,0,0,1.53.42,3.75,3.75,0,0,0,1.77-.4,2.57,2.57,0,0,0,1.14-1.09,3.51,3.51,0,0,0,.28-1.59Z"/><path class="cls-2" d="M128.57,32.92V23.58h1.56v1.33a3.75,3.75,0,0,1,3.24-1.54,4.62,4.62,0,0,1,1.69.3,2.72,2.72,0,0,1,1.16.8,3,3,0,0,1,.53,1.17,7.73,7.73,0,0,1,.1,1.54v5.74h-1.73V27.24a3.83,3.83,0,0,0-.2-1.45,1.53,1.53,0,0,0-.71-.76,2.46,2.46,0,0,0-1.21-.29,3,3,0,0,0-1.9.64,3,3,0,0,0-.8,2.44v5.1Z"/><path class="cls-2" d="M137.8,30.13l1.71-.24a2.17,2.17,0,0,0,.8,1.44,3,3,0,0,0,1.84.5,2.9,2.9,0,0,0,1.76-.44,1.3,1.3,0,0,0,.58-1.05,1,1,0,0,0-.51-.84,8.26,8.26,0,0,0-1.77-.54,16.34,16.34,0,0,1-2.63-.76,2.44,2.44,0,0,1-1.11-.89,2.19,2.19,0,0,1-.38-1.25,2.24,2.24,0,0,1,.31-1.16,2.74,2.74,0,0,1,.85-.88,3.67,3.67,0,0,1,1.1-.46,5.48,5.48,0,0,1,1.49-.19,6.2,6.2,0,0,1,2.11.32,2.81,2.81,0,0,1,1.33.85,3.21,3.21,0,0,1,.6,1.45l-1.69.21a1.66,1.66,0,0,0-.67-1.12,2.55,2.55,0,0,0-1.55-.41,3,3,0,0,0-1.7.36,1,1,0,0,0-.51.85.82.82,0,0,0,.21.55,1.51,1.51,0,0,0,.66.42c.18.06.68.2,1.53.41a22.92,22.92,0,0,1,2.55.73,2.58,2.58,0,0,1,1.14.83,2.18,2.18,0,0,1,.41,1.36,2.56,2.56,0,0,1-.5,1.49,3.32,3.32,0,0,1-1.45,1.08,5.84,5.84,0,0,1-2.15.38,5.15,5.15,0,0,1-3-.75A3.5,3.5,0,0,1,137.8,30.13Z"/><path class="cls-2" d="M147.31,36.5V23.58h1.58v1.21a3.75,3.75,0,0,1,1.25-1.06,3.71,3.71,0,0,1,1.7-.36,4.28,4.28,0,0,1,2.3.62,3.86,3.86,0,0,1,1.51,1.73,5.89,5.89,0,0,1,.51,2.46,5.82,5.82,0,0,1-.56,2.58A4,4,0,0,1,154,32.52a4.42,4.42,0,0,1-2.24.61,3.5,3.5,0,0,1-1.55-.33A3.4,3.4,0,0,1,149,32V36.5Zm1.57-8.2a3.84,3.84,0,0,0,.79,2.67,2.55,2.55,0,0,0,1.93.86,2.6,2.6,0,0,0,2-.89,4,4,0,0,0,.82-2.77,3.89,3.89,0,0,0-.8-2.67,2.49,2.49,0,0,0-1.91-.89,2.52,2.52,0,0,0-2,.95A4,4,0,0,0,148.88,28.3Z"/><path class="cls-2" d="M156.59,28.25a4.6,4.6,0,0,1,1.58-3.84,5,5,0,0,1,3.2-1,4.79,4.79,0,0,1,3.43,1.26,4.58,4.58,0,0,1,1.34,3.49,5.68,5.68,0,0,1-.6,2.84,4,4,0,0,1-1.71,1.6,5.36,5.36,0,0,1-2.46.57,4.8,4.8,0,0,1-3.46-1.26A4.74,4.74,0,0,1,156.59,28.25Zm1.78,0a3.76,3.76,0,0,0,.85,2.69,2.87,2.87,0,0,0,2.15.89,2.82,2.82,0,0,0,2.14-.9,3.83,3.83,0,0,0,.85-2.73,3.67,3.67,0,0,0-.86-2.63,3,3,0,0,0-4.28,0A3.72,3.72,0,0,0,158.37,28.25Z"/><path class="cls-2" d="M167.14,32.92V23.58h1.55V25a4,4,0,0,1,1.1-1.31,2,2,0,0,1,1.11-.32,3.57,3.57,0,0,1,1.77.51l-.59,1.47a2.63,2.63,0,0,0-1.27-.34,1.7,1.7,0,0,0-1,.31,1.66,1.66,0,0,0-.65.86,5.79,5.79,0,0,0-.29,1.85v4.89Z"/><path class="cls-2" d="M176.47,31.5l.25,1.4a6.58,6.58,0,0,1-1.31.14,3.22,3.22,0,0,1-1.46-.27,1.64,1.64,0,0,1-.73-.72,5.16,5.16,0,0,1-.21-1.86V24.81h-1.26V23.58H173V21.27l1.72-.95v3.26h1.74v1.23h-1.74v5.46a2.58,2.58,0,0,0,.09.87.64.64,0,0,0,.3.31,1.18,1.18,0,0,0,.59.12A5,5,0,0,0,176.47,31.5Z"/></svg>