<?xml version="1.0" encoding="UTF-8"?>
<svg xmlns="http://www.w3.org/2000/svg" fill="none" height="26" viewBox="0 0 103 26" width="103"><link xmlns="" type="text/css" rel="stylesheet" id="dark-mode-custom-link"/><link xmlns="" type="text/css" rel="stylesheet" id="dark-mode-general-link"/><style xmlns="" lang="en" type="text/css" id="dark-mode-custom-style"/><style xmlns="" lang="en" type="text/css" id="dark-mode-native-style"/><style xmlns="" lang="en" type="text/css" id="dark-mode-native-sheet"/>
<path d="M91.986 9.1877C89.2858 9.1877 87.146 11.5992 87.146 14.9278C87.146 18.2563 89.2688 20.9735 91.986 20.9735C94.6522 20.9735 96.5203 18.2054 96.5203 14.9278C96.5203 11.6502 94.6522 9.1877 91.986 9.1877ZM91.8331 26.0003C86.0252 26.0003 81.1172 21.0074 81.1172 15.0806C81.1172 9.08581 86.1271 4.12695 92.0199 4.12695C97.794 4.12695 102.651 9.05185 102.651 14.9957C102.651 17.8657 101.496 20.6169 99.4073 22.7227C97.3354 24.8115 94.5843 26.0003 91.8331 26.0003Z" fill="#A4ABB6"/>
<path d="M26.502 25.8811C24.498 25.8811 23.581 23.9451 23.581 22.5696V12.499C23.581 12.2443 23.6489 9.98561 20.9657 9.98561C18.7071 9.98561 18.0787 10.7159 18.0447 12.5669V22.9262C18.0447 23.113 17.9428 24.1999 17.2296 24.9811C16.7541 25.5075 16.0748 25.7622 15.2087 25.7622C13.1029 25.7622 12.1349 24.1659 12.1349 23.1639V12.3801C12.1349 11.6329 11.7613 9.95165 9.38372 9.95165C7.14205 9.95165 6.59861 11.2083 6.59861 12.3801V14.1972V23.5545V23.6225C6.49671 24.4206 5.42682 25.9151 3.47385 25.9151C1.75863 25.9151 0.705721 24.4546 0.705721 23.096V7.86281C0.705721 7.62506 0.637789 6.74198 1.23217 6.0457C1.70768 5.48528 2.43792 5.21356 3.38894 5.21356C3.40592 5.21356 3.45687 5.21356 3.50781 5.21356C3.86444 5.21356 4.91735 5.29847 5.69854 6.31742C6.4118 5.62114 7.90625 4.44935 10.4706 4.39841C13.7991 4.33048 15.4464 5.4683 16.5163 6.57215C17.2805 5.80795 19.0467 4.39841 21.679 4.39841C24.9905 4.39841 26.7058 5.97777 27.6907 7.16654C28.5229 8.1685 29.406 10.1894 29.406 12.2952V22.6715C29.4229 23.7753 28.7946 25.8811 26.502 25.8811Z" fill="#A4ABB6"/>
<path d="M43.3994 15.811C43.0768 15.8789 42.6522 15.9469 42.1088 16.0488C41.1408 16.2186 39.918 16.4054 38.5595 16.745C37.6084 16.9658 36.5216 18.0017 36.4706 19.1226C36.4536 19.5981 36.6235 20.0566 36.9461 20.4132C37.4726 20.9567 38.3387 21.2454 39.4595 21.2454C39.5274 21.2454 39.5954 21.2454 39.6633 21.2454C42.4824 21.1605 43.0598 19.717 43.2806 18.6471C43.4504 17.6451 43.4334 16.5243 43.3994 15.811ZM38.2708 25.8816C36.1819 25.8816 34.3478 25.1683 32.7854 23.7588L32.7685 23.7418C32.6666 23.6399 30.2211 21.2623 31.0872 17.5092V17.4923C31.8174 14.6562 34.6365 12.958 39.918 12.1258L40.0199 12.1088C41.5484 11.7862 42.89 11.4975 43.2466 10.6653C43.5693 9.81622 43.5183 9.20485 42.2786 8.64443C40.0879 7.94816 38.4066 8.45763 37.3028 10.1389C36.7423 10.988 35.6045 11.5824 34.5176 11.5824C33.3798 11.5824 32.5307 10.9371 32.259 9.88415C31.9703 8.74633 32.1741 7.67644 32.8704 6.77637C34.161 5.1121 37.099 4.07617 40.5634 4.07617C45.5562 4.07617 48.7828 6.19897 48.7828 9.47657C48.7828 12.1938 48.9866 22.3322 49.0036 22.7908C49.0206 22.9776 49.0715 24.1494 48.3583 24.9475C47.9167 25.44 47.3054 25.6948 46.5412 25.7117C46.4902 25.7117 46.4563 25.7117 46.4053 25.7117C44.741 25.7117 43.9429 24.9985 43.5862 24.455C42.6522 24.9645 40.6313 25.8816 38.2708 25.8816Z" fill="#A4ABB6"/>
<path d="M53.504 25.8642C52.2473 25.8642 51.3302 25.2019 50.8717 23.9452C50.5321 23.0281 50.5321 22.0431 50.5321 21.6865V4.31353C50.5321 3.97388 50.3962 1.8341 51.2793 0.84912C51.7548 0.305684 52.3831 0.0169835 53.1813 1.07812e-06H53.453C54.3531 1.07812e-06 56.408 -0.0169808 56.408 4.21163V13.0934L62.2159 7.1326C62.2159 7.1326 64.2029 4.95886 65.5445 4.97584C66.3766 4.99282 66.8861 5.2985 67.4126 5.92685C67.8201 6.38538 68.0239 6.92881 67.939 7.48923C67.8031 8.45723 66.3427 9.74789 66.0879 10.0026L62.6405 13.501L67.8201 20.9563C67.939 21.1091 68.7711 22.2299 68.6013 23.4527C68.5164 24.115 68.1598 24.6924 67.5484 25.1339C67.0389 25.5075 66.5125 25.6944 65.9691 25.7113C64.3727 25.7283 63.15 23.6225 63.0481 23.5206L58.8534 17.5768L56.4249 19.9543L56.357 22.9942C56.357 23.9791 55.7626 25.8642 53.504 25.8642Z" fill="#A4ABB6"/>
<path d="M73.1865 25.8471C73.0846 25.8471 72.1506 25.8132 71.4543 25.1169C70.6901 24.3697 70.3844 23.0111 70.3844 20.4298V8.0496C70.3674 7.82883 70.3165 6.33438 71.2166 5.3494C71.709 4.80597 72.4053 4.53425 73.2375 4.53425C74.5281 4.53425 75.3263 5.36638 75.7509 6.01172C76.1075 5.6381 76.6339 5.19656 77.2963 4.85691C78.0095 4.50028 78.7058 4.31348 79.3511 4.31348C80.1833 4.31348 81.3381 4.63614 82.1023 6.14758L82.1193 6.19852C82.391 6.91178 82.34 7.60806 82.0004 8.21943C81.6607 8.81381 80.8795 9.57802 79.0454 9.91767C76.1754 10.4102 76.1415 13.3991 76.1415 13.5179C76.1415 14.5199 76.1924 20.7524 76.1924 21.0581C76.2094 21.2959 76.3113 23.7583 75.0885 25.049C74.5961 25.5754 73.9507 25.8471 73.1865 25.8471Z" fill="#A4ABB6"/>
</svg>