<?xml version="1.0" encoding="UTF-8"?>
<svg xmlns="http://www.w3.org/2000/svg" fill="none" height="26" viewBox="0 0 119 26" width="119"><link xmlns="" type="text/css" rel="stylesheet" id="dark-mode-custom-link"/><link xmlns="" type="text/css" rel="stylesheet" id="dark-mode-general-link"/><style xmlns="" lang="en" type="text/css" id="dark-mode-custom-style"/><style xmlns="" lang="en" type="text/css" id="dark-mode-native-style"/><style xmlns="" lang="en" type="text/css" id="dark-mode-native-sheet"/>
<path d="M1.72295 10.581C1.51087 10.4922 1.3184 10.3625 1.15658 10.1992C0.994774 10.0359 0.866814 9.84218 0.780038 9.62929C0.693262 9.41639 0.64938 9.18845 0.650918 8.95855C0.652456 8.72865 0.699379 8.50132 0.788996 8.2896C0.890292 8.05062 1.04276 7.83676 1.23567 7.66309L9.78632 0L15.9006 5.01205V4.42035C15.9021 3.95157 16.089 3.50243 16.4205 3.17095C16.7519 2.83948 17.2011 2.65258 17.6699 2.65105C18.1386 2.65258 18.5878 2.83948 18.9192 3.17095C19.2507 3.50243 19.4376 3.95157 19.4391 4.42035V9.18295C19.4391 9.63989 19.2576 10.0781 18.9345 10.4012C18.6114 10.7243 18.1732 10.9058 17.7163 10.9058C17.2597 10.9075 16.8183 10.7425 16.4748 10.4418L9.86173 4.7162L3.7707 10.2271C3.49822 10.4745 3.16092 10.6392 2.79828 10.7018C2.43564 10.7645 2.06265 10.7226 1.72295 10.581ZM0.99203 14.7635C0.99356 14.2947 1.18046 13.8456 1.51194 13.5141C1.84341 13.1826 2.29255 12.9957 2.76133 12.9942H17.2116C17.6803 12.9957 18.1295 13.1826 18.461 13.5141C18.7924 13.8456 18.9793 14.2947 18.9809 14.7635C18.9793 15.2323 18.7924 15.6814 18.461 16.0129C18.1295 16.3444 17.6803 16.5313 17.2116 16.5328H2.76133C2.52877 16.5336 2.29835 16.4883 2.08334 16.3997C1.86833 16.311 1.67299 16.1807 1.50854 16.0163C1.34409 15.8518 1.2138 15.6565 1.12515 15.4415C1.03651 15.2265 0.991264 14.9961 0.99203 14.7635Z" fill="#A4ABB6"/>
<path d="M24.8863 3.53809H30.4784C33.5413 3.55549 34.7653 6.07892 34.7653 7.63938C34.7653 8.70676 34.191 12.1641 30.4958 12.2396H28.7207V16.3583H24.8921L24.8863 3.53809ZM28.7207 6.44438V9.69293L29.4052 9.72773C30.2812 9.72773 31.0179 9.14763 31.0179 8.06865C31.0179 7.45955 30.6234 6.40957 29.2602 6.47918L28.7207 6.44438Z" fill="#A4ABB6"/>
<path d="M36.7261 3.53837H42.3878C46.4369 3.41074 47.017 6.23582 47.017 7.25679C47.017 8.67223 46.2919 10.5866 44.5574 10.662C45.1897 10.952 47.7073 15.2215 48.241 16.3585H43.8207C43.6176 15.9351 41.7091 12.0078 41.2973 12.0078H40.4967V16.3585H36.7261V3.53837ZM40.5547 6.38085V9.45537H41.5003C42.8113 9.45537 43.2116 8.41699 43.2116 7.9065C43.2116 6.86233 42.382 6.38085 41.4249 6.38085H40.5547Z" fill="#A4ABB6"/>
<path d="M94.9621 3.48073H100.583C104.644 3.35311 105.224 6.18979 105.224 7.21657C105.224 8.63781 104.499 10.5637 102.764 10.6333C103.403 10.9292 105.926 15.2103 106.46 16.3589H102.063C101.859 15.9354 99.9568 12.0082 99.5391 12.0082H98.7385V16.3589H94.9679L94.9621 3.48073ZM98.7966 6.38122V9.45574H99.7363C101.042 9.45574 101.442 8.41737 101.442 7.90688C101.442 6.8627 100.612 6.38122 99.6609 6.38122H98.7966Z" fill="#A4ABB6"/>
<path d="M55.7185 3.26581C61.3396 3.231 62.3084 8.15024 62.3084 9.91954C62.3084 11.6888 61.4846 16.6023 55.7185 16.5617C49.9523 16.5211 49.1111 11.7236 49.1111 9.91954C49.1111 8.11543 49.8653 3.30642 55.7185 3.26581ZM55.6431 13.6844C56.4784 13.6844 58.4681 13.3537 58.4333 9.98915C58.4217 8.88116 58.3289 6.25912 55.6431 6.29392C53.2298 6.32873 52.8934 8.33007 52.8412 9.98915C52.731 13.3537 54.8019 13.6844 55.6431 13.6844Z" fill="#A4ABB6"/>
<path d="M71.2884 9.24665L74.8676 3.53848H78.3191V16.3586H74.6065V9.25245L72.0831 13.2841H70.3022L67.9934 9.25824V16.4167H64.2808V3.48047H67.6975L71.2884 9.24665Z" fill="#A4ABB6"/>
<path d="M87.9371 3.48047L93.2972 16.3586H89.2192L88.4302 13.8642H84.474L83.6038 16.3586L79.752 16.3412L84.7872 3.48047H87.9371ZM87.4035 11.1958L86.3651 8.12125L85.3267 11.1958H87.4035Z" fill="#A4ABB6"/>
<path d="M118.218 3.53809L117.569 6.67062H114.053V16.3583H110.283V6.67062H106.57V3.53809H118.218Z" fill="#A4ABB6"/>
<path d="M5.80683 20.1289H6.61897V25.7559H5.80683V23.3194H2.79032V25.8139H2.03619V20.1869H2.79032V22.5653H5.80683V20.1289Z" fill="#A4ABB6"/>
<path d="M16.063 20.1123C16.9331 20.1123 17.6524 20.385 18.2325 20.936C18.8126 21.4871 19.0969 22.1717 19.1027 23.0012C19.1085 23.8307 18.8126 24.5153 18.2267 25.0547C17.6408 25.5942 16.9099 25.8669 16.0223 25.8669C15.1348 25.8669 14.4677 25.5942 13.905 25.0547C13.3423 24.5153 13.058 23.8307 13.058 23.0128C13.058 22.1949 13.3423 21.4813 13.9108 20.9302C14.4793 20.3791 15.1928 20.1123 16.063 20.1123ZM16.0398 20.7852C15.3552 20.7852 14.7925 20.9941 14.3517 21.4117C13.9108 21.8294 13.6904 22.3631 13.6904 23.0128C13.6904 23.6393 13.9108 24.1672 14.3517 24.5849C14.7925 25.0025 15.3494 25.2114 16.0107 25.2114C16.6721 25.2114 17.2347 24.9967 17.6814 24.5733C18.1281 24.1498 18.3485 23.6161 18.3485 22.978C18.3542 22.6855 18.2977 22.3951 18.1827 22.1261C18.0677 21.857 17.8968 21.6155 17.6814 21.4175C17.2405 20.9941 16.6895 20.7852 16.0398 20.7852Z" fill="#A4ABB6"/>
<path d="M30.7569 20.1869H31.3312V25.8139H30.6351V21.7126L28.9122 24.0736H28.4017L26.5164 21.4573V25.8139H25.8203V20.1289H26.4874L28.6163 23.2382L30.7569 20.1869Z" fill="#A4ABB6"/>
<path d="M38.9305 20.1865H41.8194L41.6859 20.8246H39.5686V22.797H41.4829V23.3191H39.5686V25.1174H41.831V25.8135H38.9305V20.1865Z" fill="#A4ABB6"/>
<path d="M62.6565 20.2461H65.5454L65.4119 20.8842H63.2946V22.8565H65.2089V23.3786H63.2946V25.1769H65.557V25.873H62.6565V20.2461Z" fill="#A4ABB6"/>
<path d="M100.653 20.1289H103.53L103.403 20.767H101.291V22.7393H103.205V23.2614H101.291V25.1178H103.553V25.7559H100.653V20.1289Z" fill="#A4ABB6"/>
<path d="M55.0572 24.602V25.507C54.5409 25.8376 53.9202 26 53.2241 26C52.6556 26 52.1741 25.8724 51.7796 25.6172C51.3793 25.3511 51.0554 24.9852 50.8399 24.5556C50.6065 24.1019 50.487 23.5982 50.4918 23.088C50.4918 22.2526 50.7528 21.5507 51.2807 20.9822C51.5256 20.7072 51.8271 20.4885 52.1646 20.3413C52.5021 20.1941 52.8675 20.1218 53.2357 20.1295C53.7694 20.1295 54.3669 20.2861 54.9992 20.5993V21.4811C54.4191 21.0924 53.839 20.901 53.2705 20.901C52.9984 20.8947 52.7282 20.9469 52.478 21.054C52.2278 21.161 52.0035 21.3205 51.8202 21.5217C51.4374 21.9336 51.2401 22.4556 51.2401 23.0822C51.2401 23.7087 51.4316 24.2307 51.8086 24.631C52.1857 25.0313 52.673 25.2401 53.2647 25.2401C53.8564 25.2401 54.4887 25.0255 55.0572 24.602Z" fill="#A4ABB6"/>
<path d="M78.8992 20.1289H79.6533V25.7559H79.0036L75.4766 21.4225V25.7559H74.7225V20.1289H75.3374L78.8992 24.497V20.1289Z" fill="#A4ABB6"/>
<path d="M87.2526 20.1289H91.7774L91.4409 20.651H89.8051V25.7559H89.0509V20.651H87.2526V20.1289Z" fill="#A4ABB6"/>
<path d="M113.009 25.7675V20.1289H114.297C115.828 20.1231 116.147 21.1557 116.147 21.7068C116.147 22.2579 115.747 23.0584 115.034 23.2151C115.214 23.3495 115.375 23.5098 115.509 23.6907C115.666 23.8938 116.983 25.7559 116.983 25.7559H116.089C116.089 25.7559 114.877 23.3775 114.245 23.3775H113.589V25.7559L113.009 25.7675ZM113.92 20.709H113.647V22.7974H113.995C114.459 22.7974 114.778 22.7568 114.952 22.6756C115.12 22.5953 115.26 22.4658 115.353 22.3043C115.45 22.1308 115.5 21.9347 115.498 21.7358C115.501 21.5352 115.446 21.338 115.341 21.1673C115.236 20.999 115.076 20.8721 114.888 20.8076C114.691 20.7438 114.372 20.709 113.92 20.709Z" fill="#A4ABB6"/>
</svg>