<?xml version="1.0" encoding="UTF-8"?>
<svg xmlns="http://www.w3.org/2000/svg" fill="none" height="26" viewBox="0 0 114 26" width="114"><link xmlns="" type="text/css" rel="stylesheet" id="dark-mode-custom-link"/><link xmlns="" type="text/css" rel="stylesheet" id="dark-mode-general-link"/><style xmlns="" lang="en" type="text/css" id="dark-mode-custom-style"/><style xmlns="" lang="en" type="text/css" id="dark-mode-native-style"/><style xmlns="" lang="en" type="text/css" id="dark-mode-native-sheet"/>
<path d="M15.9732 0C15.874 0.00733189 15.7713 0.0164178 15.6884 0.07733C15.0911 0.437728 14.5851 0.939648 14.1746 1.50083C13.6004 2.3254 13.2259 3.27744 13.0025 4.25373C12.6123 4.24189 12.2299 4.15108 11.8532 4.05181C10.8645 3.7794 9.90676 3.40548 8.96882 2.9915C8.77537 2.90859 8.59546 2.7902 8.38678 2.74621C8.43867 2.9594 8.53226 3.15789 8.62307 3.35642C9.25024 4.67844 10.1842 5.86288 11.3692 6.72862C11.3511 6.77205 11.3315 6.81428 11.31 6.85602C10.5498 7.84584 9.94796 8.94623 9.35745 10.0421C9.23281 10.2745 9.08896 10.5181 9.11885 10.7933C9.34897 10.8463 9.51818 10.6563 9.70486 10.5604C10.4493 10.1363 11.2113 9.74374 11.9558 9.32017C12.6958 8.9045 13.4949 8.60951 14.2891 8.31736C14.4938 8.21584 14.7014 8.35176 14.8948 8.41493C16.5434 9.07763 18.0532 10.0297 19.5658 10.9513C19.6533 11.0026 19.7486 11.037 19.8434 11.0731C19.9432 10.7358 19.8174 10.3951 19.7007 10.081C19.4491 9.44875 19.1091 8.85489 18.7227 8.29596C18.2529 7.62931 17.6736 7.0501 17.113 6.46185C17.1401 6.35356 17.2157 6.26726 17.2828 6.18153C17.659 5.73145 18.1091 5.3507 18.5687 4.98861C19.2207 4.47932 19.9037 4.00899 20.6059 3.57189C20.6668 3.53805 20.6793 3.4038 20.5839 3.41169C20.3504 3.37334 20.1118 3.37275 19.8767 3.35865C18.2495 3.38065 16.6274 3.73208 15.1435 4.40211C15.1226 3.76817 15.2417 3.14158 15.3601 2.52174C15.4977 1.84945 15.654 1.18046 15.8424 0.520573C15.892 0.348552 15.9642 0.181045 15.9732 0ZM99.2256 5.56338C99.2437 6.56618 99.1884 7.57178 99.2753 8.57232C98.9673 8.35743 98.594 8.23843 98.2178 8.25366C97.5579 8.23336 96.894 8.49332 96.4366 8.97103C95.7931 9.6326 95.5449 10.5841 95.5382 11.4865C95.5365 12.3635 95.7395 13.3015 96.3622 13.9534C97.1591 14.791 98.6301 14.9213 99.5189 14.1565C99.5454 14.2721 99.5764 14.3872 99.6091 14.5023C100.099 14.5023 100.589 14.5045 101.079 14.5017C100.881 13.9337 100.882 13.3246 100.854 12.7307C100.853 10.4256 100.856 8.12111 100.853 5.81603C100.311 5.72297 99.7699 5.63276 99.2256 5.56338ZM36.9282 5.8466C36.8821 5.84601 36.8361 5.84608 36.7901 5.84685C36.5447 5.85095 36.2997 5.87445 36.0579 5.91873C35.2841 6.0586 34.5385 6.49509 34.142 7.18881C33.6022 8.13239 33.7263 9.48322 34.5728 10.2102C35.2846 10.7878 36.2361 10.8531 37.0709 11.1543C37.3833 11.2778 37.6986 11.4916 37.8024 11.8283C37.9163 12.2236 37.8159 12.7031 37.4854 12.9676C37.1481 13.2287 36.7014 13.2744 36.2891 13.2626C35.5012 13.2654 34.7601 12.9473 34.0771 12.5846C33.8583 13.0263 33.6546 13.4752 33.4375 13.9179C34.6546 14.5964 36.1255 14.8694 37.4921 14.549C38.2575 14.368 38.9952 13.9349 39.4075 13.2485C39.7629 12.6755 39.839 11.9682 39.7296 11.3128C39.6162 10.68 39.2129 10.1177 38.6692 9.78044C37.9608 9.32642 37.103 9.24402 36.3247 8.96823C36.1075 8.88532 35.8808 8.76636 35.777 8.54696C35.6236 8.20912 35.7528 7.79342 36.0257 7.55654C36.2993 7.32586 36.6732 7.2503 37.0234 7.27737C37.6766 7.30163 38.2835 7.58761 38.8339 7.91981C39.0832 7.54023 39.3404 7.16513 39.5806 6.77936C39.5992 6.76864 39.6364 6.74661 39.6551 6.7359C39.4577 6.53117 39.1887 6.42009 38.9383 6.29489C38.3089 6.01531 37.6187 5.85537 36.9282 5.8466ZM86.8062 8.12998C86.0002 8.13994 85.1933 8.48728 84.7093 9.14196C84.1329 9.87855 83.9851 10.8571 84.0325 11.7685C84.0675 12.4397 84.2294 13.1289 84.6326 13.6782C84.9383 14.1052 85.4002 14.4114 85.9073 14.5434C86.9118 14.8034 88.0888 14.5846 88.8079 13.7978C88.5597 13.4667 88.3133 13.1351 88.0652 12.8046C87.7448 13.0877 87.3759 13.3736 86.9315 13.3962C86.5536 13.4261 86.1611 13.209 86.019 12.8508C85.8289 12.3844 85.826 11.8683 85.8249 11.3726C85.8435 10.8486 85.8616 10.2919 86.134 9.82719C86.3207 9.50402 86.7414 9.36136 87.0939 9.46739C87.3815 9.54579 87.6207 9.73194 87.8457 9.92088C88.1102 9.56105 88.381 9.20514 88.6432 8.84305C88.3703 8.60956 88.0787 8.3856 87.7324 8.27506C87.4367 8.17385 87.1215 8.12609 86.8062 8.12998ZM110.843 8.13932C110.504 8.13763 110.164 8.18091 109.834 8.27679C109.312 8.43302 108.833 8.77816 108.589 9.27448C108.316 9.83567 108.324 10.5288 108.61 11.0832C108.761 11.3878 109.061 11.579 109.355 11.7285C109.947 12.0347 110.668 11.9309 111.252 12.2614C111.566 12.4256 111.636 12.8655 111.441 13.1469C111.261 13.3985 110.933 13.5096 110.633 13.4814C109.935 13.4284 109.289 13.1233 108.686 12.7894C108.483 13.1836 108.284 13.5801 108.1 13.9834C109.012 14.4566 110.038 14.7939 111.077 14.6681C111.709 14.5936 112.35 14.3483 112.776 13.8582C113.361 13.1944 113.448 12.0855 112.854 11.3997C112.509 10.9845 111.96 10.8509 111.461 10.7229C111.098 10.6202 110.711 10.5717 110.385 10.3715C110.144 10.2316 110.096 9.87627 110.263 9.66138C110.425 9.44706 110.707 9.36647 110.966 9.37098C111.496 9.37831 111.997 9.58471 112.46 9.82554C112.646 9.46176 112.837 9.098 112.994 8.72012C112.34 8.36416 111.591 8.14302 110.843 8.13932ZM81.4155 8.16063C80.9265 8.28866 80.4392 8.4212 79.952 8.55092C80.2644 9.57289 80.1663 10.6552 80.1849 11.7081C80.1866 12.6399 80.1826 13.5716 80.1872 14.5033C80.7235 14.5022 81.2604 14.5022 81.7974 14.5033C81.8267 13.0634 81.7974 11.6224 81.8115 10.1825C81.8346 10.0494 81.9733 9.97329 82.067 9.88643C82.3952 9.60781 82.883 9.52939 83.27 9.73243C83.4183 9.25077 83.5779 8.77307 83.7144 8.28803C83.3704 8.13913 82.97 8.12341 82.6152 8.24185C82.2328 8.39695 81.9412 8.70433 81.6727 9.00664C81.6276 8.71392 81.5576 8.42289 81.4155 8.16063ZM42.5919 8.16113C42.0544 8.23501 41.5259 8.36417 40.9895 8.44765C40.981 9.83678 40.989 11.2254 40.9856 12.614C40.9884 12.984 41.0042 13.3629 41.1361 13.7126C41.4322 14.3759 42.2134 14.6382 42.8908 14.6607C43.4892 14.6647 44.122 14.5062 44.5636 14.0809C44.6826 14.3099 44.8433 14.5135 45.0435 14.6765C45.4361 14.4633 45.8231 14.2383 46.2111 14.0166C45.9556 13.6805 45.827 13.2592 45.8354 12.8384C45.8377 11.2812 45.8326 9.72346 45.8382 8.16625C45.3132 8.26495 44.7921 8.3845 44.2687 8.49391C44.2709 9.88587 44.2675 11.2779 44.2709 12.6698C44.2596 12.7544 44.2895 12.8571 44.2269 12.9276C43.9443 13.3072 43.3989 13.5451 42.9449 13.3443C42.6116 13.1807 42.6234 12.7594 42.5941 12.443C42.5862 11.0155 42.5907 9.58862 42.5919 8.16113ZM61.473 8.16171C60.9823 8.2824 60.4979 8.42569 60.0077 8.54695C60.2773 9.42623 60.2288 10.354 60.231 11.2615C60.2316 12.3421 60.2311 13.4221 60.2316 14.5028C60.7759 14.5022 61.3207 14.5028 61.8656 14.5023C61.8672 13.0415 61.8644 11.5813 61.8666 10.1205C62.0635 9.92083 62.2817 9.72288 62.5626 9.65576C62.8153 9.57398 63.0849 9.627 63.3246 9.72739C63.4695 9.24686 63.6353 8.77258 63.7639 8.28753C63.5485 8.19391 63.315 8.14873 63.0804 8.1679C62.5056 8.16959 62.0635 8.60786 61.7183 9.01845C61.6969 8.71897 61.6049 8.43017 61.473 8.16171ZM92.1204 8.17526C91.1789 8.18358 90.2736 8.56169 89.4763 9.04266C89.6923 9.44423 89.9365 9.83063 90.1734 10.2198C90.6658 9.89831 91.1993 9.59204 91.7943 9.52944C92.0589 9.51365 92.4023 9.49895 92.5596 9.75895C92.7029 10.0364 92.6674 10.3636 92.6736 10.6659C91.9201 10.6541 91.1367 10.6687 90.4379 10.9834C90.0657 11.1436 89.7425 11.4245 89.5575 11.7877C89.3302 12.2338 89.3076 12.7572 89.3809 13.2445C89.448 13.6957 89.6923 14.1283 90.082 14.3754C90.6314 14.7369 91.3273 14.7792 91.9612 14.6901C92.3972 14.6342 92.7841 14.3962 93.0848 14.0832C93.2805 14.4216 93.6053 14.6658 93.9607 14.8181C94.25 14.4871 94.5388 14.156 94.8242 13.8221C94.6386 13.6608 94.4328 13.4995 94.3425 13.2626C94.2692 13.0556 94.2444 12.8351 94.2404 12.6174C94.2455 11.8069 94.2748 10.997 94.2855 10.1865C94.2861 9.74376 94.2624 9.26096 93.9832 8.89436C93.6273 8.40199 92.9945 8.2153 92.4136 8.18484C92.3155 8.17749 92.2178 8.17439 92.1204 8.17526ZM76.2582 8.17749C75.7181 8.18769 75.1781 8.3306 74.7513 8.67154C74.4117 8.95298 74.1083 9.2937 73.9318 9.70261C73.6836 10.2226 73.634 10.8075 73.6137 11.3754C73.603 12.2869 73.8432 13.2609 74.5206 13.9101C75.2527 14.6326 76.379 14.8057 77.353 14.5829C77.9176 14.4645 78.4263 14.1712 78.8787 13.8221C78.6903 13.4837 78.476 13.1582 78.2509 12.8435C77.8071 13.1672 77.296 13.4537 76.7298 13.4453C76.3479 13.469 75.9458 13.3359 75.6982 13.0358C75.4489 12.7222 75.3835 12.31 75.3801 11.9202C76.573 11.9197 77.7659 11.9219 78.9593 11.9191C78.9576 11.1453 78.9481 10.3444 78.6491 9.61801C78.5053 9.2531 78.265 8.92932 77.9638 8.67947C77.6311 8.41044 77.2104 8.27963 76.7941 8.20913C76.6183 8.18544 76.4382 8.17409 76.2582 8.17749ZM56.4603 8.17889C56.41 8.17799 56.3599 8.17832 56.3101 8.1798C55.6508 8.17867 54.983 8.42626 54.5301 8.91468C54.0496 9.38393 53.7896 10.0364 53.7146 10.6958C53.6153 11.6117 53.6615 12.6016 54.1674 13.4013C54.5718 14.0787 55.3056 14.5321 56.0834 14.6331C57.0969 14.7938 58.1645 14.4769 58.9378 13.8051C58.7319 13.4763 58.5137 13.1548 58.2994 12.8317C57.9491 13.112 57.5464 13.3415 57.1003 13.4193C56.7077 13.4763 56.2701 13.4656 55.9429 13.2135C55.5419 12.9214 55.428 12.3895 55.4364 11.9208C56.6248 11.9191 57.8138 11.9214 59.0021 11.9202C59.0168 10.9733 58.9953 9.9423 58.4381 9.13296C58.0151 8.47783 57.2149 8.19248 56.4603 8.17889ZM48.8996 8.18484C48.4185 8.26606 47.9403 8.36138 47.458 8.43583C47.4947 8.79285 47.5438 9.15044 47.5421 9.51027C47.5416 12.0596 47.5421 14.6088 47.5421 17.1587C48.0684 17.0228 48.5934 16.8806 49.1196 16.7447C49.1163 15.9387 49.1326 15.1328 49.1083 14.3268C49.6943 14.6398 50.4011 14.7137 51.0423 14.5456C51.6813 14.3708 52.181 13.8756 52.4963 13.3094C52.8877 12.6021 52.8984 11.7674 52.8866 10.9806C52.8544 10.195 52.6441 9.35574 52.0474 8.80414C51.2532 8.01454 49.8427 7.97503 49.0147 8.73135C48.9848 8.54693 48.9464 8.36476 48.8996 8.18484ZM104.785 8.18649C104.654 8.18534 104.524 8.19127 104.396 8.20343C104.122 8.2384 103.85 8.30556 103.599 8.42005C102.738 8.79455 102.2 9.67209 102.041 10.5722C101.882 11.4944 101.949 12.4939 102.411 13.3241C102.662 13.7702 103.043 14.1464 103.508 14.3658C104.117 14.6653 104.829 14.6878 105.485 14.5586C106.484 14.3545 107.231 13.4628 107.45 12.4944C107.591 11.8684 107.596 11.213 107.507 10.579C107.403 9.8272 106.995 9.11936 106.377 8.67493C105.923 8.32986 105.35 8.19148 104.785 8.18649ZM65.7515 8.19442C65.2585 8.32809 64.7673 8.46631 64.2738 8.59603C64.4999 9.05569 64.4819 9.57794 64.505 10.076C64.5095 11.5514 64.5017 13.0273 64.5096 14.5028C65.0386 14.5028 65.5676 14.5017 66.0966 14.5033C66.0978 13.0014 66.1006 11.4995 66.0961 9.99813C66.3865 9.7432 66.7492 9.54688 67.1418 9.52771C67.3166 9.51643 67.5191 9.5762 67.602 9.7454C67.6725 9.89994 67.6843 10.0737 67.6883 10.2418C67.6911 11.6619 67.6843 13.0821 67.6917 14.5023C68.2094 14.5023 68.7272 14.5045 69.2455 14.5005C69.25 13.0195 69.2252 11.5356 69.2573 10.0568C69.585 9.76464 70.0165 9.49161 70.4739 9.55365C70.7277 9.57564 70.7971 9.86277 70.7954 10.0731C70.8202 11.5503 70.779 13.0285 70.8168 14.5051C71.3363 14.5011 71.8563 14.5011 72.3757 14.5051C72.4096 13.2744 72.3813 12.042 72.3904 10.8103C72.378 10.2711 72.4333 9.7212 72.3075 9.19104C72.2178 8.79962 71.9053 8.48713 71.5342 8.35007C70.8653 8.09571 70.0633 8.15048 69.4705 8.56728C69.3002 8.68008 69.1586 8.82947 68.9906 8.94509C68.8879 8.94509 68.8462 8.83122 68.7807 8.772C68.3634 8.26666 67.6414 8.10192 67.0199 8.24631C66.6195 8.32245 66.2653 8.53849 65.9602 8.80075C65.9162 8.59038 65.853 8.38393 65.7515 8.19442ZM56.402 9.36834C56.653 9.36291 56.9054 9.4564 57.0653 9.65295C57.3061 9.95188 57.318 10.3574 57.3135 10.724C56.6987 10.7246 56.0845 10.7246 55.4703 10.7246C55.4596 10.3602 55.512 9.96988 55.7466 9.67716C55.9012 9.47807 56.1509 9.37376 56.402 9.36834ZM76.3732 9.36999C76.6098 9.371 76.8448 9.46001 77.0011 9.64163C77.2476 9.94168 77.2685 10.3512 77.2656 10.7229C76.6424 10.7251 76.0197 10.7257 75.3971 10.7223C75.4196 10.3698 75.4535 9.99081 75.6752 9.69922C75.8349 9.48079 76.105 9.36884 76.3732 9.36999ZM104.776 9.39791C105.061 9.40097 105.352 9.52858 105.502 9.77928C105.743 10.1713 105.752 10.6484 105.787 11.094C105.8 11.5982 105.784 12.1092 105.673 12.6032C105.598 12.8976 105.467 13.2214 105.179 13.3641C104.717 13.5953 104.077 13.3375 103.94 12.8299C103.764 12.2304 103.761 11.5948 103.786 10.9761C103.814 10.5897 103.848 10.1882 104.03 9.83851C104.156 9.6084 104.393 9.44142 104.654 9.40419C104.694 9.39954 104.735 9.39748 104.776 9.39791ZM50.2014 9.52068C50.294 9.5217 50.3865 9.53239 50.4772 9.55365C50.7677 9.63035 50.9459 9.9107 51.0056 10.1899C51.1393 10.7821 51.123 11.3963 51.092 11.9986C51.0452 12.4419 50.9577 12.9659 50.5449 13.2191C50.0818 13.4622 49.5133 13.3026 49.1315 12.9795C49.1326 11.984 49.136 10.988 49.1298 9.99251C49.3983 9.69465 49.8005 9.51628 50.2014 9.52068ZM98.3418 9.55208C98.456 9.54821 98.5709 9.56495 98.6774 9.60214C98.8973 9.66982 99.0846 9.80862 99.2612 9.95244C99.2617 10.9332 99.2617 11.9141 99.2606 12.8949C99.0276 13.1205 98.7186 13.2958 98.3852 13.2744C98.0564 13.2784 97.6983 13.1363 97.5578 12.8199C97.3226 12.3179 97.3576 11.7437 97.3599 11.2034C97.3943 10.7516 97.4214 10.2592 97.696 9.87908C97.8426 9.66892 98.0905 9.56059 98.3418 9.55208ZM92.6499 11.7951C92.6437 12.2401 92.6341 12.6856 92.6133 13.13C92.4164 13.3201 92.1801 13.487 91.9021 13.5231C91.5975 13.5846 91.2766 13.3973 91.1615 13.1131C91.0459 12.8361 91.0544 12.5051 91.1864 12.2355C91.2828 12.0319 91.5005 11.9293 91.7086 11.8763C92.0165 11.8052 92.3347 11.7928 92.6499 11.7951Z" fill="#A4ABB6"/>
<path d="M7.70722 5.8479C7.55051 5.84949 7.3937 5.85911 7.23729 5.87772C5.45166 6.05989 3.78734 6.98033 2.56345 8.27528C1.32434 9.57531 0.552191 11.286 0.310801 13.0597C0.0677146 14.8967 0.303441 16.8002 1.01916 18.5119C1.71458 20.2051 2.86798 21.6941 4.28363 22.8475C5.67333 23.976 7.30443 24.7921 9.02126 25.2901C10.3664 25.6827 11.7628 25.8818 13.1621 25.928C14.2924 25.9596 15.426 25.9534 16.5529 25.8468C18.9612 25.6099 21.3425 24.8479 23.3514 23.4802C25.0846 22.3065 26.5184 20.6699 27.3649 18.7483C28.291 16.6525 28.525 14.2453 27.9678 12.0192C27.6096 10.6097 26.8911 9.29168 25.8866 8.23868C24.7406 7.04187 23.22 6.17386 21.5731 5.91837C20.5889 5.75368 19.5715 5.90197 18.6448 6.25842C18.4886 6.31144 18.3679 6.43043 18.2844 6.5703C18.2946 6.60809 18.3155 6.68486 18.3256 6.72265C18.5371 6.84504 18.787 6.82071 19.0188 6.86921C19.9771 7.05139 20.9042 7.41016 21.7271 7.93581C23.1828 8.87713 24.2065 10.4016 24.6757 12.0575C25.3599 14.4049 24.9278 17.0602 23.4789 19.0376C22.8489 19.9056 22.0356 20.6366 21.1219 21.1955C19.8388 21.993 18.3718 22.4538 16.8885 22.7014C15.5484 22.9135 14.1819 22.9862 12.8294 22.852C10.9462 22.6918 9.05394 22.2203 7.42566 21.2344C6.07149 20.42 4.9345 19.2237 4.26447 17.7861C3.54198 16.2587 3.31466 14.5025 3.62542 12.8415C3.90291 11.308 4.62433 9.83985 5.74613 8.74794C6.472 8.02489 7.38059 7.50322 8.34503 7.16821C8.84305 6.99788 9.35682 6.86022 9.88304 6.8151C10.0015 6.7948 10.1498 6.77002 10.1967 6.64086C10.1786 6.38988 9.90447 6.28719 9.70426 6.20654C9.06408 5.9852 8.38631 5.84097 7.70722 5.8479ZM33.7827 17.279C33.7748 20.0787 33.7782 22.879 33.7804 25.6788C34.3478 25.6827 34.9146 25.685 35.482 25.6788C35.486 24.6545 35.4837 23.6309 35.4826 22.6066C36.3433 22.5643 37.2558 22.6969 38.0646 22.328C38.7628 22.0257 39.2812 21.3714 39.4526 20.6343C39.619 19.9152 39.5739 19.1104 39.1723 18.4742C38.8965 18.0145 38.4362 17.6942 37.9444 17.5018C37.4526 17.3174 36.9202 17.3056 36.4025 17.2802C35.5288 17.2779 34.6557 17.2807 33.7827 17.279ZM36.0581 18.6623C36.25 18.6619 36.4419 18.6629 36.6337 18.6643C36.9902 18.6682 37.3523 18.8611 37.517 19.1831C37.7076 19.5345 37.7104 19.9547 37.6495 20.3399C37.5739 20.715 37.3178 21.1103 36.9089 21.1628C36.4374 21.2395 35.9575 21.191 35.4826 21.2023C35.4843 20.358 35.4848 19.5131 35.4826 18.6687C35.6744 18.6645 35.8662 18.6627 36.0581 18.6623ZM86.7182 19.2081C86.2294 19.2131 85.7386 19.3164 85.3133 19.5616C84.936 19.7793 84.6179 20.1267 84.4956 20.5503C84.3647 20.9535 84.3912 21.4132 84.6083 21.7826C84.8757 22.2462 85.3624 22.5457 85.87 22.6839C86.3127 22.8108 86.7651 22.9027 87.2033 23.0448C87.5102 23.1627 87.8502 23.3138 88.0014 23.6269C88.1373 23.9202 88.0769 24.2902 87.8519 24.5231C87.5372 24.8683 87.0527 24.9946 86.5992 24.9896C85.8937 24.9958 85.1977 24.7955 84.5818 24.4571C84.4318 24.7092 84.3105 24.9766 84.1729 25.2354C84.7821 25.5552 85.4566 25.7571 86.1453 25.7955C86.6608 25.8243 87.1892 25.8079 87.6833 25.6415C88.2117 25.4706 88.7019 25.1198 88.9534 24.6139C89.3133 23.9478 89.1751 23.0189 88.562 22.5491C88.1068 22.2017 87.5412 22.0556 86.9969 21.9151C86.5502 21.7871 86.0668 21.7093 85.6952 21.4109C85.4566 21.2152 85.4194 20.8565 85.5441 20.5875C85.676 20.3303 85.9399 20.1713 86.2123 20.0979C86.7481 19.9468 87.324 20.0268 87.8423 20.2101C88.0877 20.2914 88.302 20.4436 88.5496 20.5198C88.681 20.279 88.8519 20.0607 88.9624 19.8086C88.3917 19.4499 87.7256 19.261 87.0555 19.2198C86.9438 19.211 86.831 19.2069 86.7182 19.2081ZM78.1244 19.317C78.0725 19.318 78.0205 19.3202 77.9684 19.3236C77.3 19.345 76.6034 19.5875 76.1674 20.1149C75.7783 20.5745 75.67 21.2248 75.7997 21.8029C75.8753 22.1193 76.018 22.4368 76.2814 22.6416C76.5961 22.8813 76.9655 23.0527 77.3592 23.1108C77.7862 23.205 78.2504 23.2174 78.6322 23.4526C78.9339 23.6387 79.0005 24.0877 78.7743 24.3584C78.5882 24.601 78.2628 24.6878 77.9689 24.659C77.2746 24.6082 76.6379 24.2941 76.0389 23.9625C75.8466 24.3623 75.6463 24.7583 75.4545 25.1588C76.5419 25.7369 77.8437 26.0961 79.0563 25.7137C79.6445 25.5349 80.1877 25.1373 80.4398 24.5637C80.6174 24.1824 80.6423 23.7465 80.5808 23.3353C80.4827 22.8119 80.1064 22.3393 79.6062 22.1481C79.0862 21.9293 78.52 21.8565 77.9887 21.6726C77.8618 21.623 77.7343 21.5638 77.6401 21.4645C77.4534 21.2496 77.5064 20.887 77.7343 20.7229C77.9757 20.5379 78.3011 20.5288 78.5905 20.5722C79.0298 20.6241 79.4353 20.8125 79.829 21.0048C80.0004 20.632 80.2034 20.2734 80.3546 19.891C79.6656 19.5362 78.9038 19.3008 78.1244 19.317ZM64.6844 19.3303C64.1937 19.4572 63.707 19.5999 63.2219 19.746C63.394 20.2434 63.4458 20.773 63.4453 21.2975C63.4458 22.7583 63.4458 24.2196 63.4453 25.6804C63.9873 25.6798 64.5298 25.6877 65.0718 25.6764C65.0718 24.2202 65.0685 22.764 65.073 21.3077C65.4306 21.0094 65.8722 20.6924 66.3646 20.7781C66.6561 20.8272 66.7069 21.1729 66.7148 21.416C66.7193 22.8373 66.7148 24.2586 66.7171 25.6793C67.2512 25.6855 67.7853 25.6793 68.3194 25.6821C68.3419 24.3725 68.3239 23.0629 68.3295 21.7533C68.3199 21.275 68.3735 20.7826 68.2246 20.319C68.1231 19.9919 67.8693 19.7274 67.5642 19.579C67.0695 19.3145 66.474 19.3382 65.9511 19.4995C65.5676 19.6202 65.2394 19.8611 64.914 20.0889C64.8987 19.8205 64.7988 19.57 64.6844 19.3303ZM52.2768 19.3354C51.7433 19.4251 51.2132 19.5345 50.6813 19.6338C50.6779 21.0726 50.6779 22.5119 50.6813 23.9506C50.6847 24.3917 50.7259 24.8812 51.0383 25.2225C51.4585 25.677 52.102 25.8463 52.7038 25.8378C53.2594 25.8152 53.838 25.6528 54.2452 25.2563C54.367 25.4842 54.5261 25.6923 54.7303 25.853C55.1189 25.6342 55.5064 25.4142 55.8938 25.1931C55.7229 24.9574 55.5881 24.6889 55.5453 24.3984C55.5002 24.1193 55.5159 23.8356 55.5142 23.5542C55.5136 22.1504 55.516 20.746 55.5131 19.3422C54.9971 19.4527 54.4832 19.574 53.9632 19.6648C53.9582 21.0945 53.9627 22.5237 53.9616 23.9535C53.9565 24.1001 53.8443 24.2157 53.7399 24.3071C53.4805 24.5067 53.1489 24.65 52.8167 24.5925C52.6215 24.5502 52.4213 24.4244 52.3666 24.222C52.2825 23.9524 52.2713 23.6669 52.2758 23.3866C52.2775 22.0358 52.2752 20.6856 52.2768 19.3354ZM49.4546 19.3391C49.2849 19.341 49.1156 19.3718 48.9572 19.4313C48.5906 19.5988 48.2826 19.878 48.0406 20.1967C47.9972 19.9006 47.9256 19.6073 47.7846 19.3411C47.2956 19.459 46.8128 19.6016 46.3244 19.7246C46.4682 20.2367 46.5382 20.7674 46.5365 21.2999C46.5354 22.7595 46.5387 24.2191 46.5348 25.6793C47.0813 25.6827 47.6278 25.6844 48.1743 25.6793C48.1799 24.2327 48.1675 22.7854 48.1805 21.3393C48.4749 20.8616 49.1297 20.6602 49.6424 20.9005C49.7908 20.425 49.9357 19.9484 50.0891 19.4747C49.8918 19.3817 49.6729 19.3366 49.4546 19.3391ZM42.6599 19.3518C42.1861 19.3544 41.7147 19.4652 41.3093 19.7155C40.6043 20.1566 40.1508 20.94 40.0453 21.7578C39.8964 22.7685 39.9749 23.8841 40.5851 24.7402C41.0657 25.4249 41.8897 25.8158 42.7159 25.8446C43.6353 25.9128 44.5478 25.5739 45.2528 24.9924C45.052 24.659 44.8253 24.3415 44.6211 24.0099C44.3002 24.253 43.9539 24.4802 43.5552 24.5671C43.1276 24.6641 42.6324 24.6686 42.2647 24.3984C41.8575 24.1052 41.7301 23.5603 41.76 23.0843C42.9421 23.0905 44.1247 23.0838 45.3069 23.0877C45.334 22.1977 45.3126 21.2469 44.8473 20.4572C44.5619 19.9536 44.0616 19.5932 43.5015 19.4572C43.2293 19.3877 42.9442 19.3503 42.6599 19.3518ZM59.6405 19.3529C58.6777 19.3523 57.7595 19.7364 56.9474 20.2254C57.1775 20.6191 57.4059 21.0144 57.6479 21.4019C58.072 21.1148 58.5294 20.8616 59.0325 20.746C59.3382 20.6964 59.7161 20.6349 59.971 20.8554C60.2062 21.1278 60.1278 21.5192 60.1391 21.8492C59.6811 21.8193 59.2203 21.8447 58.7669 21.914C58.2367 22.0003 57.6964 22.1853 57.3095 22.5733C56.8662 23.0403 56.7562 23.7318 56.8464 24.3494C56.8983 24.8327 57.1577 25.3048 57.574 25.5671C58.103 25.9021 58.7618 25.9489 59.3692 25.8784C59.79 25.8321 60.191 25.637 60.482 25.3285C60.5096 25.3239 60.5649 25.3138 60.5926 25.3093C60.7922 25.6223 61.0996 25.8547 61.4386 26.0002C61.7222 25.6635 62.024 25.3414 62.2947 24.9934C62.1035 24.835 61.896 24.6697 61.8125 24.4272C61.6912 24.0736 61.7188 23.6935 61.7295 23.3263C61.7335 22.5751 61.7606 21.8243 61.7532 21.0737C61.7504 20.6422 61.6224 20.1837 61.2931 19.8864C60.8605 19.4623 60.2231 19.3574 59.6405 19.3529ZM72.1452 19.3631C71.9331 19.3618 71.7208 19.3821 71.5134 19.4234C70.911 19.5373 70.3577 19.8819 69.991 20.3737C69.3752 21.1949 69.2291 22.2818 69.3695 23.2772C69.4818 24.1751 69.9612 25.0735 70.7841 25.5044C71.4248 25.8411 72.1907 25.8744 72.8889 25.7255C73.8483 25.5095 74.5657 24.6596 74.7969 23.7278C74.9514 23.0629 74.9633 22.3658 74.8567 21.6924C74.7276 20.8672 74.2189 20.1069 73.4907 19.6935C73.0782 19.4737 72.612 19.366 72.1452 19.3631ZM93.5123 19.4651C93.1124 19.4645 92.7131 19.4651 92.3137 19.4662C91.536 21.5344 90.7661 23.606 89.9946 25.677C90.3211 25.686 90.6477 25.6821 90.9748 25.6798C91.1818 25.1068 91.4023 24.5389 91.6126 23.967C92.4406 23.9653 93.2686 23.9619 94.0965 23.9692C94.3064 24.5377 94.4959 25.1176 94.7328 25.6748C95.0887 25.694 95.4463 25.677 95.8033 25.681C95.0464 23.6066 94.2771 21.5367 93.5123 19.4651ZM92.8698 20.3427C93.2111 21.2745 93.5128 22.2203 93.8591 23.1503C93.2003 23.1701 92.5411 23.1565 91.8823 23.152C92.2117 22.2157 92.55 21.2824 92.8698 20.3427ZM42.7553 20.5496C43.0279 20.5555 43.2962 20.6777 43.4401 20.918C43.6347 21.2079 43.6042 21.57 43.6426 21.9011C43.0193 21.909 42.3962 21.9033 41.7729 21.9039C41.7752 21.5192 41.8298 21.0957 42.1056 20.8047C42.2706 20.6299 42.5146 20.5444 42.7553 20.5496ZM72.1137 20.577C72.4175 20.5719 72.7269 20.7144 72.8776 20.9857C73.0716 21.3387 73.1139 21.7516 73.1382 22.1469C73.1546 22.6743 73.1579 23.2095 73.0468 23.7278C72.9645 24.0533 72.8275 24.4266 72.4919 24.5642C72.1676 24.6906 71.7637 24.6247 71.5172 24.3714C71.2939 24.161 71.2454 23.8395 71.1964 23.5519C71.1095 22.8091 71.0897 22.0438 71.2702 21.3128C71.3447 20.9908 71.5788 20.6924 71.9064 20.6044C71.9739 20.5873 72.0436 20.5782 72.1137 20.577ZM60.1165 22.9687C60.1334 23.4025 60.0973 23.8356 60.1092 24.2687C59.8982 24.5265 59.583 24.7103 59.2451 24.7137C59.0647 24.6968 58.8786 24.6308 58.7612 24.4876C58.5058 24.1954 58.5052 23.7493 58.6625 23.4103C58.7674 23.1898 59.015 23.0934 59.2389 23.0432C59.5277 22.989 59.8227 22.9761 60.1165 22.9687Z" fill="#C7CCD4"/>
</svg>