<?xml version="1.0" encoding="UTF-8"?>
<svg xmlns="http://www.w3.org/2000/svg" fill="none" height="26" viewBox="0 0 126 26" width="126"><link xmlns="" type="text/css" rel="stylesheet" id="dark-mode-custom-link"/><link xmlns="" type="text/css" rel="stylesheet" id="dark-mode-general-link"/><style xmlns="" lang="en" type="text/css" id="dark-mode-custom-style"/><style xmlns="" lang="en" type="text/css" id="dark-mode-native-style"/><style xmlns="" lang="en" type="text/css" id="dark-mode-native-sheet"/>
<path clip-rule="evenodd" d="M23.9856 13.2055L23.2868 13.1573V12.8923C23.4314 12.8923 23.576 12.8923 23.7446 12.8923C23.9133 12.8923 24.1542 12.8923 24.4916 12.8923C24.8289 12.8923 25.0698 12.8923 25.2385 12.8923C25.4072 12.8923 25.5517 12.8923 25.6963 12.8923V13.1573L24.9012 13.2055V17.2775C24.9012 17.7835 24.9253 18.1931 24.9735 18.4582C25.0217 18.7473 25.118 18.9883 25.2626 19.181C25.4313 19.422 25.6481 19.6147 25.8891 19.7352C26.13 19.8557 26.4192 19.928 26.7324 19.928C27.0456 19.928 27.3589 19.8557 27.6239 19.7352C27.8889 19.5906 28.1058 19.422 28.2745 19.1569C28.419 18.9642 28.5154 18.6991 28.5877 18.3859C28.66 18.0727 28.6841 17.6631 28.6841 17.1089V13.2055L27.889 13.1573V12.8923C28.0094 12.8923 28.1299 12.8923 28.2745 12.8923C28.419 12.8923 28.6118 12.8923 28.9009 12.8923C29.166 12.8923 29.3828 12.8923 29.5033 12.8923C29.6479 12.8923 29.7684 12.8923 29.8647 12.8923V13.1573L29.1419 13.2055L29.0696 16.7474C29.0455 17.9281 28.8287 18.7955 28.3949 19.3256C27.9853 19.8557 27.3348 20.1448 26.4433 20.1448C25.9614 20.1448 25.5517 20.0485 25.1903 19.8316C24.8289 19.6147 24.5398 19.3256 24.2988 18.916C24.106 18.5546 24.0097 17.8317 23.9856 16.7234C23.9856 16.6511 23.9856 16.6029 23.9856 16.5788V13.2055ZM35.4548 14.1693L34.8283 14.1452V13.9283C34.9247 13.9283 35.021 13.9283 35.1415 13.9283C35.2379 13.9283 35.4066 13.9283 35.6234 13.9283C35.8403 13.9283 36.0089 13.9283 36.1053 13.9283C36.2017 13.9283 36.3222 13.9283 36.3945 13.9283V14.1452L35.7439 14.1934C35.7198 14.5307 35.7198 15.2295 35.6957 16.2415C35.6957 16.5065 35.6957 16.7234 35.6957 16.8679L35.6475 20.0244H35.5511L31.3827 14.7717L31.455 19.7834L32.0815 19.8075V20.0244C31.961 20.0244 31.8164 20.0003 31.696 20.0003C31.5755 20.0003 31.4309 20.0003 31.3104 20.0003C31.19 20.0003 31.0454 20.0003 30.9249 20.0003C30.8044 20.0003 30.6599 20.0003 30.5394 20.0244V19.8075L31.1418 19.7593C31.1418 19.3497 31.1659 18.916 31.1659 18.4582C31.1659 18.0004 31.1659 17.5426 31.1659 17.0848V14.5789C31.0936 14.4584 30.9972 14.3861 30.8767 14.3139C30.7562 14.2416 30.5876 14.1934 30.4189 14.1452V13.9283H31.6719L35.4548 18.6991V14.1693ZM37.045 20.0003V19.7834L37.6715 19.7352V14.1693L37.045 14.1452V13.9283C37.1655 13.9283 37.3101 13.9283 37.4305 13.9283C37.5751 13.9283 37.7679 13.9283 38.057 13.9283C38.3461 13.9283 38.5389 13.9283 38.6835 13.9283C38.828 13.9283 38.9485 13.9283 39.0449 13.9283V14.1452L38.4425 14.1693V19.7352L39.0449 19.7834V20.0003C38.8762 20.0003 38.7076 19.9762 38.5148 19.9762C38.3461 19.9762 38.1775 19.9762 38.0088 19.9762C37.8402 19.9762 37.6715 19.9762 37.5269 19.9762C37.3583 20.0003 37.2137 20.0003 37.045 20.0003ZM40.0087 14.1693L39.6473 14.1452V13.9283C39.7677 13.9283 39.8882 13.9283 40.0087 13.9283C40.1292 13.9283 40.346 13.9283 40.587 13.9283C40.852 13.9283 41.0448 13.9283 41.1653 13.9283C41.2857 13.9283 41.4303 13.9283 41.5508 13.9283V14.1452L40.9243 14.1693C40.9002 14.1693 40.8761 14.1693 40.8761 14.1934C40.852 14.2175 40.852 14.2175 40.852 14.2416C40.852 14.2416 40.852 14.2657 40.852 14.2898C40.852 14.3139 40.8761 14.338 40.8761 14.3621L42.5387 18.9642L44.2494 14.1934L43.5747 14.1452V13.9283C43.6711 13.9283 43.7675 13.9283 43.8639 13.9283C43.9603 13.9283 44.1048 13.9283 44.3217 13.9283C44.5144 13.9283 44.6831 13.9283 44.7795 13.9283C44.8759 13.9283 44.9723 13.9283 45.0445 13.9283V14.1693L44.6831 14.1934C44.6349 14.1934 44.6108 14.2175 44.5867 14.2175C44.5626 14.2416 44.5385 14.2657 44.5145 14.338L42.2736 20.1207H42.2495L40.0087 14.1693ZM49.9117 13.9283V15.2536H49.6467V15.0849C49.6467 14.6994 49.5744 14.4343 49.4539 14.3139C49.3334 14.1934 48.9961 14.1452 48.466 14.1452H46.8517V16.7234H47.5986C47.8636 16.7234 48.0323 16.6993 48.1528 16.6752C48.2733 16.6511 48.3455 16.6029 48.3937 16.5306C48.4419 16.4342 48.4901 16.1451 48.5383 15.7114C48.5383 15.6873 48.5383 15.6632 48.5383 15.6391H48.7792C48.7552 15.9282 48.7552 16.1933 48.7311 16.4342C48.7311 16.6752 48.707 16.892 48.707 17.1089C48.707 17.3016 48.707 17.4703 48.707 17.5908C48.707 17.7353 48.707 17.8558 48.7311 18.0004H48.466C48.466 17.9763 48.466 17.9763 48.466 17.9522C48.4419 17.4703 48.4178 17.1571 48.3696 17.0366C48.3455 16.9884 48.2974 16.9643 48.2251 16.9402C48.1528 16.9161 47.96 16.9161 47.6709 16.9161H46.8517V19.2533C46.8517 19.4943 46.8757 19.6388 46.948 19.687C47.0203 19.7593 47.1408 19.7834 47.3577 19.7834H49.6226L50.0322 18.41H50.2249L50.1286 20.0003H46.8517C46.6107 20.0003 46.3698 20.0003 46.1529 20.0003C45.912 20.0003 45.6951 20.0003 45.4541 20.0244V19.8075L46.0806 19.7593V14.1693L45.4541 14.1211V13.9042C45.7192 13.9042 45.9601 13.9283 46.2011 13.9283C46.442 13.9283 46.7071 13.9283 46.948 13.9283H49.9117ZM52.3212 14.338V16.8197H53.0681C53.2368 16.8197 53.3814 16.8197 53.4778 16.7956C53.5741 16.7715 53.6464 16.7474 53.7187 16.6993C53.9115 16.5788 54.056 16.4101 54.1524 16.1933C54.2488 15.9764 54.297 15.7355 54.297 15.4704C54.297 14.9885 54.1524 14.6512 53.8874 14.4102C53.6223 14.1693 53.1886 14.0729 52.6344 14.0729C52.514 14.0729 52.4417 14.097 52.3935 14.1211C52.3212 14.1693 52.3212 14.2416 52.3212 14.338ZM50.9237 20.0003V19.7834L51.5502 19.7352V14.1693L50.9237 14.1452V13.9283C50.9237 13.9283 50.9478 13.9283 50.9719 13.9283C51.261 13.9283 51.4779 13.9524 51.6225 13.9524C51.9116 13.9524 52.2489 13.9524 52.6103 13.9283C52.9718 13.9042 53.1886 13.9042 53.2609 13.9042C53.8151 13.9042 54.2488 14.0488 54.562 14.3139C54.8753 14.5789 55.0439 14.9644 55.0439 15.4222C55.0439 15.7596 54.9475 16.0487 54.7789 16.2896C54.6102 16.5306 54.3211 16.7474 53.9597 16.9161L55.4054 19.1328C55.5258 19.3256 55.6704 19.4943 55.7909 19.6147C55.9114 19.7352 56.0077 19.8075 56.1041 19.8316V20.0003C56.0318 20.0003 55.9113 20.0003 55.7668 20.0003C55.6222 20.0003 55.5499 20.0003 55.5017 20.0003C55.3331 20.0003 55.1885 19.9521 55.0439 19.8316C54.8994 19.7111 54.7307 19.4702 54.5138 19.1328L53.2609 17.0607L52.3694 17.0366V19.7834L53.02 19.8075V20.0244C52.8513 20.0244 52.6826 20.0003 52.514 20.0003C52.3453 20.0003 52.1766 20.0003 52.008 20.0003C51.8393 20.0003 51.6706 20.0003 51.502 20.0003C51.261 20.0003 51.0924 20.0003 50.9237 20.0003ZM56.6824 18.3618H56.8511C56.9956 18.8919 57.2125 19.3015 57.4534 19.5666C57.7185 19.8316 58.0317 19.9521 58.4172 19.9521C58.7545 19.9521 59.0437 19.8316 59.2605 19.6147C59.4774 19.3738 59.5979 19.0847 59.5979 18.7473C59.5979 18.4582 59.5256 18.2172 59.4051 18.0486C59.2846 17.8558 58.9955 17.639 58.5859 17.398C58.5377 17.3739 58.4413 17.3257 58.3449 17.2534C57.8148 16.9402 57.5016 16.7474 57.4052 16.6511C57.1161 16.4342 56.9233 16.2174 56.827 16.0246C56.7306 15.8318 56.6583 15.5909 56.6583 15.3258C56.6583 14.8921 56.8029 14.5066 57.1161 14.2416C57.4293 13.9524 57.8148 13.8079 58.3208 13.8079C58.5618 13.8079 58.8509 13.8561 59.116 13.9524C59.4051 14.0488 59.5738 14.097 59.5979 14.097C59.622 14.097 59.6702 14.097 59.6942 14.0729C59.7183 14.0488 59.7424 14.0247 59.7906 13.9765H60.0316V15.4222H59.887C59.7424 14.9644 59.5497 14.603 59.2846 14.3621C59.0196 14.1211 58.7064 14.0006 58.3449 14.0006C58.0558 14.0006 57.7908 14.097 57.598 14.2898C57.3811 14.4825 57.2848 14.7476 57.2848 15.0367C57.2848 15.3258 57.3811 15.5668 57.5739 15.7836C57.7667 16.0005 58.1763 16.2896 58.7786 16.627C59.4051 16.9643 59.7906 17.2775 59.9834 17.5185C60.1521 17.7594 60.2484 18.0727 60.2484 18.4341C60.2484 18.916 60.0798 19.3256 59.7183 19.6629C59.381 20.0003 58.9473 20.1448 58.4172 20.1448C58.1281 20.1448 57.8389 20.0966 57.5257 20.0003C57.2366 19.9039 57.0679 19.8798 57.0679 19.8798C57.0197 19.8798 56.9956 19.8798 56.9474 19.9039C56.9233 19.928 56.8751 19.9521 56.8511 20.0003H56.7065L56.6824 18.3618ZM61.2363 20.0003V19.7834L61.8628 19.7352V14.1693L61.2363 14.1452V13.9283C61.3568 13.9283 61.5014 13.9283 61.6218 13.9283C61.7664 13.9283 61.9592 13.9283 62.2483 13.9283C62.5374 13.9283 62.7302 13.9283 62.8748 13.9283C63.0194 13.9283 63.1398 13.9283 63.2362 13.9283V14.1452L62.6338 14.1693V19.7352L63.2362 19.7834V20.0003C63.0675 20.0003 62.8989 19.9762 62.7061 19.9762C62.5374 19.9762 62.3688 19.9762 62.2001 19.9762C62.0315 19.9762 61.8628 19.9762 61.7182 19.9762C61.5496 20.0003 61.405 20.0003 61.2363 20.0003ZM66.7059 19.8075C67.501 19.8075 68.1275 19.5425 68.5853 19.0365C69.0431 18.5305 69.284 17.8317 69.284 16.9643C69.284 16.0728 69.019 15.374 68.4648 14.8439C67.9106 14.3139 67.1878 14.0488 66.2481 14.0488C65.983 14.0488 65.8144 14.0488 65.7421 14.0729C65.6698 14.097 65.6216 14.1452 65.5734 14.1934C65.5493 14.2416 65.5252 14.5066 65.5252 15.0367C65.5011 15.5668 65.5011 16.2415 65.5011 17.0607C65.5011 17.9763 65.5011 18.6028 65.5252 18.9642C65.5252 19.3256 65.5493 19.5425 65.5734 19.5906C65.5975 19.6629 65.6939 19.7111 65.8866 19.7593C66.0553 19.8075 66.3444 19.8075 66.7059 19.8075ZM64.1518 20.0003V19.7834L64.7542 19.7593V14.1693L64.1518 14.1452V13.9283C64.1759 13.9283 64.2 13.9283 64.2482 13.9283C64.5855 13.9283 64.8265 13.9524 64.9951 13.9524C65.3566 13.9524 65.718 13.9524 66.1517 13.9283C66.5613 13.9042 66.8023 13.9042 66.8504 13.9042C67.8624 13.9042 68.6576 14.1693 69.2358 14.6994C69.8141 15.2295 70.0792 15.9764 70.0792 16.9402C70.0792 17.5185 69.9587 18.0486 69.6936 18.5064C69.4286 18.9642 69.0672 19.3256 68.5853 19.5906C68.3443 19.7352 68.0552 19.8316 67.7179 19.9039C67.4046 19.9762 66.995 20.0003 66.5372 20.0003C66.4408 20.0003 66.2481 20.0003 65.9589 20.0003C65.6698 20.0003 65.4288 20.0003 65.2361 20.0003C65.0674 20.0003 64.8988 20.0003 64.7301 20.0003C64.5614 20.0003 64.3687 20.0003 64.1518 20.0003ZM72.7296 14.8921L71.8863 17.1812H73.5729L72.7296 14.8921ZM70.1996 20.0003V19.7352L70.4647 19.7111C70.537 19.7111 70.6092 19.687 70.6574 19.6388C70.7056 19.5906 70.7538 19.5184 70.802 19.422L72.9465 13.7838H73.0428L75.2596 19.3256C75.3319 19.4943 75.3801 19.5906 75.4523 19.6629C75.5246 19.7111 75.621 19.7352 75.7415 19.7352H75.7656V20.0003C75.621 20.0003 75.4523 19.9762 75.2837 19.9762C75.115 19.9762 74.9463 19.9762 74.7777 19.9762C74.609 19.9762 74.4644 19.9762 74.2717 19.9762C74.103 19.9762 73.9344 19.9762 73.7416 20.0003V19.7593L74.1994 19.7352C74.3199 19.7352 74.3922 19.7111 74.4403 19.7111C74.4644 19.687 74.4885 19.6629 74.4885 19.6388V19.6147C74.4885 19.6147 74.4885 19.5906 74.4885 19.5666L73.6693 17.3498H71.8381L71.0912 19.4461C71.0671 19.4943 71.0671 19.5184 71.043 19.5666C71.043 19.5906 71.0189 19.6147 71.0189 19.6388C71.0189 19.687 71.0671 19.7111 71.1875 19.7352H71.2116L71.6694 19.7593V20.0244C71.549 20.0244 71.4285 20.0003 71.308 20.0003C71.1875 20.0003 71.0671 20.0003 70.9466 20.0003C70.8261 20.0003 70.7056 20.0003 70.5852 20.0003C70.4647 20.0003 70.3201 20.0003 70.1996 20.0003ZM78.7774 19.8075C79.5726 19.8075 80.199 19.5425 80.6568 19.0365C81.1146 18.5305 81.3556 17.8317 81.3556 16.9643C81.3556 16.0728 81.0905 15.374 80.5364 14.8439C79.9822 14.3139 79.2593 14.0488 78.3196 14.0488C78.0546 14.0488 77.8859 14.0488 77.8136 14.0729C77.7413 14.097 77.6932 14.1452 77.645 14.1934C77.6209 14.2416 77.5968 14.5066 77.5968 15.0367C77.5727 15.5668 77.5727 16.2415 77.5727 17.0607C77.5727 17.9763 77.5727 18.6028 77.5968 18.9642C77.5968 19.3256 77.6209 19.5425 77.645 19.5906C77.6691 19.6629 77.7654 19.7111 77.9582 19.7593C78.1269 19.8075 78.3919 19.8075 78.7774 19.8075ZM76.2234 20.0003V19.7834L76.8257 19.7593V14.1693L76.2234 14.1452V13.9283C76.2475 13.9283 76.2716 13.9283 76.3197 13.9283C76.6571 13.9283 76.898 13.9524 77.0667 13.9524C77.4281 13.9524 77.7895 13.9524 78.2233 13.9283C78.6329 13.9042 78.8738 13.9042 78.922 13.9042C79.934 13.9042 80.7291 14.1693 81.3074 14.6994C81.8857 15.2295 82.1507 15.9764 82.1507 16.9402C82.1507 17.5185 82.0302 18.0486 81.7652 18.5064C81.5002 18.9642 81.1387 19.3256 80.6568 19.5906C80.4159 19.7352 80.1268 19.8316 79.7894 19.9039C79.4762 19.9762 79.0666 20.0003 78.6088 20.0003C78.5124 20.0003 78.3196 20.0003 78.0305 20.0003C77.7413 20.0003 77.5004 20.0003 77.3076 20.0003C77.139 20.0003 76.9703 20.0003 76.8016 20.0003C76.6089 20.0003 76.4161 20.0003 76.2234 20.0003ZM87.9576 19.8075C88.825 19.8075 89.5238 19.5184 90.0538 18.9401C90.5598 18.3618 90.8249 17.5908 90.8249 16.627C90.8249 15.6391 90.5117 14.8439 89.9093 14.2657C89.3069 13.6874 88.4877 13.3983 87.4516 13.3983C87.1625 13.3983 86.9697 13.4223 86.8974 13.4464C86.8251 13.4705 86.7528 13.5187 86.7288 13.591C86.7047 13.6392 86.6806 13.9524 86.6806 14.5307C86.6565 15.109 86.6565 15.8559 86.6565 16.7715C86.6565 17.7835 86.6565 18.4823 86.6806 18.8919C86.6806 19.3015 86.7047 19.5184 86.7288 19.5906C86.7528 19.6629 86.8733 19.7352 87.0661 19.7593C87.2348 19.7834 87.548 19.8075 87.9576 19.8075ZM85.1385 20.0003V19.7593L85.8131 19.7111V13.5187L85.1385 13.4705V13.2296C85.1626 13.2296 85.2108 13.2296 85.259 13.2296C85.6445 13.2296 85.9095 13.2537 86.0782 13.2537C86.4637 13.2537 86.8974 13.2537 87.3552 13.2296C87.813 13.2055 88.0781 13.2055 88.1504 13.2055C89.2828 13.2055 90.1502 13.4946 90.7767 14.097C91.4032 14.6994 91.7164 15.5186 91.7164 16.6029C91.7164 17.2534 91.5718 17.8317 91.2827 18.3377C90.9936 18.8437 90.5839 19.2533 90.0538 19.5425C89.7647 19.687 89.4515 19.8075 89.09 19.8798C88.7286 19.9521 88.2949 19.9762 87.7889 19.9762C87.6926 19.9762 87.4757 19.9762 87.1384 19.9762C86.8251 19.9762 86.536 19.9762 86.3191 19.9762C86.1505 19.9762 85.9577 19.9762 85.7409 19.9762C85.5722 20.0003 85.3553 20.0003 85.1385 20.0003ZM96.9932 13.9283V15.2536H96.7281V15.0849C96.7281 14.6994 96.6559 14.4343 96.5354 14.3139C96.4149 14.1934 96.0776 14.1452 95.5475 14.1452H93.9331V16.7234H94.6801C94.9451 16.7234 95.1138 16.6993 95.2343 16.6752C95.3547 16.6511 95.427 16.6029 95.4752 16.5306C95.5234 16.4342 95.5716 16.1451 95.6198 15.7114C95.6198 15.6873 95.6198 15.6632 95.6198 15.6391H95.8607C95.8366 15.9282 95.8366 16.1933 95.8125 16.4342C95.8125 16.6752 95.7885 16.892 95.7885 17.1089C95.7885 17.3016 95.7885 17.4703 95.7885 17.5908C95.7885 17.7353 95.7884 17.8558 95.8125 18.0004H95.5475C95.5475 17.9763 95.5475 17.9763 95.5475 17.9522C95.5234 17.4703 95.4993 17.1571 95.4511 17.0366C95.427 16.9884 95.3788 16.9643 95.3066 16.9402C95.2343 16.9161 95.0415 16.9161 94.7524 16.9161H93.9331V19.2533C93.9331 19.4943 93.9572 19.6388 94.0295 19.687C94.1018 19.7593 94.2223 19.7834 94.4391 19.7834H96.7041L97.1137 18.41H97.3064L97.21 20.0003H93.9572C93.7163 20.0003 93.4753 20.0003 93.2585 20.0003C93.0175 20.0003 92.8007 20.0003 92.5597 20.0244V19.8075L93.1862 19.7593V14.1693L92.5597 14.1211V13.9042C92.8248 13.9042 93.0657 13.9283 93.3067 13.9283C93.5476 13.9283 93.8127 13.9283 94.0536 13.9283H96.9932ZM101.812 16.3619C101.909 16.386 102.005 16.386 102.101 16.386C102.198 16.386 102.27 16.386 102.366 16.386C102.993 16.386 103.475 16.2415 103.788 15.9523C104.101 15.6632 104.246 15.2536 104.246 14.6753C104.246 14.1452 104.077 13.7356 103.764 13.4705C103.427 13.2055 102.969 13.0609 102.342 13.0609C102.125 13.0609 102.005 13.085 101.933 13.1091C101.86 13.1332 101.836 13.2055 101.836 13.2778V16.3619H101.812ZM100.222 20.0003V19.7352L100.945 19.7111V13.2055L100.198 13.1573V12.8923C100.222 12.8923 100.222 12.8923 100.246 12.8923C100.583 12.9164 100.848 12.9164 101.017 12.9164C101.354 12.9164 101.764 12.9164 102.198 12.8923C102.631 12.8682 102.921 12.8682 103.017 12.8682C103.692 12.8682 104.198 13.0368 104.559 13.3501C104.92 13.6633 105.113 14.097 105.113 14.6753C105.113 15.3499 104.896 15.8318 104.439 16.1451C104.005 16.4583 103.306 16.627 102.342 16.627H101.812V19.7111L102.583 19.7593V20.0244C102.39 20.0244 102.198 20.0003 101.981 20.0003C101.788 20.0003 101.595 20.0003 101.378 20.0003C101.186 20.0003 100.993 20.0003 100.776 20.0003C100.607 20.0003 100.415 20.0003 100.222 20.0003ZM105.86 20.0003V19.7834L106.487 19.7352V14.1693L105.86 14.1452V13.9283C105.981 13.9283 106.125 13.9283 106.246 13.9283C106.39 13.9283 106.583 13.9283 106.872 13.9283C107.161 13.9283 107.354 13.9283 107.499 13.9283C107.643 13.9283 107.764 13.9283 107.86 13.9283V14.1452L107.258 14.1693V19.7352L107.86 19.7834V20.0003C107.691 20.0003 107.523 19.9762 107.33 19.9762C107.161 19.9762 106.993 19.9762 106.824 19.9762C106.655 19.9762 106.487 19.9762 106.342 19.9762C106.197 20.0003 106.029 20.0003 105.86 20.0003ZM109.33 14.1693L108.727 14.1452V13.9283C108.848 13.9283 108.968 13.9283 109.113 13.9283C109.258 13.9283 109.474 13.9283 109.764 13.9283C110.053 13.9283 110.245 13.9283 110.39 13.9283C110.535 13.9283 110.655 13.9283 110.775 13.9283V14.1452L110.101 14.1693V17.6631C110.101 18.0968 110.125 18.4341 110.173 18.675C110.221 18.916 110.294 19.1328 110.414 19.2774C110.559 19.4943 110.727 19.6388 110.944 19.7593C111.161 19.8798 111.402 19.928 111.667 19.928C111.956 19.928 112.197 19.8798 112.438 19.7593C112.679 19.6388 112.848 19.4943 112.992 19.2774C113.113 19.1087 113.209 18.8919 113.257 18.6269C113.305 18.3618 113.33 18.0004 113.33 17.5426V14.1693L112.655 14.1452V13.9283C112.751 13.9283 112.872 13.9283 112.968 13.9283C113.089 13.9283 113.257 13.9283 113.498 13.9283C113.739 13.9283 113.908 13.9283 114.028 13.9283C114.149 13.9283 114.245 13.9283 114.342 13.9283V14.1452L113.715 14.1693L113.667 17.2053C113.643 18.2172 113.45 18.9642 113.089 19.422C112.727 19.8798 112.173 20.1207 111.426 20.1207C111.016 20.1207 110.655 20.0244 110.366 19.8557C110.053 19.687 109.788 19.422 109.595 19.0606C109.426 18.7473 109.33 18.1209 109.33 17.1812C109.33 17.1089 109.33 17.0848 109.33 17.0366V14.1693ZM116.51 14.338V16.8197H117.257C117.426 16.8197 117.57 16.8197 117.667 16.7956C117.763 16.7715 117.835 16.7474 117.908 16.6993C118.1 16.5788 118.245 16.4101 118.341 16.1933C118.438 15.9764 118.486 15.7355 118.486 15.4704C118.486 14.9885 118.341 14.6512 118.076 14.4102C117.811 14.1693 117.378 14.0729 116.823 14.0729C116.703 14.0729 116.631 14.097 116.582 14.1211C116.534 14.1693 116.51 14.2416 116.51 14.338ZM115.137 20.0003V19.7834L115.763 19.7352V14.1693L115.137 14.1452V13.9283C115.137 13.9283 115.161 13.9283 115.185 13.9283C115.474 13.9283 115.691 13.9524 115.835 13.9524C116.125 13.9524 116.462 13.9524 116.823 13.9283C117.185 13.9042 117.402 13.9042 117.474 13.9042C118.028 13.9042 118.462 14.0488 118.775 14.3139C119.088 14.5789 119.233 14.9644 119.233 15.4222C119.233 15.7596 119.136 16.0487 118.968 16.2896C118.799 16.5306 118.51 16.7474 118.149 16.9161L119.594 19.1328C119.715 19.3256 119.859 19.4943 119.98 19.6147C120.1 19.7352 120.197 19.8075 120.293 19.8316V20.0003C120.221 20.0003 120.1 20.0003 119.956 20.0003C119.811 20.0003 119.739 20.0003 119.691 20.0003C119.522 20.0003 119.377 19.9521 119.233 19.8316C119.088 19.7111 118.92 19.4702 118.703 19.1328L117.45 17.0607L116.558 17.0366V19.7834L117.209 19.8075V20.0244C117.04 20.0244 116.872 20.0003 116.703 20.0003C116.534 20.0003 116.366 20.0003 116.197 20.0003C116.028 20.0003 115.86 20.0003 115.691 20.0003C115.474 20.0003 115.305 20.0003 115.137 20.0003ZM122.534 14.8921L121.69 17.1812H123.377L122.534 14.8921ZM119.98 20.0003V19.7352L120.245 19.7111C120.317 19.7111 120.389 19.687 120.438 19.6388C120.486 19.5906 120.534 19.5184 120.582 19.422L122.727 13.7838H122.823L125.04 19.3256C125.112 19.4943 125.16 19.5906 125.232 19.6629C125.305 19.7111 125.401 19.7352 125.522 19.7352H125.546V20.0003C125.401 20.0003 125.232 19.9762 125.064 19.9762C124.895 19.9762 124.726 19.9762 124.558 19.9762C124.389 19.9762 124.245 19.9762 124.052 19.9762C123.883 19.9762 123.714 19.9762 123.522 20.0003V19.7593L123.979 19.7352C124.1 19.7352 124.172 19.7111 124.22 19.7111C124.245 19.687 124.269 19.6629 124.269 19.6388V19.6147C124.269 19.6147 124.269 19.5906 124.269 19.5666L123.449 17.3498H121.618L120.871 19.4461C120.847 19.4943 120.847 19.5184 120.823 19.5666C120.823 19.5906 120.799 19.6147 120.799 19.6388C120.799 19.687 120.847 19.7111 120.968 19.7352H120.992L121.45 19.7593V20.0244C121.329 20.0244 121.209 20.0003 121.088 20.0003C120.968 20.0003 120.847 20.0003 120.727 20.0003C120.606 20.0003 120.486 20.0003 120.365 20.0003C120.245 20.0003 120.124 20.0003 119.98 20.0003Z" fill="#A4ABB6" fill-rule="evenodd"/>
<path d="M3.07118 18.2892C3.04709 18.2169 3.04709 18.1687 3.04709 18.0964C3.07118 18.0241 3.11937 17.9759 3.16756 17.9518C3.23985 17.9277 3.28804 17.9277 3.36032 17.9277C3.43261 17.9518 3.4808 18 3.50489 18.0482C3.52899 18.1205 3.52899 18.1687 3.52899 18.241C3.50489 18.3133 3.4567 18.3614 3.40851 18.3855C3.33623 18.4096 3.28804 18.4096 3.21575 18.4096C3.14347 18.4096 3.09528 18.3614 3.07118 18.2892Z" fill="#A4ABB6"/>
<path d="M2.13145 16.7962L1.98688 16.2179H2.01098V16.242C2.01098 16.2902 2.03507 16.3143 2.05917 16.3384C2.08326 16.3625 2.08326 16.3625 2.10736 16.3625C2.13145 16.3625 2.15555 16.3625 2.22783 16.3384L2.78202 16.1939C2.8784 16.1698 2.95068 16.1457 2.97478 16.1216C2.99887 16.0975 3.02297 16.0734 3.04706 16.0252C3.07116 15.977 3.07116 15.9288 3.04706 15.8806C3.02297 15.8083 2.99887 15.7601 2.97478 15.736C2.92659 15.6879 2.8784 15.6879 2.83021 15.6638C2.78202 15.6638 2.68564 15.6638 2.56516 15.6879L2.10736 15.8083C2.05917 15.8324 2.01098 15.8324 2.01098 15.8565C1.98688 15.8806 1.98688 15.8806 1.98688 15.9047C1.98688 15.9288 1.98688 15.977 1.98688 16.0252H1.96279L1.84232 15.6156H1.86641V15.6397C1.86641 15.6638 1.89051 15.6879 1.9146 15.712C1.9387 15.736 1.96279 15.736 1.98688 15.736C2.01098 15.736 2.03508 15.736 2.08326 15.712L2.51697 15.6156C2.66154 15.5915 2.75792 15.5674 2.80611 15.5674C2.8784 15.5674 2.92659 15.5915 2.99887 15.6638C3.07116 15.712 3.11935 15.8083 3.14344 15.9288C3.16754 16.0252 3.16754 16.0975 3.16754 16.1698C3.14344 16.242 3.11935 16.3143 3.07116 16.3625C3.02297 16.4107 2.95068 16.4348 2.8543 16.4589L2.30012 16.5794C2.22783 16.6035 2.20374 16.6035 2.17964 16.6276C2.15555 16.6276 2.15555 16.6517 2.15555 16.6757C2.15555 16.6998 2.15555 16.7239 2.15555 16.7721L2.13145 16.7962Z" fill="#A4ABB6"/>
<path d="M1.67368 14.6268L2.32424 13.9522L1.81825 14.0245C1.74597 14.0245 1.69778 14.0486 1.67368 14.0727C1.64959 14.0968 1.62549 14.1449 1.64959 14.2172H1.62549L1.5773 13.8317H1.6014C1.62549 13.8799 1.62549 13.904 1.64959 13.9281C1.67368 13.9522 1.67368 13.9522 1.69778 13.9522C1.72187 13.9522 1.77006 13.9522 1.81825 13.9522L2.78205 13.8076V13.8317L1.91463 14.7714L2.66157 14.675C2.73386 14.675 2.78205 14.6509 2.78205 14.6028C2.80614 14.5787 2.80614 14.5305 2.80614 14.4823V14.4582H2.83024L2.87843 14.8678H2.85433C2.85433 14.7955 2.83024 14.7714 2.80614 14.7473C2.78205 14.7232 2.73386 14.7232 2.66157 14.7232L1.84235 14.8437L1.81825 14.8678C1.79416 14.8919 1.77006 14.916 1.77006 14.9401C1.77006 14.9642 1.77006 14.9883 1.77006 15.0124H1.74597L1.67368 14.6268Z" fill="#A4ABB6"/>
<path d="M2.70975 12.5791H2.73384V13.1815H2.70975V13.1333C2.70975 13.1092 2.70975 13.061 2.68565 13.061C2.68565 13.0369 2.66156 13.0369 2.63746 13.0369C2.61337 13.0369 2.58927 13.0369 2.54108 13.0369H1.77005C1.72186 13.0369 1.67367 13.0369 1.64957 13.0369C1.62548 13.0369 1.62548 13.061 1.60138 13.0851C1.60138 13.1092 1.57729 13.1333 1.57729 13.1574V13.2056H1.55319V12.6032H1.57729V12.6514C1.57729 12.6755 1.57729 12.7237 1.60138 12.7237C1.60138 12.7478 1.62548 12.7478 1.64957 12.7478C1.67367 12.7478 1.69776 12.7478 1.74595 12.7478H2.51699C2.56518 12.7478 2.61337 12.7478 2.63746 12.7478C2.66156 12.7478 2.66156 12.7237 2.68565 12.6996C2.68565 12.6755 2.70975 12.6514 2.70975 12.6273V12.5791Z" fill="#A4ABB6"/>
<path d="M1.74595 10.7246H1.77004C1.77004 10.7728 1.79414 10.7969 1.81823 10.8451C1.84233 10.8692 1.91461 10.9174 2.01099 10.9656L2.85432 11.4716V11.4956L1.89052 11.7848C1.77004 11.8089 1.69776 11.8571 1.67366 11.8571C1.64957 11.8812 1.62547 11.9053 1.62547 11.9535H1.60138L1.64957 11.3993H1.67366V11.4234C1.67366 11.4716 1.67366 11.5197 1.67366 11.5197C1.67366 11.5438 1.69776 11.5438 1.69776 11.5438C1.69776 11.5438 1.72185 11.5438 1.74595 11.5438C1.77004 11.5438 1.79414 11.5197 1.86642 11.5197L2.4688 11.327L1.9869 11.0378C1.93871 11.0137 1.89052 10.9897 1.86642 10.9656C1.84233 10.9656 1.81823 10.9415 1.81823 10.9415C1.79414 10.9415 1.79414 10.9415 1.77004 10.9415C1.74595 10.9415 1.74595 10.9656 1.74595 10.9897C1.72185 11.0137 1.72185 11.0378 1.72185 11.086H1.69776L1.74595 10.7246Z" fill="#A4ABB6"/>
<path d="M2.05918 9.68666L2.51698 9.80713V9.78304C2.54108 9.71075 2.51698 9.66256 2.49289 9.61437C2.4447 9.56618 2.39651 9.54209 2.30013 9.4939V9.4698L2.9025 9.61437V9.63847C2.83022 9.63847 2.78203 9.63847 2.73384 9.63847C2.68565 9.63847 2.66155 9.66256 2.63746 9.68666C2.61336 9.71075 2.58927 9.75894 2.58927 9.80713L2.9025 9.87942C2.97479 9.90351 2.99888 9.90351 3.02298 9.90351C3.04707 9.90351 3.04707 9.90351 3.07117 9.87942C3.09526 9.85532 3.09526 9.85532 3.09526 9.80713L3.11936 9.73485C3.14345 9.63847 3.14345 9.54209 3.11936 9.4698C3.09526 9.39752 3.02298 9.32523 2.9266 9.27704V9.25295L3.26393 9.39752L3.02298 10.3854H2.99888V10.3372C2.99888 10.3131 2.99888 10.2649 2.99888 10.2649C2.99888 10.2408 2.97479 10.2408 2.97479 10.2167C2.97479 10.2167 2.9266 10.1927 2.87841 10.1927L2.13147 9.99989C2.08328 9.9758 2.05918 9.9758 2.03509 9.9758C2.01099 9.9758 1.9869 9.9758 1.9869 9.99989C1.9628 10.024 1.9628 10.0481 1.93871 10.0722V10.1204H1.91461L2.15556 9.18066L2.49289 9.27704V9.30114C2.39651 9.30114 2.34832 9.30114 2.30013 9.32523C2.25194 9.34933 2.22785 9.37342 2.17966 9.42161C2.15556 9.44571 2.13147 9.51799 2.13147 9.59028L2.05918 9.68666Z" fill="#A4ABB6"/>
<path d="M3.14344 8.26669L3.43258 8.41126C3.48077 8.43535 3.52896 8.45945 3.55306 8.45945C3.57715 8.45945 3.57715 8.45945 3.60125 8.43535C3.62534 8.41126 3.64944 8.38716 3.64944 8.33897L3.67353 8.36307L3.43258 8.91725L3.40849 8.86906C3.43258 8.82087 3.43258 8.77268 3.43258 8.77268C3.43258 8.74859 3.43258 8.72449 3.40849 8.72449C3.40849 8.7004 3.3603 8.7004 3.31211 8.6763L2.63745 8.33897C2.58926 8.31488 2.54107 8.29078 2.51698 8.29078C2.49288 8.29078 2.49288 8.29078 2.46879 8.31488C2.44469 8.33897 2.4206 8.36307 2.4206 8.41126L2.37241 8.38716L2.58926 7.88117C2.63745 7.7607 2.70973 7.66432 2.73383 7.61613C2.78202 7.56794 2.83021 7.51975 2.90249 7.51975C2.97478 7.49565 3.02297 7.51975 3.09525 7.54384C3.16754 7.56794 3.21573 7.64022 3.26392 7.71251C3.28801 7.7607 3.28801 7.83298 3.26392 7.90526L3.74582 7.80888C3.8181 7.78479 3.8422 7.78479 3.86629 7.78479C3.89039 7.7607 3.91448 7.7607 3.93858 7.71251L3.96267 7.7366L3.8181 8.07393L3.16754 8.1944L3.14344 8.26669ZM2.61336 8.02574L3.07116 8.24259L3.09525 8.1944C3.11935 8.12212 3.14344 8.07393 3.14344 8.02574C3.14344 7.97755 3.14344 7.95345 3.11935 7.90526C3.09525 7.85707 3.04706 7.83298 2.99887 7.80888C2.92659 7.76069 2.8543 7.7607 2.78202 7.78479C2.73383 7.80888 2.68564 7.85707 2.63745 7.95345L2.61336 8.02574Z" fill="#A4ABB6"/>
<path d="M3.57718 6.00098L3.91451 6.19374V6.21783C3.81813 6.16964 3.74585 6.16964 3.64947 6.19374C3.55309 6.21783 3.5049 6.26602 3.45671 6.33831C3.43261 6.3865 3.40852 6.43469 3.43261 6.48288C3.45671 6.53106 3.45671 6.55516 3.5049 6.57926C3.52899 6.60335 3.55309 6.60335 3.57718 6.60335C3.60128 6.60335 3.64947 6.60335 3.69766 6.57926C3.72175 6.55516 3.79404 6.53106 3.89042 6.48288C4.01089 6.41059 4.13136 6.3624 4.20365 6.33831C4.27593 6.33831 4.34822 6.33831 4.4205 6.3865C4.49279 6.43469 4.56507 6.50697 4.58917 6.60335C4.61326 6.69973 4.58917 6.79611 4.54098 6.91658C4.51688 6.94068 4.49279 6.96477 4.46869 6.98887C4.4446 7.01296 4.4205 7.03706 4.37231 7.06115C4.34822 7.08525 4.32412 7.08525 4.32412 7.10934C4.32412 7.13344 4.32412 7.13344 4.32412 7.15753C4.32412 7.18163 4.32412 7.20572 4.34822 7.22982L4.32412 7.25391L3.93861 7.03706L3.9627 7.01296C4.08317 7.06115 4.17955 7.06115 4.27593 7.03706C4.37231 7.01296 4.4446 6.96477 4.46869 6.89249C4.49279 6.8443 4.51688 6.79611 4.49279 6.72382C4.49279 6.67563 4.46869 6.62744 4.4205 6.60335C4.39641 6.57925 4.37231 6.57926 4.34822 6.57926C4.32412 6.57926 4.27593 6.57925 4.25184 6.60335C4.22774 6.62744 4.15546 6.65154 4.08317 6.69973C3.9868 6.77201 3.91451 6.79611 3.84223 6.8202C3.79404 6.8443 3.72175 6.8443 3.67356 6.8443C3.62537 6.8443 3.57718 6.8202 3.52899 6.79611C3.45671 6.74792 3.40852 6.67563 3.38442 6.57926C3.36033 6.48288 3.38442 6.3865 3.43261 6.31421C3.45671 6.29012 3.4808 6.24193 3.5049 6.21783C3.52899 6.19374 3.55309 6.16964 3.57718 6.14555C3.60128 6.12145 3.62537 6.09736 3.64947 6.09736C3.64947 6.07326 3.64947 6.07326 3.64947 6.04917C3.62537 6.07326 3.60128 6.04917 3.57718 6.00098Z" fill="#A4ABB6"/>
<path d="M5.28793 5.61541L5.31202 5.6395L4.9506 6.1455L4.9265 6.1214L4.9506 6.09731C4.97469 6.07321 4.97469 6.04912 4.97469 6.02502C4.97469 6.00093 4.97469 6.00093 4.9506 5.97683C4.9506 5.95274 4.9265 5.92864 4.87831 5.90455L4.25184 5.47084C4.20365 5.44674 4.17956 5.42265 4.15546 5.42265C4.13137 5.42265 4.13137 5.42265 4.10727 5.42265C4.08318 5.42265 4.05908 5.44674 4.05908 5.47084L4.03499 5.49493L4.01089 5.47084L4.37232 4.96484L4.39641 4.98894L4.37232 5.01303C4.34822 5.03713 4.34822 5.06122 4.34822 5.08532C4.34822 5.10941 4.34822 5.10941 4.37232 5.13351C4.37232 5.1576 4.39641 5.1817 4.4446 5.20579L5.07107 5.6395C5.11926 5.6636 5.14336 5.68769 5.16745 5.68769C5.19155 5.68769 5.19155 5.68769 5.21564 5.68769C5.23974 5.68769 5.26383 5.6636 5.26383 5.6395L5.28793 5.61541Z" fill="#A4ABB6"/>
<path d="M5.52888 3.56738L5.76982 3.78424L5.74573 3.80833C5.67345 3.78424 5.62526 3.76014 5.57707 3.76014C5.52888 3.76014 5.50478 3.76014 5.45659 3.78424C5.4325 3.78424 5.4084 3.80833 5.36021 3.85652L5.31202 3.92881L5.98668 4.53118C6.03487 4.57937 6.05896 4.60346 6.08306 4.60346C6.10715 4.60346 6.10715 4.60346 6.13125 4.60346C6.15534 4.60346 6.17944 4.57937 6.20353 4.55527L6.22763 4.53118L6.25172 4.55527L5.84211 5.01308L5.81801 4.98898L5.84211 4.96489C5.8662 4.94079 5.8662 4.9167 5.8903 4.8926C5.8903 4.86851 5.8903 4.86851 5.8903 4.84441C5.8903 4.82032 5.8662 4.79622 5.81801 4.77213L5.14336 4.16976L5.09517 4.24204C5.04698 4.29023 5.02288 4.36252 5.02288 4.41071C5.02288 4.48299 5.04698 4.55527 5.11926 4.60346L5.09517 4.62756L4.85422 4.41071L5.52888 3.56738Z" fill="#A4ABB6"/>
<path d="M7.02276 3.30223L6.70952 3.56727L6.75771 3.68775C6.78181 3.73594 6.78181 3.76003 6.8059 3.78413C6.83 3.80822 6.85409 3.80822 6.87819 3.80822C6.90228 3.80822 6.92638 3.78413 6.97457 3.73594L6.99866 3.76003L6.70952 4.02508L6.68543 4.00098C6.70952 3.97689 6.73362 3.9287 6.73362 3.9046C6.73362 3.85641 6.70952 3.80822 6.68543 3.71184L6.37219 2.74805H6.39629L7.36008 3.18176C7.45646 3.22995 7.50465 3.25404 7.55284 3.25404C7.57694 3.25404 7.60103 3.25404 7.62513 3.22995L7.64922 3.25404L7.21551 3.59137L7.19142 3.56727L7.21551 3.54318C7.23961 3.51908 7.2637 3.49499 7.2637 3.47089C7.2637 3.4468 7.2637 3.4468 7.23961 3.4227L7.21551 3.39861C7.21551 3.39861 7.19142 3.37451 7.14323 3.37451L7.02276 3.30223ZM6.95047 3.27813L6.56495 3.08538L6.70952 3.49499L6.95047 3.27813Z" fill="#A4ABB6"/>
<path d="M8.05881 1.49512L8.27567 1.83245L8.25157 1.85654C8.17929 1.78426 8.107 1.73607 8.03472 1.71197C7.93834 1.68788 7.86605 1.71197 7.81786 1.73607C7.76967 1.76016 7.74558 1.80835 7.72148 1.85654C7.69739 1.90473 7.72148 1.92883 7.74558 1.97702C7.76967 2.00111 7.76967 2.02521 7.79377 2.02521C7.81786 2.0493 7.86605 2.0493 7.91424 2.0493C7.93834 2.0493 8.01062 2.0493 8.1311 2.02521C8.27567 2.00111 8.39614 2.02521 8.46843 2.0493C8.54071 2.0734 8.5889 2.12159 8.63709 2.19387C8.68528 2.26615 8.70937 2.36253 8.66118 2.45891C8.63709 2.55529 8.5648 2.65167 8.46843 2.69986C8.44433 2.72396 8.39614 2.72396 8.37205 2.74805C8.34795 2.74805 8.29976 2.77215 8.25157 2.77215C8.22748 2.77215 8.20338 2.77215 8.17929 2.79624C8.15519 2.79624 8.15519 2.82034 8.15519 2.84443C8.15519 2.86853 8.15519 2.89262 8.15519 2.91672L8.1311 2.94081L7.89015 2.55529L7.91424 2.5312C8.01062 2.62758 8.08291 2.67577 8.17929 2.69986C8.27567 2.72396 8.34795 2.69986 8.42024 2.65167C8.46842 2.62758 8.51662 2.57939 8.51662 2.5312C8.54071 2.48301 8.51661 2.43482 8.49252 2.38663C8.46842 2.36253 8.46842 2.33844 8.42024 2.33844C8.39614 2.31434 8.37204 2.31434 8.32386 2.31434C8.27567 2.31434 8.22748 2.31434 8.1311 2.31434C8.01062 2.31434 7.91424 2.33844 7.86605 2.31434C7.81786 2.31434 7.74558 2.29025 7.72148 2.26616C7.67329 2.24206 7.6492 2.19387 7.60101 2.16978C7.55282 2.09749 7.52872 2.00111 7.55282 1.90473C7.57691 1.80835 7.6251 1.73607 7.72148 1.68788C7.74558 1.66378 7.79377 1.66378 7.81786 1.63969C7.84196 1.63969 7.89015 1.61559 7.91424 1.61559C7.96243 1.61559 7.98653 1.61559 7.98653 1.5915C8.01062 1.5915 8.01062 1.5674 8.01062 1.5674C8.05881 1.5674 8.05881 1.54331 8.05881 1.49512Z" fill="#A4ABB6"/>
<path d="M10.2756 1.06174C10.3479 1.03764 10.396 1.06174 10.4683 1.08583C10.5165 1.10993 10.5647 1.18221 10.5888 1.2304C10.6129 1.30269 10.5888 1.35088 10.5647 1.42316C10.5406 1.49545 10.4683 1.51954 10.4201 1.54364C10.3479 1.56773 10.2997 1.54364 10.2274 1.51954C10.1792 1.49545 10.131 1.42316 10.1069 1.37497C10.0828 1.30269 10.1069 1.2545 10.131 1.18221C10.1551 1.10993 10.2033 1.08583 10.2756 1.06174Z" fill="#A4ABB6"/>
<path d="M4.17954 20.0002L3.8904 20.1689C3.84221 20.193 3.79402 20.217 3.79402 20.2411C3.79402 20.2652 3.76993 20.2652 3.76993 20.2893C3.76993 20.3134 3.79402 20.3375 3.81812 20.3857L3.79402 20.4098L3.4567 19.8797L3.48079 19.8556C3.50489 19.9038 3.52898 19.9279 3.55308 19.952C3.57717 19.952 3.60127 19.9761 3.60127 19.9761C3.62536 19.9761 3.64946 19.952 3.72174 19.9279L4.42049 19.5183C4.46868 19.4942 4.51687 19.4701 4.51687 19.446C4.51687 19.4219 4.54097 19.4219 4.54097 19.3978C4.54097 19.3737 4.51687 19.3496 4.49278 19.3014L4.51687 19.2773L4.80601 19.7111C4.90239 19.8556 4.95058 19.9761 4.92649 20.0725C4.90239 20.1689 4.8542 20.2411 4.78192 20.2893C4.70963 20.3375 4.63735 20.3375 4.56506 20.3375C4.49278 20.3375 4.42049 20.2893 4.34821 20.217C4.30002 20.193 4.25183 20.1207 4.17954 20.0002ZM4.70963 19.687L4.25183 19.9761C4.25183 20.0002 4.27592 20.0002 4.27592 20.0243C4.32411 20.0966 4.3723 20.1207 4.42049 20.1448C4.49278 20.1448 4.54097 20.1448 4.63735 20.0966C4.70963 20.0484 4.75782 20.0002 4.78192 19.952C4.80601 19.9038 4.78192 19.8315 4.73373 19.7592L4.70963 19.687Z" fill="#A4ABB6"/>
<path d="M4.95058 22.0247L4.92649 22.0488L4.51688 21.5428L4.54097 21.5187L4.56507 21.5428C4.58916 21.5669 4.61326 21.591 4.63735 21.591C4.66145 21.591 4.68554 21.591 4.68554 21.591C4.70964 21.591 4.73373 21.5669 4.78192 21.5187L5.43248 21.0368C5.48067 20.9887 5.50477 20.9646 5.52886 20.9646C5.52886 20.9405 5.52886 20.9405 5.52886 20.9164C5.52886 20.8923 5.50477 20.8682 5.48067 20.8441L5.45658 20.82L5.48067 20.7959L5.89029 21.3019L5.86619 21.326L5.8421 21.3019C5.818 21.2778 5.79391 21.2537 5.76981 21.2537C5.74572 21.2537 5.72162 21.2537 5.72162 21.2537C5.69753 21.2537 5.67343 21.2778 5.62524 21.326L4.97468 21.8079C4.92649 21.8561 4.9024 21.8802 4.8783 21.8802C4.8783 21.9043 4.8783 21.9043 4.8783 21.9284C4.8783 21.9525 4.9024 21.9765 4.92649 22.0006L4.95058 22.0247Z" fill="#A4ABB6"/>
<path d="M6.56494 21.9521L7.04684 22.3859L7.02275 22.41L6.99865 22.3859C6.97456 22.3618 6.92637 22.3377 6.92637 22.3377C6.90227 22.3377 6.87818 22.3377 6.87818 22.3377C6.85408 22.3377 6.82999 22.3618 6.7818 22.434L6.34809 22.8678C6.2758 22.94 6.22761 23.0123 6.20352 23.0364C6.17942 23.0846 6.17942 23.1087 6.20352 23.1569C6.20352 23.2051 6.25171 23.2533 6.2758 23.2774C6.32399 23.3256 6.37218 23.3497 6.44447 23.3737C6.49266 23.3737 6.56494 23.3737 6.61313 23.3497C6.66132 23.3256 6.73361 23.2774 6.82999 23.181L7.19141 22.8196C7.2396 22.7714 7.2637 22.7473 7.2637 22.7232C7.2637 22.6991 7.2637 22.675 7.2637 22.6509C7.2637 22.6268 7.2396 22.6027 7.19141 22.5545L7.21551 22.5304L7.52874 22.8196L7.50465 22.8437L7.48055 22.8196C7.45645 22.7955 7.43236 22.7714 7.40826 22.7714C7.38417 22.7714 7.36008 22.7714 7.33598 22.7714C7.31189 22.7714 7.28779 22.7955 7.2637 22.8437L6.92637 23.181C6.82999 23.2774 6.73361 23.3497 6.68542 23.3737C6.61313 23.3978 6.54085 23.4219 6.44447 23.3978C6.34809 23.3737 6.25171 23.3256 6.15533 23.2533C6.08304 23.181 6.03485 23.1087 6.01076 23.0605C5.98666 22.9882 5.96257 22.9159 5.98667 22.8437C6.01076 22.7714 6.05895 22.6991 6.13123 22.6268L6.56494 22.1931C6.61313 22.1449 6.63723 22.1208 6.66132 22.0967C6.66132 22.0726 6.66132 22.0485 6.66132 22.0485C6.61313 22.0244 6.58904 22.0003 6.56494 21.9521Z" fill="#A4ABB6"/>
<path d="M8.01064 24.0002L7.81788 24.2893C7.79379 24.3375 7.76969 24.3857 7.76969 24.4098C7.76969 24.4339 7.76969 24.458 7.79379 24.458C7.81788 24.4821 7.84198 24.5062 7.89017 24.5303L7.86607 24.5544L7.31189 24.2412L7.33598 24.2171C7.38417 24.2412 7.43236 24.2653 7.45646 24.2653C7.48055 24.2653 7.50465 24.2653 7.50465 24.2412C7.52874 24.2412 7.55284 24.193 7.57693 24.1448L8.01064 23.4701C8.03474 23.4219 8.05883 23.3737 8.05883 23.3496C8.05883 23.3256 8.05883 23.3015 8.03474 23.3015C8.01064 23.2774 7.98655 23.2533 7.93836 23.2292L7.96245 23.2051L8.46845 23.4942C8.58892 23.5665 8.6853 23.6388 8.73349 23.687C8.78168 23.7352 8.80577 23.8075 8.82987 23.8797C8.82987 23.952 8.82987 24.0243 8.78168 24.0725C8.73349 24.1448 8.6612 24.193 8.56483 24.2171C8.51664 24.2171 8.44435 24.2171 8.37207 24.193L8.42026 24.699C8.42026 24.7712 8.42026 24.7953 8.44435 24.8194C8.44435 24.8435 8.46845 24.8676 8.49254 24.8917L8.46845 24.9158L8.13112 24.7231L8.08293 24.0484L8.01064 24.0002ZM8.32388 23.4942L8.03474 23.952L8.08293 23.9761C8.15521 24.0243 8.2275 24.0484 8.25159 24.0484C8.29978 24.0484 8.34797 24.0484 8.37207 24.0243C8.42026 24.0002 8.44435 23.9761 8.49254 23.9038C8.54073 23.8315 8.56483 23.7593 8.54073 23.687C8.51664 23.6147 8.46845 23.5665 8.39616 23.5183L8.32388 23.4942Z" fill="#A4ABB6"/>
<path d="M9.89003 24.1931L9.91412 24.6991H9.93822C10.0105 24.6991 10.0828 24.675 10.1069 24.6268C10.131 24.5786 10.1551 24.5063 10.1551 24.4099H10.1792L10.2274 25.0364H10.2033C10.1792 24.9641 10.1792 24.9159 10.1551 24.8677C10.131 24.8195 10.1069 24.7954 10.0587 24.7954C10.0346 24.7713 9.98641 24.7713 9.91412 24.7713L9.93822 25.1087C9.93822 25.181 9.93822 25.205 9.96231 25.2291C9.96231 25.2532 9.98641 25.2532 9.98641 25.2532C10.0105 25.2532 10.0346 25.2532 10.0587 25.2532H10.131C10.2515 25.2532 10.3478 25.205 10.4201 25.1569C10.4924 25.1087 10.5406 25.0123 10.5647 24.9159H10.5888L10.5647 25.3014L9.45632 25.3737V25.3496H9.50451C9.5527 25.3496 9.57679 25.3496 9.60089 25.3255C9.62498 25.3255 9.62498 25.3014 9.62498 25.2773C9.62498 25.2532 9.62498 25.2291 9.62498 25.1569L9.57679 24.3617C9.57679 24.3135 9.57679 24.2653 9.57679 24.2653C9.57679 24.2413 9.5527 24.2412 9.5286 24.2172C9.50451 24.1931 9.48041 24.1931 9.43222 24.1931H9.38403V24.169L10.4442 24.0967L10.4683 24.4581H10.4442C10.4201 24.3617 10.396 24.3135 10.3478 24.2653C10.3237 24.2172 10.2755 24.1931 10.2033 24.1931C10.1792 24.1931 10.1069 24.1931 10.0105 24.1931H9.89003Z" fill="#A4ABB6"/>
<path d="M11.5044 23.6144L12.4682 23.9276L12.1791 23.4939C12.1309 23.4216 12.1068 23.3975 12.0586 23.3975C12.0104 23.3734 11.9622 23.3975 11.914 23.4216L11.8899 23.3975L12.2514 23.1807L12.2755 23.2048C12.2273 23.2289 12.2032 23.2529 12.2032 23.277C12.2032 23.3011 12.1791 23.3252 12.2032 23.3493C12.2032 23.3734 12.2273 23.4216 12.2514 23.4698L12.8296 24.3131L12.8055 24.3372L11.5044 23.9276L11.9381 24.5782C11.9863 24.6264 12.0104 24.6745 12.0586 24.6745C12.1068 24.6745 12.1309 24.6745 12.1791 24.6505L12.2032 24.6264L12.2273 24.6505L11.8417 24.8914L11.8176 24.8673C11.8658 24.8191 11.914 24.795 11.914 24.7468C11.914 24.6986 11.914 24.6745 11.8658 24.6023L11.3839 23.8794L11.3358 23.8553C11.2876 23.8312 11.2635 23.8312 11.2394 23.8312C11.2153 23.8312 11.1912 23.8553 11.143 23.8553L11.1189 23.8312L11.5044 23.6144Z" fill="#A4ABB6"/>
<path d="M13.4802 22.0957L13.7934 22.3848L13.7693 22.4089C13.6729 22.3367 13.6007 22.3126 13.5043 22.3126C13.4079 22.3126 13.3356 22.3367 13.2633 22.4089C13.2151 22.4571 13.191 22.5053 13.191 22.5535C13.191 22.6017 13.191 22.6499 13.2392 22.674C13.2633 22.6981 13.2874 22.6981 13.3115 22.7222C13.3356 22.7222 13.3838 22.7222 13.432 22.7222C13.4561 22.7222 13.5525 22.6981 13.6488 22.674C13.8175 22.6258 13.938 22.6017 14.0103 22.6258C14.0826 22.6258 14.1548 22.674 14.2271 22.7222C14.2994 22.7945 14.3235 22.8908 14.3235 22.9872C14.3235 23.0836 14.2753 23.18 14.1789 23.2764C14.1548 23.3004 14.1307 23.3245 14.0826 23.3486C14.0585 23.3727 14.0103 23.3968 13.9621 23.3968C13.938 23.3968 13.9139 23.4209 13.8898 23.4209C13.8898 23.4209 13.8657 23.445 13.8657 23.4691C13.8657 23.4932 13.8657 23.5173 13.8657 23.5414L13.8416 23.5655L13.5043 23.2282L13.5284 23.2041C13.6488 23.2764 13.7452 23.3245 13.8657 23.3245C13.9621 23.3245 14.0585 23.3004 14.1307 23.2282C14.1789 23.18 14.203 23.1318 14.203 23.0836C14.203 23.0354 14.1789 22.9872 14.1548 22.939C14.1307 22.9149 14.1067 22.9149 14.0826 22.8908C14.0585 22.8908 14.0103 22.8908 13.9862 22.8908C13.938 22.8908 13.8898 22.9149 13.7934 22.939C13.6729 22.9872 13.5766 22.9872 13.5043 23.0113C13.432 23.0113 13.3838 23.0113 13.3356 22.9872C13.2874 22.9631 13.2392 22.939 13.191 22.8908C13.1188 22.8185 13.0947 22.7463 13.0947 22.6258C13.0947 22.5294 13.1429 22.433 13.2151 22.3607C13.2392 22.3367 13.2874 22.3126 13.3115 22.2885C13.3356 22.2644 13.3838 22.2644 13.4079 22.2403C13.4561 22.2162 13.4802 22.2162 13.5043 22.1921L13.5284 22.168C13.4802 22.168 13.4802 22.1439 13.4802 22.0957Z" fill="#A4ABB6"/>
<path d="M15.6246 21.6874L15.6487 21.7115L15.2391 22.1934L15.215 22.1693L15.2391 22.1452C15.2632 22.1211 15.2873 22.097 15.2873 22.0729C15.2873 22.0488 15.2873 22.0488 15.2873 22.0247C15.2873 22.0006 15.2632 21.9765 15.1909 21.9524L14.5404 21.4464C14.4922 21.3982 14.444 21.3741 14.444 21.3741C14.4199 21.3741 14.3958 21.3741 14.3958 21.3741C14.3717 21.3741 14.3476 21.3982 14.3235 21.4223L14.2994 21.4464L14.2753 21.4223L14.6849 20.9404L14.709 20.9645L14.6849 20.9886C14.6608 21.0127 14.6368 21.0368 14.6368 21.0609C14.6368 21.085 14.6368 21.085 14.6368 21.1091C14.6368 21.1332 14.6608 21.1573 14.7331 21.1814L15.3837 21.6874C15.4319 21.7356 15.4801 21.7597 15.4801 21.7597C15.5042 21.7597 15.5283 21.7597 15.5283 21.7597C15.5524 21.7597 15.5765 21.7356 15.6006 21.7115L15.6246 21.6874Z" fill="#A4ABB6"/>
<path d="M15.721 19.4697L16.0825 19.6866L16.0584 19.7107C15.962 19.6625 15.8656 19.6625 15.7692 19.6866C15.6728 19.7107 15.6006 19.7589 15.5524 19.8312C15.5283 19.8793 15.5042 19.9275 15.5042 19.9757C15.5042 20.0239 15.5283 20.048 15.5765 20.0721C15.6006 20.0962 15.6247 20.0962 15.6487 20.0962C15.6728 20.0962 15.721 20.0962 15.7692 20.0721C15.7933 20.048 15.8656 20.0239 15.962 19.9516C16.1066 19.8793 16.227 19.8312 16.2993 19.8071C16.3716 19.8071 16.468 19.8071 16.5403 19.8552C16.6366 19.9034 16.6848 19.9998 16.7089 20.0962C16.733 20.1926 16.7089 20.313 16.6366 20.4094C16.6125 20.4335 16.5885 20.4817 16.5644 20.5058C16.5403 20.5299 16.4921 20.554 16.4439 20.6022C16.4198 20.6263 16.3957 20.6263 16.3957 20.6504C16.3957 20.6745 16.3716 20.6745 16.3957 20.6986C16.3957 20.7227 16.3957 20.7468 16.4198 20.7709L16.3957 20.7949L15.9861 20.554L16.0102 20.5299C16.1306 20.5781 16.2511 20.5781 16.3475 20.554C16.4439 20.5299 16.5162 20.4817 16.5644 20.4094C16.6125 20.3612 16.6125 20.289 16.6125 20.2408C16.6125 20.1926 16.5644 20.1444 16.5403 20.1203C16.5162 20.0962 16.4921 20.0962 16.4439 20.0962C16.4198 20.0962 16.3716 20.0962 16.3475 20.1203C16.2993 20.1444 16.2511 20.1685 16.1788 20.2167C16.0584 20.289 15.9861 20.313 15.9138 20.3371C15.8415 20.3612 15.7933 20.3612 15.7451 20.3612C15.6969 20.3612 15.6247 20.3371 15.5765 20.313C15.4801 20.2649 15.4319 20.1926 15.4078 20.0962C15.3837 19.9998 15.4078 19.9034 15.456 19.8071C15.4801 19.783 15.5042 19.7348 15.5283 19.7107C15.5524 19.6866 15.5765 19.6625 15.6247 19.6384C15.6728 19.6143 15.6969 19.5902 15.6969 19.5902C15.6969 19.5661 15.6969 19.5661 15.6969 19.542C15.7451 19.542 15.7451 19.5179 15.721 19.4697Z" fill="#A4ABB6"/>
<path d="M12.9019 1.56713L12.7091 1.90446L12.661 1.88036C12.7091 1.78398 12.7091 1.7117 12.6851 1.61532C12.661 1.51894 12.6128 1.47075 12.5646 1.42256C12.5164 1.39846 12.4682 1.39846 12.42 1.39846C12.3718 1.39846 12.3477 1.42256 12.3236 1.47075C12.2995 1.49484 12.2995 1.51894 12.2995 1.54303C12.2995 1.56713 12.2995 1.61532 12.3236 1.66351C12.3477 1.6876 12.3718 1.75989 12.42 1.85627C12.4923 1.97674 12.5405 2.09722 12.5646 2.1695C12.5646 2.24179 12.5646 2.31407 12.5164 2.38635C12.4682 2.45864 12.3959 2.53092 12.2754 2.53092C12.1791 2.55502 12.0827 2.53092 11.9622 2.45864C11.9381 2.43454 11.914 2.41045 11.8899 2.38635C11.8658 2.36226 11.8417 2.33817 11.8176 2.28998C11.7935 2.26588 11.7935 2.24179 11.7694 2.24179C11.7454 2.24179 11.7454 2.24179 11.7213 2.24179C11.6972 2.24179 11.6731 2.24179 11.649 2.26588L11.6249 2.24179L11.8658 1.85627L11.8899 1.88036C11.8417 2.00084 11.8417 2.09722 11.8658 2.1936C11.8899 2.28997 11.9381 2.36226 12.0104 2.41045C12.0586 2.43454 12.1068 2.45864 12.1791 2.45864C12.2272 2.45864 12.2754 2.43454 12.2995 2.38635C12.3236 2.36226 12.3236 2.33816 12.3236 2.31407C12.3236 2.28997 12.3236 2.24179 12.2995 2.21769C12.2754 2.1936 12.2513 2.12131 12.2032 2.04903C12.1309 1.95265 12.1068 1.88036 12.0827 1.80808C12.0586 1.75989 12.0586 1.6876 12.0586 1.63941C12.0586 1.59122 12.0827 1.54303 12.1068 1.49484C12.155 1.42256 12.2272 1.37437 12.3236 1.35027C12.42 1.32618 12.5164 1.35027 12.5887 1.39846C12.6128 1.42256 12.661 1.44665 12.6851 1.47075C12.7091 1.49484 12.7332 1.51894 12.7573 1.56713C12.7814 1.61532 12.8055 1.61532 12.8055 1.63941C12.8296 1.63941 12.8296 1.63941 12.8537 1.63941C12.8296 1.59122 12.8537 1.59122 12.9019 1.56713Z" fill="#A4ABB6"/>
<path d="M14.5645 3.0373L14.3476 3.25416L14.3235 3.23006C14.3717 3.15778 14.3717 3.10959 14.3958 3.08549C14.3958 3.0373 14.3958 3.01321 14.3717 2.96502C14.3717 2.94092 14.3476 2.91683 14.2994 2.86864L14.2271 2.79635L13.6007 3.44691C13.5525 3.4951 13.5284 3.5192 13.5284 3.54329C13.5284 3.56739 13.5284 3.56739 13.5284 3.59148C13.5284 3.61558 13.5525 3.63967 13.5766 3.66377L13.6007 3.68786L13.5766 3.71196L13.1429 3.27825L13.1669 3.25416L13.191 3.27825C13.2151 3.30235 13.2392 3.32644 13.2633 3.32644C13.2874 3.32644 13.2874 3.32644 13.3115 3.32644C13.3356 3.32644 13.3597 3.30235 13.3838 3.25416L14.0103 2.60359L13.938 2.5554C13.8898 2.50721 13.8175 2.48312 13.7693 2.48312C13.697 2.48312 13.6248 2.50721 13.5525 2.5554L13.5284 2.53131L13.7452 2.31445L14.5645 3.0373Z" fill="#A4ABB6"/>
<path d="M15.2391 3.73601L15.6246 4.19381L15.6005 4.21791L15.5764 4.19381C15.5523 4.16972 15.5283 4.14562 15.5042 4.12153C15.4801 4.12153 15.4801 4.12153 15.456 4.12153C15.4319 4.12153 15.4078 4.14562 15.3596 4.19381L14.9259 4.55524C14.8536 4.62752 14.8054 4.67571 14.7813 4.69981C14.7572 4.7239 14.7572 4.77209 14.7572 4.82028C14.7572 4.86847 14.7813 4.91666 14.8054 4.94076C14.8536 4.98895 14.9018 5.01304 14.95 5.03713C14.9982 5.06123 15.0464 5.06123 15.0945 5.03713C15.1427 5.01304 15.215 4.98895 15.3114 4.89257L15.6728 4.60343C15.721 4.57933 15.7451 4.53114 15.7451 4.53114C15.7451 4.50705 15.7692 4.48295 15.7451 4.45886C15.7451 4.43476 15.721 4.38657 15.6969 4.36248L15.721 4.33838L15.9861 4.65162L15.962 4.67571L15.9379 4.65162C15.9138 4.62752 15.8897 4.60343 15.8656 4.60343C15.8415 4.60343 15.8174 4.60343 15.7933 4.60343C15.7692 4.60343 15.7451 4.62752 15.721 4.65162L15.3837 4.94076C15.2873 5.03714 15.1909 5.08533 15.1427 5.10942C15.0945 5.13352 15.0223 5.13352 14.9259 5.10942C14.8536 5.08533 14.7572 5.03714 14.6849 4.94076C14.6126 4.86847 14.5886 4.79619 14.5645 4.7239C14.5404 4.65162 14.5404 4.57933 14.5645 4.50705C14.5886 4.43476 14.6367 4.38657 14.709 4.31429L15.1427 3.95286C15.1909 3.90467 15.215 3.88058 15.2391 3.85648C15.2391 3.83239 15.2391 3.83239 15.2391 3.80829C15.2391 3.7842 15.215 3.7601 15.1909 3.71191L15.2391 3.73601Z" fill="#A4ABB6"/>
<path d="M15.5283 6.04964L15.5524 6.02554L15.5764 6.04964C15.6005 6.07373 15.6005 6.09783 15.6246 6.09783C15.6487 6.09783 15.6728 6.12192 15.6728 6.12192C15.6969 6.12192 15.721 6.09783 15.7692 6.07373L16.4198 5.68821C16.468 5.66412 16.4921 5.64003 16.5162 5.61593C16.5162 5.59184 16.5402 5.59184 16.5402 5.56774C16.5402 5.54365 16.5402 5.51955 16.5162 5.49546L16.4921 5.47136L16.5162 5.44727L16.7812 5.90507C16.8535 6.02554 16.9017 6.12192 16.9017 6.2183C16.9258 6.33878 16.9017 6.43516 16.8535 6.53154C16.8053 6.62792 16.733 6.7002 16.6125 6.77249C16.5402 6.82068 16.468 6.84477 16.3957 6.84477C16.3234 6.86887 16.2511 6.86887 16.2029 6.84477C16.1547 6.82068 16.0824 6.82068 16.0343 6.77249C15.9861 6.74839 15.9379 6.7002 15.8656 6.62792C15.8415 6.60382 15.8174 6.55563 15.7692 6.48335L15.5283 6.04964ZM16.7089 5.85688L15.9379 6.31468C15.8897 6.33878 15.8656 6.36287 15.8656 6.36287V6.38697C15.8656 6.41106 15.8656 6.43516 15.8897 6.45925C15.9379 6.53154 16.0102 6.57973 16.0824 6.60382C16.2029 6.62792 16.3234 6.57973 16.4921 6.48335C16.6125 6.41106 16.7089 6.31468 16.7571 6.2424C16.8053 6.17011 16.8053 6.09783 16.8053 6.04964C16.7812 6.00145 16.7571 5.92916 16.7089 5.85688Z" fill="#A4ABB6"/>
<path d="M16.8053 8.31472L16.7812 8.33882L16.5161 7.78463L16.5402 7.76054L16.5643 7.78463C16.5884 7.80873 16.5884 7.83282 16.6125 7.85692C16.6366 7.85692 16.6366 7.88101 16.6607 7.88101C16.6848 7.88101 16.7089 7.85692 16.7571 7.83282L17.4558 7.51959C17.504 7.49549 17.5522 7.4714 17.5522 7.4714C17.5522 7.4473 17.5763 7.4473 17.5763 7.42321C17.5763 7.39911 17.5763 7.37502 17.5522 7.35092L17.5281 7.32683L17.5522 7.30273L17.8173 7.85692L17.7932 7.88101L17.7691 7.85692C17.745 7.83282 17.745 7.80873 17.7209 7.78463C17.6968 7.78463 17.6968 7.76054 17.6727 7.76054C17.6486 7.76054 17.6245 7.78463 17.5763 7.80873L16.8776 8.12196C16.8294 8.14606 16.7812 8.17015 16.7812 8.17015C16.7812 8.19425 16.7571 8.19425 16.7571 8.21834C16.7571 8.24244 16.7571 8.26653 16.7812 8.29063L16.8053 8.31472Z" fill="#A4ABB6"/>
<path d="M18.3474 9.39823C18.3955 9.5669 18.3955 9.73556 18.2992 9.88013C18.2269 10.0247 18.0823 10.1211 17.9136 10.1693C17.7691 10.2175 17.6245 10.1934 17.504 10.1452C17.3354 10.0729 17.2149 9.92832 17.1667 9.73556C17.1185 9.5428 17.1426 9.35004 17.239 9.20547C17.3354 9.085 17.4317 9.01271 17.6004 8.96452C17.7691 8.91633 17.9136 8.94043 18.0582 9.01271C18.2269 9.085 18.3233 9.22957 18.3474 9.39823ZM18.2992 9.42233C18.2751 9.32595 18.2028 9.25366 18.0823 9.22957C17.9859 9.20547 17.8655 9.22957 17.6968 9.25366C17.504 9.30185 17.3595 9.37414 17.2872 9.47052C17.239 9.5428 17.2149 9.61509 17.239 9.68737C17.2631 9.73556 17.2872 9.78375 17.3113 9.80785C17.3595 9.85604 17.4317 9.88013 17.504 9.88013C17.6004 9.88013 17.6968 9.88013 17.8173 9.83194C17.9618 9.78375 18.0823 9.75966 18.1305 9.71147C18.2028 9.66328 18.251 9.61509 18.251 9.5669C18.3233 9.51871 18.3233 9.47052 18.2992 9.42233Z" fill="#A4ABB6"/>
<path d="M18.1064 11.4471L17.7691 11.4953C17.6968 11.4953 17.6727 11.5194 17.6486 11.5194C17.6245 11.5194 17.6245 11.5435 17.6245 11.5676C17.6245 11.5916 17.6245 11.6157 17.6245 11.688H17.6004L17.5281 11.0857H17.5522C17.5522 11.1338 17.5763 11.182 17.5763 11.182C17.6004 11.2061 17.6004 11.2061 17.6245 11.2061C17.6486 11.2061 17.6727 11.2061 17.745 11.2061L18.4919 11.1098C18.5642 11.1098 18.5883 11.0857 18.6124 11.0857C18.6365 11.0857 18.6365 11.0616 18.6365 11.0375C18.6365 11.0134 18.6365 10.9893 18.6365 10.917H18.6606L18.7329 11.4471C18.757 11.5917 18.757 11.688 18.7329 11.7603C18.7329 11.8326 18.6847 11.8808 18.6365 11.929C18.5883 11.9772 18.5401 12.0013 18.4678 12.0013C18.3715 12.0013 18.2992 12.0013 18.251 11.929C18.2028 11.9049 18.1787 11.8326 18.1546 11.7844L17.8173 12.1458C17.7691 12.194 17.745 12.2181 17.7209 12.2422C17.6968 12.2663 17.6968 12.2904 17.6968 12.3386H17.6727L17.6245 11.9772L18.1064 11.5435V11.4471ZM18.6847 11.3989L18.1787 11.4712V11.5194C18.1787 11.5917 18.2028 11.6639 18.2269 11.688C18.251 11.7362 18.2751 11.7603 18.3233 11.7603C18.3715 11.7844 18.4196 11.7844 18.4678 11.7844C18.5642 11.7844 18.6124 11.7362 18.6606 11.688C18.7088 11.6398 18.7088 11.5676 18.7088 11.4712L18.6847 11.3989Z" fill="#A4ABB6"/>
<path d="M18.8774 13.1338L18.8534 13.7362H18.8293V13.7121C18.8293 13.6639 18.8293 13.6398 18.8293 13.6157C18.8293 13.5916 18.8052 13.5916 18.7811 13.5675C18.757 13.5675 18.7329 13.5434 18.6606 13.5434L18.0582 13.5193C17.9618 13.5193 17.8896 13.5193 17.8414 13.5434C17.8173 13.5675 17.7691 13.5916 17.745 13.6157C17.7209 13.6398 17.6968 13.688 17.6968 13.7603C17.6968 13.8325 17.6968 13.8807 17.7209 13.9289C17.745 13.9771 17.7932 14.0012 17.8414 14.0253C17.8896 14.0494 17.9859 14.0735 18.1064 14.0735L18.5883 14.0976C18.6365 14.0976 18.6847 14.0976 18.7088 14.0976C18.7329 14.0976 18.757 14.0735 18.757 14.0494C18.7811 14.0253 18.7811 13.9771 18.7811 13.953H18.8052L18.7811 14.3626H18.757V14.3385C18.757 14.3144 18.757 14.2663 18.7329 14.2663C18.7088 14.2422 18.7088 14.2181 18.6847 14.2181C18.6606 14.2181 18.6365 14.194 18.5883 14.194L18.1546 14.1699C18.01 14.1699 17.9137 14.1458 17.8655 14.1217C17.8173 14.0976 17.745 14.0494 17.6968 13.9771C17.6486 13.9048 17.6245 13.8084 17.6245 13.688C17.6245 13.5916 17.6486 13.5193 17.6727 13.447C17.7209 13.3747 17.7691 13.3265 17.8173 13.3025C17.8655 13.2784 17.9618 13.2543 18.0582 13.2784L18.6365 13.3025C18.7088 13.3025 18.757 13.3025 18.757 13.3025C18.7811 13.3025 18.7811 13.2784 18.8052 13.2543C18.8052 13.2302 18.8293 13.2061 18.8293 13.1579L18.8774 13.1338Z" fill="#A4ABB6"/>
<path d="M17.7932 15.9052L18.4919 16.363L18.3956 16.8208H18.3715V16.7726C18.3715 16.7485 18.3715 16.7003 18.3715 16.6762C18.3715 16.6521 18.3474 16.6521 18.3474 16.628C18.3233 16.628 18.2992 16.6039 18.251 16.6039L17.5041 16.4594C17.4559 16.4594 17.4077 16.4353 17.3836 16.4353C17.3595 16.4353 17.3595 16.4594 17.3354 16.4594C17.3113 16.4835 17.3113 16.5076 17.3113 16.5317V16.5798H17.2872L17.4077 15.9775H17.4318V16.0257C17.4318 16.0498 17.4318 16.0979 17.4318 16.122C17.4318 16.1461 17.4559 16.1461 17.4559 16.1702C17.48 16.1702 17.5041 16.1943 17.5522 16.1943L18.3956 16.363L17.4318 15.7124V15.6883L18.5642 15.4474L17.745 15.2787C17.6968 15.2787 17.6486 15.2546 17.6486 15.2546C17.6245 15.2546 17.6004 15.2787 17.5763 15.2787C17.5522 15.3028 17.5282 15.3269 17.5282 15.3992H17.5041L17.5763 15.0137H17.6004C17.6004 15.0378 17.6004 15.0619 17.6004 15.086C17.6004 15.1101 17.6245 15.1341 17.6245 15.1341C17.6486 15.1582 17.6486 15.1582 17.6727 15.1823C17.6727 15.1823 17.6968 15.1823 17.7691 15.2064L18.4919 15.351C18.5401 15.351 18.5883 15.3751 18.6124 15.3751C18.6365 15.3751 18.6365 15.351 18.6606 15.351C18.6847 15.3269 18.6847 15.3028 18.6847 15.2787V15.2305H18.7088L18.6124 15.6883L17.7932 15.9052Z" fill="#A4ABB6"/>
<path d="M17.4559 18.5302C17.4318 18.6025 17.3836 18.6266 17.3113 18.6507C17.239 18.6748 17.1908 18.6748 17.1185 18.6507C17.0462 18.6266 17.0221 18.5784 16.9981 18.5061C16.974 18.4338 16.974 18.3856 16.9981 18.3134C17.0221 18.2411 17.0703 18.217 17.1426 18.1929C17.2149 18.1688 17.2631 18.1688 17.3354 18.1929C17.4077 18.217 17.4318 18.2652 17.4559 18.3374C17.48 18.4097 17.48 18.4579 17.4559 18.5302Z" fill="#A4ABB6"/>
<path d="M10.0587 26C10.0346 26 10.0346 26 10.0587 26C8.80577 26 7.02275 24.9157 5.3602 23.2291C4.01088 21.8557 0.902638 18.0487 0.999017 12.7719C1.0954 7.56738 4.27593 3.95314 5.62524 2.65202C7.33598 1.01356 9.26358 -0.046613 10.5165 0.0015769C12.0104 0.0256718 14.3235 1.61594 16.1306 3.88086C17.4077 5.49522 19.5762 8.82032 19.4798 13.1092C19.3834 17.3981 17.1185 20.6991 15.7692 22.2653C13.8898 24.4579 11.5285 26 10.0587 26ZM10.4683 0.122052C9.23948 0.122052 7.38417 1.13404 5.72162 2.7484C4.37231 4.04952 1.21587 7.61557 1.11949 12.7719C1.02311 18.0005 4.10726 21.7593 5.45658 23.1327C7.04684 24.7712 8.85396 25.8554 10.0346 25.8554C10.0346 25.8554 10.0346 25.8554 10.0587 25.8554C12.7092 25.8554 19.2148 20.3618 19.3594 13.0851C19.4557 8.84441 17.3113 5.54341 16.0343 3.95314C14.2512 1.73641 11.9863 0.146146 10.5165 0.122052C10.5165 0.122052 10.4924 0.122052 10.4683 0.122052ZM9.96233 23.2773C8.58892 23.1568 5.38429 21.2051 3.84222 16.9403C2.87842 14.2417 2.87842 11.7358 3.86631 9.03717C4.58916 6.98911 7.40827 3.01344 10.3719 2.43516H10.396H10.4201C12.1309 2.84478 13.5525 4.21819 14.4681 5.27837C15.5042 6.5313 16.3957 8.04928 16.7571 9.27812C17.5763 12.0009 17.4799 14.4585 16.468 17.2054C14.7331 21.3497 11.5767 23.2773 9.96233 23.2773ZM9.96233 23.1327C11.5285 23.1327 14.6367 21.2292 16.3475 17.1572C17.3354 14.4344 17.4318 12.0249 16.6125 9.30222C16.2511 8.09747 15.3837 6.60359 14.3476 5.35065C13.4561 4.29047 12.0586 2.94116 10.396 2.55564C8.75758 2.89297 7.31189 4.21819 6.37219 5.30246C5.3361 6.50721 4.3964 7.977 3.98679 9.08536C3.02299 11.7599 3.02299 14.2417 3.96269 16.8921C4.78192 19.157 6.05895 20.6268 6.97456 21.4702C8.22749 22.6267 9.33586 23.0845 9.96233 23.1327ZM10.0587 22.1448H9.93823L9.84186 21.7593V19.7835C9.625 19.7594 9.40815 19.6871 9.21539 19.5908C8.80577 19.3739 8.58892 19.0125 8.58892 18.5788L8.63711 16.0488L9.91414 16.0729V12.796C9.72138 12.7237 9.55272 12.6755 9.40815 12.6755C9.26358 12.6514 8.97444 12.7237 8.6853 12.796C8.39616 12.8683 8.10702 12.9406 7.91426 12.9406C7.7215 12.9406 7.55284 12.8683 7.38417 12.796C7.28779 12.7719 7.19141 12.7237 7.11913 12.6996C6.97456 12.6996 6.92637 12.6996 6.85408 12.7719C6.85408 12.796 6.85408 12.8201 6.85408 12.8442C6.85408 12.9406 6.80589 13.0369 6.73361 13.0851C6.68542 13.1333 6.61314 13.1574 6.54085 13.1815L7.84198 16.0247H7.96245L7.86607 16.1452C7.57693 16.4584 6.87818 16.8198 6.39628 16.7957C5.74572 16.8198 5.19153 16.3138 4.97468 16.097L4.99877 16.0247H4.97468L6.39628 13.2056H6.42038C6.34809 13.1815 6.2999 13.1574 6.25171 13.1092C6.17943 13.0369 6.15533 12.9406 6.15533 12.8442C6.15533 12.7478 6.20352 12.6514 6.27581 12.6032C6.324 12.555 6.37219 12.5309 6.44447 12.5068C6.46856 12.4105 6.56495 12.3382 6.58904 12.3141C6.7818 12.2177 7.14322 12.29 7.45646 12.3864C7.62512 12.4346 7.84198 12.4827 7.89017 12.4587H7.91426H7.93836C8.2034 12.4827 8.61301 12.3141 8.95034 12.1936C9.19129 12.0972 9.38405 12.0249 9.50453 12.0249C9.6491 12.0249 9.81776 12.0731 9.98642 12.1454V11.8322C9.81776 11.784 9.67319 11.6876 9.57681 11.5671C9.45634 11.4226 9.38405 11.2298 9.40815 11.0611C9.40815 10.9648 9.45634 10.8202 9.52862 10.6997C9.50453 10.6997 9.50453 10.6756 9.48043 10.6756C9.40815 10.6274 9.38405 10.5311 9.38405 10.4106C9.38405 10.3142 9.38405 10.2178 9.38405 10.1455C9.38405 10.0251 9.38405 9.92869 9.38405 9.73593C9.38405 9.68774 9.38405 9.63955 9.40815 9.56726C9.38405 9.59136 9.38405 9.59136 9.38405 9.59136C9.35996 9.61545 9.35996 9.61545 9.31177 9.63955C9.28767 9.66364 9.21539 9.68774 9.1672 9.63955C9.1431 9.61545 9.1431 9.59136 9.11901 9.56726C9.04672 9.59136 8.99853 9.56726 8.95034 9.51907C8.92625 9.49498 8.92625 9.47088 8.92625 9.42269C8.85396 9.42269 8.80577 9.42269 8.78168 9.3745C8.75758 9.35041 8.75758 9.32631 8.75758 9.27812C8.6612 9.30222 8.58892 9.25403 8.54073 9.20584C8.51663 9.15765 8.49254 9.10946 8.54073 9.03717C8.49254 9.03717 8.44435 9.01308 8.42025 8.98898C8.39616 8.96489 8.39616 8.9167 8.39616 8.8926C8.32387 8.8926 8.25159 8.8926 8.2275 8.86851C8.17931 8.82032 8.15521 8.77213 8.15521 8.69985C8.15521 8.65166 8.1793 8.62756 8.2034 8.57937L8.01064 8.62756C7.84198 8.69985 7.7215 8.69985 7.64922 8.67575C7.62512 8.65166 7.60103 8.65166 7.55284 8.60347C7.40827 8.65166 7.2637 8.67575 7.16732 8.60347C7.14322 8.57937 7.11913 8.55527 7.09503 8.53118C6.97456 8.57937 6.85408 8.57937 6.7818 8.53118C6.73361 8.50709 6.70952 8.4589 6.70952 8.41071C6.56495 8.4589 6.44447 8.4348 6.34809 8.38661C6.324 8.36252 6.2999 8.33842 6.27581 8.31433C6.05895 8.36252 5.93848 8.36252 5.86619 8.31433C5.818 8.29023 5.79391 8.24204 5.79391 8.19385C5.74572 8.19385 5.67343 8.21795 5.62524 8.21795H5.57705C5.3361 8.19385 5.19153 8.12157 5.19153 8.00109C5.19153 7.92881 5.23972 7.80833 5.55296 7.78424C6.97456 7.4951 7.38417 7.27824 7.86607 7.0132C8.08293 6.89272 8.29978 6.77225 8.63711 6.62768C8.95034 6.48311 9.26358 6.48311 9.48043 6.65178C9.625 6.74816 9.67319 6.91682 9.6491 7.06139L9.55272 7.977C9.55272 8.02519 9.57681 8.07338 9.60091 8.09747L9.625 8.12157C9.72138 7.88062 9.89004 7.68786 10.0587 7.59148L10.0828 6.14578C10.0587 6.14578 10.0105 6.12169 9.98642 6.12169C9.89005 6.09759 9.81776 6.0735 9.72138 6.0735C9.6491 6.0735 9.57681 6.12169 9.50453 6.16988C9.43224 6.21807 9.33586 6.26626 9.26358 6.26626C9.1431 6.26626 9.04672 6.21807 8.99853 6.09759C8.97444 6.00121 8.99853 5.88074 9.09491 5.80845C9.28767 5.71207 9.60091 5.73617 9.79366 5.76026C9.84186 5.76026 9.91414 5.78436 9.98642 5.80845C10.0105 5.80845 10.0346 5.83255 10.0828 5.83255V5.80845C10.0828 5.76026 10.0587 5.68798 10.0587 5.63979C10.0105 5.20608 9.93824 4.6519 10.2033 4.12181C10.131 4.04952 10.0828 3.95314 10.0828 3.85677C10.0828 3.76039 10.131 3.6881 10.1792 3.61582C10.2515 3.54353 10.3478 3.51944 10.4442 3.51944C10.5406 3.51944 10.637 3.56763 10.6852 3.61582C10.7575 3.6881 10.7816 3.76039 10.7816 3.85677C10.7816 3.95314 10.7334 4.02543 10.6852 4.09771C10.9502 4.6519 10.8538 5.20608 10.7816 5.66388C10.7816 5.73617 10.7575 5.78436 10.7575 5.83255V5.85664C10.7816 5.85664 10.7816 5.85664 10.8057 5.85664C10.8779 5.83255 10.9502 5.83255 10.9984 5.80845C11.2153 5.76026 11.5044 5.78436 11.6972 5.85664C11.7935 5.92893 11.8417 6.0494 11.7935 6.14578C11.7454 6.24216 11.649 6.31445 11.5285 6.29035C11.4321 6.26626 11.3598 6.21807 11.2876 6.16988C11.2153 6.12169 11.143 6.09759 11.0948 6.0735C10.9984 6.0494 10.9261 6.0735 10.8297 6.09759C10.8057 6.09759 10.7816 6.09759 10.7575 6.12169L10.7093 7.59148C10.7816 7.63967 10.8297 7.68786 10.902 7.76014C10.9502 7.80833 11.0225 7.9529 11.0707 8.09747C11.1189 8.12157 11.1189 8.12157 11.1189 8.09747C11.143 8.09747 11.1671 8.04928 11.1671 7.977L11.1189 7.0373C11.0948 6.89273 11.1671 6.74816 11.2876 6.65178C11.5044 6.48311 11.8176 6.50721 12.1309 6.65178C12.4441 6.79635 12.661 6.94092 12.8778 7.06139C13.3356 7.35053 13.7452 7.59148 15.1427 7.92881C15.456 7.977 15.5042 8.09747 15.5042 8.16976C15.5042 8.29023 15.3596 8.36252 15.1186 8.36252H15.0464C14.9982 8.36252 14.9259 8.33842 14.8777 8.33842C14.8536 8.38661 14.8295 8.4348 14.8054 8.4589C14.7331 8.50709 14.5886 8.50709 14.3958 8.4589C14.3717 8.48299 14.3476 8.50709 14.3235 8.53118C14.2271 8.57937 14.1067 8.57937 13.9621 8.53118C13.938 8.57937 13.9139 8.62756 13.8898 8.65166C13.8175 8.69985 13.697 8.69985 13.5766 8.65166C13.5525 8.67575 13.5284 8.69985 13.5043 8.72394C13.4079 8.77213 13.2633 8.77213 13.1188 8.69985C13.0947 8.74804 13.0465 8.77213 13.0224 8.77213C12.926 8.82032 12.8296 8.79623 12.661 8.72394L12.4441 8.62756C12.4682 8.67575 12.4923 8.69985 12.4923 8.74804C12.4923 8.82032 12.4682 8.86851 12.42 8.9167C12.3718 8.94079 12.3236 8.94079 12.2513 8.94079C12.2754 9.01308 12.2754 9.06127 12.2513 9.10946C12.2273 9.13355 12.1791 9.15765 12.1309 9.15765C12.1791 9.22993 12.1791 9.30222 12.1309 9.35041C12.1068 9.3986 12.0345 9.42269 11.914 9.3745C11.914 9.3986 11.8899 9.42269 11.8899 9.44679C11.8417 9.49498 11.7935 9.49498 11.6972 9.47088C11.6972 9.49498 11.6972 9.54317 11.6731 9.56726C11.6249 9.61545 11.5767 9.61545 11.5285 9.61545C11.5285 9.63955 11.5044 9.66364 11.5044 9.66364C11.4803 9.68774 11.4321 9.73593 11.3116 9.63955C11.3116 9.63955 11.2876 9.63955 11.2876 9.61545C11.2635 9.95278 11.2394 10.1696 11.1912 10.5552L11.1671 10.6274H11.143C11.1189 10.6515 11.0707 10.6756 11.0466 10.6756C11.0948 10.7961 11.1189 10.9407 11.1189 11.0611C11.1189 11.3985 10.8538 11.6876 10.5165 11.784V12.1213L10.5647 12.0972C10.7334 12.049 10.8779 12.0008 11.0225 12.0008C11.143 12.0008 11.3357 12.0972 11.5767 12.1936C11.914 12.3382 12.2995 12.5068 12.5887 12.5068H12.6128H12.6369C12.6851 12.5309 12.9019 12.4827 13.0706 12.4587C13.3838 12.3864 13.7452 12.3141 13.938 12.4346C13.9621 12.4587 14.0344 12.5309 14.0585 12.6273C14.203 12.6755 14.3235 12.8201 14.3235 12.9887C14.3235 13.0851 14.2753 13.1815 14.203 13.2297C14.1548 13.2779 14.1067 13.302 14.0585 13.3261L15.3596 16.1693H15.4801L15.3837 16.2897C15.0945 16.603 14.3958 16.9644 13.9139 16.9403C13.2633 16.9644 12.7092 16.4584 12.4923 16.2416L12.5164 16.1693H12.4923L13.8416 13.3502C13.7934 13.3261 13.7211 13.302 13.6729 13.2538C13.6007 13.1815 13.5766 13.0851 13.5766 12.9887C13.5766 12.9406 13.5766 12.9165 13.6007 12.8924C13.5284 12.8201 13.4802 12.8201 13.3356 12.8201C13.2633 12.8442 13.167 12.8683 13.0706 12.8924C12.9019 12.9406 12.7092 13.0128 12.5405 13.0128C12.3477 13.0128 12.0586 12.9406 11.7694 12.8442C11.4803 12.7719 11.1912 12.6755 11.0707 12.6996C10.9261 12.6755 10.7093 12.7478 10.5165 12.796L10.396 16.0488L11.5526 16.097L11.5044 18.627C11.5044 19.0366 11.3116 19.3739 10.9743 19.5908C10.7816 19.7112 10.5406 19.7835 10.2756 19.8076L10.2033 21.8075L10.0587 22.1448ZM10.1069 19.7835C10.131 19.7835 10.131 19.7835 10.1069 19.7835V19.7835ZM8.75758 16.1693L8.70939 18.5547C8.70939 18.9402 8.90215 19.2534 9.26358 19.4462C9.74548 19.7112 10.4442 19.7112 10.8779 19.4462C11.0948 19.3257 11.3598 19.0607 11.3357 18.6029L11.3839 16.2175L8.75758 16.1693ZM12.6851 16.2656C12.926 16.5066 13.3838 16.8198 13.8898 16.7957C14.2753 16.7957 14.8295 16.5548 15.1427 16.3138L12.6851 16.2656ZM5.19153 16.1211C5.43248 16.362 5.89029 16.6753 6.39628 16.6512C6.7818 16.6512 7.33598 16.4102 7.64922 16.1693L5.19153 16.1211ZM13.938 16.1693L15.1668 16.1934L13.9862 13.5911L13.938 16.1693ZM12.6369 16.1211L13.7934 16.1452L13.8416 13.5911L12.6369 16.1211ZM10.2033 16.0488H10.2274L10.3478 12.8442C10.3238 12.8442 10.2997 12.8683 10.2756 12.8683H10.2515L10.2033 16.0488ZM10.0346 16.0488H10.0587L10.131 12.8683C10.1069 12.8442 10.0587 12.8442 10.0346 12.8201V16.0488ZM6.46857 16.0006L7.69741 16.0247L6.51676 13.4465L6.46857 16.0006ZM5.16744 15.9765L6.324 16.0006L6.37219 13.5188L5.16744 15.9765ZM13.7693 12.8442C13.7211 12.8924 13.697 12.9406 13.697 12.9887C13.697 13.0369 13.7211 13.1092 13.7693 13.1574C13.8175 13.2056 13.8657 13.2297 13.938 13.2297C13.9862 13.2297 14.0585 13.2056 14.1067 13.1574C14.1548 13.1092 14.1789 13.061 14.1789 13.0128C14.1789 12.9165 14.1067 12.8201 14.0103 12.796H13.938H13.9139L13.8416 12.8201L13.7693 12.8442ZM6.44447 12.6273C6.39628 12.6273 6.37219 12.6514 6.324 12.6755C6.27581 12.7237 6.25171 12.7719 6.25171 12.8442C6.25171 12.8924 6.27581 12.9646 6.324 13.0128C6.37219 13.061 6.42038 13.0851 6.49266 13.0851C6.54085 13.0851 6.61314 13.061 6.66132 13.0128C6.70951 12.9646 6.73361 12.9165 6.73361 12.8683C6.73361 12.7719 6.68542 12.6996 6.61313 12.6755L6.56494 12.6514L6.44447 12.6273ZM12.5164 12.8924C12.6851 12.8924 12.8296 12.8442 12.9983 12.7719C13.0947 12.7478 13.191 12.6996 13.2874 12.6755C13.4561 12.6755 13.5525 12.6755 13.6489 12.7719L13.6729 12.7478C13.697 12.7237 13.7211 12.7237 13.7452 12.6996H13.7693C13.7934 12.6755 13.8175 12.6755 13.8416 12.6755H13.8657C13.8416 12.6273 13.8175 12.6032 13.8175 12.6032C13.697 12.5309 13.3356 12.6032 13.0706 12.6514C12.8296 12.6996 12.661 12.7237 12.5646 12.6996C12.2754 12.6996 11.8417 12.5309 11.5044 12.3623C11.2875 12.2659 11.0948 12.1695 10.9984 12.1695C10.8779 12.1695 10.7093 12.2177 10.5647 12.2418L10.4201 12.29C10.3478 12.3141 10.2756 12.3382 10.2033 12.3623H10.1792H10.1551C10.0828 12.3382 10.0105 12.3141 9.96233 12.29C9.76957 12.2177 9.55272 12.1454 9.40815 12.1454C9.31177 12.1454 9.11901 12.2177 8.90215 12.3141C8.56482 12.4587 8.13111 12.6273 7.84198 12.6032C7.7456 12.6273 7.57693 12.6032 7.33598 12.5309C7.07094 12.4587 6.70951 12.3864 6.56494 12.4587C6.56494 12.4587 6.54085 12.4827 6.51676 12.5309H6.54085C6.56495 12.5309 6.58904 12.555 6.61313 12.555L6.66132 12.5791L6.7577 12.6755C6.85408 12.6032 6.95046 12.5791 7.09503 12.6032C7.21551 12.6273 7.31189 12.6755 7.40827 12.6996C7.57693 12.7719 7.7215 12.8201 7.89017 12.8201C8.05883 12.8442 8.34797 12.7478 8.61301 12.6996C8.92625 12.6273 9.21539 12.555 9.38405 12.5791C9.60091 12.555 9.89005 12.6755 10.1551 12.796H10.1792H10.2033C10.4924 12.6996 10.7816 12.5791 10.9984 12.6032C11.143 12.5791 11.4321 12.6755 11.7454 12.7719C12.0586 12.796 12.3477 12.8924 12.5164 12.8924ZM10.0587 12.1454C10.1069 12.1695 10.1792 12.1936 10.2274 12.1936C10.2756 12.1695 10.3238 12.1695 10.3719 12.1454V11.8081C10.3238 11.8081 10.2515 11.8322 10.2033 11.8081C10.1551 11.8081 10.1069 11.8081 10.0587 11.784V12.1454ZM9.57681 10.7479C9.50453 10.8443 9.48043 10.9407 9.48043 11.0371C9.45634 11.2298 9.55272 11.3503 9.625 11.4467C9.76957 11.6153 9.98642 11.7117 10.2274 11.7117C10.637 11.7117 10.9743 11.4226 10.9984 11.0611C10.9984 10.8925 10.9502 10.7479 10.9261 10.6997C10.902 10.6997 10.8538 10.6756 10.8297 10.6756C10.8297 10.6756 10.8297 10.6756 10.8297 10.6997V10.7238C10.8297 10.772 10.8057 10.8202 10.7816 10.8443C10.8057 10.9407 10.8057 11.0611 10.8057 11.0852C10.7575 11.3262 10.5647 11.5671 10.2515 11.5671C9.93823 11.5671 9.69729 11.3262 9.69729 11.0611C9.69729 11.013 9.69729 10.9648 9.69729 10.9407C9.625 10.8684 9.57681 10.8202 9.57681 10.7479ZM9.79366 10.9648C9.79366 10.9889 9.79366 11.013 9.79366 11.0371C9.79366 11.2298 9.98642 11.3985 10.2274 11.3985C10.4924 11.3985 10.6129 11.2057 10.6611 11.0371C10.6611 11.013 10.6611 10.9889 10.6611 10.9648C10.637 10.9648 10.6129 10.9648 10.5647 10.9648C10.5406 10.9648 10.5406 10.9648 10.5165 10.9648C10.4683 10.9648 10.4201 10.9407 10.396 10.9166C10.3719 10.9166 10.3719 10.8925 10.3719 10.8925C10.3478 10.9407 10.2997 10.9648 10.2274 10.9889C10.131 11.013 10.0346 10.9648 9.98642 10.8925C9.96233 10.9166 9.91414 10.9407 9.86595 10.9407C9.84186 10.9648 9.81776 10.9648 9.79366 10.9648ZM10.1069 10.8443C10.131 10.8443 10.131 10.8443 10.1551 10.8443C10.1792 10.8443 10.2033 10.8202 10.2515 10.7961L10.2756 10.001H10.4201V10.7961C10.4442 10.7961 10.4442 10.8202 10.4442 10.8202C10.4683 10.8202 10.4683 10.8443 10.4924 10.8443H10.5165H10.5406C10.5647 10.8443 10.5888 10.8443 10.6129 10.8202L10.637 10.7961C10.637 10.772 10.6611 10.7479 10.6611 10.6997V10.6033C10.6611 10.5552 10.6611 10.5311 10.6611 10.4829L10.7093 9.54317H10.8538L10.8057 10.4829C10.8057 10.507 10.8297 10.5311 10.8538 10.5311C10.8538 10.5311 10.8779 10.5311 10.8779 10.5552C10.902 10.5552 10.902 10.5552 10.9261 10.5552C10.902 10.5311 10.902 10.5311 10.8779 10.507C10.8297 10.4347 10.8297 10.3142 10.8779 10.1696L10.902 10.1214L11.0948 10.1455C11.1189 9.97688 11.1189 9.83231 11.1189 9.63955L10.9743 8.79623C10.9743 8.74804 10.9502 8.72394 10.9502 8.69985L10.9261 8.60347C10.902 8.50709 10.8779 8.41071 10.8538 8.31433L10.7816 8.07338C10.7575 7.977 10.7334 7.92881 10.7093 7.90471C10.6611 7.83243 10.5888 7.78424 10.5165 7.73605L10.3719 7.66376C10.3478 7.66376 10.2997 7.66376 10.2756 7.66376H10.2033C10.0105 7.71195 9.81776 7.88062 9.72138 8.12157L9.60091 8.77213L9.50453 9.42269C9.48043 9.56726 9.48043 9.68774 9.48043 9.73593C9.45634 9.90459 9.48043 10.001 9.48043 10.1214C9.48043 10.1937 9.48043 10.2901 9.48043 10.3865C9.48043 10.507 9.50453 10.5311 9.50453 10.5311C9.52862 10.5311 9.55272 10.5311 9.57681 10.5311L9.60091 9.8564H9.74548L9.72138 10.5552L9.74548 10.5792L9.72138 10.6274V10.6515V10.7479C9.72138 10.7961 9.76957 10.8202 9.79366 10.8443C9.81776 10.8443 9.81776 10.8443 9.84186 10.8202C9.84186 10.8202 9.86595 10.7961 9.89004 10.772C9.89004 10.772 9.89005 10.772 9.91414 10.7479V10.7238L9.93823 9.92869H10.0828L10.0587 10.7479C10.0587 10.7479 10.0587 10.7479 10.0587 10.772C10.0828 10.8202 10.1069 10.8202 10.1069 10.8443ZM10.9984 10.2419C10.9743 10.3383 10.9743 10.3865 10.9984 10.4106C10.9984 10.4106 11.0225 10.4347 11.0466 10.4347L11.0707 10.2178L10.9984 10.2419ZM11.3839 9.3986C11.5044 9.47088 11.5526 9.47088 11.5526 9.47088C11.5526 9.47088 11.5285 9.44679 11.5285 9.42269L11.408 9.35041L11.4803 9.22993C11.6008 9.30222 11.7213 9.32631 11.7454 9.32631C11.7454 9.32631 11.7213 9.30222 11.7213 9.27812L11.649 9.18174L11.8176 9.15765L11.8417 9.18174C11.9381 9.25403 12.0104 9.25403 12.0104 9.25403C12.0104 9.25403 11.9863 9.18174 11.914 9.08536C11.8176 9.01308 11.7935 8.98898 11.8176 8.94079C11.8417 8.8926 11.914 8.9167 11.9622 8.94079C12.0586 8.98898 12.1068 8.98898 12.1309 9.01308C12.1309 8.98898 12.1068 8.96489 12.0586 8.8926L11.9622 8.82032L12.0345 8.69985C12.2032 8.82032 12.2995 8.82032 12.3477 8.79623C12.3477 8.79623 12.3718 8.79622 12.3477 8.77213C12.3477 8.69985 12.2513 8.60347 12.0827 8.53118H12.0586C11.9863 8.50709 11.9622 8.50709 11.914 8.48299C11.8899 8.48299 11.8899 8.4589 11.8417 8.4589L11.8899 8.33842C11.9381 8.36252 11.9622 8.36252 11.9863 8.36252C11.9863 8.36252 12.0104 8.36252 12.0104 8.38661V8.36252C12.0345 8.38661 12.0586 8.38661 12.0586 8.38661L12.1068 8.41071H12.155C12.2032 8.41071 12.2513 8.4348 12.2995 8.41071H12.3236C12.3718 8.41071 12.3959 8.38661 12.3959 8.36252C12.3959 8.33842 12.3718 8.29023 12.1791 8.19385C12.1068 8.16976 12.0345 8.14566 11.9381 8.09747L12.0104 7.977C12.2032 8.09747 12.3718 8.12157 12.4682 8.07338C12.4923 8.07338 12.4923 8.04928 12.4923 8.04928C12.4923 8.04928 12.4682 8.00109 12.3718 7.9529C12.2754 7.92881 12.155 7.88062 12.0586 7.83243L12.1068 7.71195C12.42 7.85652 12.4923 7.83243 12.5164 7.80833C12.5405 7.78424 12.5405 7.76014 12.5164 7.71195C12.42 7.68786 12.3236 7.66376 12.2273 7.61557L12.2754 7.4951C12.5405 7.61557 12.6851 7.56738 12.7092 7.54329C12.7092 7.54329 12.7092 7.51919 12.661 7.471C12.5405 7.44691 12.42 7.39872 12.3477 7.35053L12.3959 7.23005C12.7092 7.37462 12.8537 7.37462 12.8778 7.35053C12.8778 7.35053 12.8778 7.32643 12.8537 7.25415C12.8055 7.23005 12.7814 7.20596 12.7332 7.18186C12.5164 7.06139 12.3236 6.91682 11.9863 6.77225C11.7213 6.62768 11.4562 6.62768 11.2876 6.74816C11.1912 6.82044 11.143 6.91682 11.1671 7.0132L11.2153 7.977C11.1912 8.07338 11.1671 8.16976 11.0707 8.21795C11.0466 8.21795 11.0225 8.24204 10.9984 8.24204L11.0225 8.29023L11.0707 8.50709C11.0707 8.55528 11.0948 8.57937 11.0948 8.60347L11.1189 8.77213C11.3357 8.74803 11.5044 8.69985 11.5767 8.21795L11.6008 7.25415H11.7454L11.7213 8.21795C11.6249 8.79622 11.3839 8.84441 11.143 8.8926L11.2153 9.30222C11.2394 9.32631 11.2394 9.35041 11.2635 9.3745L11.3116 9.35041L11.3839 9.3986ZM9.1431 9.32631L9.02263 9.3986C9.02263 9.3986 9.02263 9.42269 9.02263 9.44679C9.02263 9.44679 9.07082 9.44679 9.19129 9.3745L9.26358 9.32631L9.31177 9.42269C9.33586 9.3986 9.35996 9.3745 9.38405 9.35041C9.40815 9.22993 9.40815 9.08536 9.43224 8.94079C9.19129 8.8926 8.92625 8.79623 8.85396 8.24204L8.87806 7.27824H9.02263L8.99853 8.24204C9.04672 8.69985 9.23948 8.77213 9.45634 8.82032C9.48043 8.65166 9.50453 8.4589 9.55272 8.26614C9.50453 8.24204 9.48043 8.24204 9.45634 8.21795C9.40815 8.16976 9.35996 8.07338 9.38405 8.00109L9.48043 7.06139C9.50453 6.96501 9.45634 6.84454 9.35996 6.77225C9.19129 6.62768 8.92625 6.62768 8.6612 6.77225C8.34797 6.91682 8.10702 7.0373 7.91426 7.15777C7.86607 7.18186 7.81788 7.20596 7.79379 7.23005C7.7456 7.30234 7.76969 7.32643 7.76969 7.32643C7.79379 7.35053 7.93836 7.35053 8.25159 7.23005L8.29978 7.35053C8.2034 7.39872 8.08293 7.42281 7.98655 7.44691C7.93836 7.4951 7.93836 7.51919 7.93836 7.51919C7.96245 7.54329 8.08293 7.59148 8.37206 7.4951L8.42025 7.61557C8.32387 7.66376 8.22749 7.68786 8.13111 7.68786C8.13111 7.73605 8.13111 7.76014 8.13111 7.78424C8.15521 7.80833 8.2275 7.83243 8.54073 7.71195L8.58892 7.83243C8.46844 7.88062 8.37206 7.92881 8.25159 7.92881C8.15521 7.977 8.13111 8.02519 8.13111 8.02519C8.13111 8.02519 8.13112 8.02519 8.15521 8.04928C8.25159 8.07338 8.42025 8.07338 8.61301 7.9529L8.6853 8.07338C8.61301 8.12157 8.51663 8.14566 8.44435 8.16976C8.22749 8.24204 8.2034 8.31433 8.2034 8.31433C8.2034 8.33842 8.2275 8.33842 8.27569 8.36252H8.29978C8.34797 8.38661 8.37206 8.36252 8.44435 8.36252H8.49254C8.49254 8.36252 8.49254 8.36252 8.51663 8.36252C8.54073 8.33842 8.56482 8.33842 8.61301 8.33842L8.6853 8.31433H8.70939L8.73349 8.4348C8.6853 8.4348 8.6853 8.4589 8.6612 8.4589C8.63711 8.4589 8.61301 8.48299 8.54073 8.50709C8.34797 8.55528 8.27568 8.67575 8.25159 8.72394C8.25159 8.74804 8.25159 8.77213 8.25159 8.77213C8.27568 8.79622 8.34797 8.79623 8.46844 8.72394L8.56482 8.67575L8.63711 8.79623C8.61301 8.82032 8.56482 8.84442 8.54073 8.84442L8.51663 8.86851C8.46844 8.9167 8.46844 8.94079 8.46844 8.96489C8.46844 8.96489 8.46844 8.96489 8.49254 8.96489C8.51663 8.96489 8.58892 8.96489 8.75758 8.9167C8.82987 8.8926 8.85396 8.94079 8.85396 8.96489C8.87806 9.03717 8.82987 9.03717 8.78168 9.06127L8.6612 9.03717C8.61301 9.08536 8.61301 9.10946 8.61301 9.10946C8.61301 9.10946 8.61301 9.10946 8.63711 9.10946C8.6853 9.13355 8.78168 9.10946 8.90215 9.03717L8.97444 9.15765L8.90215 9.20584C8.85396 9.25403 8.85396 9.27812 8.85396 9.27812C8.85396 9.27812 8.95034 9.27812 9.09491 9.20584L9.1431 9.32631ZM12.4682 8.48299L12.661 8.57937C12.8055 8.65166 12.8778 8.65166 12.9019 8.62756C12.9019 8.62756 12.926 8.62756 12.926 8.60347L12.5646 8.41071L12.6369 8.29023L13.0465 8.50709C13.191 8.57937 13.3115 8.60347 13.3597 8.55528L12.9742 8.38661L13.0465 8.26614L13.5525 8.53118C13.6489 8.57937 13.697 8.57937 13.7211 8.55528C13.7452 8.53118 13.7452 8.53118 13.7452 8.50709L13.3838 8.33842L13.432 8.21795L13.8175 8.41071C13.9862 8.48299 14.0826 8.48299 14.1308 8.4348L13.7452 8.29023L13.7934 8.16976L14.2753 8.33842C14.4681 8.38661 14.5645 8.41071 14.6126 8.36252C14.6126 8.36252 14.6367 8.33842 14.6367 8.31433C14.6367 8.31433 14.6367 8.31433 14.6126 8.31433L14.2271 8.19385C14.203 8.19385 14.203 8.19385 14.1789 8.16976L14.2271 8.04928L14.2753 8.07338C14.3235 8.07338 14.3476 8.09747 14.3958 8.09747C14.4922 8.12157 14.5645 8.14566 14.6608 8.16976L14.7813 8.21795C14.8295 8.24204 14.9018 8.24204 14.95 8.24204H14.9982C15.1668 8.24204 15.2391 8.19385 15.2391 8.16976C15.2391 8.16976 15.1909 8.09747 14.9982 8.07338C13.8657 7.78424 13.3597 7.56738 12.9742 7.35053C12.9742 7.39872 12.9501 7.42281 12.926 7.44691C12.9019 7.4951 12.8296 7.4951 12.7814 7.4951C12.8055 7.56738 12.7814 7.59148 12.7573 7.61557C12.7332 7.66376 12.661 7.68786 12.5887 7.71195C12.5887 7.78424 12.5887 7.85652 12.5405 7.90471C12.5405 7.90471 12.5164 7.90471 12.5164 7.92881C12.5646 7.977 12.5646 8.02519 12.5646 8.04928C12.5646 8.09747 12.5405 8.14566 12.4923 8.16976C12.4682 8.19385 12.4441 8.19385 12.3959 8.19385C12.4682 8.26614 12.4682 8.33842 12.4441 8.38661C12.5164 8.4348 12.4923 8.4589 12.4682 8.48299ZM7.67331 8.53118C7.7215 8.55527 7.79379 8.55528 7.93836 8.50709L8.13111 8.41071C8.10702 8.38661 8.08292 8.36252 8.08292 8.33842C8.05883 8.29023 8.05883 8.21795 8.15521 8.14566C8.13112 8.14566 8.08293 8.12157 8.05883 8.12157C8.01064 8.09747 7.98655 8.04928 7.98655 7.977C7.98655 7.9529 8.01064 7.90471 8.03474 7.85652C8.03474 7.85652 8.01064 7.85652 8.01064 7.83243C7.96245 7.78424 7.93836 7.73605 7.96245 7.63967C7.89017 7.63967 7.81788 7.59148 7.79379 7.54329C7.79379 7.51919 7.76969 7.471 7.79379 7.42281C7.7456 7.42281 7.67331 7.39872 7.64922 7.35053C7.62512 7.32643 7.62512 7.30234 7.62512 7.25415C7.21551 7.471 6.73361 7.66376 5.57705 7.88062C5.38429 7.90471 5.3361 7.9529 5.3361 7.977C5.3361 8.00109 5.40839 8.04928 5.57705 8.07338H5.62524C5.67343 8.07338 5.74572 8.04928 5.79391 8.04928L5.91438 8.02519C6.01076 8.00109 6.10714 7.977 6.20352 7.9529C6.25171 7.9529 6.27581 7.92881 6.324 7.92881H6.37219L6.39628 8.04928C6.37219 8.04928 6.37219 8.04928 6.34809 8.04928L5.93848 8.14566C5.93848 8.16976 5.96257 8.16976 5.96257 8.19385C6.01076 8.21795 6.13124 8.21795 6.2999 8.16976L6.7818 8.00109L6.82999 8.12157L6.44447 8.24204C6.49266 8.26614 6.61313 8.29023 6.7577 8.21795L7.16732 8.04928L7.21551 8.16976L6.85408 8.31433C6.85408 8.33842 6.85408 8.36252 6.87818 8.36252C6.90227 8.38661 6.97456 8.38661 7.04684 8.33842L7.57693 8.09747L7.62512 8.21795L7.21551 8.4589C7.2637 8.48299 7.40827 8.48299 7.52874 8.41071L7.96245 8.21795L8.01064 8.33842L7.67331 8.53118ZM10.396 7.51919C10.4201 7.51919 10.4683 7.54329 10.4924 7.54329L10.5406 6.16988C10.5165 6.16988 10.5165 6.16988 10.4924 6.16988C10.4683 6.16988 10.4201 6.19397 10.396 6.19397V7.51919ZM10.1551 6.16988L10.131 7.54329H10.1551C10.1792 7.54329 10.1792 7.54329 10.2033 7.54329H10.2274L10.2515 6.21807C10.2515 6.19397 10.2033 6.19397 10.1551 6.16988ZM10.9743 5.95302C10.9984 5.95302 11.0225 5.95302 11.0466 5.95302C11.143 5.97712 11.2153 6.02531 11.3116 6.0735C11.3839 6.12169 11.4321 6.14578 11.5044 6.16988C11.5526 6.16988 11.6008 6.14578 11.6249 6.09759C11.649 6.0735 11.6249 6.00121 11.5767 5.97712C11.4321 5.90483 11.143 5.90483 10.9743 5.95302C10.9261 5.95302 10.8538 5.95302 10.7816 5.97712C10.7575 5.97712 10.7334 5.97712 10.7093 6.00121V6.02531H10.7334C10.8057 5.97712 10.8779 5.95302 10.9743 5.95302ZM9.43224 5.88074C9.31177 5.88074 9.19129 5.90483 9.11901 5.92893C9.07082 5.95302 9.07082 6.00121 9.09491 6.0494C9.11901 6.09759 9.1672 6.12169 9.21539 6.12169C9.26358 6.12169 9.33586 6.0735 9.40815 6.0494C9.48043 6.00121 9.57681 5.95302 9.67319 5.95302C9.79366 5.92893 9.89004 5.97712 10.0105 6.00121C10.0346 6.00121 10.0587 6.02531 10.0828 6.02531V6.00121C10.0587 6.00121 10.0105 5.97712 9.96233 5.97712C9.89005 5.95302 9.81776 5.95302 9.76957 5.92893C9.625 5.88074 9.52862 5.88074 9.43224 5.88074ZM10.3478 6.0735C10.3719 6.0735 10.4201 6.0494 10.4683 6.0494C10.4924 6.0494 10.5165 6.02531 10.5406 6.02531V6.00121C10.4201 6.02531 10.3478 6.02531 10.3238 6.02531C10.2997 6.02531 10.2515 6.02531 10.1551 6.00121V6.02531C10.1792 6.02531 10.1792 6.02531 10.2033 6.02531C10.2515 6.02531 10.2997 6.0494 10.3238 6.0494L10.3478 6.0735ZM10.1792 5.83255L10.5888 5.76026C10.5888 5.73617 10.5888 5.73617 10.5888 5.73617L10.1792 5.83255ZM10.1551 5.63979C10.1551 5.66388 10.1551 5.66388 10.1551 5.68798L10.6129 5.5916C10.6129 5.5675 10.6129 5.5675 10.6129 5.54341L10.1551 5.63979ZM10.131 5.47113C10.131 5.49522 10.131 5.49522 10.131 5.51931L10.637 5.39884C10.637 5.37474 10.637 5.37475 10.637 5.35065L10.131 5.47113ZM10.1069 5.30246C10.1069 5.32656 10.1069 5.32656 10.1069 5.35065L10.6611 5.23018C10.6611 5.20608 10.6611 5.20608 10.6611 5.18199L10.1069 5.30246ZM10.0828 5.1097C10.0828 5.1338 10.0828 5.1338 10.0828 5.15789L10.6611 5.01332C10.6611 4.98923 10.6611 4.98923 10.6611 4.96513L10.0828 5.1097ZM10.0828 4.94104V4.96513L10.6611 4.82056C10.6611 4.79647 10.6611 4.79647 10.6611 4.77237L10.0828 4.94104ZM10.1069 4.77237C10.1069 4.79647 10.1069 4.79647 10.1069 4.82056L10.6611 4.67599V4.6519L10.1069 4.77237ZM10.131 4.57961V4.60371L10.637 4.48323V4.45914L10.131 4.57961ZM10.1792 4.41095V4.43504L10.6129 4.33866V4.31457L10.1792 4.41095ZM10.2515 4.24228C10.2274 4.24228 10.2274 4.24228 10.2515 4.24228V4.24228ZM10.2997 4.02543C10.3238 4.02543 10.3478 4.02543 10.3719 4.02543C10.4924 4.02543 10.5888 3.92905 10.5888 3.83267C10.5888 3.78448 10.5647 3.73629 10.5406 3.6881C10.4924 3.63991 10.4442 3.61582 10.396 3.61582C10.3238 3.61582 10.2756 3.63991 10.2274 3.6881C10.1792 3.73629 10.1551 3.78448 10.1551 3.83267C10.1551 3.90495 10.2033 3.97724 10.2515 4.00133L10.2997 4.02543ZM9.76957 19.3739L9.48043 19.1089L9.52862 19.0607C9.55272 19.0366 9.60091 18.9884 9.6491 18.9402C9.67319 18.9161 9.69729 18.892 9.72138 18.8679C9.6491 18.892 9.60091 18.892 9.55272 18.9161H9.52862H9.50453C9.48043 18.9161 9.48043 18.9161 9.45634 18.9161C9.38405 18.9161 9.28767 18.892 9.19129 18.7715C9.1431 18.7233 9.11901 18.627 9.09491 18.5547C9.09491 18.5065 9.07082 18.4583 9.07082 18.4342C9.02263 18.3619 8.99853 18.3137 8.92625 18.2414L8.90215 18.0969L8.99853 18.0728C9.19129 18.0005 9.40815 18.0246 9.55272 18.0728L9.625 17.9764C9.6491 17.9523 9.6491 17.9282 9.67319 17.9041C9.69729 17.8559 9.72138 17.8077 9.74548 17.7595C9.74548 17.7595 9.74548 17.7595 9.74548 17.7354L9.69729 17.7113L9.625 17.6632C9.60091 17.6391 9.57681 17.615 9.57681 17.5909L9.55272 17.5427L9.52862 17.4222H9.40815L9.43224 17.3258L9.38405 17.2776L9.28767 17.109V16.9885L9.31177 16.9162L9.35996 16.868L9.38405 16.8198L9.48043 16.7716V16.7475L9.38405 16.6994L9.43224 16.6512L9.45634 16.603L9.50453 16.5548L9.52862 16.5307C9.52862 16.5307 9.52862 16.5307 9.52862 16.5066L9.55272 16.4825L9.69729 16.4343L9.79366 16.3379H9.81776H9.86595L9.93823 16.362C9.96233 16.362 9.96233 16.362 9.98642 16.362C10.0105 16.362 10.0105 16.362 10.0346 16.362H10.0587L10.0828 16.3379L10.1792 16.362L10.2033 16.3861C10.2033 16.3861 10.2033 16.3861 10.2274 16.3861C10.2274 16.3861 10.2274 16.3861 10.2515 16.3861H10.2756V16.362H10.3238C10.396 16.362 10.4683 16.362 10.5165 16.4102L10.5406 16.4343L10.6611 16.5548C10.6852 16.5548 10.6852 16.5789 10.7093 16.603L10.7334 16.6271L10.7575 16.6753L10.8057 16.6994V16.7957L10.8297 16.8439V16.868L10.9261 16.8921L10.9502 16.9885L10.9743 17.0126L10.9984 17.1331L10.9502 17.1572V17.1813V17.2054L10.8779 17.3258V17.3499V17.4463L10.8057 17.5427L10.7093 17.5668L10.6852 17.6632H10.5406H10.5165L10.4924 17.7113L10.4201 17.7354C10.3478 17.8559 10.3238 18.0005 10.3478 18.121V18.1691C10.4442 18.1451 10.5406 18.1451 10.5888 18.1691C10.8297 18.2896 10.8779 18.2896 11.0707 18.2655L11.143 18.386C10.8779 18.627 10.8538 18.6751 10.8297 18.6992C10.8297 18.7233 10.8057 18.7233 10.7575 18.7715C10.7093 18.7956 10.6852 18.8197 10.6611 18.8438C10.6129 18.892 10.5406 18.9402 10.4683 18.9643C10.2756 19.0125 10.2033 18.9884 10.1069 18.9884H10.0828L9.76957 19.3739ZM9.69729 19.0848L9.76957 19.157L10.0105 18.8438C10.0346 18.7956 10.0587 18.651 10.0346 18.6029L10.0105 18.5788V18.5547V18.5306C9.98642 18.4583 9.93823 18.386 9.93823 18.3137V18.2655C9.93823 18.1932 9.98642 18.0969 10.0346 18.0246C10.0346 18.0005 10.0346 17.9764 10.0346 17.9764C10.0105 18.0005 9.98643 18.0246 9.96233 18.0487C9.93824 18.0728 9.93824 18.0969 9.91414 18.121C9.89005 18.1692 9.86595 18.1932 9.86595 18.2414C9.84186 18.2896 9.89005 18.3378 9.91414 18.386C9.93824 18.4342 9.98642 18.5065 9.98642 18.5788C9.98642 18.6029 9.98642 18.6029 9.98642 18.627H10.0105L9.96233 18.7474C9.93824 18.7715 9.91414 18.8197 9.89004 18.8438C9.84186 18.9402 9.76957 19.0125 9.72138 19.0607L9.69729 19.0848ZM10.1551 18.892C10.2756 18.9161 10.3238 18.9161 10.4683 18.892C10.5165 18.8679 10.5647 18.8438 10.6129 18.7956C10.637 18.7715 10.6852 18.7474 10.7093 18.7233C10.7334 18.6992 10.7575 18.6992 10.7575 18.6751C10.7816 18.651 10.7816 18.627 10.9743 18.4583C10.8538 18.4583 10.7816 18.4342 10.5888 18.3378C10.5647 18.3378 10.4442 18.3137 10.3478 18.386L10.2033 18.5547C10.2033 18.5788 10.2033 18.5788 10.2033 18.6029C10.2756 18.5788 10.3719 18.5547 10.4442 18.5547C10.5406 18.5547 10.637 18.5306 10.7093 18.4824L10.7816 18.6029C10.6852 18.6751 10.5647 18.6751 10.4683 18.6992C10.3719 18.6992 10.2997 18.7233 10.2033 18.7474C10.1792 18.7956 10.1551 18.8438 10.1551 18.892ZM9.1431 18.1691C9.1672 18.2173 9.19129 18.2414 9.23948 18.2896C9.26358 18.3378 9.26358 18.4101 9.28767 18.4583C9.28767 18.5306 9.31177 18.6029 9.33586 18.627V18.651C9.38405 18.7233 9.43224 18.7233 9.50453 18.7233C9.52862 18.7233 9.55272 18.7233 9.55272 18.7233C9.60091 18.7233 9.67319 18.6992 9.72138 18.6751C9.74548 18.6751 9.74547 18.6751 9.76957 18.651C9.6491 18.627 9.55272 18.5547 9.48043 18.4824C9.40815 18.4101 9.35996 18.3619 9.26358 18.3619V18.2173C9.40815 18.2173 9.48043 18.3137 9.55272 18.386C9.625 18.4583 9.69729 18.5306 9.81776 18.5306C9.81776 18.5065 9.79366 18.4583 9.76957 18.4342C9.74547 18.386 9.69729 18.3137 9.69729 18.2414C9.625 18.2414 9.40815 18.1451 9.1431 18.1691ZM10.1069 18.2414V18.2655C10.1069 18.2896 10.131 18.3378 10.131 18.386L10.2274 18.2655C10.2515 18.2414 10.2756 18.2414 10.2756 18.2173H10.2515C10.2274 18.2173 10.2274 18.1932 10.2033 18.1932C10.1792 18.1691 10.1551 18.1691 10.131 18.1451C10.1069 18.1691 10.1069 18.1932 10.1069 18.2173V18.2414ZM9.6491 18.0969C9.67319 18.121 9.72138 18.121 9.74548 18.1451V18.121L9.76957 18.0969C9.74547 18.0969 9.74548 18.0969 9.72138 18.0969H9.69729H9.6491ZM10.1792 17.9282C10.1792 17.9764 10.1792 18.0005 10.2033 18.0246C10.2033 17.9764 10.2033 17.9523 10.2274 17.9041L10.1792 17.9282ZM9.84186 17.8077C9.84186 17.8318 9.81776 17.88 9.81776 17.9041C9.84186 17.88 9.86595 17.88 9.89004 17.8559L9.93823 17.88C9.96233 17.8559 9.98642 17.8318 10.0105 17.8077L9.96233 17.88L9.84186 17.8077ZM10.1792 17.6632L10.2274 17.6873H10.2997L10.3719 17.6632C10.396 17.6632 10.396 17.6391 10.4201 17.6391C10.4442 17.615 10.4442 17.615 10.4683 17.5909L10.4924 17.5668L10.5888 17.5427V17.4945V17.4463L10.6852 17.4222L10.7093 17.3981V17.374L10.4924 17.3981V17.5186L10.396 17.5427L10.3478 17.5909L10.1792 17.6632C10.1792 17.6391 10.1792 17.6391 10.1792 17.6632ZM9.81776 17.6391H9.89004H9.96233L9.84186 17.5909L9.79366 17.5427L9.91414 17.4704L9.93823 17.4945L10.0105 17.5186L9.98642 17.4945L9.93823 17.4463L9.86595 17.4222L9.81776 17.4463L9.76957 17.4222L9.67319 17.4463C9.67319 17.4704 9.67319 17.4945 9.67319 17.5186L9.69729 17.5668C9.72138 17.5909 9.72138 17.5909 9.74548 17.615L9.81776 17.6391ZM9.86595 17.2776L10.0105 17.3258L10.1069 17.3981L10.131 17.4222L10.1551 17.3981V17.374L10.0828 17.3499L9.96233 17.2294L9.93823 17.2054L9.86595 17.1572H9.84186V17.0367H9.89004L10.0346 17.1331L10.0587 17.1813L10.1551 17.2776L10.2274 17.3017L10.2515 17.3499L10.2756 17.3258V17.3017L10.2274 17.2535V17.2054L10.2033 17.1572H10.1792L10.0587 17.0608L9.96233 17.0367L9.93823 16.9885L9.89004 16.9403L9.84186 16.9162H9.81776L9.79366 16.9644V16.9885V17.0367L9.81776 17.0849V17.1572V17.2294L9.86595 17.2776ZM9.52862 17.3017H9.57681V17.2776L9.52862 17.1572L9.50453 16.9885V16.9403L9.60091 16.9644L9.57681 16.9403L9.52862 16.8921H9.48043L9.43224 16.9403L9.40815 16.9644V17.0367L9.45634 17.109V17.1331L9.50453 17.2054L9.52862 17.3017ZM10.3719 17.1813L10.4201 17.2535L10.4924 17.2294H10.5406V17.2054V17.1572L10.5165 17.109L10.4924 17.0849L10.4442 17.0608L10.5165 16.9403L10.5647 16.9885L10.6129 17.0367L10.637 17.1331V17.2054V17.2294H10.6611L10.7334 17.109V17.0849V17.0126V16.9885L10.6611 16.9644V16.9403V16.9162L10.6129 16.9403L10.4442 16.868L10.396 16.9885L10.3719 17.0367L10.3478 17.0849L10.3719 17.1572V17.1813ZM9.6491 17.0126L9.69729 17.2054V17.1331L9.67319 17.0849V17.0367L9.6491 17.0126ZM10.0587 16.9162H10.1069L10.2274 16.9885L10.2515 16.9162L10.2756 16.868V16.8439V16.8198L10.2033 16.7716L10.1551 16.7475L10.1069 16.8198L10.0587 16.9162ZM9.67319 16.8439L9.69729 16.868L9.72138 16.8198L9.79366 16.7716L9.81776 16.7235L9.84186 16.6753L9.79366 16.6994L9.76957 16.7235L9.67319 16.8439ZM10.4442 16.7235L10.6129 16.7957L10.5888 16.7475L10.4683 16.7235H10.4442ZM9.55272 16.6994C9.55272 16.7235 9.57681 16.7235 9.57681 16.7475V16.7235L9.625 16.6994L9.67319 16.6512L9.72138 16.603L9.60091 16.6271V16.6512L9.55272 16.6994ZM10.2515 16.6512L10.2997 16.6753L10.396 16.7235H10.4442L10.396 16.5789H10.4201L10.396 16.5548L10.3478 16.5307L10.3238 16.5548V16.6271H10.2756L10.2515 16.6512ZM10.1069 16.6271L10.2274 16.6512L10.2033 16.6271H10.1551V16.5789V16.5548C10.1551 16.5548 10.1551 16.5548 10.131 16.5548L10.1069 16.6271ZM9.74548 16.5789L9.81776 16.5548L9.86595 16.5066H9.84186H9.81776L9.79366 16.5307C9.79366 16.5307 9.76957 16.5548 9.74548 16.5789Z" fill="#A4ABB6"/>
</svg>