<?xml version="1.0" encoding="UTF-8"?>
<svg xmlns="http://www.w3.org/2000/svg" fill="none" height="26" viewBox="0 0 98 26" width="98"><link xmlns="" type="text/css" rel="stylesheet" id="dark-mode-custom-link"/><link xmlns="" type="text/css" rel="stylesheet" id="dark-mode-general-link"/><style xmlns="" lang="en" type="text/css" id="dark-mode-custom-style"/><style xmlns="" lang="en" type="text/css" id="dark-mode-native-style"/><style xmlns="" lang="en" type="text/css" id="dark-mode-native-sheet"/>
<path d="M6.4092 2.34834C6.4092 2.70059 6.14501 2.92076 5.9542 3.14092C4.72129 4.53528 4.07549 6.16447 3.76726 7.9698C3.23887 11.0227 4.07549 13.7087 5.88081 16.1011C7.84759 18.6843 10.4895 20.1227 13.7186 20.5337C15.9642 20.8273 18.1365 20.4163 20.0592 19.4182C22.7159 18.0532 24.7267 15.969 25.666 12.9895C26.7522 9.51093 26.2531 6.31125 24.2423 3.33172C23.7873 2.65656 23.2442 2.04011 22.5838 1.51172C23.4497 1.65849 24.1102 2.21624 24.756 2.71527C26.5613 4.15366 27.853 5.95899 28.7776 8.1019C29.4528 9.67238 29.5262 11.3016 29.6583 12.9308C29.7464 14.0169 29.6143 15.1618 29.2326 16.1305C28.6455 17.6276 27.9557 19.1247 26.8989 20.4016C24.5359 23.2784 21.527 24.9956 17.9016 25.6855C13.381 26.5515 9.24195 25.6415 5.57258 22.8381C3.82597 21.5024 2.3729 19.8732 1.47758 17.8477C0.743703 16.2039 0.244671 14.4572 0.259349 12.6519C0.288703 9.76045 1.27209 7.17722 3.04807 4.87286C3.87 3.8014 4.85339 2.93543 5.9542 2.1722C6.07162 2.34833 6.24775 2.33366 6.4092 2.34834Z" fill="#A4ABB6"/>
<path d="M15.524 20.3277C16.1698 19.1242 16.434 17.8766 15.9497 16.5409C15.6121 15.6163 14.9663 14.9117 14.1884 14.398C11.9574 12.9596 10.4309 10.9929 9.9906 8.39495C9.60899 6.1493 10.0787 3.99171 11.4437 2.08364C11.9133 1.42316 12.5298 0.924123 13.0729 0.322347C13.2637 0.102185 13.5866 -0.0886208 13.8361 0.0434763C14.0269 0.146218 13.8508 0.469122 13.7921 0.703962C13.3077 2.77348 13.9975 4.40268 15.8763 5.57688C18.1219 6.98591 19.5016 9.04076 20.0006 11.58C20.3382 13.2679 20.0447 14.9998 19.2374 16.585C18.4595 18.1114 17.4468 19.4471 15.8763 20.269C15.7735 20.313 15.7001 20.4598 15.524 20.3277Z" fill="#A4ABB6"/>
<path d="M44.8202 4.46024C44.6 4.53363 44.3945 4.65105 44.1744 4.6804C43.0002 4.87121 42.6479 5.23814 42.6479 6.41234C42.6626 9.58267 42.692 12.7677 42.7066 15.938C42.7066 17.3911 42.9415 18.7854 43.7928 20.0037C44.8055 21.4274 46.1558 22.308 47.9171 22.5722C50.06 22.9098 51.9681 22.4842 53.7588 21.2512C54.8889 20.488 55.4467 19.4019 55.6815 18.1543C56.386 14.4409 56.1218 10.6982 55.9897 6.97008C55.9751 6.60315 56.0191 6.22154 55.9457 5.88395C55.7109 4.8125 55.4467 4.90056 54.155 4.6804C53.8762 4.63637 53.5533 4.79782 53.2891 4.31346C55.6375 4.15201 57.8978 4.53363 60.1875 4.32814C60.1434 4.78314 59.8352 4.66572 59.6297 4.66572C58.5142 4.69508 58.0592 5.1354 58.0592 6.26556C58.0446 9.02493 58.0886 11.799 58.0299 14.5583C57.9859 16.2609 57.8097 17.9488 57.0465 19.5193C56.5328 20.5761 55.7696 21.3687 54.8155 21.9998C53.157 23.1006 51.337 23.5556 49.3555 23.6143C47.286 23.673 45.2899 23.4529 43.4699 22.4108C41.5618 21.3246 40.4316 19.6514 40.1674 17.4791C39.8152 14.4996 40.1087 11.4907 40.0207 8.49654C39.9913 7.55718 39.8299 6.61782 39.8445 5.67847C39.8445 5.06201 39.1547 4.72443 38.0979 4.66572C37.8484 4.65105 37.5842 4.76846 37.2319 4.44556C39.8445 4.46024 42.325 4.46024 44.8202 4.46024Z" fill="#A4ABB6"/>
<path d="M89.9386 23.6148C87.5902 23.7469 85.1978 23.38 82.8934 22.47C79.591 21.1637 77.316 18.9033 76.5821 15.3954C75.9363 12.3278 76.949 9.67122 79.0773 7.38153C80.8386 5.48814 83.0695 4.63685 85.5647 4.22588C87.0765 3.97636 88.6029 3.82959 90.1147 3.96169C91.7586 4.10846 93.4171 4.13782 95.0463 4.50475C95.5894 4.62217 96.1912 4.72492 96.7636 4.68088C97.0865 4.65153 97.1452 4.81298 97.1012 5.07718C96.9104 6.33944 96.8223 7.61638 96.8076 8.89332C96.8076 9.08412 96.9251 9.39235 96.5728 9.37767C96.2939 9.37767 96.2352 9.06944 96.2499 8.89332C96.3233 6.67702 94.7821 5.88443 93.0502 5.48814C89.9533 4.76895 86.827 4.59282 83.774 5.72298C81.5137 6.5596 80.1634 8.21815 79.5176 10.4932C79.0039 12.3132 79.0332 14.1625 79.6644 15.9385C80.1781 17.3916 81.0734 18.6832 82.2623 19.6959C83.7153 20.9288 85.3739 21.8095 87.2526 22.1911C89.4542 22.6314 91.6705 22.6754 93.8575 22.0737C95.2078 21.7067 96.1471 20.8408 96.5288 19.4464C96.5581 19.329 96.6168 19.2262 96.6462 19.1235C96.6902 18.962 96.6609 18.7566 96.925 18.7859C97.2039 18.8153 97.1159 19.0354 97.1159 19.1822C97.1159 20.0482 96.8076 20.8701 96.6755 21.7067C96.5728 22.3966 96.3086 22.9984 95.5454 23.1745C94.9436 23.3066 94.3271 23.4093 93.7107 23.4827C92.4925 23.6148 91.2742 23.6588 89.9386 23.6148Z" fill="#A4ABB6"/>
<path d="M69.126 23.0139C66.6162 23.5129 64.1063 23.2194 61.5671 23.2634C61.6992 22.7644 62.0075 22.8818 62.2423 22.8818C62.8734 22.8818 63.2991 22.6029 63.4165 21.9718C63.5046 21.5462 63.5926 21.1205 63.622 20.6949C63.7981 16.321 63.7394 11.9618 63.7394 7.58791C63.7394 7.00081 63.6807 6.42839 63.622 5.84129C63.5486 5.13678 62.9321 4.72581 61.9634 4.68178C61.6405 4.6671 61.2736 4.84323 61.0094 4.47629C61.2149 4.19742 61.5231 4.25613 61.802 4.25613C64.2678 4.35887 66.7336 4.2121 69.1994 4.27081C70.9754 4.31484 72.766 4.52032 74.3219 5.5771C75.8777 6.63388 76.2152 8.38049 75.8336 9.96566C75.2759 12.3287 73.6027 13.547 71.3717 14.2221C70.1094 14.6037 68.8765 14.6624 67.5702 14.6037C67.6289 14.0753 67.9959 14.1781 68.2894 14.1928C69.7572 14.2662 71.0341 13.7965 72.2083 12.9012C73.2944 12.0499 73.8815 10.4647 73.544 9.11437C72.8688 6.32565 70.7699 5.04871 68.2307 5.09274C66.2346 5.1221 66.2346 5.10742 66.2346 7.11823C66.2346 11.6389 66.2933 16.1595 66.2346 20.6802C66.2052 22.5736 66.9685 22.8231 68.4656 22.9846C68.7004 23.0433 68.9059 23.0139 69.126 23.0139Z" fill="#A4ABB6"/>
<path d="M6.40926 2.34946C6.2478 2.3201 6.07168 2.34946 5.96893 2.17333C6.3799 1.90913 6.7028 1.49816 7.422 1.43945C6.99635 1.82107 6.70281 2.08526 6.40926 2.34946Z" fill="#A4ABB6"/>
</svg>